G04 #@! TF.GenerationSoftware,KiCad,Pcbnew,(6.0.0)*
G04 #@! TF.CreationDate,2022-05-01T21:30:31-04:00*
G04 #@! TF.ProjectId,ruler,72756c65-722e-46b6-9963-61645f706362,0.1*
G04 #@! TF.SameCoordinates,Original*
G04 #@! TF.FileFunction,Soldermask,Bot*
G04 #@! TF.FilePolarity,Negative*
%FSLAX46Y46*%
G04 Gerber Fmt 4.6, Leading zero omitted, Abs format (unit mm)*
G04 Created by KiCad (PCBNEW (6.0.0)) date 2022-05-01 21:30:31*
%MOMM*%
%LPD*%
G01*
G04 APERTURE LIST*
%ADD10C,7.400000*%
%ADD11C,5.300000*%
%ADD12C,4.200000*%
%ADD13C,3.200000*%
%ADD14C,3.700000*%
%ADD15C,6.300000*%
%ADD16C,7.543800*%
%ADD17C,5.994400*%
%ADD18C,4.673600*%
%ADD19C,3.276600*%
%ADD20C,3.962400*%
%ADD21C,5.334000*%
%ADD22C,2.946400*%
%ADD23C,1.397000*%
%ADD24C,3.454400*%
%ADD25C,1.625600*%
%ADD26C,1.320800*%
%ADD27C,1.498600*%
%ADD28C,2.235200*%
%ADD29C,1.981200*%
%ADD30C,1.778000*%
%ADD31C,2.540000*%
G04 APERTURE END LIST*
G36*
X86352400Y-107950000D02*
G01*
X86047600Y-107950000D01*
X86047600Y-104140000D01*
X86352400Y-104140000D01*
X86352400Y-107950000D01*
G37*
G36*
X96352400Y-107950000D02*
G01*
X96047600Y-107950000D01*
X96047600Y-104140000D01*
X96352400Y-104140000D01*
X96352400Y-107950000D01*
G37*
G36*
X95301600Y-107950000D02*
G01*
X95098400Y-107950000D01*
X95098400Y-106680000D01*
X95301600Y-106680000D01*
X95301600Y-107950000D01*
G37*
G36*
X94301600Y-107950000D02*
G01*
X94098400Y-107950000D01*
X94098400Y-106680000D01*
X94301600Y-106680000D01*
X94301600Y-107950000D01*
G37*
G36*
X89301600Y-107950000D02*
G01*
X89098400Y-107950000D01*
X89098400Y-106680000D01*
X89301600Y-106680000D01*
X89301600Y-107950000D01*
G37*
G36*
X90301600Y-107950000D02*
G01*
X90098400Y-107950000D01*
X90098400Y-106680000D01*
X90301600Y-106680000D01*
X90301600Y-107950000D01*
G37*
G36*
X87301600Y-107950000D02*
G01*
X87098400Y-107950000D01*
X87098400Y-106680000D01*
X87301600Y-106680000D01*
X87301600Y-107950000D01*
G37*
G36*
X91301600Y-107950000D02*
G01*
X91098400Y-107950000D01*
X91098400Y-105410000D01*
X91301600Y-105410000D01*
X91301600Y-107950000D01*
G37*
G36*
X88301600Y-107950000D02*
G01*
X88098400Y-107950000D01*
X88098400Y-106680000D01*
X88301600Y-106680000D01*
X88301600Y-107950000D01*
G37*
G36*
X92301600Y-107950000D02*
G01*
X92098400Y-107950000D01*
X92098400Y-106680000D01*
X92301600Y-106680000D01*
X92301600Y-107950000D01*
G37*
G36*
X93301600Y-107950000D02*
G01*
X93098400Y-107950000D01*
X93098400Y-106680000D01*
X93301600Y-106680000D01*
X93301600Y-107950000D01*
G37*
G36*
X79301600Y-107950000D02*
G01*
X79098400Y-107950000D01*
X79098400Y-106680000D01*
X79301600Y-106680000D01*
X79301600Y-107950000D01*
G37*
G36*
X85301600Y-107950000D02*
G01*
X85098400Y-107950000D01*
X85098400Y-106680000D01*
X85301600Y-106680000D01*
X85301600Y-107950000D01*
G37*
G36*
X83301600Y-107950000D02*
G01*
X83098400Y-107950000D01*
X83098400Y-106680000D01*
X83301600Y-106680000D01*
X83301600Y-107950000D01*
G37*
G36*
X78301600Y-107950000D02*
G01*
X78098400Y-107950000D01*
X78098400Y-106680000D01*
X78301600Y-106680000D01*
X78301600Y-107950000D01*
G37*
G36*
X81301600Y-107950000D02*
G01*
X81098400Y-107950000D01*
X81098400Y-105410000D01*
X81301600Y-105410000D01*
X81301600Y-107950000D01*
G37*
G36*
X82301600Y-107950000D02*
G01*
X82098400Y-107950000D01*
X82098400Y-106680000D01*
X82301600Y-106680000D01*
X82301600Y-107950000D01*
G37*
G36*
X77301600Y-107950000D02*
G01*
X77098400Y-107950000D01*
X77098400Y-106680000D01*
X77301600Y-106680000D01*
X77301600Y-107950000D01*
G37*
G36*
X80301600Y-107950000D02*
G01*
X80098400Y-107950000D01*
X80098400Y-106680000D01*
X80301600Y-106680000D01*
X80301600Y-107950000D01*
G37*
G36*
X84301600Y-107950000D02*
G01*
X84098400Y-107950000D01*
X84098400Y-106680000D01*
X84301600Y-106680000D01*
X84301600Y-107950000D01*
G37*
G36*
X208752400Y-80010000D02*
G01*
X208447600Y-80010000D01*
X208447600Y-76200000D01*
X208752400Y-76200000D01*
X208752400Y-80010000D01*
G37*
G36*
X210701600Y-77470000D02*
G01*
X210498400Y-77470000D01*
X210498400Y-76200000D01*
X210701600Y-76200000D01*
X210701600Y-77470000D01*
G37*
G36*
X212701600Y-77470000D02*
G01*
X212498400Y-77470000D01*
X212498400Y-76200000D01*
X212701600Y-76200000D01*
X212701600Y-77470000D01*
G37*
G36*
X215701600Y-77470000D02*
G01*
X215498400Y-77470000D01*
X215498400Y-76200000D01*
X215701600Y-76200000D01*
X215701600Y-77470000D01*
G37*
G36*
X216701600Y-77470000D02*
G01*
X216498400Y-77470000D01*
X216498400Y-76200000D01*
X216701600Y-76200000D01*
X216701600Y-77470000D01*
G37*
G36*
X218752400Y-80010000D02*
G01*
X218447600Y-80010000D01*
X218447600Y-76200000D01*
X218752400Y-76200000D01*
X218752400Y-80010000D01*
G37*
G36*
X209701600Y-77470000D02*
G01*
X209498400Y-77470000D01*
X209498400Y-76200000D01*
X209701600Y-76200000D01*
X209701600Y-77470000D01*
G37*
G36*
X214701600Y-77470000D02*
G01*
X214498400Y-77470000D01*
X214498400Y-76200000D01*
X214701600Y-76200000D01*
X214701600Y-77470000D01*
G37*
G36*
X213701600Y-78740000D02*
G01*
X213498400Y-78740000D01*
X213498400Y-76200000D01*
X213701600Y-76200000D01*
X213701600Y-78740000D01*
G37*
G36*
X217701600Y-77470000D02*
G01*
X217498400Y-77470000D01*
X217498400Y-76200000D01*
X217701600Y-76200000D01*
X217701600Y-77470000D01*
G37*
G36*
X211701600Y-77470000D02*
G01*
X211498400Y-77470000D01*
X211498400Y-76200000D01*
X211701600Y-76200000D01*
X211701600Y-77470000D01*
G37*
G36*
X227701600Y-77470000D02*
G01*
X227498400Y-77470000D01*
X227498400Y-76200000D01*
X227701600Y-76200000D01*
X227701600Y-77470000D01*
G37*
G36*
X224701600Y-77470000D02*
G01*
X224498400Y-77470000D01*
X224498400Y-76200000D01*
X224701600Y-76200000D01*
X224701600Y-77470000D01*
G37*
G36*
X226701600Y-77470000D02*
G01*
X226498400Y-77470000D01*
X226498400Y-76200000D01*
X226701600Y-76200000D01*
X226701600Y-77470000D01*
G37*
G36*
X220701600Y-77470000D02*
G01*
X220498400Y-77470000D01*
X220498400Y-76200000D01*
X220701600Y-76200000D01*
X220701600Y-77470000D01*
G37*
G36*
X219701600Y-77470000D02*
G01*
X219498400Y-77470000D01*
X219498400Y-76200000D01*
X219701600Y-76200000D01*
X219701600Y-77470000D01*
G37*
G36*
X221701600Y-77470000D02*
G01*
X221498400Y-77470000D01*
X221498400Y-76200000D01*
X221701600Y-76200000D01*
X221701600Y-77470000D01*
G37*
G36*
X223701600Y-78740000D02*
G01*
X223498400Y-78740000D01*
X223498400Y-76200000D01*
X223701600Y-76200000D01*
X223701600Y-78740000D01*
G37*
G36*
X225701600Y-77470000D02*
G01*
X225498400Y-77470000D01*
X225498400Y-76200000D01*
X225701600Y-76200000D01*
X225701600Y-77470000D01*
G37*
G36*
X222701600Y-77470000D02*
G01*
X222498400Y-77470000D01*
X222498400Y-76200000D01*
X222701600Y-76200000D01*
X222701600Y-77470000D01*
G37*
G36*
X79701600Y-77470000D02*
G01*
X79498400Y-77470000D01*
X79498400Y-76200000D01*
X79701600Y-76200000D01*
X79701600Y-77470000D01*
G37*
G36*
X80701600Y-77470000D02*
G01*
X80498400Y-77470000D01*
X80498400Y-76200000D01*
X80701600Y-76200000D01*
X80701600Y-77470000D01*
G37*
G36*
X83701600Y-78740000D02*
G01*
X83498400Y-78740000D01*
X83498400Y-76200000D01*
X83701600Y-76200000D01*
X83701600Y-78740000D01*
G37*
G36*
X81701600Y-77470000D02*
G01*
X81498400Y-77470000D01*
X81498400Y-76200000D01*
X81701600Y-76200000D01*
X81701600Y-77470000D01*
G37*
G36*
X88752400Y-80010000D02*
G01*
X88447600Y-80010000D01*
X88447600Y-76200000D01*
X88752400Y-76200000D01*
X88752400Y-80010000D01*
G37*
G36*
X84701600Y-77470000D02*
G01*
X84498400Y-77470000D01*
X84498400Y-76200000D01*
X84701600Y-76200000D01*
X84701600Y-77470000D01*
G37*
G36*
X82701600Y-77470000D02*
G01*
X82498400Y-77470000D01*
X82498400Y-76200000D01*
X82701600Y-76200000D01*
X82701600Y-77470000D01*
G37*
G36*
X85701600Y-77470000D02*
G01*
X85498400Y-77470000D01*
X85498400Y-76200000D01*
X85701600Y-76200000D01*
X85701600Y-77470000D01*
G37*
G36*
X78752400Y-80010000D02*
G01*
X78447600Y-80010000D01*
X78447600Y-76200000D01*
X78752400Y-76200000D01*
X78752400Y-80010000D01*
G37*
G36*
X86701600Y-77470000D02*
G01*
X86498400Y-77470000D01*
X86498400Y-76200000D01*
X86701600Y-76200000D01*
X86701600Y-77470000D01*
G37*
G36*
X87701600Y-77470000D02*
G01*
X87498400Y-77470000D01*
X87498400Y-76200000D01*
X87701600Y-76200000D01*
X87701600Y-77470000D01*
G37*
G36*
X226352400Y-107950000D02*
G01*
X226047600Y-107950000D01*
X226047600Y-104140000D01*
X226352400Y-104140000D01*
X226352400Y-107950000D01*
G37*
G36*
X219301600Y-107950000D02*
G01*
X219098400Y-107950000D01*
X219098400Y-106680000D01*
X219301600Y-106680000D01*
X219301600Y-107950000D01*
G37*
G36*
X220301600Y-107950000D02*
G01*
X220098400Y-107950000D01*
X220098400Y-106680000D01*
X220301600Y-106680000D01*
X220301600Y-107950000D01*
G37*
G36*
X223301600Y-107950000D02*
G01*
X223098400Y-107950000D01*
X223098400Y-106680000D01*
X223301600Y-106680000D01*
X223301600Y-107950000D01*
G37*
G36*
X218301600Y-107950000D02*
G01*
X218098400Y-107950000D01*
X218098400Y-106680000D01*
X218301600Y-106680000D01*
X218301600Y-107950000D01*
G37*
G36*
X221301600Y-107950000D02*
G01*
X221098400Y-107950000D01*
X221098400Y-105410000D01*
X221301600Y-105410000D01*
X221301600Y-107950000D01*
G37*
G36*
X224301600Y-107950000D02*
G01*
X224098400Y-107950000D01*
X224098400Y-106680000D01*
X224301600Y-106680000D01*
X224301600Y-107950000D01*
G37*
G36*
X222301600Y-107950000D02*
G01*
X222098400Y-107950000D01*
X222098400Y-106680000D01*
X222301600Y-106680000D01*
X222301600Y-107950000D01*
G37*
G36*
X217301600Y-107950000D02*
G01*
X217098400Y-107950000D01*
X217098400Y-106680000D01*
X217301600Y-106680000D01*
X217301600Y-107950000D01*
G37*
G36*
X225301600Y-107950000D02*
G01*
X225098400Y-107950000D01*
X225098400Y-106680000D01*
X225301600Y-106680000D01*
X225301600Y-107950000D01*
G37*
G36*
X216352400Y-107950000D02*
G01*
X216047600Y-107950000D01*
X216047600Y-104140000D01*
X216352400Y-104140000D01*
X216352400Y-107950000D01*
G37*
G36*
X227301600Y-107950000D02*
G01*
X227098400Y-107950000D01*
X227098400Y-106680000D01*
X227301600Y-106680000D01*
X227301600Y-107950000D01*
G37*
G36*
X228301600Y-107950000D02*
G01*
X228098400Y-107950000D01*
X228098400Y-106680000D01*
X228301600Y-106680000D01*
X228301600Y-107950000D01*
G37*
G36*
X76701600Y-77470000D02*
G01*
X76498400Y-77470000D01*
X76498400Y-76200000D01*
X76701600Y-76200000D01*
X76701600Y-77470000D01*
G37*
G36*
X77701600Y-77470000D02*
G01*
X77498400Y-77470000D01*
X77498400Y-76200000D01*
X77701600Y-76200000D01*
X77701600Y-77470000D01*
G37*
G36*
X195701600Y-77470000D02*
G01*
X195498400Y-77470000D01*
X195498400Y-76200000D01*
X195701600Y-76200000D01*
X195701600Y-77470000D01*
G37*
G36*
X198752400Y-80010000D02*
G01*
X198447600Y-80010000D01*
X198447600Y-76200000D01*
X198752400Y-76200000D01*
X198752400Y-80010000D01*
G37*
G36*
X196701600Y-77470000D02*
G01*
X196498400Y-77470000D01*
X196498400Y-76200000D01*
X196701600Y-76200000D01*
X196701600Y-77470000D01*
G37*
G36*
X194701600Y-77470000D02*
G01*
X194498400Y-77470000D01*
X194498400Y-76200000D01*
X194701600Y-76200000D01*
X194701600Y-77470000D01*
G37*
G36*
X190701600Y-77470000D02*
G01*
X190498400Y-77470000D01*
X190498400Y-76200000D01*
X190701600Y-76200000D01*
X190701600Y-77470000D01*
G37*
G36*
X197701600Y-77470000D02*
G01*
X197498400Y-77470000D01*
X197498400Y-76200000D01*
X197701600Y-76200000D01*
X197701600Y-77470000D01*
G37*
G36*
X192701600Y-77470000D02*
G01*
X192498400Y-77470000D01*
X192498400Y-76200000D01*
X192701600Y-76200000D01*
X192701600Y-77470000D01*
G37*
G36*
X188752400Y-80010000D02*
G01*
X188447600Y-80010000D01*
X188447600Y-76200000D01*
X188752400Y-76200000D01*
X188752400Y-80010000D01*
G37*
G36*
X193701600Y-78740000D02*
G01*
X193498400Y-78740000D01*
X193498400Y-76200000D01*
X193701600Y-76200000D01*
X193701600Y-78740000D01*
G37*
G36*
X191701600Y-77470000D02*
G01*
X191498400Y-77470000D01*
X191498400Y-76200000D01*
X191701600Y-76200000D01*
X191701600Y-77470000D01*
G37*
G36*
X189701600Y-77470000D02*
G01*
X189498400Y-77470000D01*
X189498400Y-76200000D01*
X189701600Y-76200000D01*
X189701600Y-77470000D01*
G37*
G36*
X167701600Y-77470000D02*
G01*
X167498400Y-77470000D01*
X167498400Y-76200000D01*
X167701600Y-76200000D01*
X167701600Y-77470000D01*
G37*
G36*
X162701600Y-77470000D02*
G01*
X162498400Y-77470000D01*
X162498400Y-76200000D01*
X162701600Y-76200000D01*
X162701600Y-77470000D01*
G37*
G36*
X165701600Y-77470000D02*
G01*
X165498400Y-77470000D01*
X165498400Y-76200000D01*
X165701600Y-76200000D01*
X165701600Y-77470000D01*
G37*
G36*
X158752400Y-80010000D02*
G01*
X158447600Y-80010000D01*
X158447600Y-76200000D01*
X158752400Y-76200000D01*
X158752400Y-80010000D01*
G37*
G36*
X161701600Y-77470000D02*
G01*
X161498400Y-77470000D01*
X161498400Y-76200000D01*
X161701600Y-76200000D01*
X161701600Y-77470000D01*
G37*
G36*
X168752400Y-80010000D02*
G01*
X168447600Y-80010000D01*
X168447600Y-76200000D01*
X168752400Y-76200000D01*
X168752400Y-80010000D01*
G37*
G36*
X160701600Y-77470000D02*
G01*
X160498400Y-77470000D01*
X160498400Y-76200000D01*
X160701600Y-76200000D01*
X160701600Y-77470000D01*
G37*
G36*
X159701600Y-77470000D02*
G01*
X159498400Y-77470000D01*
X159498400Y-76200000D01*
X159701600Y-76200000D01*
X159701600Y-77470000D01*
G37*
G36*
X164701600Y-77470000D02*
G01*
X164498400Y-77470000D01*
X164498400Y-76200000D01*
X164701600Y-76200000D01*
X164701600Y-77470000D01*
G37*
G36*
X166701600Y-77470000D02*
G01*
X166498400Y-77470000D01*
X166498400Y-76200000D01*
X166701600Y-76200000D01*
X166701600Y-77470000D01*
G37*
G36*
X163701600Y-78740000D02*
G01*
X163498400Y-78740000D01*
X163498400Y-76200000D01*
X163701600Y-76200000D01*
X163701600Y-78740000D01*
G37*
G36*
X129701600Y-77470000D02*
G01*
X129498400Y-77470000D01*
X129498400Y-76200000D01*
X129701600Y-76200000D01*
X129701600Y-77470000D01*
G37*
G36*
X133701600Y-78740000D02*
G01*
X133498400Y-78740000D01*
X133498400Y-76200000D01*
X133701600Y-76200000D01*
X133701600Y-78740000D01*
G37*
G36*
X136701600Y-77470000D02*
G01*
X136498400Y-77470000D01*
X136498400Y-76200000D01*
X136701600Y-76200000D01*
X136701600Y-77470000D01*
G37*
G36*
X131701600Y-77470000D02*
G01*
X131498400Y-77470000D01*
X131498400Y-76200000D01*
X131701600Y-76200000D01*
X131701600Y-77470000D01*
G37*
G36*
X128752400Y-80010000D02*
G01*
X128447600Y-80010000D01*
X128447600Y-76200000D01*
X128752400Y-76200000D01*
X128752400Y-80010000D01*
G37*
G36*
X135701600Y-77470000D02*
G01*
X135498400Y-77470000D01*
X135498400Y-76200000D01*
X135701600Y-76200000D01*
X135701600Y-77470000D01*
G37*
G36*
X132701600Y-77470000D02*
G01*
X132498400Y-77470000D01*
X132498400Y-76200000D01*
X132701600Y-76200000D01*
X132701600Y-77470000D01*
G37*
G36*
X134701600Y-77470000D02*
G01*
X134498400Y-77470000D01*
X134498400Y-76200000D01*
X134701600Y-76200000D01*
X134701600Y-77470000D01*
G37*
G36*
X130701600Y-77470000D02*
G01*
X130498400Y-77470000D01*
X130498400Y-76200000D01*
X130701600Y-76200000D01*
X130701600Y-77470000D01*
G37*
G36*
X138752400Y-80010000D02*
G01*
X138447600Y-80010000D01*
X138447600Y-76200000D01*
X138752400Y-76200000D01*
X138752400Y-80010000D01*
G37*
G36*
X137701600Y-77470000D02*
G01*
X137498400Y-77470000D01*
X137498400Y-76200000D01*
X137701600Y-76200000D01*
X137701600Y-77470000D01*
G37*
G36*
X154701600Y-77470000D02*
G01*
X154498400Y-77470000D01*
X154498400Y-76200000D01*
X154701600Y-76200000D01*
X154701600Y-77470000D01*
G37*
G36*
X150701600Y-77470000D02*
G01*
X150498400Y-77470000D01*
X150498400Y-76200000D01*
X150701600Y-76200000D01*
X150701600Y-77470000D01*
G37*
G36*
X157701600Y-77470000D02*
G01*
X157498400Y-77470000D01*
X157498400Y-76200000D01*
X157701600Y-76200000D01*
X157701600Y-77470000D01*
G37*
G36*
X152701600Y-77470000D02*
G01*
X152498400Y-77470000D01*
X152498400Y-76200000D01*
X152701600Y-76200000D01*
X152701600Y-77470000D01*
G37*
G36*
X155701600Y-77470000D02*
G01*
X155498400Y-77470000D01*
X155498400Y-76200000D01*
X155701600Y-76200000D01*
X155701600Y-77470000D01*
G37*
G36*
X156701600Y-77470000D02*
G01*
X156498400Y-77470000D01*
X156498400Y-76200000D01*
X156701600Y-76200000D01*
X156701600Y-77470000D01*
G37*
G36*
X149701600Y-77470000D02*
G01*
X149498400Y-77470000D01*
X149498400Y-76200000D01*
X149701600Y-76200000D01*
X149701600Y-77470000D01*
G37*
G36*
X158752400Y-80010000D02*
G01*
X158447600Y-80010000D01*
X158447600Y-76200000D01*
X158752400Y-76200000D01*
X158752400Y-80010000D01*
G37*
G36*
X148752400Y-80010000D02*
G01*
X148447600Y-80010000D01*
X148447600Y-76200000D01*
X148752400Y-76200000D01*
X148752400Y-80010000D01*
G37*
G36*
X153701600Y-78740000D02*
G01*
X153498400Y-78740000D01*
X153498400Y-76200000D01*
X153701600Y-76200000D01*
X153701600Y-78740000D01*
G37*
G36*
X151701600Y-77470000D02*
G01*
X151498400Y-77470000D01*
X151498400Y-76200000D01*
X151701600Y-76200000D01*
X151701600Y-77470000D01*
G37*
G36*
X182301600Y-107950000D02*
G01*
X182098400Y-107950000D01*
X182098400Y-106680000D01*
X182301600Y-106680000D01*
X182301600Y-107950000D01*
G37*
G36*
X185301600Y-107950000D02*
G01*
X185098400Y-107950000D01*
X185098400Y-106680000D01*
X185301600Y-106680000D01*
X185301600Y-107950000D01*
G37*
G36*
X183301600Y-107950000D02*
G01*
X183098400Y-107950000D01*
X183098400Y-106680000D01*
X183301600Y-106680000D01*
X183301600Y-107950000D01*
G37*
G36*
X186352400Y-107950000D02*
G01*
X186047600Y-107950000D01*
X186047600Y-104140000D01*
X186352400Y-104140000D01*
X186352400Y-107950000D01*
G37*
G36*
X177301600Y-107950000D02*
G01*
X177098400Y-107950000D01*
X177098400Y-106680000D01*
X177301600Y-106680000D01*
X177301600Y-107950000D01*
G37*
G36*
X179301600Y-107950000D02*
G01*
X179098400Y-107950000D01*
X179098400Y-106680000D01*
X179301600Y-106680000D01*
X179301600Y-107950000D01*
G37*
G36*
X181301600Y-107950000D02*
G01*
X181098400Y-107950000D01*
X181098400Y-105410000D01*
X181301600Y-105410000D01*
X181301600Y-107950000D01*
G37*
G36*
X178301600Y-107950000D02*
G01*
X178098400Y-107950000D01*
X178098400Y-106680000D01*
X178301600Y-106680000D01*
X178301600Y-107950000D01*
G37*
G36*
X184301600Y-107950000D02*
G01*
X184098400Y-107950000D01*
X184098400Y-106680000D01*
X184301600Y-106680000D01*
X184301600Y-107950000D01*
G37*
G36*
X176352400Y-107950000D02*
G01*
X176047600Y-107950000D01*
X176047600Y-104140000D01*
X176352400Y-104140000D01*
X176352400Y-107950000D01*
G37*
G36*
X180301600Y-107950000D02*
G01*
X180098400Y-107950000D01*
X180098400Y-106680000D01*
X180301600Y-106680000D01*
X180301600Y-107950000D01*
G37*
G36*
X99701600Y-77470000D02*
G01*
X99498400Y-77470000D01*
X99498400Y-76200000D01*
X99701600Y-76200000D01*
X99701600Y-77470000D01*
G37*
G36*
X107701600Y-77470000D02*
G01*
X107498400Y-77470000D01*
X107498400Y-76200000D01*
X107701600Y-76200000D01*
X107701600Y-77470000D01*
G37*
G36*
X103701600Y-78740000D02*
G01*
X103498400Y-78740000D01*
X103498400Y-76200000D01*
X103701600Y-76200000D01*
X103701600Y-78740000D01*
G37*
G36*
X106701600Y-77470000D02*
G01*
X106498400Y-77470000D01*
X106498400Y-76200000D01*
X106701600Y-76200000D01*
X106701600Y-77470000D01*
G37*
G36*
X108752400Y-80010000D02*
G01*
X108447600Y-80010000D01*
X108447600Y-76200000D01*
X108752400Y-76200000D01*
X108752400Y-80010000D01*
G37*
G36*
X104701600Y-77470000D02*
G01*
X104498400Y-77470000D01*
X104498400Y-76200000D01*
X104701600Y-76200000D01*
X104701600Y-77470000D01*
G37*
G36*
X100701600Y-77470000D02*
G01*
X100498400Y-77470000D01*
X100498400Y-76200000D01*
X100701600Y-76200000D01*
X100701600Y-77470000D01*
G37*
G36*
X98752400Y-80010000D02*
G01*
X98447600Y-80010000D01*
X98447600Y-76200000D01*
X98752400Y-76200000D01*
X98752400Y-80010000D01*
G37*
G36*
X101701600Y-77470000D02*
G01*
X101498400Y-77470000D01*
X101498400Y-76200000D01*
X101701600Y-76200000D01*
X101701600Y-77470000D01*
G37*
G36*
X102701600Y-77470000D02*
G01*
X102498400Y-77470000D01*
X102498400Y-76200000D01*
X102701600Y-76200000D01*
X102701600Y-77470000D01*
G37*
G36*
X105701600Y-77470000D02*
G01*
X105498400Y-77470000D01*
X105498400Y-76200000D01*
X105701600Y-76200000D01*
X105701600Y-77470000D01*
G37*
G36*
X208752400Y-80010000D02*
G01*
X208447600Y-80010000D01*
X208447600Y-76200000D01*
X208752400Y-76200000D01*
X208752400Y-80010000D01*
G37*
G36*
X205701600Y-77470000D02*
G01*
X205498400Y-77470000D01*
X205498400Y-76200000D01*
X205701600Y-76200000D01*
X205701600Y-77470000D01*
G37*
G36*
X204701600Y-77470000D02*
G01*
X204498400Y-77470000D01*
X204498400Y-76200000D01*
X204701600Y-76200000D01*
X204701600Y-77470000D01*
G37*
G36*
X198752400Y-80010000D02*
G01*
X198447600Y-80010000D01*
X198447600Y-76200000D01*
X198752400Y-76200000D01*
X198752400Y-80010000D01*
G37*
G36*
X203701600Y-78740000D02*
G01*
X203498400Y-78740000D01*
X203498400Y-76200000D01*
X203701600Y-76200000D01*
X203701600Y-78740000D01*
G37*
G36*
X207701600Y-77470000D02*
G01*
X207498400Y-77470000D01*
X207498400Y-76200000D01*
X207701600Y-76200000D01*
X207701600Y-77470000D01*
G37*
G36*
X201701600Y-77470000D02*
G01*
X201498400Y-77470000D01*
X201498400Y-76200000D01*
X201701600Y-76200000D01*
X201701600Y-77470000D01*
G37*
G36*
X199701600Y-77470000D02*
G01*
X199498400Y-77470000D01*
X199498400Y-76200000D01*
X199701600Y-76200000D01*
X199701600Y-77470000D01*
G37*
G36*
X202701600Y-77470000D02*
G01*
X202498400Y-77470000D01*
X202498400Y-76200000D01*
X202701600Y-76200000D01*
X202701600Y-77470000D01*
G37*
G36*
X200701600Y-77470000D02*
G01*
X200498400Y-77470000D01*
X200498400Y-76200000D01*
X200701600Y-76200000D01*
X200701600Y-77470000D01*
G37*
G36*
X206701600Y-77470000D02*
G01*
X206498400Y-77470000D01*
X206498400Y-76200000D01*
X206701600Y-76200000D01*
X206701600Y-77470000D01*
G37*
G36*
X95701600Y-77470000D02*
G01*
X95498400Y-77470000D01*
X95498400Y-76200000D01*
X95701600Y-76200000D01*
X95701600Y-77470000D01*
G37*
G36*
X88752400Y-80010000D02*
G01*
X88447600Y-80010000D01*
X88447600Y-76200000D01*
X88752400Y-76200000D01*
X88752400Y-80010000D01*
G37*
G36*
X90701600Y-77470000D02*
G01*
X90498400Y-77470000D01*
X90498400Y-76200000D01*
X90701600Y-76200000D01*
X90701600Y-77470000D01*
G37*
G36*
X94701600Y-77470000D02*
G01*
X94498400Y-77470000D01*
X94498400Y-76200000D01*
X94701600Y-76200000D01*
X94701600Y-77470000D01*
G37*
G36*
X93701600Y-78740000D02*
G01*
X93498400Y-78740000D01*
X93498400Y-76200000D01*
X93701600Y-76200000D01*
X93701600Y-78740000D01*
G37*
G36*
X89701600Y-77470000D02*
G01*
X89498400Y-77470000D01*
X89498400Y-76200000D01*
X89701600Y-76200000D01*
X89701600Y-77470000D01*
G37*
G36*
X96701600Y-77470000D02*
G01*
X96498400Y-77470000D01*
X96498400Y-76200000D01*
X96701600Y-76200000D01*
X96701600Y-77470000D01*
G37*
G36*
X97701600Y-77470000D02*
G01*
X97498400Y-77470000D01*
X97498400Y-76200000D01*
X97701600Y-76200000D01*
X97701600Y-77470000D01*
G37*
G36*
X92701600Y-77470000D02*
G01*
X92498400Y-77470000D01*
X92498400Y-76200000D01*
X92701600Y-76200000D01*
X92701600Y-77470000D01*
G37*
G36*
X91701600Y-77470000D02*
G01*
X91498400Y-77470000D01*
X91498400Y-76200000D01*
X91701600Y-76200000D01*
X91701600Y-77470000D01*
G37*
G36*
X98752400Y-80010000D02*
G01*
X98447600Y-80010000D01*
X98447600Y-76200000D01*
X98752400Y-76200000D01*
X98752400Y-80010000D01*
G37*
G36*
X149301600Y-107950000D02*
G01*
X149098400Y-107950000D01*
X149098400Y-106680000D01*
X149301600Y-106680000D01*
X149301600Y-107950000D01*
G37*
G36*
X155301600Y-107950000D02*
G01*
X155098400Y-107950000D01*
X155098400Y-106680000D01*
X155301600Y-106680000D01*
X155301600Y-107950000D01*
G37*
G36*
X154301600Y-107950000D02*
G01*
X154098400Y-107950000D01*
X154098400Y-106680000D01*
X154301600Y-106680000D01*
X154301600Y-107950000D01*
G37*
G36*
X156352400Y-107950000D02*
G01*
X156047600Y-107950000D01*
X156047600Y-104140000D01*
X156352400Y-104140000D01*
X156352400Y-107950000D01*
G37*
G36*
X153301600Y-107950000D02*
G01*
X153098400Y-107950000D01*
X153098400Y-106680000D01*
X153301600Y-106680000D01*
X153301600Y-107950000D01*
G37*
G36*
X150301600Y-107950000D02*
G01*
X150098400Y-107950000D01*
X150098400Y-106680000D01*
X150301600Y-106680000D01*
X150301600Y-107950000D01*
G37*
G36*
X147301600Y-107950000D02*
G01*
X147098400Y-107950000D01*
X147098400Y-106680000D01*
X147301600Y-106680000D01*
X147301600Y-107950000D01*
G37*
G36*
X152301600Y-107950000D02*
G01*
X152098400Y-107950000D01*
X152098400Y-106680000D01*
X152301600Y-106680000D01*
X152301600Y-107950000D01*
G37*
G36*
X148301600Y-107950000D02*
G01*
X148098400Y-107950000D01*
X148098400Y-106680000D01*
X148301600Y-106680000D01*
X148301600Y-107950000D01*
G37*
G36*
X146352400Y-107950000D02*
G01*
X146047600Y-107950000D01*
X146047600Y-104140000D01*
X146352400Y-104140000D01*
X146352400Y-107950000D01*
G37*
G36*
X151301600Y-107950000D02*
G01*
X151098400Y-107950000D01*
X151098400Y-105410000D01*
X151301600Y-105410000D01*
X151301600Y-107950000D01*
G37*
G36*
X183701600Y-78740000D02*
G01*
X183498400Y-78740000D01*
X183498400Y-76200000D01*
X183701600Y-76200000D01*
X183701600Y-78740000D01*
G37*
G36*
X179701600Y-77470000D02*
G01*
X179498400Y-77470000D01*
X179498400Y-76200000D01*
X179701600Y-76200000D01*
X179701600Y-77470000D01*
G37*
G36*
X178752400Y-80010000D02*
G01*
X178447600Y-80010000D01*
X178447600Y-76200000D01*
X178752400Y-76200000D01*
X178752400Y-80010000D01*
G37*
G36*
X187701600Y-77470000D02*
G01*
X187498400Y-77470000D01*
X187498400Y-76200000D01*
X187701600Y-76200000D01*
X187701600Y-77470000D01*
G37*
G36*
X181701600Y-77470000D02*
G01*
X181498400Y-77470000D01*
X181498400Y-76200000D01*
X181701600Y-76200000D01*
X181701600Y-77470000D01*
G37*
G36*
X185701600Y-77470000D02*
G01*
X185498400Y-77470000D01*
X185498400Y-76200000D01*
X185701600Y-76200000D01*
X185701600Y-77470000D01*
G37*
G36*
X186701600Y-77470000D02*
G01*
X186498400Y-77470000D01*
X186498400Y-76200000D01*
X186701600Y-76200000D01*
X186701600Y-77470000D01*
G37*
G36*
X188752400Y-80010000D02*
G01*
X188447600Y-80010000D01*
X188447600Y-76200000D01*
X188752400Y-76200000D01*
X188752400Y-80010000D01*
G37*
G36*
X180701600Y-77470000D02*
G01*
X180498400Y-77470000D01*
X180498400Y-76200000D01*
X180701600Y-76200000D01*
X180701600Y-77470000D01*
G37*
G36*
X182701600Y-77470000D02*
G01*
X182498400Y-77470000D01*
X182498400Y-76200000D01*
X182701600Y-76200000D01*
X182701600Y-77470000D01*
G37*
G36*
X184701600Y-77470000D02*
G01*
X184498400Y-77470000D01*
X184498400Y-76200000D01*
X184701600Y-76200000D01*
X184701600Y-77470000D01*
G37*
G36*
X136352400Y-107950000D02*
G01*
X136047600Y-107950000D01*
X136047600Y-104140000D01*
X136352400Y-104140000D01*
X136352400Y-107950000D01*
G37*
G36*
X144301600Y-107950000D02*
G01*
X144098400Y-107950000D01*
X144098400Y-106680000D01*
X144301600Y-106680000D01*
X144301600Y-107950000D01*
G37*
G36*
X145301600Y-107950000D02*
G01*
X145098400Y-107950000D01*
X145098400Y-106680000D01*
X145301600Y-106680000D01*
X145301600Y-107950000D01*
G37*
G36*
X141301600Y-107950000D02*
G01*
X141098400Y-107950000D01*
X141098400Y-105410000D01*
X141301600Y-105410000D01*
X141301600Y-107950000D01*
G37*
G36*
X139301600Y-107950000D02*
G01*
X139098400Y-107950000D01*
X139098400Y-106680000D01*
X139301600Y-106680000D01*
X139301600Y-107950000D01*
G37*
G36*
X138301600Y-107950000D02*
G01*
X138098400Y-107950000D01*
X138098400Y-106680000D01*
X138301600Y-106680000D01*
X138301600Y-107950000D01*
G37*
G36*
X142301600Y-107950000D02*
G01*
X142098400Y-107950000D01*
X142098400Y-106680000D01*
X142301600Y-106680000D01*
X142301600Y-107950000D01*
G37*
G36*
X140301600Y-107950000D02*
G01*
X140098400Y-107950000D01*
X140098400Y-106680000D01*
X140301600Y-106680000D01*
X140301600Y-107950000D01*
G37*
G36*
X137301600Y-107950000D02*
G01*
X137098400Y-107950000D01*
X137098400Y-106680000D01*
X137301600Y-106680000D01*
X137301600Y-107950000D01*
G37*
G36*
X146352400Y-107950000D02*
G01*
X146047600Y-107950000D01*
X146047600Y-104140000D01*
X146352400Y-104140000D01*
X146352400Y-107950000D01*
G37*
G36*
X143301600Y-107950000D02*
G01*
X143098400Y-107950000D01*
X143098400Y-106680000D01*
X143301600Y-106680000D01*
X143301600Y-107950000D01*
G37*
G36*
X201301600Y-107950000D02*
G01*
X201098400Y-107950000D01*
X201098400Y-105410000D01*
X201301600Y-105410000D01*
X201301600Y-107950000D01*
G37*
G36*
X196352400Y-107950000D02*
G01*
X196047600Y-107950000D01*
X196047600Y-104140000D01*
X196352400Y-104140000D01*
X196352400Y-107950000D01*
G37*
G36*
X202301600Y-107950000D02*
G01*
X202098400Y-107950000D01*
X202098400Y-106680000D01*
X202301600Y-106680000D01*
X202301600Y-107950000D01*
G37*
G36*
X203301600Y-107950000D02*
G01*
X203098400Y-107950000D01*
X203098400Y-106680000D01*
X203301600Y-106680000D01*
X203301600Y-107950000D01*
G37*
G36*
X198301600Y-107950000D02*
G01*
X198098400Y-107950000D01*
X198098400Y-106680000D01*
X198301600Y-106680000D01*
X198301600Y-107950000D01*
G37*
G36*
X204301600Y-107950000D02*
G01*
X204098400Y-107950000D01*
X204098400Y-106680000D01*
X204301600Y-106680000D01*
X204301600Y-107950000D01*
G37*
G36*
X206352400Y-107950000D02*
G01*
X206047600Y-107950000D01*
X206047600Y-104140000D01*
X206352400Y-104140000D01*
X206352400Y-107950000D01*
G37*
G36*
X199301600Y-107950000D02*
G01*
X199098400Y-107950000D01*
X199098400Y-106680000D01*
X199301600Y-106680000D01*
X199301600Y-107950000D01*
G37*
G36*
X197301600Y-107950000D02*
G01*
X197098400Y-107950000D01*
X197098400Y-106680000D01*
X197301600Y-106680000D01*
X197301600Y-107950000D01*
G37*
G36*
X205301600Y-107950000D02*
G01*
X205098400Y-107950000D01*
X205098400Y-106680000D01*
X205301600Y-106680000D01*
X205301600Y-107950000D01*
G37*
G36*
X200301600Y-107950000D02*
G01*
X200098400Y-107950000D01*
X200098400Y-106680000D01*
X200301600Y-106680000D01*
X200301600Y-107950000D01*
G37*
G36*
X96352400Y-107950000D02*
G01*
X96047600Y-107950000D01*
X96047600Y-104140000D01*
X96352400Y-104140000D01*
X96352400Y-107950000D01*
G37*
G36*
X100301600Y-107950000D02*
G01*
X100098400Y-107950000D01*
X100098400Y-106680000D01*
X100301600Y-106680000D01*
X100301600Y-107950000D01*
G37*
G36*
X102301600Y-107950000D02*
G01*
X102098400Y-107950000D01*
X102098400Y-106680000D01*
X102301600Y-106680000D01*
X102301600Y-107950000D01*
G37*
G36*
X104301600Y-107950000D02*
G01*
X104098400Y-107950000D01*
X104098400Y-106680000D01*
X104301600Y-106680000D01*
X104301600Y-107950000D01*
G37*
G36*
X99301600Y-107950000D02*
G01*
X99098400Y-107950000D01*
X99098400Y-106680000D01*
X99301600Y-106680000D01*
X99301600Y-107950000D01*
G37*
G36*
X98301600Y-107950000D02*
G01*
X98098400Y-107950000D01*
X98098400Y-106680000D01*
X98301600Y-106680000D01*
X98301600Y-107950000D01*
G37*
G36*
X105301600Y-107950000D02*
G01*
X105098400Y-107950000D01*
X105098400Y-106680000D01*
X105301600Y-106680000D01*
X105301600Y-107950000D01*
G37*
G36*
X101301600Y-107950000D02*
G01*
X101098400Y-107950000D01*
X101098400Y-105410000D01*
X101301600Y-105410000D01*
X101301600Y-107950000D01*
G37*
G36*
X106352400Y-107950000D02*
G01*
X106047600Y-107950000D01*
X106047600Y-104140000D01*
X106352400Y-104140000D01*
X106352400Y-107950000D01*
G37*
G36*
X103301600Y-107950000D02*
G01*
X103098400Y-107950000D01*
X103098400Y-106680000D01*
X103301600Y-106680000D01*
X103301600Y-107950000D01*
G37*
G36*
X97301600Y-107950000D02*
G01*
X97098400Y-107950000D01*
X97098400Y-106680000D01*
X97301600Y-106680000D01*
X97301600Y-107950000D01*
G37*
G36*
X135301600Y-107950000D02*
G01*
X135098400Y-107950000D01*
X135098400Y-106680000D01*
X135301600Y-106680000D01*
X135301600Y-107950000D01*
G37*
G36*
X134301600Y-107950000D02*
G01*
X134098400Y-107950000D01*
X134098400Y-106680000D01*
X134301600Y-106680000D01*
X134301600Y-107950000D01*
G37*
G36*
X132301600Y-107950000D02*
G01*
X132098400Y-107950000D01*
X132098400Y-106680000D01*
X132301600Y-106680000D01*
X132301600Y-107950000D01*
G37*
G36*
X126352400Y-107950000D02*
G01*
X126047600Y-107950000D01*
X126047600Y-104140000D01*
X126352400Y-104140000D01*
X126352400Y-107950000D01*
G37*
G36*
X128301600Y-107950000D02*
G01*
X128098400Y-107950000D01*
X128098400Y-106680000D01*
X128301600Y-106680000D01*
X128301600Y-107950000D01*
G37*
G36*
X127301600Y-107950000D02*
G01*
X127098400Y-107950000D01*
X127098400Y-106680000D01*
X127301600Y-106680000D01*
X127301600Y-107950000D01*
G37*
G36*
X136352400Y-107950000D02*
G01*
X136047600Y-107950000D01*
X136047600Y-104140000D01*
X136352400Y-104140000D01*
X136352400Y-107950000D01*
G37*
G36*
X129301600Y-107950000D02*
G01*
X129098400Y-107950000D01*
X129098400Y-106680000D01*
X129301600Y-106680000D01*
X129301600Y-107950000D01*
G37*
G36*
X130301600Y-107950000D02*
G01*
X130098400Y-107950000D01*
X130098400Y-106680000D01*
X130301600Y-106680000D01*
X130301600Y-107950000D01*
G37*
G36*
X131301600Y-107950000D02*
G01*
X131098400Y-107950000D01*
X131098400Y-105410000D01*
X131301600Y-105410000D01*
X131301600Y-107950000D01*
G37*
G36*
X133301600Y-107950000D02*
G01*
X133098400Y-107950000D01*
X133098400Y-106680000D01*
X133301600Y-106680000D01*
X133301600Y-107950000D01*
G37*
G36*
X166352400Y-107950000D02*
G01*
X166047600Y-107950000D01*
X166047600Y-104140000D01*
X166352400Y-104140000D01*
X166352400Y-107950000D01*
G37*
G36*
X168301600Y-107950000D02*
G01*
X168098400Y-107950000D01*
X168098400Y-106680000D01*
X168301600Y-106680000D01*
X168301600Y-107950000D01*
G37*
G36*
X167301600Y-107950000D02*
G01*
X167098400Y-107950000D01*
X167098400Y-106680000D01*
X167301600Y-106680000D01*
X167301600Y-107950000D01*
G37*
G36*
X176352400Y-107950000D02*
G01*
X176047600Y-107950000D01*
X176047600Y-104140000D01*
X176352400Y-104140000D01*
X176352400Y-107950000D01*
G37*
G36*
X174301600Y-107950000D02*
G01*
X174098400Y-107950000D01*
X174098400Y-106680000D01*
X174301600Y-106680000D01*
X174301600Y-107950000D01*
G37*
G36*
X170301600Y-107950000D02*
G01*
X170098400Y-107950000D01*
X170098400Y-106680000D01*
X170301600Y-106680000D01*
X170301600Y-107950000D01*
G37*
G36*
X172301600Y-107950000D02*
G01*
X172098400Y-107950000D01*
X172098400Y-106680000D01*
X172301600Y-106680000D01*
X172301600Y-107950000D01*
G37*
G36*
X171301600Y-107950000D02*
G01*
X171098400Y-107950000D01*
X171098400Y-105410000D01*
X171301600Y-105410000D01*
X171301600Y-107950000D01*
G37*
G36*
X175301600Y-107950000D02*
G01*
X175098400Y-107950000D01*
X175098400Y-106680000D01*
X175301600Y-106680000D01*
X175301600Y-107950000D01*
G37*
G36*
X173301600Y-107950000D02*
G01*
X173098400Y-107950000D01*
X173098400Y-106680000D01*
X173301600Y-106680000D01*
X173301600Y-107950000D01*
G37*
G36*
X169301600Y-107950000D02*
G01*
X169098400Y-107950000D01*
X169098400Y-106680000D01*
X169301600Y-106680000D01*
X169301600Y-107950000D01*
G37*
G36*
X174701600Y-77470000D02*
G01*
X174498400Y-77470000D01*
X174498400Y-76200000D01*
X174701600Y-76200000D01*
X174701600Y-77470000D01*
G37*
G36*
X171701600Y-77470000D02*
G01*
X171498400Y-77470000D01*
X171498400Y-76200000D01*
X171701600Y-76200000D01*
X171701600Y-77470000D01*
G37*
G36*
X176701600Y-77470000D02*
G01*
X176498400Y-77470000D01*
X176498400Y-76200000D01*
X176701600Y-76200000D01*
X176701600Y-77470000D01*
G37*
G36*
X173701600Y-78740000D02*
G01*
X173498400Y-78740000D01*
X173498400Y-76200000D01*
X173701600Y-76200000D01*
X173701600Y-78740000D01*
G37*
G36*
X177701600Y-77470000D02*
G01*
X177498400Y-77470000D01*
X177498400Y-76200000D01*
X177701600Y-76200000D01*
X177701600Y-77470000D01*
G37*
G36*
X170701600Y-77470000D02*
G01*
X170498400Y-77470000D01*
X170498400Y-76200000D01*
X170701600Y-76200000D01*
X170701600Y-77470000D01*
G37*
G36*
X175701600Y-77470000D02*
G01*
X175498400Y-77470000D01*
X175498400Y-76200000D01*
X175701600Y-76200000D01*
X175701600Y-77470000D01*
G37*
G36*
X172701600Y-77470000D02*
G01*
X172498400Y-77470000D01*
X172498400Y-76200000D01*
X172701600Y-76200000D01*
X172701600Y-77470000D01*
G37*
G36*
X168752400Y-80010000D02*
G01*
X168447600Y-80010000D01*
X168447600Y-76200000D01*
X168752400Y-76200000D01*
X168752400Y-80010000D01*
G37*
G36*
X169701600Y-77470000D02*
G01*
X169498400Y-77470000D01*
X169498400Y-76200000D01*
X169701600Y-76200000D01*
X169701600Y-77470000D01*
G37*
G36*
X178752400Y-80010000D02*
G01*
X178447600Y-80010000D01*
X178447600Y-76200000D01*
X178752400Y-76200000D01*
X178752400Y-80010000D01*
G37*
G36*
X166352400Y-107950000D02*
G01*
X166047600Y-107950000D01*
X166047600Y-104140000D01*
X166352400Y-104140000D01*
X166352400Y-107950000D01*
G37*
G36*
X156352400Y-107950000D02*
G01*
X156047600Y-107950000D01*
X156047600Y-104140000D01*
X156352400Y-104140000D01*
X156352400Y-107950000D01*
G37*
G36*
X161301600Y-107950000D02*
G01*
X161098400Y-107950000D01*
X161098400Y-105410000D01*
X161301600Y-105410000D01*
X161301600Y-107950000D01*
G37*
G36*
X158301600Y-107950000D02*
G01*
X158098400Y-107950000D01*
X158098400Y-106680000D01*
X158301600Y-106680000D01*
X158301600Y-107950000D01*
G37*
G36*
X160301600Y-107950000D02*
G01*
X160098400Y-107950000D01*
X160098400Y-106680000D01*
X160301600Y-106680000D01*
X160301600Y-107950000D01*
G37*
G36*
X159301600Y-107950000D02*
G01*
X159098400Y-107950000D01*
X159098400Y-106680000D01*
X159301600Y-106680000D01*
X159301600Y-107950000D01*
G37*
G36*
X157301600Y-107950000D02*
G01*
X157098400Y-107950000D01*
X157098400Y-106680000D01*
X157301600Y-106680000D01*
X157301600Y-107950000D01*
G37*
G36*
X163301600Y-107950000D02*
G01*
X163098400Y-107950000D01*
X163098400Y-106680000D01*
X163301600Y-106680000D01*
X163301600Y-107950000D01*
G37*
G36*
X162301600Y-107950000D02*
G01*
X162098400Y-107950000D01*
X162098400Y-106680000D01*
X162301600Y-106680000D01*
X162301600Y-107950000D01*
G37*
G36*
X164301600Y-107950000D02*
G01*
X164098400Y-107950000D01*
X164098400Y-106680000D01*
X164301600Y-106680000D01*
X164301600Y-107950000D01*
G37*
G36*
X165301600Y-107950000D02*
G01*
X165098400Y-107950000D01*
X165098400Y-106680000D01*
X165301600Y-106680000D01*
X165301600Y-107950000D01*
G37*
G36*
X210301600Y-107950000D02*
G01*
X210098400Y-107950000D01*
X210098400Y-106680000D01*
X210301600Y-106680000D01*
X210301600Y-107950000D01*
G37*
G36*
X213301600Y-107950000D02*
G01*
X213098400Y-107950000D01*
X213098400Y-106680000D01*
X213301600Y-106680000D01*
X213301600Y-107950000D01*
G37*
G36*
X208301600Y-107950000D02*
G01*
X208098400Y-107950000D01*
X208098400Y-106680000D01*
X208301600Y-106680000D01*
X208301600Y-107950000D01*
G37*
G36*
X215301600Y-107950000D02*
G01*
X215098400Y-107950000D01*
X215098400Y-106680000D01*
X215301600Y-106680000D01*
X215301600Y-107950000D01*
G37*
G36*
X206352400Y-107950000D02*
G01*
X206047600Y-107950000D01*
X206047600Y-104140000D01*
X206352400Y-104140000D01*
X206352400Y-107950000D01*
G37*
G36*
X216352400Y-107950000D02*
G01*
X216047600Y-107950000D01*
X216047600Y-104140000D01*
X216352400Y-104140000D01*
X216352400Y-107950000D01*
G37*
G36*
X212301600Y-107950000D02*
G01*
X212098400Y-107950000D01*
X212098400Y-106680000D01*
X212301600Y-106680000D01*
X212301600Y-107950000D01*
G37*
G36*
X207301600Y-107950000D02*
G01*
X207098400Y-107950000D01*
X207098400Y-106680000D01*
X207301600Y-106680000D01*
X207301600Y-107950000D01*
G37*
G36*
X211301600Y-107950000D02*
G01*
X211098400Y-107950000D01*
X211098400Y-105410000D01*
X211301600Y-105410000D01*
X211301600Y-107950000D01*
G37*
G36*
X209301600Y-107950000D02*
G01*
X209098400Y-107950000D01*
X209098400Y-106680000D01*
X209301600Y-106680000D01*
X209301600Y-107950000D01*
G37*
G36*
X214301600Y-107950000D02*
G01*
X214098400Y-107950000D01*
X214098400Y-106680000D01*
X214301600Y-106680000D01*
X214301600Y-107950000D01*
G37*
G36*
X115701600Y-77470000D02*
G01*
X115498400Y-77470000D01*
X115498400Y-76200000D01*
X115701600Y-76200000D01*
X115701600Y-77470000D01*
G37*
G36*
X118752400Y-80010000D02*
G01*
X118447600Y-80010000D01*
X118447600Y-76200000D01*
X118752400Y-76200000D01*
X118752400Y-80010000D01*
G37*
G36*
X113701600Y-78740000D02*
G01*
X113498400Y-78740000D01*
X113498400Y-76200000D01*
X113701600Y-76200000D01*
X113701600Y-78740000D01*
G37*
G36*
X110701600Y-77470000D02*
G01*
X110498400Y-77470000D01*
X110498400Y-76200000D01*
X110701600Y-76200000D01*
X110701600Y-77470000D01*
G37*
G36*
X109701600Y-77470000D02*
G01*
X109498400Y-77470000D01*
X109498400Y-76200000D01*
X109701600Y-76200000D01*
X109701600Y-77470000D01*
G37*
G36*
X114701600Y-77470000D02*
G01*
X114498400Y-77470000D01*
X114498400Y-76200000D01*
X114701600Y-76200000D01*
X114701600Y-77470000D01*
G37*
G36*
X117701600Y-77470000D02*
G01*
X117498400Y-77470000D01*
X117498400Y-76200000D01*
X117701600Y-76200000D01*
X117701600Y-77470000D01*
G37*
G36*
X116701600Y-77470000D02*
G01*
X116498400Y-77470000D01*
X116498400Y-76200000D01*
X116701600Y-76200000D01*
X116701600Y-77470000D01*
G37*
G36*
X111701600Y-77470000D02*
G01*
X111498400Y-77470000D01*
X111498400Y-76200000D01*
X111701600Y-76200000D01*
X111701600Y-77470000D01*
G37*
G36*
X108752400Y-80010000D02*
G01*
X108447600Y-80010000D01*
X108447600Y-76200000D01*
X108752400Y-76200000D01*
X108752400Y-80010000D01*
G37*
G36*
X112701600Y-77470000D02*
G01*
X112498400Y-77470000D01*
X112498400Y-76200000D01*
X112701600Y-76200000D01*
X112701600Y-77470000D01*
G37*
G36*
X196352400Y-107950000D02*
G01*
X196047600Y-107950000D01*
X196047600Y-104140000D01*
X196352400Y-104140000D01*
X196352400Y-107950000D01*
G37*
G36*
X193301600Y-107950000D02*
G01*
X193098400Y-107950000D01*
X193098400Y-106680000D01*
X193301600Y-106680000D01*
X193301600Y-107950000D01*
G37*
G36*
X188301600Y-107950000D02*
G01*
X188098400Y-107950000D01*
X188098400Y-106680000D01*
X188301600Y-106680000D01*
X188301600Y-107950000D01*
G37*
G36*
X191301600Y-107950000D02*
G01*
X191098400Y-107950000D01*
X191098400Y-105410000D01*
X191301600Y-105410000D01*
X191301600Y-107950000D01*
G37*
G36*
X189301600Y-107950000D02*
G01*
X189098400Y-107950000D01*
X189098400Y-106680000D01*
X189301600Y-106680000D01*
X189301600Y-107950000D01*
G37*
G36*
X190301600Y-107950000D02*
G01*
X190098400Y-107950000D01*
X190098400Y-106680000D01*
X190301600Y-106680000D01*
X190301600Y-107950000D01*
G37*
G36*
X192301600Y-107950000D02*
G01*
X192098400Y-107950000D01*
X192098400Y-106680000D01*
X192301600Y-106680000D01*
X192301600Y-107950000D01*
G37*
G36*
X194301600Y-107950000D02*
G01*
X194098400Y-107950000D01*
X194098400Y-106680000D01*
X194301600Y-106680000D01*
X194301600Y-107950000D01*
G37*
G36*
X187301600Y-107950000D02*
G01*
X187098400Y-107950000D01*
X187098400Y-106680000D01*
X187301600Y-106680000D01*
X187301600Y-107950000D01*
G37*
G36*
X195301600Y-107950000D02*
G01*
X195098400Y-107950000D01*
X195098400Y-106680000D01*
X195301600Y-106680000D01*
X195301600Y-107950000D01*
G37*
G36*
X186352400Y-107950000D02*
G01*
X186047600Y-107950000D01*
X186047600Y-104140000D01*
X186352400Y-104140000D01*
X186352400Y-107950000D01*
G37*
G36*
X146701600Y-77470000D02*
G01*
X146498400Y-77470000D01*
X146498400Y-76200000D01*
X146701600Y-76200000D01*
X146701600Y-77470000D01*
G37*
G36*
X142701600Y-77470000D02*
G01*
X142498400Y-77470000D01*
X142498400Y-76200000D01*
X142701600Y-76200000D01*
X142701600Y-77470000D01*
G37*
G36*
X141701600Y-77470000D02*
G01*
X141498400Y-77470000D01*
X141498400Y-76200000D01*
X141701600Y-76200000D01*
X141701600Y-77470000D01*
G37*
G36*
X144701600Y-77470000D02*
G01*
X144498400Y-77470000D01*
X144498400Y-76200000D01*
X144701600Y-76200000D01*
X144701600Y-77470000D01*
G37*
G36*
X140701600Y-77470000D02*
G01*
X140498400Y-77470000D01*
X140498400Y-76200000D01*
X140701600Y-76200000D01*
X140701600Y-77470000D01*
G37*
G36*
X138752400Y-80010000D02*
G01*
X138447600Y-80010000D01*
X138447600Y-76200000D01*
X138752400Y-76200000D01*
X138752400Y-80010000D01*
G37*
G36*
X147701600Y-77470000D02*
G01*
X147498400Y-77470000D01*
X147498400Y-76200000D01*
X147701600Y-76200000D01*
X147701600Y-77470000D01*
G37*
G36*
X139701600Y-77470000D02*
G01*
X139498400Y-77470000D01*
X139498400Y-76200000D01*
X139701600Y-76200000D01*
X139701600Y-77470000D01*
G37*
G36*
X143701600Y-78740000D02*
G01*
X143498400Y-78740000D01*
X143498400Y-76200000D01*
X143701600Y-76200000D01*
X143701600Y-78740000D01*
G37*
G36*
X148752400Y-80010000D02*
G01*
X148447600Y-80010000D01*
X148447600Y-76200000D01*
X148752400Y-76200000D01*
X148752400Y-80010000D01*
G37*
G36*
X145701600Y-77470000D02*
G01*
X145498400Y-77470000D01*
X145498400Y-76200000D01*
X145701600Y-76200000D01*
X145701600Y-77470000D01*
G37*
G36*
X119301600Y-107950000D02*
G01*
X119098400Y-107950000D01*
X119098400Y-106680000D01*
X119301600Y-106680000D01*
X119301600Y-107950000D01*
G37*
G36*
X122301600Y-107950000D02*
G01*
X122098400Y-107950000D01*
X122098400Y-106680000D01*
X122301600Y-106680000D01*
X122301600Y-107950000D01*
G37*
G36*
X118301600Y-107950000D02*
G01*
X118098400Y-107950000D01*
X118098400Y-106680000D01*
X118301600Y-106680000D01*
X118301600Y-107950000D01*
G37*
G36*
X121301600Y-107950000D02*
G01*
X121098400Y-107950000D01*
X121098400Y-105410000D01*
X121301600Y-105410000D01*
X121301600Y-107950000D01*
G37*
G36*
X123301600Y-107950000D02*
G01*
X123098400Y-107950000D01*
X123098400Y-106680000D01*
X123301600Y-106680000D01*
X123301600Y-107950000D01*
G37*
G36*
X116352400Y-107950000D02*
G01*
X116047600Y-107950000D01*
X116047600Y-104140000D01*
X116352400Y-104140000D01*
X116352400Y-107950000D01*
G37*
G36*
X125301600Y-107950000D02*
G01*
X125098400Y-107950000D01*
X125098400Y-106680000D01*
X125301600Y-106680000D01*
X125301600Y-107950000D01*
G37*
G36*
X126352400Y-107950000D02*
G01*
X126047600Y-107950000D01*
X126047600Y-104140000D01*
X126352400Y-104140000D01*
X126352400Y-107950000D01*
G37*
G36*
X120301600Y-107950000D02*
G01*
X120098400Y-107950000D01*
X120098400Y-106680000D01*
X120301600Y-106680000D01*
X120301600Y-107950000D01*
G37*
G36*
X117301600Y-107950000D02*
G01*
X117098400Y-107950000D01*
X117098400Y-106680000D01*
X117301600Y-106680000D01*
X117301600Y-107950000D01*
G37*
G36*
X124301600Y-107950000D02*
G01*
X124098400Y-107950000D01*
X124098400Y-106680000D01*
X124301600Y-106680000D01*
X124301600Y-107950000D01*
G37*
G36*
X110301600Y-107950000D02*
G01*
X110098400Y-107950000D01*
X110098400Y-106680000D01*
X110301600Y-106680000D01*
X110301600Y-107950000D01*
G37*
G36*
X113301600Y-107950000D02*
G01*
X113098400Y-107950000D01*
X113098400Y-106680000D01*
X113301600Y-106680000D01*
X113301600Y-107950000D01*
G37*
G36*
X111301600Y-107950000D02*
G01*
X111098400Y-107950000D01*
X111098400Y-105410000D01*
X111301600Y-105410000D01*
X111301600Y-107950000D01*
G37*
G36*
X106352400Y-107950000D02*
G01*
X106047600Y-107950000D01*
X106047600Y-104140000D01*
X106352400Y-104140000D01*
X106352400Y-107950000D01*
G37*
G36*
X115301600Y-107950000D02*
G01*
X115098400Y-107950000D01*
X115098400Y-106680000D01*
X115301600Y-106680000D01*
X115301600Y-107950000D01*
G37*
G36*
X108301600Y-107950000D02*
G01*
X108098400Y-107950000D01*
X108098400Y-106680000D01*
X108301600Y-106680000D01*
X108301600Y-107950000D01*
G37*
G36*
X109301600Y-107950000D02*
G01*
X109098400Y-107950000D01*
X109098400Y-106680000D01*
X109301600Y-106680000D01*
X109301600Y-107950000D01*
G37*
G36*
X107301600Y-107950000D02*
G01*
X107098400Y-107950000D01*
X107098400Y-106680000D01*
X107301600Y-106680000D01*
X107301600Y-107950000D01*
G37*
G36*
X116352400Y-107950000D02*
G01*
X116047600Y-107950000D01*
X116047600Y-104140000D01*
X116352400Y-104140000D01*
X116352400Y-107950000D01*
G37*
G36*
X112301600Y-107950000D02*
G01*
X112098400Y-107950000D01*
X112098400Y-106680000D01*
X112301600Y-106680000D01*
X112301600Y-107950000D01*
G37*
G36*
X114301600Y-107950000D02*
G01*
X114098400Y-107950000D01*
X114098400Y-106680000D01*
X114301600Y-106680000D01*
X114301600Y-107950000D01*
G37*
G36*
X118752400Y-80010000D02*
G01*
X118447600Y-80010000D01*
X118447600Y-76200000D01*
X118752400Y-76200000D01*
X118752400Y-80010000D01*
G37*
G36*
X128752400Y-80010000D02*
G01*
X128447600Y-80010000D01*
X128447600Y-76200000D01*
X128752400Y-76200000D01*
X128752400Y-80010000D01*
G37*
G36*
X124701600Y-77470000D02*
G01*
X124498400Y-77470000D01*
X124498400Y-76200000D01*
X124701600Y-76200000D01*
X124701600Y-77470000D01*
G37*
G36*
X123701600Y-78740000D02*
G01*
X123498400Y-78740000D01*
X123498400Y-76200000D01*
X123701600Y-76200000D01*
X123701600Y-78740000D01*
G37*
G36*
X121701600Y-77470000D02*
G01*
X121498400Y-77470000D01*
X121498400Y-76200000D01*
X121701600Y-76200000D01*
X121701600Y-77470000D01*
G37*
G36*
X127701600Y-77470000D02*
G01*
X127498400Y-77470000D01*
X127498400Y-76200000D01*
X127701600Y-76200000D01*
X127701600Y-77470000D01*
G37*
G36*
X122701600Y-77470000D02*
G01*
X122498400Y-77470000D01*
X122498400Y-76200000D01*
X122701600Y-76200000D01*
X122701600Y-77470000D01*
G37*
G36*
X119701600Y-77470000D02*
G01*
X119498400Y-77470000D01*
X119498400Y-76200000D01*
X119701600Y-76200000D01*
X119701600Y-77470000D01*
G37*
G36*
X120701600Y-77470000D02*
G01*
X120498400Y-77470000D01*
X120498400Y-76200000D01*
X120701600Y-76200000D01*
X120701600Y-77470000D01*
G37*
G36*
X126701600Y-77470000D02*
G01*
X126498400Y-77470000D01*
X126498400Y-76200000D01*
X126701600Y-76200000D01*
X126701600Y-77470000D01*
G37*
G36*
X125701600Y-77470000D02*
G01*
X125498400Y-77470000D01*
X125498400Y-76200000D01*
X125701600Y-76200000D01*
X125701600Y-77470000D01*
G37*
D10*
X222350000Y-88900000D03*
D11*
X209350000Y-88900000D03*
D12*
X204350000Y-88900000D03*
D13*
X196850000Y-88900000D03*
D14*
X200350000Y-88900000D03*
D15*
X215350000Y-88900000D03*
D16*
X198755000Y-95250000D03*
D17*
X205740000Y-95250000D03*
D18*
X216535000Y-95250000D03*
D19*
X224790000Y-95250000D03*
D20*
X220980000Y-95250000D03*
D21*
X211455000Y-95250000D03*
D22*
X95250000Y-89154000D03*
D20*
X95250000Y-83058000D03*
D23*
X95250000Y-100584000D03*
D24*
X95250000Y-86360000D03*
D25*
X95250000Y-98044000D03*
D26*
X95250000Y-101854000D03*
D27*
X95250000Y-99314000D03*
D28*
X95250000Y-93472000D03*
D29*
X95250000Y-95250000D03*
D30*
X95250000Y-96774000D03*
D31*
X95250000Y-91440000D03*
M02*
