G04 #@! TF.GenerationSoftware,KiCad,Pcbnew,(6.0.0)*
G04 #@! TF.CreationDate,2022-05-01T21:30:31-04:00*
G04 #@! TF.ProjectId,ruler,72756c65-722e-46b6-9963-61645f706362,0.1*
G04 #@! TF.SameCoordinates,Original*
G04 #@! TF.FileFunction,Legend,Bot*
G04 #@! TF.FilePolarity,Positive*
%FSLAX46Y46*%
G04 Gerber Fmt 4.6, Leading zero omitted, Abs format (unit mm)*
G04 Created by KiCad (PCBNEW (6.0.0)) date 2022-05-01 21:30:31*
%MOMM*%
%LPD*%
G01*
G04 APERTURE LIST*
%ADD10C,0.120000*%
%ADD11C,0.300000*%
%ADD12C,0.200000*%
%ADD13C,0.150000*%
%ADD14C,0.100000*%
%ADD15C,0.080000*%
%ADD16C,0.090000*%
%ADD17C,0.070000*%
%ADD18C,0.050000*%
%ADD19C,0.060000*%
%ADD20C,0.170000*%
%ADD21C,0.250000*%
G04 APERTURE END LIST*
D10*
X193040000Y-97790000D02*
X193040000Y-82550000D01*
X100330000Y-82550000D02*
X100330000Y-99060000D01*
X193040000Y-82550000D02*
X130810000Y-82550000D01*
X130810000Y-82550000D02*
X130810000Y-97790000D01*
X128270000Y-99060000D02*
X128270000Y-82550000D01*
X130810000Y-97790000D02*
X193040000Y-97790000D01*
X128270000Y-82550000D02*
X100330000Y-82550000D01*
X100330000Y-99060000D02*
X128270000Y-99060000D01*
D11*
X173319047Y-103045238D02*
X172176190Y-103045238D01*
X172747619Y-103045238D02*
X172747619Y-105045238D01*
X172557142Y-104759523D01*
X172366666Y-104569047D01*
X172176190Y-104473809D01*
X174557142Y-105045238D02*
X174747619Y-105045238D01*
X174938095Y-104950000D01*
X175033333Y-104854761D01*
X175128571Y-104664285D01*
X175223809Y-104283333D01*
X175223809Y-103807142D01*
X175128571Y-103426190D01*
X175033333Y-103235714D01*
X174938095Y-103140476D01*
X174747619Y-103045238D01*
X174557142Y-103045238D01*
X174366666Y-103140476D01*
X174271428Y-103235714D01*
X174176190Y-103426190D01*
X174080952Y-103807142D01*
X174080952Y-104283333D01*
X174176190Y-104664285D01*
X174271428Y-104854761D01*
X174366666Y-104950000D01*
X174557142Y-105045238D01*
X223319047Y-103045238D02*
X222176190Y-103045238D01*
X222747619Y-103045238D02*
X222747619Y-105045238D01*
X222557142Y-104759523D01*
X222366666Y-104569047D01*
X222176190Y-104473809D01*
X225128571Y-105045238D02*
X224176190Y-105045238D01*
X224080952Y-104092857D01*
X224176190Y-104188095D01*
X224366666Y-104283333D01*
X224842857Y-104283333D01*
X225033333Y-104188095D01*
X225128571Y-104092857D01*
X225223809Y-103902380D01*
X225223809Y-103426190D01*
X225128571Y-103235714D01*
X225033333Y-103140476D01*
X224842857Y-103045238D01*
X224366666Y-103045238D01*
X224176190Y-103140476D01*
X224080952Y-103235714D01*
D12*
X125200571Y-96917142D02*
X125143428Y-97031428D01*
X125143428Y-97260000D01*
X125200571Y-97374285D01*
X125314857Y-97431428D01*
X125772000Y-97431428D01*
X125886286Y-97374285D01*
X125943428Y-97260000D01*
X125943428Y-97031428D01*
X125886286Y-96917142D01*
X125772000Y-96860000D01*
X125657714Y-96860000D01*
X125543428Y-97431428D01*
X125143428Y-96460000D02*
X125943428Y-95831428D01*
X125943428Y-96460000D02*
X125143428Y-95831428D01*
X125143428Y-94860000D02*
X125772000Y-94860000D01*
X125886286Y-94917142D01*
X125943428Y-95031428D01*
X125943428Y-95260000D01*
X125886286Y-95374285D01*
X125200571Y-94860000D02*
X125143428Y-94974285D01*
X125143428Y-95260000D01*
X125200571Y-95374285D01*
X125314857Y-95431428D01*
X125429143Y-95431428D01*
X125543428Y-95374285D01*
X125600571Y-95260000D01*
X125600571Y-94974285D01*
X125657714Y-94860000D01*
X124011428Y-97374285D02*
X122811428Y-97374285D01*
X123954286Y-97374285D02*
X124011428Y-97260000D01*
X124011428Y-97031428D01*
X123954286Y-96917142D01*
X123897143Y-96860000D01*
X123782857Y-96802857D01*
X123440000Y-96802857D01*
X123325714Y-96860000D01*
X123268571Y-96917142D01*
X123211428Y-97031428D01*
X123211428Y-97260000D01*
X123268571Y-97374285D01*
X123268571Y-95831428D02*
X123211428Y-95945714D01*
X123211428Y-96174285D01*
X123268571Y-96288571D01*
X123382857Y-96345714D01*
X123840000Y-96345714D01*
X123954286Y-96288571D01*
X124011428Y-96174285D01*
X124011428Y-95945714D01*
X123954286Y-95831428D01*
X123840000Y-95774285D01*
X123725714Y-95774285D01*
X123611428Y-96345714D01*
X124011428Y-95431428D02*
X124011428Y-94974285D01*
X124411428Y-95260000D02*
X123382857Y-95260000D01*
X123268571Y-95202857D01*
X123211428Y-95088571D01*
X123211428Y-94974285D01*
X123211428Y-94060000D02*
X123840000Y-94060000D01*
X123954286Y-94117142D01*
X124011428Y-94231428D01*
X124011428Y-94460000D01*
X123954286Y-94574285D01*
X123268571Y-94060000D02*
X123211428Y-94174285D01*
X123211428Y-94460000D01*
X123268571Y-94574285D01*
X123382857Y-94631428D01*
X123497143Y-94631428D01*
X123611428Y-94574285D01*
X123668571Y-94460000D01*
X123668571Y-94174285D01*
X123725714Y-94060000D01*
X122079428Y-97545714D02*
X122079428Y-97088571D01*
X122479428Y-97374285D02*
X121450857Y-97374285D01*
X121336571Y-97317142D01*
X121279428Y-97202857D01*
X121279428Y-97088571D01*
X121336571Y-96231428D02*
X121279428Y-96345714D01*
X121279428Y-96574285D01*
X121336571Y-96688571D01*
X121450857Y-96745714D01*
X121908000Y-96745714D01*
X122022286Y-96688571D01*
X122079428Y-96574285D01*
X122079428Y-96345714D01*
X122022286Y-96231428D01*
X121908000Y-96174285D01*
X121793714Y-96174285D01*
X121679428Y-96745714D01*
X121279428Y-95660000D02*
X122079428Y-95660000D01*
X121850857Y-95660000D02*
X121965143Y-95602857D01*
X122022286Y-95545714D01*
X122079428Y-95431428D01*
X122079428Y-95317142D01*
X121279428Y-94402857D02*
X121908000Y-94402857D01*
X122022286Y-94460000D01*
X122079428Y-94574285D01*
X122079428Y-94802857D01*
X122022286Y-94917142D01*
X121336571Y-94402857D02*
X121279428Y-94517142D01*
X121279428Y-94802857D01*
X121336571Y-94917142D01*
X121450857Y-94974285D01*
X121565143Y-94974285D01*
X121679428Y-94917142D01*
X121736571Y-94802857D01*
X121736571Y-94517142D01*
X121793714Y-94402857D01*
X120147428Y-96860000D02*
X119176000Y-96860000D01*
X119061714Y-96917142D01*
X119004571Y-96974285D01*
X118947428Y-97088571D01*
X118947428Y-97260000D01*
X119004571Y-97374285D01*
X119404571Y-96860000D02*
X119347428Y-96974285D01*
X119347428Y-97202857D01*
X119404571Y-97317142D01*
X119461714Y-97374285D01*
X119576000Y-97431428D01*
X119918857Y-97431428D01*
X120033143Y-97374285D01*
X120090286Y-97317142D01*
X120147428Y-97202857D01*
X120147428Y-96974285D01*
X120090286Y-96860000D01*
X119347428Y-96288571D02*
X120147428Y-96288571D01*
X120547428Y-96288571D02*
X120490286Y-96345714D01*
X120433143Y-96288571D01*
X120490286Y-96231428D01*
X120547428Y-96288571D01*
X120433143Y-96288571D01*
X120147428Y-95202857D02*
X119176000Y-95202857D01*
X119061714Y-95260000D01*
X119004571Y-95317142D01*
X118947428Y-95431428D01*
X118947428Y-95602857D01*
X119004571Y-95717142D01*
X119404571Y-95202857D02*
X119347428Y-95317142D01*
X119347428Y-95545714D01*
X119404571Y-95660000D01*
X119461714Y-95717142D01*
X119576000Y-95774285D01*
X119918857Y-95774285D01*
X120033143Y-95717142D01*
X120090286Y-95660000D01*
X120147428Y-95545714D01*
X120147428Y-95317142D01*
X120090286Y-95202857D01*
X119347428Y-94117142D02*
X119976000Y-94117142D01*
X120090286Y-94174285D01*
X120147428Y-94288571D01*
X120147428Y-94517142D01*
X120090286Y-94631428D01*
X119404571Y-94117142D02*
X119347428Y-94231428D01*
X119347428Y-94517142D01*
X119404571Y-94631428D01*
X119518857Y-94688571D01*
X119633143Y-94688571D01*
X119747428Y-94631428D01*
X119804571Y-94517142D01*
X119804571Y-94231428D01*
X119861714Y-94117142D01*
X117415428Y-97374285D02*
X118215428Y-97374285D01*
X118101143Y-97374285D02*
X118158286Y-97317142D01*
X118215428Y-97202857D01*
X118215428Y-97031428D01*
X118158286Y-96917142D01*
X118044000Y-96860000D01*
X117415428Y-96860000D01*
X118044000Y-96860000D02*
X118158286Y-96802857D01*
X118215428Y-96688571D01*
X118215428Y-96517142D01*
X118158286Y-96402857D01*
X118044000Y-96345714D01*
X117415428Y-96345714D01*
X117472571Y-95317142D02*
X117415428Y-95431428D01*
X117415428Y-95660000D01*
X117472571Y-95774285D01*
X117586857Y-95831428D01*
X118044000Y-95831428D01*
X118158286Y-95774285D01*
X118215428Y-95660000D01*
X118215428Y-95431428D01*
X118158286Y-95317142D01*
X118044000Y-95260000D01*
X117929714Y-95260000D01*
X117815428Y-95831428D01*
X118215428Y-94231428D02*
X117244000Y-94231428D01*
X117129714Y-94288571D01*
X117072571Y-94345714D01*
X117015428Y-94460000D01*
X117015428Y-94631428D01*
X117072571Y-94745714D01*
X117472571Y-94231428D02*
X117415428Y-94345714D01*
X117415428Y-94574285D01*
X117472571Y-94688571D01*
X117529714Y-94745714D01*
X117644000Y-94802857D01*
X117986857Y-94802857D01*
X118101143Y-94745714D01*
X118158286Y-94688571D01*
X118215428Y-94574285D01*
X118215428Y-94345714D01*
X118158286Y-94231428D01*
X117415428Y-93145714D02*
X118044000Y-93145714D01*
X118158286Y-93202857D01*
X118215428Y-93317142D01*
X118215428Y-93545714D01*
X118158286Y-93660000D01*
X117472571Y-93145714D02*
X117415428Y-93260000D01*
X117415428Y-93545714D01*
X117472571Y-93660000D01*
X117586857Y-93717142D01*
X117701143Y-93717142D01*
X117815428Y-93660000D01*
X117872571Y-93545714D01*
X117872571Y-93260000D01*
X117929714Y-93145714D01*
X115483428Y-97374285D02*
X116683428Y-97374285D01*
X115940571Y-97260000D02*
X115483428Y-96917142D01*
X116283428Y-96917142D02*
X115826286Y-97374285D01*
X115483428Y-96402857D02*
X116283428Y-96402857D01*
X116683428Y-96402857D02*
X116626286Y-96460000D01*
X116569143Y-96402857D01*
X116626286Y-96345714D01*
X116683428Y-96402857D01*
X116569143Y-96402857D01*
X115483428Y-95660000D02*
X115540571Y-95774285D01*
X115654857Y-95831428D01*
X116683428Y-95831428D01*
X115483428Y-95031428D02*
X115540571Y-95145714D01*
X115597714Y-95202857D01*
X115712000Y-95260000D01*
X116054857Y-95260000D01*
X116169143Y-95202857D01*
X116226286Y-95145714D01*
X116283428Y-95031428D01*
X116283428Y-94860000D01*
X116226286Y-94745714D01*
X116169143Y-94688571D01*
X116054857Y-94631428D01*
X115712000Y-94631428D01*
X115597714Y-94688571D01*
X115540571Y-94745714D01*
X115483428Y-94860000D01*
X115483428Y-95031428D01*
X114008571Y-97374285D02*
X114008571Y-96460000D01*
X111619428Y-97374285D02*
X112419428Y-97374285D01*
X112305143Y-97374285D02*
X112362286Y-97317142D01*
X112419428Y-97202857D01*
X112419428Y-97031428D01*
X112362286Y-96917142D01*
X112248000Y-96860000D01*
X111619428Y-96860000D01*
X112248000Y-96860000D02*
X112362286Y-96802857D01*
X112419428Y-96688571D01*
X112419428Y-96517142D01*
X112362286Y-96402857D01*
X112248000Y-96345714D01*
X111619428Y-96345714D01*
X111619428Y-95774285D02*
X112419428Y-95774285D01*
X112819428Y-95774285D02*
X112762286Y-95831428D01*
X112705143Y-95774285D01*
X112762286Y-95717142D01*
X112819428Y-95774285D01*
X112705143Y-95774285D01*
X111619428Y-95031428D02*
X111676571Y-95145714D01*
X111790857Y-95202857D01*
X112819428Y-95202857D01*
X111619428Y-94402857D02*
X111676571Y-94517142D01*
X111790857Y-94574285D01*
X112819428Y-94574285D01*
X111619428Y-93945714D02*
X112419428Y-93945714D01*
X112819428Y-93945714D02*
X112762286Y-94002857D01*
X112705143Y-93945714D01*
X112762286Y-93888571D01*
X112819428Y-93945714D01*
X112705143Y-93945714D01*
X109687428Y-97374285D02*
X110487428Y-97374285D01*
X110373143Y-97374285D02*
X110430286Y-97317142D01*
X110487428Y-97202857D01*
X110487428Y-97031428D01*
X110430286Y-96917142D01*
X110316000Y-96860000D01*
X109687428Y-96860000D01*
X110316000Y-96860000D02*
X110430286Y-96802857D01*
X110487428Y-96688571D01*
X110487428Y-96517142D01*
X110430286Y-96402857D01*
X110316000Y-96345714D01*
X109687428Y-96345714D01*
X109687428Y-95774285D02*
X110487428Y-95774285D01*
X110887428Y-95774285D02*
X110830286Y-95831428D01*
X110773143Y-95774285D01*
X110830286Y-95717142D01*
X110887428Y-95774285D01*
X110773143Y-95774285D01*
X109744571Y-94688571D02*
X109687428Y-94802857D01*
X109687428Y-95031428D01*
X109744571Y-95145714D01*
X109801714Y-95202857D01*
X109916000Y-95260000D01*
X110258857Y-95260000D01*
X110373143Y-95202857D01*
X110430286Y-95145714D01*
X110487428Y-95031428D01*
X110487428Y-94802857D01*
X110430286Y-94688571D01*
X109687428Y-94174285D02*
X110487428Y-94174285D01*
X110258857Y-94174285D02*
X110373143Y-94117142D01*
X110430286Y-94060000D01*
X110487428Y-93945714D01*
X110487428Y-93831428D01*
X109687428Y-93260000D02*
X109744571Y-93374285D01*
X109801714Y-93431428D01*
X109916000Y-93488571D01*
X110258857Y-93488571D01*
X110373143Y-93431428D01*
X110430286Y-93374285D01*
X110487428Y-93260000D01*
X110487428Y-93088571D01*
X110430286Y-92974285D01*
X110373143Y-92917142D01*
X110258857Y-92860000D01*
X109916000Y-92860000D01*
X109801714Y-92917142D01*
X109744571Y-92974285D01*
X109687428Y-93088571D01*
X109687428Y-93260000D01*
X108555428Y-97374285D02*
X107755428Y-97374285D01*
X108441143Y-97374285D02*
X108498286Y-97317142D01*
X108555428Y-97202857D01*
X108555428Y-97031428D01*
X108498286Y-96917142D01*
X108384000Y-96860000D01*
X107755428Y-96860000D01*
X107755428Y-95774285D02*
X108384000Y-95774285D01*
X108498286Y-95831428D01*
X108555428Y-95945714D01*
X108555428Y-96174285D01*
X108498286Y-96288571D01*
X107812571Y-95774285D02*
X107755428Y-95888571D01*
X107755428Y-96174285D01*
X107812571Y-96288571D01*
X107926857Y-96345714D01*
X108041143Y-96345714D01*
X108155428Y-96288571D01*
X108212571Y-96174285D01*
X108212571Y-95888571D01*
X108269714Y-95774285D01*
X108555428Y-95202857D02*
X107755428Y-95202857D01*
X108441143Y-95202857D02*
X108498286Y-95145714D01*
X108555428Y-95031428D01*
X108555428Y-94860000D01*
X108498286Y-94745714D01*
X108384000Y-94688571D01*
X107755428Y-94688571D01*
X107755428Y-93945714D02*
X107812571Y-94060000D01*
X107869714Y-94117142D01*
X107984000Y-94174285D01*
X108326857Y-94174285D01*
X108441143Y-94117142D01*
X108498286Y-94060000D01*
X108555428Y-93945714D01*
X108555428Y-93774285D01*
X108498286Y-93660000D01*
X108441143Y-93602857D01*
X108326857Y-93545714D01*
X107984000Y-93545714D01*
X107869714Y-93602857D01*
X107812571Y-93660000D01*
X107755428Y-93774285D01*
X107755428Y-93945714D01*
X106623428Y-97374285D02*
X105423428Y-97374285D01*
X106566286Y-97374285D02*
X106623428Y-97260000D01*
X106623428Y-97031428D01*
X106566286Y-96917142D01*
X106509143Y-96860000D01*
X106394857Y-96802857D01*
X106052000Y-96802857D01*
X105937714Y-96860000D01*
X105880571Y-96917142D01*
X105823428Y-97031428D01*
X105823428Y-97260000D01*
X105880571Y-97374285D01*
X105823428Y-96288571D02*
X106623428Y-96288571D01*
X107023428Y-96288571D02*
X106966286Y-96345714D01*
X106909143Y-96288571D01*
X106966286Y-96231428D01*
X107023428Y-96288571D01*
X106909143Y-96288571D01*
X105880571Y-95202857D02*
X105823428Y-95317142D01*
X105823428Y-95545714D01*
X105880571Y-95660000D01*
X105937714Y-95717142D01*
X106052000Y-95774285D01*
X106394857Y-95774285D01*
X106509143Y-95717142D01*
X106566286Y-95660000D01*
X106623428Y-95545714D01*
X106623428Y-95317142D01*
X106566286Y-95202857D01*
X105823428Y-94517142D02*
X105880571Y-94631428D01*
X105937714Y-94688571D01*
X106052000Y-94745714D01*
X106394857Y-94745714D01*
X106509143Y-94688571D01*
X106566286Y-94631428D01*
X106623428Y-94517142D01*
X106623428Y-94345714D01*
X106566286Y-94231428D01*
X106509143Y-94174285D01*
X106394857Y-94117142D01*
X106052000Y-94117142D01*
X105937714Y-94174285D01*
X105880571Y-94231428D01*
X105823428Y-94345714D01*
X105823428Y-94517142D01*
X104691428Y-97545714D02*
X104691428Y-97088571D01*
X103891428Y-97374285D02*
X104920000Y-97374285D01*
X105034286Y-97317142D01*
X105091428Y-97202857D01*
X105091428Y-97088571D01*
X103948571Y-96231428D02*
X103891428Y-96345714D01*
X103891428Y-96574285D01*
X103948571Y-96688571D01*
X104062857Y-96745714D01*
X104520000Y-96745714D01*
X104634286Y-96688571D01*
X104691428Y-96574285D01*
X104691428Y-96345714D01*
X104634286Y-96231428D01*
X104520000Y-96174285D01*
X104405714Y-96174285D01*
X104291428Y-96745714D01*
X103891428Y-95660000D02*
X104691428Y-95660000D01*
X104577143Y-95660000D02*
X104634286Y-95602857D01*
X104691428Y-95488571D01*
X104691428Y-95317142D01*
X104634286Y-95202857D01*
X104520000Y-95145714D01*
X103891428Y-95145714D01*
X104520000Y-95145714D02*
X104634286Y-95088571D01*
X104691428Y-94974285D01*
X104691428Y-94802857D01*
X104634286Y-94688571D01*
X104520000Y-94631428D01*
X103891428Y-94631428D01*
X104691428Y-94231428D02*
X104691428Y-93774285D01*
X105091428Y-94060000D02*
X104062857Y-94060000D01*
X103948571Y-94002857D01*
X103891428Y-93888571D01*
X103891428Y-93774285D01*
X103891428Y-93202857D02*
X103948571Y-93317142D01*
X104005714Y-93374285D01*
X104120000Y-93431428D01*
X104462857Y-93431428D01*
X104577143Y-93374285D01*
X104634286Y-93317142D01*
X104691428Y-93202857D01*
X104691428Y-93031428D01*
X104634286Y-92917142D01*
X104577143Y-92860000D01*
X104462857Y-92802857D01*
X104120000Y-92802857D01*
X104005714Y-92860000D01*
X103948571Y-92917142D01*
X103891428Y-93031428D01*
X103891428Y-93202857D01*
X101959428Y-96860000D02*
X102588000Y-96860000D01*
X102702286Y-96917142D01*
X102759428Y-97031428D01*
X102759428Y-97260000D01*
X102702286Y-97374285D01*
X102016571Y-96860000D02*
X101959428Y-96974285D01*
X101959428Y-97260000D01*
X102016571Y-97374285D01*
X102130857Y-97431428D01*
X102245143Y-97431428D01*
X102359428Y-97374285D01*
X102416571Y-97260000D01*
X102416571Y-96974285D01*
X102473714Y-96860000D01*
X102759428Y-96460000D02*
X102759428Y-96002857D01*
X103159428Y-96288571D02*
X102130857Y-96288571D01*
X102016571Y-96231428D01*
X101959428Y-96117142D01*
X101959428Y-96002857D01*
X102759428Y-95774285D02*
X102759428Y-95317142D01*
X103159428Y-95602857D02*
X102130857Y-95602857D01*
X102016571Y-95545714D01*
X101959428Y-95431428D01*
X101959428Y-95317142D01*
X101959428Y-94745714D02*
X102016571Y-94860000D01*
X102073714Y-94917142D01*
X102188000Y-94974285D01*
X102530857Y-94974285D01*
X102645143Y-94917142D01*
X102702286Y-94860000D01*
X102759428Y-94745714D01*
X102759428Y-94574285D01*
X102702286Y-94460000D01*
X102645143Y-94402857D01*
X102530857Y-94345714D01*
X102188000Y-94345714D01*
X102073714Y-94402857D01*
X102016571Y-94460000D01*
X101959428Y-94574285D01*
X101959428Y-94745714D01*
X125977714Y-91024285D02*
X125977714Y-90624285D01*
X125349142Y-90452857D02*
X125349142Y-91024285D01*
X126549142Y-91024285D01*
X126549142Y-90452857D01*
X123417142Y-91024285D02*
X124617142Y-91024285D01*
X124617142Y-90567142D01*
X124560000Y-90452857D01*
X124502857Y-90395714D01*
X124388571Y-90338571D01*
X124217142Y-90338571D01*
X124102857Y-90395714D01*
X124045714Y-90452857D01*
X123988571Y-90567142D01*
X123988571Y-91024285D01*
X122685142Y-91195714D02*
X122685142Y-90510000D01*
X121485142Y-90852857D02*
X122685142Y-90852857D01*
X120696000Y-90395714D02*
X120753142Y-90510000D01*
X120753142Y-90681428D01*
X120696000Y-90852857D01*
X120581714Y-90967142D01*
X120467428Y-91024285D01*
X120238857Y-91081428D01*
X120067428Y-91081428D01*
X119838857Y-91024285D01*
X119724571Y-90967142D01*
X119610285Y-90852857D01*
X119553142Y-90681428D01*
X119553142Y-90567142D01*
X119610285Y-90395714D01*
X119667428Y-90338571D01*
X120067428Y-90338571D01*
X120067428Y-90567142D01*
X117621142Y-91024285D02*
X118821142Y-91024285D01*
X117964000Y-90624285D01*
X118821142Y-90224285D01*
X117621142Y-90224285D01*
X115689142Y-91024285D02*
X116889142Y-91024285D01*
X116146285Y-90910000D02*
X115689142Y-90567142D01*
X116489142Y-90567142D02*
X116032000Y-91024285D01*
X114214285Y-91024285D02*
X114214285Y-90110000D01*
X111825142Y-91024285D02*
X112625142Y-91024285D01*
X112510857Y-91024285D02*
X112568000Y-90967142D01*
X112625142Y-90852857D01*
X112625142Y-90681428D01*
X112568000Y-90567142D01*
X112453714Y-90510000D01*
X111825142Y-90510000D01*
X112453714Y-90510000D02*
X112568000Y-90452857D01*
X112625142Y-90338571D01*
X112625142Y-90167142D01*
X112568000Y-90052857D01*
X112453714Y-89995714D01*
X111825142Y-89995714D01*
X110693142Y-91024285D02*
X109493142Y-91024285D01*
X110064571Y-90452857D02*
X109950285Y-90395714D01*
X109893142Y-90281428D01*
X110064571Y-91024285D02*
X109950285Y-90967142D01*
X109893142Y-90852857D01*
X109893142Y-90624285D01*
X109950285Y-90510000D01*
X110064571Y-90452857D01*
X110693142Y-90452857D01*
X108761142Y-91024285D02*
X107961142Y-91024285D01*
X108646857Y-91024285D02*
X108704000Y-90967142D01*
X108761142Y-90852857D01*
X108761142Y-90681428D01*
X108704000Y-90567142D01*
X108589714Y-90510000D01*
X107961142Y-90510000D01*
X106829142Y-91024285D02*
X105629142Y-91024285D01*
X106772000Y-91024285D02*
X106829142Y-90910000D01*
X106829142Y-90681428D01*
X106772000Y-90567142D01*
X106714857Y-90510000D01*
X106600571Y-90452857D01*
X106257714Y-90452857D01*
X106143428Y-90510000D01*
X106086285Y-90567142D01*
X106029142Y-90681428D01*
X106029142Y-90910000D01*
X106086285Y-91024285D01*
X104897142Y-91195714D02*
X104897142Y-90738571D01*
X104097142Y-91024285D02*
X105125714Y-91024285D01*
X105240000Y-90967142D01*
X105297142Y-90852857D01*
X105297142Y-90738571D01*
X102165142Y-90510000D02*
X102793714Y-90510000D01*
X102908000Y-90567142D01*
X102965142Y-90681428D01*
X102965142Y-90910000D01*
X102908000Y-91024285D01*
X102222285Y-90510000D02*
X102165142Y-90624285D01*
X102165142Y-90910000D01*
X102222285Y-91024285D01*
X102336571Y-91081428D01*
X102450857Y-91081428D01*
X102565142Y-91024285D01*
X102622285Y-90910000D01*
X102622285Y-90624285D01*
X102679428Y-90510000D01*
X191061428Y-84916857D02*
X191061428Y-83716857D01*
X190775714Y-83716857D01*
X190604285Y-83774000D01*
X190490000Y-83888285D01*
X190432857Y-84002571D01*
X190375714Y-84231142D01*
X190375714Y-84402571D01*
X190432857Y-84631142D01*
X190490000Y-84745428D01*
X190604285Y-84859714D01*
X190775714Y-84916857D01*
X191061428Y-84916857D01*
X189918571Y-84574000D02*
X189347142Y-84574000D01*
X190032857Y-84916857D02*
X189632857Y-83716857D01*
X189232857Y-84916857D01*
X189004285Y-83716857D02*
X188318571Y-83716857D01*
X188661428Y-84916857D02*
X188661428Y-83716857D01*
X187975714Y-84574000D02*
X187404285Y-84574000D01*
X188090000Y-84916857D02*
X187690000Y-83716857D01*
X187290000Y-84916857D01*
X186147142Y-83716857D02*
X185461428Y-83716857D01*
X185804285Y-84916857D02*
X185804285Y-83716857D01*
X184832857Y-84345428D02*
X184832857Y-84916857D01*
X185232857Y-83716857D02*
X184832857Y-84345428D01*
X184432857Y-83716857D01*
X184032857Y-84916857D02*
X184032857Y-83716857D01*
X183575714Y-83716857D01*
X183461428Y-83774000D01*
X183404285Y-83831142D01*
X183347142Y-83945428D01*
X183347142Y-84116857D01*
X183404285Y-84231142D01*
X183461428Y-84288285D01*
X183575714Y-84345428D01*
X184032857Y-84345428D01*
X182832857Y-84288285D02*
X182432857Y-84288285D01*
X182261428Y-84916857D02*
X182832857Y-84916857D01*
X182832857Y-83716857D01*
X182261428Y-83716857D01*
X187861428Y-86791714D02*
X187975714Y-86848857D01*
X188204285Y-86848857D01*
X188318571Y-86791714D01*
X188375714Y-86734571D01*
X188432857Y-86620285D01*
X188432857Y-86277428D01*
X188375714Y-86163142D01*
X188318571Y-86106000D01*
X188204285Y-86048857D01*
X187975714Y-86048857D01*
X187861428Y-86106000D01*
X187347142Y-86848857D02*
X187347142Y-85648857D01*
X186832857Y-86848857D02*
X186832857Y-86220285D01*
X186890000Y-86106000D01*
X187004285Y-86048857D01*
X187175714Y-86048857D01*
X187290000Y-86106000D01*
X187347142Y-86163142D01*
X185747142Y-86848857D02*
X185747142Y-86220285D01*
X185804285Y-86106000D01*
X185918571Y-86048857D01*
X186147142Y-86048857D01*
X186261428Y-86106000D01*
X185747142Y-86791714D02*
X185861428Y-86848857D01*
X186147142Y-86848857D01*
X186261428Y-86791714D01*
X186318571Y-86677428D01*
X186318571Y-86563142D01*
X186261428Y-86448857D01*
X186147142Y-86391714D01*
X185861428Y-86391714D01*
X185747142Y-86334571D01*
X185175714Y-86848857D02*
X185175714Y-86048857D01*
X185175714Y-86277428D02*
X185118571Y-86163142D01*
X185061428Y-86106000D01*
X184947142Y-86048857D01*
X184832857Y-86048857D01*
X190604285Y-88780857D02*
X190604285Y-87980857D01*
X190604285Y-87580857D02*
X190661428Y-87638000D01*
X190604285Y-87695142D01*
X190547142Y-87638000D01*
X190604285Y-87580857D01*
X190604285Y-87695142D01*
X190032857Y-87980857D02*
X190032857Y-88780857D01*
X190032857Y-88095142D02*
X189975714Y-88038000D01*
X189861428Y-87980857D01*
X189690000Y-87980857D01*
X189575714Y-88038000D01*
X189518571Y-88152285D01*
X189518571Y-88780857D01*
X189118571Y-87980857D02*
X188661428Y-87980857D01*
X188947142Y-87580857D02*
X188947142Y-88609428D01*
X188890000Y-88723714D01*
X188775714Y-88780857D01*
X188661428Y-88780857D01*
X188204285Y-88723714D02*
X188204285Y-88780857D01*
X188261428Y-88895142D01*
X188318571Y-88952285D01*
X186832857Y-88723714D02*
X186718571Y-88780857D01*
X186490000Y-88780857D01*
X186375714Y-88723714D01*
X186318571Y-88609428D01*
X186318571Y-88552285D01*
X186375714Y-88438000D01*
X186490000Y-88380857D01*
X186661428Y-88380857D01*
X186775714Y-88323714D01*
X186832857Y-88209428D01*
X186832857Y-88152285D01*
X186775714Y-88038000D01*
X186661428Y-87980857D01*
X186490000Y-87980857D01*
X186375714Y-88038000D01*
X185804285Y-88780857D02*
X185804285Y-87580857D01*
X185290000Y-88780857D02*
X185290000Y-88152285D01*
X185347142Y-88038000D01*
X185461428Y-87980857D01*
X185632857Y-87980857D01*
X185747142Y-88038000D01*
X185804285Y-88095142D01*
X184547142Y-88780857D02*
X184661428Y-88723714D01*
X184718571Y-88666571D01*
X184775714Y-88552285D01*
X184775714Y-88209428D01*
X184718571Y-88095142D01*
X184661428Y-88038000D01*
X184547142Y-87980857D01*
X184375714Y-87980857D01*
X184261428Y-88038000D01*
X184204285Y-88095142D01*
X184147142Y-88209428D01*
X184147142Y-88552285D01*
X184204285Y-88666571D01*
X184261428Y-88723714D01*
X184375714Y-88780857D01*
X184547142Y-88780857D01*
X183632857Y-88780857D02*
X183632857Y-87980857D01*
X183632857Y-88209428D02*
X183575714Y-88095142D01*
X183518571Y-88038000D01*
X183404285Y-87980857D01*
X183290000Y-87980857D01*
X183061428Y-87980857D02*
X182604285Y-87980857D01*
X182890000Y-87580857D02*
X182890000Y-88609428D01*
X182832857Y-88723714D01*
X182718571Y-88780857D01*
X182604285Y-88780857D01*
X190261428Y-90712857D02*
X190261428Y-89912857D01*
X190261428Y-89512857D02*
X190318571Y-89570000D01*
X190261428Y-89627142D01*
X190204285Y-89570000D01*
X190261428Y-89512857D01*
X190261428Y-89627142D01*
X189690000Y-89912857D02*
X189690000Y-90712857D01*
X189690000Y-90027142D02*
X189632857Y-89970000D01*
X189518571Y-89912857D01*
X189347142Y-89912857D01*
X189232857Y-89970000D01*
X189175714Y-90084285D01*
X189175714Y-90712857D01*
X188775714Y-89912857D02*
X188318571Y-89912857D01*
X188604285Y-89512857D02*
X188604285Y-90541428D01*
X188547142Y-90655714D01*
X188432857Y-90712857D01*
X188318571Y-90712857D01*
X187861428Y-90655714D02*
X187861428Y-90712857D01*
X187918571Y-90827142D01*
X187975714Y-90884285D01*
X186261428Y-90712857D02*
X186375714Y-90655714D01*
X186432857Y-90541428D01*
X186432857Y-89512857D01*
X185632857Y-90712857D02*
X185747142Y-90655714D01*
X185804285Y-90598571D01*
X185861428Y-90484285D01*
X185861428Y-90141428D01*
X185804285Y-90027142D01*
X185747142Y-89970000D01*
X185632857Y-89912857D01*
X185461428Y-89912857D01*
X185347142Y-89970000D01*
X185290000Y-90027142D01*
X185232857Y-90141428D01*
X185232857Y-90484285D01*
X185290000Y-90598571D01*
X185347142Y-90655714D01*
X185461428Y-90712857D01*
X185632857Y-90712857D01*
X184718571Y-89912857D02*
X184718571Y-90712857D01*
X184718571Y-90027142D02*
X184661428Y-89970000D01*
X184547142Y-89912857D01*
X184375714Y-89912857D01*
X184261428Y-89970000D01*
X184204285Y-90084285D01*
X184204285Y-90712857D01*
X183118571Y-89912857D02*
X183118571Y-90884285D01*
X183175714Y-90998571D01*
X183232857Y-91055714D01*
X183347142Y-91112857D01*
X183518571Y-91112857D01*
X183632857Y-91055714D01*
X183118571Y-90655714D02*
X183232857Y-90712857D01*
X183461428Y-90712857D01*
X183575714Y-90655714D01*
X183632857Y-90598571D01*
X183690000Y-90484285D01*
X183690000Y-90141428D01*
X183632857Y-90027142D01*
X183575714Y-89970000D01*
X183461428Y-89912857D01*
X183232857Y-89912857D01*
X183118571Y-89970000D01*
X188661428Y-91844857D02*
X188204285Y-91844857D01*
X188490000Y-92644857D02*
X188490000Y-91616285D01*
X188432857Y-91502000D01*
X188318571Y-91444857D01*
X188204285Y-91444857D01*
X187632857Y-92644857D02*
X187747142Y-92587714D01*
X187804285Y-92473428D01*
X187804285Y-91444857D01*
X187004285Y-92644857D02*
X187118571Y-92587714D01*
X187175714Y-92530571D01*
X187232857Y-92416285D01*
X187232857Y-92073428D01*
X187175714Y-91959142D01*
X187118571Y-91902000D01*
X187004285Y-91844857D01*
X186832857Y-91844857D01*
X186718571Y-91902000D01*
X186661428Y-91959142D01*
X186604285Y-92073428D01*
X186604285Y-92416285D01*
X186661428Y-92530571D01*
X186718571Y-92587714D01*
X186832857Y-92644857D01*
X187004285Y-92644857D01*
X185575714Y-92644857D02*
X185575714Y-92016285D01*
X185632857Y-91902000D01*
X185747142Y-91844857D01*
X185975714Y-91844857D01*
X186090000Y-91902000D01*
X185575714Y-92587714D02*
X185690000Y-92644857D01*
X185975714Y-92644857D01*
X186090000Y-92587714D01*
X186147142Y-92473428D01*
X186147142Y-92359142D01*
X186090000Y-92244857D01*
X185975714Y-92187714D01*
X185690000Y-92187714D01*
X185575714Y-92130571D01*
X185175714Y-91844857D02*
X184718571Y-91844857D01*
X185004285Y-91444857D02*
X185004285Y-92473428D01*
X184947142Y-92587714D01*
X184832857Y-92644857D01*
X184718571Y-92644857D01*
X188890000Y-94576857D02*
X188890000Y-93376857D01*
X188890000Y-94519714D02*
X189004285Y-94576857D01*
X189232857Y-94576857D01*
X189347142Y-94519714D01*
X189404285Y-94462571D01*
X189461428Y-94348285D01*
X189461428Y-94005428D01*
X189404285Y-93891142D01*
X189347142Y-93834000D01*
X189232857Y-93776857D01*
X189004285Y-93776857D01*
X188890000Y-93834000D01*
X188147142Y-94576857D02*
X188261428Y-94519714D01*
X188318571Y-94462571D01*
X188375714Y-94348285D01*
X188375714Y-94005428D01*
X188318571Y-93891142D01*
X188261428Y-93834000D01*
X188147142Y-93776857D01*
X187975714Y-93776857D01*
X187861428Y-93834000D01*
X187804285Y-93891142D01*
X187747142Y-94005428D01*
X187747142Y-94348285D01*
X187804285Y-94462571D01*
X187861428Y-94519714D01*
X187975714Y-94576857D01*
X188147142Y-94576857D01*
X186718571Y-93776857D02*
X186718571Y-94576857D01*
X187232857Y-93776857D02*
X187232857Y-94405428D01*
X187175714Y-94519714D01*
X187061428Y-94576857D01*
X186890000Y-94576857D01*
X186775714Y-94519714D01*
X186718571Y-94462571D01*
X186147142Y-94576857D02*
X186147142Y-93376857D01*
X186147142Y-93834000D02*
X186032857Y-93776857D01*
X185804285Y-93776857D01*
X185690000Y-93834000D01*
X185632857Y-93891142D01*
X185575714Y-94005428D01*
X185575714Y-94348285D01*
X185632857Y-94462571D01*
X185690000Y-94519714D01*
X185804285Y-94576857D01*
X186032857Y-94576857D01*
X186147142Y-94519714D01*
X184890000Y-94576857D02*
X185004285Y-94519714D01*
X185061428Y-94405428D01*
X185061428Y-93376857D01*
X183975714Y-94519714D02*
X184090000Y-94576857D01*
X184318571Y-94576857D01*
X184432857Y-94519714D01*
X184490000Y-94405428D01*
X184490000Y-93948285D01*
X184432857Y-93834000D01*
X184318571Y-93776857D01*
X184090000Y-93776857D01*
X183975714Y-93834000D01*
X183918571Y-93948285D01*
X183918571Y-94062571D01*
X184490000Y-94176857D01*
X191632857Y-96508857D02*
X191747142Y-96451714D01*
X191804285Y-96337428D01*
X191804285Y-95308857D01*
X191004285Y-96508857D02*
X191118571Y-96451714D01*
X191175714Y-96394571D01*
X191232857Y-96280285D01*
X191232857Y-95937428D01*
X191175714Y-95823142D01*
X191118571Y-95766000D01*
X191004285Y-95708857D01*
X190832857Y-95708857D01*
X190718571Y-95766000D01*
X190661428Y-95823142D01*
X190604285Y-95937428D01*
X190604285Y-96280285D01*
X190661428Y-96394571D01*
X190718571Y-96451714D01*
X190832857Y-96508857D01*
X191004285Y-96508857D01*
X190090000Y-95708857D02*
X190090000Y-96508857D01*
X190090000Y-95823142D02*
X190032857Y-95766000D01*
X189918571Y-95708857D01*
X189747142Y-95708857D01*
X189632857Y-95766000D01*
X189575714Y-95880285D01*
X189575714Y-96508857D01*
X188490000Y-95708857D02*
X188490000Y-96680285D01*
X188547142Y-96794571D01*
X188604285Y-96851714D01*
X188718571Y-96908857D01*
X188890000Y-96908857D01*
X189004285Y-96851714D01*
X188490000Y-96451714D02*
X188604285Y-96508857D01*
X188832857Y-96508857D01*
X188947142Y-96451714D01*
X189004285Y-96394571D01*
X189061428Y-96280285D01*
X189061428Y-95937428D01*
X189004285Y-95823142D01*
X188947142Y-95766000D01*
X188832857Y-95708857D01*
X188604285Y-95708857D01*
X188490000Y-95766000D01*
X186490000Y-96508857D02*
X186490000Y-95308857D01*
X186490000Y-96451714D02*
X186604285Y-96508857D01*
X186832857Y-96508857D01*
X186947142Y-96451714D01*
X187004285Y-96394571D01*
X187061428Y-96280285D01*
X187061428Y-95937428D01*
X187004285Y-95823142D01*
X186947142Y-95766000D01*
X186832857Y-95708857D01*
X186604285Y-95708857D01*
X186490000Y-95766000D01*
X185747142Y-96508857D02*
X185861428Y-96451714D01*
X185918571Y-96394571D01*
X185975714Y-96280285D01*
X185975714Y-95937428D01*
X185918571Y-95823142D01*
X185861428Y-95766000D01*
X185747142Y-95708857D01*
X185575714Y-95708857D01*
X185461428Y-95766000D01*
X185404285Y-95823142D01*
X185347142Y-95937428D01*
X185347142Y-96280285D01*
X185404285Y-96394571D01*
X185461428Y-96451714D01*
X185575714Y-96508857D01*
X185747142Y-96508857D01*
X184318571Y-95708857D02*
X184318571Y-96508857D01*
X184832857Y-95708857D02*
X184832857Y-96337428D01*
X184775714Y-96451714D01*
X184661428Y-96508857D01*
X184490000Y-96508857D01*
X184375714Y-96451714D01*
X184318571Y-96394571D01*
X183747142Y-96508857D02*
X183747142Y-95308857D01*
X183747142Y-95766000D02*
X183632857Y-95708857D01*
X183404285Y-95708857D01*
X183290000Y-95766000D01*
X183232857Y-95823142D01*
X183175714Y-95937428D01*
X183175714Y-96280285D01*
X183232857Y-96394571D01*
X183290000Y-96451714D01*
X183404285Y-96508857D01*
X183632857Y-96508857D01*
X183747142Y-96451714D01*
X182490000Y-96508857D02*
X182604285Y-96451714D01*
X182661428Y-96337428D01*
X182661428Y-95308857D01*
X181575714Y-96451714D02*
X181690000Y-96508857D01*
X181918571Y-96508857D01*
X182032857Y-96451714D01*
X182090000Y-96337428D01*
X182090000Y-95880285D01*
X182032857Y-95766000D01*
X181918571Y-95708857D01*
X181690000Y-95708857D01*
X181575714Y-95766000D01*
X181518571Y-95880285D01*
X181518571Y-95994571D01*
X182090000Y-96108857D01*
X178530000Y-84288285D02*
X178358571Y-84345428D01*
X178301428Y-84402571D01*
X178244285Y-84516857D01*
X178244285Y-84688285D01*
X178301428Y-84802571D01*
X178358571Y-84859714D01*
X178472857Y-84916857D01*
X178930000Y-84916857D01*
X178930000Y-83716857D01*
X178530000Y-83716857D01*
X178415714Y-83774000D01*
X178358571Y-83831142D01*
X178301428Y-83945428D01*
X178301428Y-84059714D01*
X178358571Y-84174000D01*
X178415714Y-84231142D01*
X178530000Y-84288285D01*
X178930000Y-84288285D01*
X177501428Y-84345428D02*
X177501428Y-84916857D01*
X177901428Y-83716857D02*
X177501428Y-84345428D01*
X177101428Y-83716857D01*
X176872857Y-83716857D02*
X176187142Y-83716857D01*
X176530000Y-84916857D02*
X176530000Y-83716857D01*
X175787142Y-84288285D02*
X175387142Y-84288285D01*
X175215714Y-84916857D02*
X175787142Y-84916857D01*
X175787142Y-83716857D01*
X175215714Y-83716857D01*
X174758571Y-84859714D02*
X174587142Y-84916857D01*
X174301428Y-84916857D01*
X174187142Y-84859714D01*
X174130000Y-84802571D01*
X174072857Y-84688285D01*
X174072857Y-84574000D01*
X174130000Y-84459714D01*
X174187142Y-84402571D01*
X174301428Y-84345428D01*
X174530000Y-84288285D01*
X174644285Y-84231142D01*
X174701428Y-84174000D01*
X174758571Y-84059714D01*
X174758571Y-83945428D01*
X174701428Y-83831142D01*
X174644285Y-83774000D01*
X174530000Y-83716857D01*
X174244285Y-83716857D01*
X174072857Y-83774000D01*
X176187142Y-86848857D02*
X176872857Y-86848857D01*
X176530000Y-86848857D02*
X176530000Y-85648857D01*
X176644285Y-85820285D01*
X176758571Y-85934571D01*
X176872857Y-85991714D01*
X176872857Y-87695142D02*
X176815714Y-87638000D01*
X176701428Y-87580857D01*
X176415714Y-87580857D01*
X176301428Y-87638000D01*
X176244285Y-87695142D01*
X176187142Y-87809428D01*
X176187142Y-87923714D01*
X176244285Y-88095142D01*
X176930000Y-88780857D01*
X176187142Y-88780857D01*
X176301428Y-89912857D02*
X176301428Y-90712857D01*
X176587142Y-89455714D02*
X176872857Y-90312857D01*
X176130000Y-90312857D01*
X176301428Y-91844857D02*
X176301428Y-92644857D01*
X176587142Y-91387714D02*
X176872857Y-92244857D01*
X176130000Y-92244857D01*
X176644285Y-93891142D02*
X176758571Y-93834000D01*
X176815714Y-93776857D01*
X176872857Y-93662571D01*
X176872857Y-93605428D01*
X176815714Y-93491142D01*
X176758571Y-93434000D01*
X176644285Y-93376857D01*
X176415714Y-93376857D01*
X176301428Y-93434000D01*
X176244285Y-93491142D01*
X176187142Y-93605428D01*
X176187142Y-93662571D01*
X176244285Y-93776857D01*
X176301428Y-93834000D01*
X176415714Y-93891142D01*
X176644285Y-93891142D01*
X176758571Y-93948285D01*
X176815714Y-94005428D01*
X176872857Y-94119714D01*
X176872857Y-94348285D01*
X176815714Y-94462571D01*
X176758571Y-94519714D01*
X176644285Y-94576857D01*
X176415714Y-94576857D01*
X176301428Y-94519714D01*
X176244285Y-94462571D01*
X176187142Y-94348285D01*
X176187142Y-94119714D01*
X176244285Y-94005428D01*
X176301428Y-93948285D01*
X176415714Y-93891142D01*
X176758571Y-96508857D02*
X177444285Y-96508857D01*
X177101428Y-96508857D02*
X177101428Y-95308857D01*
X177215714Y-95480285D01*
X177330000Y-95594571D01*
X177444285Y-95651714D01*
X176015714Y-95308857D02*
X175901428Y-95308857D01*
X175787142Y-95366000D01*
X175730000Y-95423142D01*
X175672857Y-95537428D01*
X175615714Y-95766000D01*
X175615714Y-96051714D01*
X175672857Y-96280285D01*
X175730000Y-96394571D01*
X175787142Y-96451714D01*
X175901428Y-96508857D01*
X176015714Y-96508857D01*
X176130000Y-96451714D01*
X176187142Y-96394571D01*
X176244285Y-96280285D01*
X176301428Y-96051714D01*
X176301428Y-95766000D01*
X176244285Y-95537428D01*
X176187142Y-95423142D01*
X176130000Y-95366000D01*
X176015714Y-95308857D01*
X167632857Y-84859714D02*
X167461428Y-84916857D01*
X167175714Y-84916857D01*
X167061428Y-84859714D01*
X167004285Y-84802571D01*
X166947142Y-84688285D01*
X166947142Y-84574000D01*
X167004285Y-84459714D01*
X167061428Y-84402571D01*
X167175714Y-84345428D01*
X167404285Y-84288285D01*
X167518571Y-84231142D01*
X167575714Y-84174000D01*
X167632857Y-84059714D01*
X167632857Y-83945428D01*
X167575714Y-83831142D01*
X167518571Y-83774000D01*
X167404285Y-83716857D01*
X167118571Y-83716857D01*
X166947142Y-83774000D01*
X166432857Y-84916857D02*
X166432857Y-83716857D01*
X165232857Y-83774000D02*
X165347142Y-83716857D01*
X165518571Y-83716857D01*
X165690000Y-83774000D01*
X165804285Y-83888285D01*
X165861428Y-84002571D01*
X165918571Y-84231142D01*
X165918571Y-84402571D01*
X165861428Y-84631142D01*
X165804285Y-84745428D01*
X165690000Y-84859714D01*
X165518571Y-84916857D01*
X165404285Y-84916857D01*
X165232857Y-84859714D01*
X165175714Y-84802571D01*
X165175714Y-84402571D01*
X165404285Y-84402571D01*
X164661428Y-84916857D02*
X164661428Y-83716857D01*
X163975714Y-84916857D01*
X163975714Y-83716857D01*
X163404285Y-84288285D02*
X163004285Y-84288285D01*
X162832857Y-84916857D02*
X163404285Y-84916857D01*
X163404285Y-83716857D01*
X162832857Y-83716857D01*
X162318571Y-84916857D02*
X162318571Y-83716857D01*
X162032857Y-83716857D01*
X161861428Y-83774000D01*
X161747142Y-83888285D01*
X161690000Y-84002571D01*
X161632857Y-84231142D01*
X161632857Y-84402571D01*
X161690000Y-84631142D01*
X161747142Y-84745428D01*
X161861428Y-84859714D01*
X162032857Y-84916857D01*
X162318571Y-84916857D01*
X159518571Y-84916857D02*
X159918571Y-84345428D01*
X160204285Y-84916857D02*
X160204285Y-83716857D01*
X159747142Y-83716857D01*
X159632857Y-83774000D01*
X159575714Y-83831142D01*
X159518571Y-83945428D01*
X159518571Y-84116857D01*
X159575714Y-84231142D01*
X159632857Y-84288285D01*
X159747142Y-84345428D01*
X160204285Y-84345428D01*
X159061428Y-84574000D02*
X158490000Y-84574000D01*
X159175714Y-84916857D02*
X158775714Y-83716857D01*
X158375714Y-84916857D01*
X157975714Y-84916857D02*
X157975714Y-83716857D01*
X157290000Y-84916857D01*
X157290000Y-83716857D01*
X156090000Y-83774000D02*
X156204285Y-83716857D01*
X156375714Y-83716857D01*
X156547142Y-83774000D01*
X156661428Y-83888285D01*
X156718571Y-84002571D01*
X156775714Y-84231142D01*
X156775714Y-84402571D01*
X156718571Y-84631142D01*
X156661428Y-84745428D01*
X156547142Y-84859714D01*
X156375714Y-84916857D01*
X156261428Y-84916857D01*
X156090000Y-84859714D01*
X156032857Y-84802571D01*
X156032857Y-84402571D01*
X156261428Y-84402571D01*
X155518571Y-84288285D02*
X155118571Y-84288285D01*
X154947142Y-84916857D02*
X155518571Y-84916857D01*
X155518571Y-83716857D01*
X154947142Y-83716857D01*
X166975714Y-86391714D02*
X166061428Y-86391714D01*
X164861428Y-86848857D02*
X165547142Y-86848857D01*
X165204285Y-86848857D02*
X165204285Y-85648857D01*
X165318571Y-85820285D01*
X165432857Y-85934571D01*
X165547142Y-85991714D01*
X164404285Y-85763142D02*
X164347142Y-85706000D01*
X164232857Y-85648857D01*
X163947142Y-85648857D01*
X163832857Y-85706000D01*
X163775714Y-85763142D01*
X163718571Y-85877428D01*
X163718571Y-85991714D01*
X163775714Y-86163142D01*
X164461428Y-86848857D01*
X163718571Y-86848857D01*
X163032857Y-86163142D02*
X163147142Y-86106000D01*
X163204285Y-86048857D01*
X163261428Y-85934571D01*
X163261428Y-85877428D01*
X163204285Y-85763142D01*
X163147142Y-85706000D01*
X163032857Y-85648857D01*
X162804285Y-85648857D01*
X162690000Y-85706000D01*
X162632857Y-85763142D01*
X162575714Y-85877428D01*
X162575714Y-85934571D01*
X162632857Y-86048857D01*
X162690000Y-86106000D01*
X162804285Y-86163142D01*
X163032857Y-86163142D01*
X163147142Y-86220285D01*
X163204285Y-86277428D01*
X163261428Y-86391714D01*
X163261428Y-86620285D01*
X163204285Y-86734571D01*
X163147142Y-86791714D01*
X163032857Y-86848857D01*
X162804285Y-86848857D01*
X162690000Y-86791714D01*
X162632857Y-86734571D01*
X162575714Y-86620285D01*
X162575714Y-86391714D01*
X162632857Y-86277428D01*
X162690000Y-86220285D01*
X162804285Y-86163142D01*
X161318571Y-86048857D02*
X160861428Y-86048857D01*
X161147142Y-85648857D02*
X161147142Y-86677428D01*
X161090000Y-86791714D01*
X160975714Y-86848857D01*
X160861428Y-86848857D01*
X160290000Y-86848857D02*
X160404285Y-86791714D01*
X160461428Y-86734571D01*
X160518571Y-86620285D01*
X160518571Y-86277428D01*
X160461428Y-86163142D01*
X160404285Y-86106000D01*
X160290000Y-86048857D01*
X160118571Y-86048857D01*
X160004285Y-86106000D01*
X159947142Y-86163142D01*
X159890000Y-86277428D01*
X159890000Y-86620285D01*
X159947142Y-86734571D01*
X160004285Y-86791714D01*
X160118571Y-86848857D01*
X160290000Y-86848857D01*
X157832857Y-86848857D02*
X158518571Y-86848857D01*
X158175714Y-86848857D02*
X158175714Y-85648857D01*
X158290000Y-85820285D01*
X158404285Y-85934571D01*
X158518571Y-85991714D01*
X157375714Y-85763142D02*
X157318571Y-85706000D01*
X157204285Y-85648857D01*
X156918571Y-85648857D01*
X156804285Y-85706000D01*
X156747142Y-85763142D01*
X156690000Y-85877428D01*
X156690000Y-85991714D01*
X156747142Y-86163142D01*
X157432857Y-86848857D01*
X156690000Y-86848857D01*
X156290000Y-85648857D02*
X155490000Y-85648857D01*
X156004285Y-86848857D01*
X169832857Y-88323714D02*
X168918571Y-88323714D01*
X168461428Y-87580857D02*
X167718571Y-87580857D01*
X168118571Y-88038000D01*
X167947142Y-88038000D01*
X167832857Y-88095142D01*
X167775714Y-88152285D01*
X167718571Y-88266571D01*
X167718571Y-88552285D01*
X167775714Y-88666571D01*
X167832857Y-88723714D01*
X167947142Y-88780857D01*
X168290000Y-88780857D01*
X168404285Y-88723714D01*
X168461428Y-88666571D01*
X167261428Y-87695142D02*
X167204285Y-87638000D01*
X167090000Y-87580857D01*
X166804285Y-87580857D01*
X166690000Y-87638000D01*
X166632857Y-87695142D01*
X166575714Y-87809428D01*
X166575714Y-87923714D01*
X166632857Y-88095142D01*
X167318571Y-88780857D01*
X166575714Y-88780857D01*
X166004285Y-88723714D02*
X166004285Y-88780857D01*
X166061428Y-88895142D01*
X166118571Y-88952285D01*
X165604285Y-87580857D02*
X164804285Y-87580857D01*
X165318571Y-88780857D01*
X163832857Y-87580857D02*
X164061428Y-87580857D01*
X164175714Y-87638000D01*
X164232857Y-87695142D01*
X164347142Y-87866571D01*
X164404285Y-88095142D01*
X164404285Y-88552285D01*
X164347142Y-88666571D01*
X164290000Y-88723714D01*
X164175714Y-88780857D01*
X163947142Y-88780857D01*
X163832857Y-88723714D01*
X163775714Y-88666571D01*
X163718571Y-88552285D01*
X163718571Y-88266571D01*
X163775714Y-88152285D01*
X163832857Y-88095142D01*
X163947142Y-88038000D01*
X164175714Y-88038000D01*
X164290000Y-88095142D01*
X164347142Y-88152285D01*
X164404285Y-88266571D01*
X163032857Y-88095142D02*
X163147142Y-88038000D01*
X163204285Y-87980857D01*
X163261428Y-87866571D01*
X163261428Y-87809428D01*
X163204285Y-87695142D01*
X163147142Y-87638000D01*
X163032857Y-87580857D01*
X162804285Y-87580857D01*
X162690000Y-87638000D01*
X162632857Y-87695142D01*
X162575714Y-87809428D01*
X162575714Y-87866571D01*
X162632857Y-87980857D01*
X162690000Y-88038000D01*
X162804285Y-88095142D01*
X163032857Y-88095142D01*
X163147142Y-88152285D01*
X163204285Y-88209428D01*
X163261428Y-88323714D01*
X163261428Y-88552285D01*
X163204285Y-88666571D01*
X163147142Y-88723714D01*
X163032857Y-88780857D01*
X162804285Y-88780857D01*
X162690000Y-88723714D01*
X162632857Y-88666571D01*
X162575714Y-88552285D01*
X162575714Y-88323714D01*
X162632857Y-88209428D01*
X162690000Y-88152285D01*
X162804285Y-88095142D01*
X161318571Y-87980857D02*
X160861428Y-87980857D01*
X161147142Y-87580857D02*
X161147142Y-88609428D01*
X161090000Y-88723714D01*
X160975714Y-88780857D01*
X160861428Y-88780857D01*
X160290000Y-88780857D02*
X160404285Y-88723714D01*
X160461428Y-88666571D01*
X160518571Y-88552285D01*
X160518571Y-88209428D01*
X160461428Y-88095142D01*
X160404285Y-88038000D01*
X160290000Y-87980857D01*
X160118571Y-87980857D01*
X160004285Y-88038000D01*
X159947142Y-88095142D01*
X159890000Y-88209428D01*
X159890000Y-88552285D01*
X159947142Y-88666571D01*
X160004285Y-88723714D01*
X160118571Y-88780857D01*
X160290000Y-88780857D01*
X158575714Y-87580857D02*
X157832857Y-87580857D01*
X158232857Y-88038000D01*
X158061428Y-88038000D01*
X157947142Y-88095142D01*
X157890000Y-88152285D01*
X157832857Y-88266571D01*
X157832857Y-88552285D01*
X157890000Y-88666571D01*
X157947142Y-88723714D01*
X158061428Y-88780857D01*
X158404285Y-88780857D01*
X158518571Y-88723714D01*
X158575714Y-88666571D01*
X157375714Y-87695142D02*
X157318571Y-87638000D01*
X157204285Y-87580857D01*
X156918571Y-87580857D01*
X156804285Y-87638000D01*
X156747142Y-87695142D01*
X156690000Y-87809428D01*
X156690000Y-87923714D01*
X156747142Y-88095142D01*
X157432857Y-88780857D01*
X156690000Y-88780857D01*
X156118571Y-88723714D02*
X156118571Y-88780857D01*
X156175714Y-88895142D01*
X156232857Y-88952285D01*
X155718571Y-87580857D02*
X154918571Y-87580857D01*
X155432857Y-88780857D01*
X153947142Y-87580857D02*
X154175714Y-87580857D01*
X154290000Y-87638000D01*
X154347142Y-87695142D01*
X154461428Y-87866571D01*
X154518571Y-88095142D01*
X154518571Y-88552285D01*
X154461428Y-88666571D01*
X154404285Y-88723714D01*
X154290000Y-88780857D01*
X154061428Y-88780857D01*
X153947142Y-88723714D01*
X153890000Y-88666571D01*
X153832857Y-88552285D01*
X153832857Y-88266571D01*
X153890000Y-88152285D01*
X153947142Y-88095142D01*
X154061428Y-88038000D01*
X154290000Y-88038000D01*
X154404285Y-88095142D01*
X154461428Y-88152285D01*
X154518571Y-88266571D01*
X153432857Y-87580857D02*
X152632857Y-87580857D01*
X153147142Y-88780857D01*
X169518571Y-90027142D02*
X168604285Y-90027142D01*
X169061428Y-90484285D02*
X169061428Y-89570000D01*
X168604285Y-90712857D02*
X169518571Y-90712857D01*
X168090000Y-89627142D02*
X168032857Y-89570000D01*
X167918571Y-89512857D01*
X167632857Y-89512857D01*
X167518571Y-89570000D01*
X167461428Y-89627142D01*
X167404285Y-89741428D01*
X167404285Y-89855714D01*
X167461428Y-90027142D01*
X168147142Y-90712857D01*
X167404285Y-90712857D01*
X166832857Y-90655714D02*
X166832857Y-90712857D01*
X166890000Y-90827142D01*
X166947142Y-90884285D01*
X165690000Y-90712857D02*
X166375714Y-90712857D01*
X166032857Y-90712857D02*
X166032857Y-89512857D01*
X166147142Y-89684285D01*
X166261428Y-89798571D01*
X166375714Y-89855714D01*
X164661428Y-89912857D02*
X164661428Y-90712857D01*
X164947142Y-89455714D02*
X165232857Y-90312857D01*
X164490000Y-90312857D01*
X164147142Y-89512857D02*
X163347142Y-89512857D01*
X163861428Y-90712857D01*
X162832857Y-90655714D02*
X162832857Y-90712857D01*
X162890000Y-90827142D01*
X162947142Y-90884285D01*
X161804285Y-89912857D02*
X161804285Y-90712857D01*
X162090000Y-89455714D02*
X162375714Y-90312857D01*
X161632857Y-90312857D01*
X161004285Y-90027142D02*
X161118571Y-89970000D01*
X161175714Y-89912857D01*
X161232857Y-89798571D01*
X161232857Y-89741428D01*
X161175714Y-89627142D01*
X161118571Y-89570000D01*
X161004285Y-89512857D01*
X160775714Y-89512857D01*
X160661428Y-89570000D01*
X160604285Y-89627142D01*
X160547142Y-89741428D01*
X160547142Y-89798571D01*
X160604285Y-89912857D01*
X160661428Y-89970000D01*
X160775714Y-90027142D01*
X161004285Y-90027142D01*
X161118571Y-90084285D01*
X161175714Y-90141428D01*
X161232857Y-90255714D01*
X161232857Y-90484285D01*
X161175714Y-90598571D01*
X161118571Y-90655714D01*
X161004285Y-90712857D01*
X160775714Y-90712857D01*
X160661428Y-90655714D01*
X160604285Y-90598571D01*
X160547142Y-90484285D01*
X160547142Y-90255714D01*
X160604285Y-90141428D01*
X160661428Y-90084285D01*
X160775714Y-90027142D01*
X160147142Y-89512857D02*
X159404285Y-89512857D01*
X159804285Y-89970000D01*
X159632857Y-89970000D01*
X159518571Y-90027142D01*
X159461428Y-90084285D01*
X159404285Y-90198571D01*
X159404285Y-90484285D01*
X159461428Y-90598571D01*
X159518571Y-90655714D01*
X159632857Y-90712857D01*
X159975714Y-90712857D01*
X160090000Y-90655714D01*
X160147142Y-90598571D01*
X158832857Y-90655714D02*
X158832857Y-90712857D01*
X158890000Y-90827142D01*
X158947142Y-90884285D01*
X157804285Y-89512857D02*
X158032857Y-89512857D01*
X158147142Y-89570000D01*
X158204285Y-89627142D01*
X158318571Y-89798571D01*
X158375714Y-90027142D01*
X158375714Y-90484285D01*
X158318571Y-90598571D01*
X158261428Y-90655714D01*
X158147142Y-90712857D01*
X157918571Y-90712857D01*
X157804285Y-90655714D01*
X157747142Y-90598571D01*
X157690000Y-90484285D01*
X157690000Y-90198571D01*
X157747142Y-90084285D01*
X157804285Y-90027142D01*
X157918571Y-89970000D01*
X158147142Y-89970000D01*
X158261428Y-90027142D01*
X158318571Y-90084285D01*
X158375714Y-90198571D01*
X156661428Y-89912857D02*
X156661428Y-90712857D01*
X156947142Y-89455714D02*
X157232857Y-90312857D01*
X156490000Y-90312857D01*
X155861428Y-90027142D02*
X155975714Y-89970000D01*
X156032857Y-89912857D01*
X156090000Y-89798571D01*
X156090000Y-89741428D01*
X156032857Y-89627142D01*
X155975714Y-89570000D01*
X155861428Y-89512857D01*
X155632857Y-89512857D01*
X155518571Y-89570000D01*
X155461428Y-89627142D01*
X155404285Y-89741428D01*
X155404285Y-89798571D01*
X155461428Y-89912857D01*
X155518571Y-89970000D01*
X155632857Y-90027142D01*
X155861428Y-90027142D01*
X155975714Y-90084285D01*
X156032857Y-90141428D01*
X156090000Y-90255714D01*
X156090000Y-90484285D01*
X156032857Y-90598571D01*
X155975714Y-90655714D01*
X155861428Y-90712857D01*
X155632857Y-90712857D01*
X155518571Y-90655714D01*
X155461428Y-90598571D01*
X155404285Y-90484285D01*
X155404285Y-90255714D01*
X155461428Y-90141428D01*
X155518571Y-90084285D01*
X155632857Y-90027142D01*
X154032857Y-89455714D02*
X155061428Y-90998571D01*
X153747142Y-89512857D02*
X152947142Y-89512857D01*
X153461428Y-90712857D01*
X169090000Y-92644857D02*
X169775714Y-92644857D01*
X169432857Y-92644857D02*
X169432857Y-91444857D01*
X169547142Y-91616285D01*
X169661428Y-91730571D01*
X169775714Y-91787714D01*
X168575714Y-92530571D02*
X168518571Y-92587714D01*
X168575714Y-92644857D01*
X168632857Y-92587714D01*
X168575714Y-92530571D01*
X168575714Y-92644857D01*
X168061428Y-91559142D02*
X168004285Y-91502000D01*
X167890000Y-91444857D01*
X167604285Y-91444857D01*
X167490000Y-91502000D01*
X167432857Y-91559142D01*
X167375714Y-91673428D01*
X167375714Y-91787714D01*
X167432857Y-91959142D01*
X168118571Y-92644857D01*
X167375714Y-92644857D01*
X166404285Y-92587714D02*
X166518571Y-92644857D01*
X166747142Y-92644857D01*
X166861428Y-92587714D01*
X166918571Y-92473428D01*
X166918571Y-92016285D01*
X166861428Y-91902000D01*
X166747142Y-91844857D01*
X166518571Y-91844857D01*
X166404285Y-91902000D01*
X166347142Y-92016285D01*
X166347142Y-92130571D01*
X166918571Y-92244857D01*
X165832857Y-92187714D02*
X164918571Y-92187714D01*
X164461428Y-91444857D02*
X163718571Y-91444857D01*
X164118571Y-91902000D01*
X163947142Y-91902000D01*
X163832857Y-91959142D01*
X163775714Y-92016285D01*
X163718571Y-92130571D01*
X163718571Y-92416285D01*
X163775714Y-92530571D01*
X163832857Y-92587714D01*
X163947142Y-92644857D01*
X164290000Y-92644857D01*
X164404285Y-92587714D01*
X164461428Y-92530571D01*
X163032857Y-91959142D02*
X163147142Y-91902000D01*
X163204285Y-91844857D01*
X163261428Y-91730571D01*
X163261428Y-91673428D01*
X163204285Y-91559142D01*
X163147142Y-91502000D01*
X163032857Y-91444857D01*
X162804285Y-91444857D01*
X162690000Y-91502000D01*
X162632857Y-91559142D01*
X162575714Y-91673428D01*
X162575714Y-91730571D01*
X162632857Y-91844857D01*
X162690000Y-91902000D01*
X162804285Y-91959142D01*
X163032857Y-91959142D01*
X163147142Y-92016285D01*
X163204285Y-92073428D01*
X163261428Y-92187714D01*
X163261428Y-92416285D01*
X163204285Y-92530571D01*
X163147142Y-92587714D01*
X163032857Y-92644857D01*
X162804285Y-92644857D01*
X162690000Y-92587714D01*
X162632857Y-92530571D01*
X162575714Y-92416285D01*
X162575714Y-92187714D01*
X162632857Y-92073428D01*
X162690000Y-92016285D01*
X162804285Y-91959142D01*
X161318571Y-91844857D02*
X160861428Y-91844857D01*
X161147142Y-91444857D02*
X161147142Y-92473428D01*
X161090000Y-92587714D01*
X160975714Y-92644857D01*
X160861428Y-92644857D01*
X160290000Y-92644857D02*
X160404285Y-92587714D01*
X160461428Y-92530571D01*
X160518571Y-92416285D01*
X160518571Y-92073428D01*
X160461428Y-91959142D01*
X160404285Y-91902000D01*
X160290000Y-91844857D01*
X160118571Y-91844857D01*
X160004285Y-91902000D01*
X159947142Y-91959142D01*
X159890000Y-92073428D01*
X159890000Y-92416285D01*
X159947142Y-92530571D01*
X160004285Y-92587714D01*
X160118571Y-92644857D01*
X160290000Y-92644857D01*
X158575714Y-91444857D02*
X157832857Y-91444857D01*
X158232857Y-91902000D01*
X158061428Y-91902000D01*
X157947142Y-91959142D01*
X157890000Y-92016285D01*
X157832857Y-92130571D01*
X157832857Y-92416285D01*
X157890000Y-92530571D01*
X157947142Y-92587714D01*
X158061428Y-92644857D01*
X158404285Y-92644857D01*
X158518571Y-92587714D01*
X158575714Y-92530571D01*
X157318571Y-92530571D02*
X157261428Y-92587714D01*
X157318571Y-92644857D01*
X157375714Y-92587714D01*
X157318571Y-92530571D01*
X157318571Y-92644857D01*
X156232857Y-91844857D02*
X156232857Y-92644857D01*
X156518571Y-91387714D02*
X156804285Y-92244857D01*
X156061428Y-92244857D01*
X155147142Y-92587714D02*
X155261428Y-92644857D01*
X155490000Y-92644857D01*
X155604285Y-92587714D01*
X155661428Y-92473428D01*
X155661428Y-92016285D01*
X155604285Y-91902000D01*
X155490000Y-91844857D01*
X155261428Y-91844857D01*
X155147142Y-91902000D01*
X155090000Y-92016285D01*
X155090000Y-92130571D01*
X155661428Y-92244857D01*
X154690000Y-91444857D02*
X153947142Y-91444857D01*
X154347142Y-91902000D01*
X154175714Y-91902000D01*
X154061428Y-91959142D01*
X154004285Y-92016285D01*
X153947142Y-92130571D01*
X153947142Y-92416285D01*
X154004285Y-92530571D01*
X154061428Y-92587714D01*
X154175714Y-92644857D01*
X154518571Y-92644857D01*
X154632857Y-92587714D01*
X154690000Y-92530571D01*
X153261428Y-91959142D02*
X153375714Y-91902000D01*
X153432857Y-91844857D01*
X153490000Y-91730571D01*
X153490000Y-91673428D01*
X153432857Y-91559142D01*
X153375714Y-91502000D01*
X153261428Y-91444857D01*
X153032857Y-91444857D01*
X152918571Y-91502000D01*
X152861428Y-91559142D01*
X152804285Y-91673428D01*
X152804285Y-91730571D01*
X152861428Y-91844857D01*
X152918571Y-91902000D01*
X153032857Y-91959142D01*
X153261428Y-91959142D01*
X153375714Y-92016285D01*
X153432857Y-92073428D01*
X153490000Y-92187714D01*
X153490000Y-92416285D01*
X153432857Y-92530571D01*
X153375714Y-92587714D01*
X153261428Y-92644857D01*
X153032857Y-92644857D01*
X152918571Y-92587714D01*
X152861428Y-92530571D01*
X152804285Y-92416285D01*
X152804285Y-92187714D01*
X152861428Y-92073428D01*
X152918571Y-92016285D01*
X153032857Y-91959142D01*
X170918571Y-93491142D02*
X170861428Y-93434000D01*
X170747142Y-93376857D01*
X170461428Y-93376857D01*
X170347142Y-93434000D01*
X170290000Y-93491142D01*
X170232857Y-93605428D01*
X170232857Y-93719714D01*
X170290000Y-93891142D01*
X170975714Y-94576857D01*
X170232857Y-94576857D01*
X169718571Y-94462571D02*
X169661428Y-94519714D01*
X169718571Y-94576857D01*
X169775714Y-94519714D01*
X169718571Y-94462571D01*
X169718571Y-94576857D01*
X169261428Y-93376857D02*
X168518571Y-93376857D01*
X168918571Y-93834000D01*
X168747142Y-93834000D01*
X168632857Y-93891142D01*
X168575714Y-93948285D01*
X168518571Y-94062571D01*
X168518571Y-94348285D01*
X168575714Y-94462571D01*
X168632857Y-94519714D01*
X168747142Y-94576857D01*
X169090000Y-94576857D01*
X169204285Y-94519714D01*
X169261428Y-94462571D01*
X167547142Y-94519714D02*
X167661428Y-94576857D01*
X167890000Y-94576857D01*
X168004285Y-94519714D01*
X168061428Y-94405428D01*
X168061428Y-93948285D01*
X168004285Y-93834000D01*
X167890000Y-93776857D01*
X167661428Y-93776857D01*
X167547142Y-93834000D01*
X167490000Y-93948285D01*
X167490000Y-94062571D01*
X168061428Y-94176857D01*
X166975714Y-94119714D02*
X166061428Y-94119714D01*
X165604285Y-93376857D02*
X164861428Y-93376857D01*
X165261428Y-93834000D01*
X165090000Y-93834000D01*
X164975714Y-93891142D01*
X164918571Y-93948285D01*
X164861428Y-94062571D01*
X164861428Y-94348285D01*
X164918571Y-94462571D01*
X164975714Y-94519714D01*
X165090000Y-94576857D01*
X165432857Y-94576857D01*
X165547142Y-94519714D01*
X165604285Y-94462571D01*
X164118571Y-93376857D02*
X164004285Y-93376857D01*
X163890000Y-93434000D01*
X163832857Y-93491142D01*
X163775714Y-93605428D01*
X163718571Y-93834000D01*
X163718571Y-94119714D01*
X163775714Y-94348285D01*
X163832857Y-94462571D01*
X163890000Y-94519714D01*
X164004285Y-94576857D01*
X164118571Y-94576857D01*
X164232857Y-94519714D01*
X164290000Y-94462571D01*
X164347142Y-94348285D01*
X164404285Y-94119714D01*
X164404285Y-93834000D01*
X164347142Y-93605428D01*
X164290000Y-93491142D01*
X164232857Y-93434000D01*
X164118571Y-93376857D01*
X163032857Y-93891142D02*
X163147142Y-93834000D01*
X163204285Y-93776857D01*
X163261428Y-93662571D01*
X163261428Y-93605428D01*
X163204285Y-93491142D01*
X163147142Y-93434000D01*
X163032857Y-93376857D01*
X162804285Y-93376857D01*
X162690000Y-93434000D01*
X162632857Y-93491142D01*
X162575714Y-93605428D01*
X162575714Y-93662571D01*
X162632857Y-93776857D01*
X162690000Y-93834000D01*
X162804285Y-93891142D01*
X163032857Y-93891142D01*
X163147142Y-93948285D01*
X163204285Y-94005428D01*
X163261428Y-94119714D01*
X163261428Y-94348285D01*
X163204285Y-94462571D01*
X163147142Y-94519714D01*
X163032857Y-94576857D01*
X162804285Y-94576857D01*
X162690000Y-94519714D01*
X162632857Y-94462571D01*
X162575714Y-94348285D01*
X162575714Y-94119714D01*
X162632857Y-94005428D01*
X162690000Y-93948285D01*
X162804285Y-93891142D01*
X161318571Y-93776857D02*
X160861428Y-93776857D01*
X161147142Y-93376857D02*
X161147142Y-94405428D01*
X161090000Y-94519714D01*
X160975714Y-94576857D01*
X160861428Y-94576857D01*
X160290000Y-94576857D02*
X160404285Y-94519714D01*
X160461428Y-94462571D01*
X160518571Y-94348285D01*
X160518571Y-94005428D01*
X160461428Y-93891142D01*
X160404285Y-93834000D01*
X160290000Y-93776857D01*
X160118571Y-93776857D01*
X160004285Y-93834000D01*
X159947142Y-93891142D01*
X159890000Y-94005428D01*
X159890000Y-94348285D01*
X159947142Y-94462571D01*
X160004285Y-94519714D01*
X160118571Y-94576857D01*
X160290000Y-94576857D01*
X157832857Y-94576857D02*
X158518571Y-94576857D01*
X158175714Y-94576857D02*
X158175714Y-93376857D01*
X158290000Y-93548285D01*
X158404285Y-93662571D01*
X158518571Y-93719714D01*
X157318571Y-94462571D02*
X157261428Y-94519714D01*
X157318571Y-94576857D01*
X157375714Y-94519714D01*
X157318571Y-94462571D01*
X157318571Y-94576857D01*
X156861428Y-93376857D02*
X156061428Y-93376857D01*
X156575714Y-94576857D01*
X155147142Y-94519714D02*
X155261428Y-94576857D01*
X155490000Y-94576857D01*
X155604285Y-94519714D01*
X155661428Y-94405428D01*
X155661428Y-93948285D01*
X155604285Y-93834000D01*
X155490000Y-93776857D01*
X155261428Y-93776857D01*
X155147142Y-93834000D01*
X155090000Y-93948285D01*
X155090000Y-94062571D01*
X155661428Y-94176857D01*
X154690000Y-93376857D02*
X153947142Y-93376857D01*
X154347142Y-93834000D01*
X154175714Y-93834000D01*
X154061428Y-93891142D01*
X154004285Y-93948285D01*
X153947142Y-94062571D01*
X153947142Y-94348285D01*
X154004285Y-94462571D01*
X154061428Y-94519714D01*
X154175714Y-94576857D01*
X154518571Y-94576857D01*
X154632857Y-94519714D01*
X154690000Y-94462571D01*
X153204285Y-93376857D02*
X153090000Y-93376857D01*
X152975714Y-93434000D01*
X152918571Y-93491142D01*
X152861428Y-93605428D01*
X152804285Y-93834000D01*
X152804285Y-94119714D01*
X152861428Y-94348285D01*
X152918571Y-94462571D01*
X152975714Y-94519714D01*
X153090000Y-94576857D01*
X153204285Y-94576857D01*
X153318571Y-94519714D01*
X153375714Y-94462571D01*
X153432857Y-94348285D01*
X153490000Y-94119714D01*
X153490000Y-93834000D01*
X153432857Y-93605428D01*
X153375714Y-93491142D01*
X153318571Y-93434000D01*
X153204285Y-93376857D01*
X152118571Y-93891142D02*
X152232857Y-93834000D01*
X152290000Y-93776857D01*
X152347142Y-93662571D01*
X152347142Y-93605428D01*
X152290000Y-93491142D01*
X152232857Y-93434000D01*
X152118571Y-93376857D01*
X151890000Y-93376857D01*
X151775714Y-93434000D01*
X151718571Y-93491142D01*
X151661428Y-93605428D01*
X151661428Y-93662571D01*
X151718571Y-93776857D01*
X151775714Y-93834000D01*
X151890000Y-93891142D01*
X152118571Y-93891142D01*
X152232857Y-93948285D01*
X152290000Y-94005428D01*
X152347142Y-94119714D01*
X152347142Y-94348285D01*
X152290000Y-94462571D01*
X152232857Y-94519714D01*
X152118571Y-94576857D01*
X151890000Y-94576857D01*
X151775714Y-94519714D01*
X151718571Y-94462571D01*
X151661428Y-94348285D01*
X151661428Y-94119714D01*
X151718571Y-94005428D01*
X151775714Y-93948285D01*
X151890000Y-93891142D01*
X172118571Y-95308857D02*
X171375714Y-95308857D01*
X171775714Y-95766000D01*
X171604285Y-95766000D01*
X171490000Y-95823142D01*
X171432857Y-95880285D01*
X171375714Y-95994571D01*
X171375714Y-96280285D01*
X171432857Y-96394571D01*
X171490000Y-96451714D01*
X171604285Y-96508857D01*
X171947142Y-96508857D01*
X172061428Y-96451714D01*
X172118571Y-96394571D01*
X170861428Y-96394571D02*
X170804285Y-96451714D01*
X170861428Y-96508857D01*
X170918571Y-96451714D01*
X170861428Y-96394571D01*
X170861428Y-96508857D01*
X169775714Y-95708857D02*
X169775714Y-96508857D01*
X170061428Y-95251714D02*
X170347142Y-96108857D01*
X169604285Y-96108857D01*
X168690000Y-96451714D02*
X168804285Y-96508857D01*
X169032857Y-96508857D01*
X169147142Y-96451714D01*
X169204285Y-96337428D01*
X169204285Y-95880285D01*
X169147142Y-95766000D01*
X169032857Y-95708857D01*
X168804285Y-95708857D01*
X168690000Y-95766000D01*
X168632857Y-95880285D01*
X168632857Y-95994571D01*
X169204285Y-96108857D01*
X168118571Y-96051714D02*
X167204285Y-96051714D01*
X166118571Y-95708857D02*
X166118571Y-96508857D01*
X166404285Y-95251714D02*
X166690000Y-96108857D01*
X165947142Y-96108857D01*
X165432857Y-96508857D02*
X165204285Y-96508857D01*
X165090000Y-96451714D01*
X165032857Y-96394571D01*
X164918571Y-96223142D01*
X164861428Y-95994571D01*
X164861428Y-95537428D01*
X164918571Y-95423142D01*
X164975714Y-95366000D01*
X165090000Y-95308857D01*
X165318571Y-95308857D01*
X165432857Y-95366000D01*
X165490000Y-95423142D01*
X165547142Y-95537428D01*
X165547142Y-95823142D01*
X165490000Y-95937428D01*
X165432857Y-95994571D01*
X165318571Y-96051714D01*
X165090000Y-96051714D01*
X164975714Y-95994571D01*
X164918571Y-95937428D01*
X164861428Y-95823142D01*
X164461428Y-95308857D02*
X163718571Y-95308857D01*
X164118571Y-95766000D01*
X163947142Y-95766000D01*
X163832857Y-95823142D01*
X163775714Y-95880285D01*
X163718571Y-95994571D01*
X163718571Y-96280285D01*
X163775714Y-96394571D01*
X163832857Y-96451714D01*
X163947142Y-96508857D01*
X164290000Y-96508857D01*
X164404285Y-96451714D01*
X164461428Y-96394571D01*
X163261428Y-95423142D02*
X163204285Y-95366000D01*
X163090000Y-95308857D01*
X162804285Y-95308857D01*
X162690000Y-95366000D01*
X162632857Y-95423142D01*
X162575714Y-95537428D01*
X162575714Y-95651714D01*
X162632857Y-95823142D01*
X163318571Y-96508857D01*
X162575714Y-96508857D01*
X161318571Y-95708857D02*
X160861428Y-95708857D01*
X161147142Y-95308857D02*
X161147142Y-96337428D01*
X161090000Y-96451714D01*
X160975714Y-96508857D01*
X160861428Y-96508857D01*
X160290000Y-96508857D02*
X160404285Y-96451714D01*
X160461428Y-96394571D01*
X160518571Y-96280285D01*
X160518571Y-95937428D01*
X160461428Y-95823142D01*
X160404285Y-95766000D01*
X160290000Y-95708857D01*
X160118571Y-95708857D01*
X160004285Y-95766000D01*
X159947142Y-95823142D01*
X159890000Y-95937428D01*
X159890000Y-96280285D01*
X159947142Y-96394571D01*
X160004285Y-96451714D01*
X160118571Y-96508857D01*
X160290000Y-96508857D01*
X157832857Y-96508857D02*
X158518571Y-96508857D01*
X158175714Y-96508857D02*
X158175714Y-95308857D01*
X158290000Y-95480285D01*
X158404285Y-95594571D01*
X158518571Y-95651714D01*
X157318571Y-96394571D02*
X157261428Y-96451714D01*
X157318571Y-96508857D01*
X157375714Y-96451714D01*
X157318571Y-96394571D01*
X157318571Y-96508857D01*
X156118571Y-96508857D02*
X156804285Y-96508857D01*
X156461428Y-96508857D02*
X156461428Y-95308857D01*
X156575714Y-95480285D01*
X156690000Y-95594571D01*
X156804285Y-95651714D01*
X155147142Y-96451714D02*
X155261428Y-96508857D01*
X155490000Y-96508857D01*
X155604285Y-96451714D01*
X155661428Y-96337428D01*
X155661428Y-95880285D01*
X155604285Y-95766000D01*
X155490000Y-95708857D01*
X155261428Y-95708857D01*
X155147142Y-95766000D01*
X155090000Y-95880285D01*
X155090000Y-95994571D01*
X155661428Y-96108857D01*
X154061428Y-95708857D02*
X154061428Y-96508857D01*
X154347142Y-95251714D02*
X154632857Y-96108857D01*
X153890000Y-96108857D01*
X153375714Y-96508857D02*
X153147142Y-96508857D01*
X153032857Y-96451714D01*
X152975714Y-96394571D01*
X152861428Y-96223142D01*
X152804285Y-95994571D01*
X152804285Y-95537428D01*
X152861428Y-95423142D01*
X152918571Y-95366000D01*
X153032857Y-95308857D01*
X153261428Y-95308857D01*
X153375714Y-95366000D01*
X153432857Y-95423142D01*
X153490000Y-95537428D01*
X153490000Y-95823142D01*
X153432857Y-95937428D01*
X153375714Y-95994571D01*
X153261428Y-96051714D01*
X153032857Y-96051714D01*
X152918571Y-95994571D01*
X152861428Y-95937428D01*
X152804285Y-95823142D01*
X152404285Y-95308857D02*
X151661428Y-95308857D01*
X152061428Y-95766000D01*
X151890000Y-95766000D01*
X151775714Y-95823142D01*
X151718571Y-95880285D01*
X151661428Y-95994571D01*
X151661428Y-96280285D01*
X151718571Y-96394571D01*
X151775714Y-96451714D01*
X151890000Y-96508857D01*
X152232857Y-96508857D01*
X152347142Y-96451714D01*
X152404285Y-96394571D01*
X151204285Y-95423142D02*
X151147142Y-95366000D01*
X151032857Y-95308857D01*
X150747142Y-95308857D01*
X150632857Y-95366000D01*
X150575714Y-95423142D01*
X150518571Y-95537428D01*
X150518571Y-95651714D01*
X150575714Y-95823142D01*
X151261428Y-96508857D01*
X150518571Y-96508857D01*
X148512857Y-83716857D02*
X148512857Y-84688285D01*
X148455714Y-84802571D01*
X148398571Y-84859714D01*
X148284285Y-84916857D01*
X148055714Y-84916857D01*
X147941428Y-84859714D01*
X147884285Y-84802571D01*
X147827142Y-84688285D01*
X147827142Y-83716857D01*
X147255714Y-84916857D02*
X147255714Y-83716857D01*
X146570000Y-84916857D01*
X146570000Y-83716857D01*
X146055714Y-84859714D02*
X145884285Y-84916857D01*
X145598571Y-84916857D01*
X145484285Y-84859714D01*
X145427142Y-84802571D01*
X145370000Y-84688285D01*
X145370000Y-84574000D01*
X145427142Y-84459714D01*
X145484285Y-84402571D01*
X145598571Y-84345428D01*
X145827142Y-84288285D01*
X145941428Y-84231142D01*
X145998571Y-84174000D01*
X146055714Y-84059714D01*
X146055714Y-83945428D01*
X145998571Y-83831142D01*
X145941428Y-83774000D01*
X145827142Y-83716857D01*
X145541428Y-83716857D01*
X145370000Y-83774000D01*
X144855714Y-84916857D02*
X144855714Y-83716857D01*
X143655714Y-83774000D02*
X143770000Y-83716857D01*
X143941428Y-83716857D01*
X144112857Y-83774000D01*
X144227142Y-83888285D01*
X144284285Y-84002571D01*
X144341428Y-84231142D01*
X144341428Y-84402571D01*
X144284285Y-84631142D01*
X144227142Y-84745428D01*
X144112857Y-84859714D01*
X143941428Y-84916857D01*
X143827142Y-84916857D01*
X143655714Y-84859714D01*
X143598571Y-84802571D01*
X143598571Y-84402571D01*
X143827142Y-84402571D01*
X143084285Y-84916857D02*
X143084285Y-83716857D01*
X142398571Y-84916857D01*
X142398571Y-83716857D01*
X141827142Y-84288285D02*
X141427142Y-84288285D01*
X141255714Y-84916857D02*
X141827142Y-84916857D01*
X141827142Y-83716857D01*
X141255714Y-83716857D01*
X140741428Y-84916857D02*
X140741428Y-83716857D01*
X140455714Y-83716857D01*
X140284285Y-83774000D01*
X140170000Y-83888285D01*
X140112857Y-84002571D01*
X140055714Y-84231142D01*
X140055714Y-84402571D01*
X140112857Y-84631142D01*
X140170000Y-84745428D01*
X140284285Y-84859714D01*
X140455714Y-84916857D01*
X140741428Y-84916857D01*
X137941428Y-84916857D02*
X138341428Y-84345428D01*
X138627142Y-84916857D02*
X138627142Y-83716857D01*
X138170000Y-83716857D01*
X138055714Y-83774000D01*
X137998571Y-83831142D01*
X137941428Y-83945428D01*
X137941428Y-84116857D01*
X137998571Y-84231142D01*
X138055714Y-84288285D01*
X138170000Y-84345428D01*
X138627142Y-84345428D01*
X137484285Y-84574000D02*
X136912857Y-84574000D01*
X137598571Y-84916857D02*
X137198571Y-83716857D01*
X136798571Y-84916857D01*
X136398571Y-84916857D02*
X136398571Y-83716857D01*
X135712857Y-84916857D01*
X135712857Y-83716857D01*
X134512857Y-83774000D02*
X134627142Y-83716857D01*
X134798571Y-83716857D01*
X134970000Y-83774000D01*
X135084285Y-83888285D01*
X135141428Y-84002571D01*
X135198571Y-84231142D01*
X135198571Y-84402571D01*
X135141428Y-84631142D01*
X135084285Y-84745428D01*
X134970000Y-84859714D01*
X134798571Y-84916857D01*
X134684285Y-84916857D01*
X134512857Y-84859714D01*
X134455714Y-84802571D01*
X134455714Y-84402571D01*
X134684285Y-84402571D01*
X133941428Y-84288285D02*
X133541428Y-84288285D01*
X133370000Y-84916857D02*
X133941428Y-84916857D01*
X133941428Y-83716857D01*
X133370000Y-83716857D01*
X144541428Y-85648857D02*
X144427142Y-85648857D01*
X144312857Y-85706000D01*
X144255714Y-85763142D01*
X144198571Y-85877428D01*
X144141428Y-86106000D01*
X144141428Y-86391714D01*
X144198571Y-86620285D01*
X144255714Y-86734571D01*
X144312857Y-86791714D01*
X144427142Y-86848857D01*
X144541428Y-86848857D01*
X144655714Y-86791714D01*
X144712857Y-86734571D01*
X144770000Y-86620285D01*
X144827142Y-86391714D01*
X144827142Y-86106000D01*
X144770000Y-85877428D01*
X144712857Y-85763142D01*
X144655714Y-85706000D01*
X144541428Y-85648857D01*
X142884285Y-86048857D02*
X142427142Y-86048857D01*
X142712857Y-85648857D02*
X142712857Y-86677428D01*
X142655714Y-86791714D01*
X142541428Y-86848857D01*
X142427142Y-86848857D01*
X141855714Y-86848857D02*
X141970000Y-86791714D01*
X142027142Y-86734571D01*
X142084285Y-86620285D01*
X142084285Y-86277428D01*
X142027142Y-86163142D01*
X141970000Y-86106000D01*
X141855714Y-86048857D01*
X141684285Y-86048857D01*
X141570000Y-86106000D01*
X141512857Y-86163142D01*
X141455714Y-86277428D01*
X141455714Y-86620285D01*
X141512857Y-86734571D01*
X141570000Y-86791714D01*
X141684285Y-86848857D01*
X141855714Y-86848857D01*
X140084285Y-85763142D02*
X140027142Y-85706000D01*
X139912857Y-85648857D01*
X139627142Y-85648857D01*
X139512857Y-85706000D01*
X139455714Y-85763142D01*
X139398571Y-85877428D01*
X139398571Y-85991714D01*
X139455714Y-86163142D01*
X140141428Y-86848857D01*
X139398571Y-86848857D01*
X138312857Y-85648857D02*
X138884285Y-85648857D01*
X138941428Y-86220285D01*
X138884285Y-86163142D01*
X138770000Y-86106000D01*
X138484285Y-86106000D01*
X138370000Y-86163142D01*
X138312857Y-86220285D01*
X138255714Y-86334571D01*
X138255714Y-86620285D01*
X138312857Y-86734571D01*
X138370000Y-86791714D01*
X138484285Y-86848857D01*
X138770000Y-86848857D01*
X138884285Y-86791714D01*
X138941428Y-86734571D01*
X137170000Y-85648857D02*
X137741428Y-85648857D01*
X137798571Y-86220285D01*
X137741428Y-86163142D01*
X137627142Y-86106000D01*
X137341428Y-86106000D01*
X137227142Y-86163142D01*
X137170000Y-86220285D01*
X137112857Y-86334571D01*
X137112857Y-86620285D01*
X137170000Y-86734571D01*
X137227142Y-86791714D01*
X137341428Y-86848857D01*
X137627142Y-86848857D01*
X137741428Y-86791714D01*
X137798571Y-86734571D01*
X145970000Y-87580857D02*
X145855714Y-87580857D01*
X145741428Y-87638000D01*
X145684285Y-87695142D01*
X145627142Y-87809428D01*
X145570000Y-88038000D01*
X145570000Y-88323714D01*
X145627142Y-88552285D01*
X145684285Y-88666571D01*
X145741428Y-88723714D01*
X145855714Y-88780857D01*
X145970000Y-88780857D01*
X146084285Y-88723714D01*
X146141428Y-88666571D01*
X146198571Y-88552285D01*
X146255714Y-88323714D01*
X146255714Y-88038000D01*
X146198571Y-87809428D01*
X146141428Y-87695142D01*
X146084285Y-87638000D01*
X145970000Y-87580857D01*
X144312857Y-87980857D02*
X143855714Y-87980857D01*
X144141428Y-87580857D02*
X144141428Y-88609428D01*
X144084285Y-88723714D01*
X143970000Y-88780857D01*
X143855714Y-88780857D01*
X143284285Y-88780857D02*
X143398571Y-88723714D01*
X143455714Y-88666571D01*
X143512857Y-88552285D01*
X143512857Y-88209428D01*
X143455714Y-88095142D01*
X143398571Y-88038000D01*
X143284285Y-87980857D01*
X143112857Y-87980857D01*
X142998571Y-88038000D01*
X142941428Y-88095142D01*
X142884285Y-88209428D01*
X142884285Y-88552285D01*
X142941428Y-88666571D01*
X142998571Y-88723714D01*
X143112857Y-88780857D01*
X143284285Y-88780857D01*
X140941428Y-87580857D02*
X141170000Y-87580857D01*
X141284285Y-87638000D01*
X141341428Y-87695142D01*
X141455714Y-87866571D01*
X141512857Y-88095142D01*
X141512857Y-88552285D01*
X141455714Y-88666571D01*
X141398571Y-88723714D01*
X141284285Y-88780857D01*
X141055714Y-88780857D01*
X140941428Y-88723714D01*
X140884285Y-88666571D01*
X140827142Y-88552285D01*
X140827142Y-88266571D01*
X140884285Y-88152285D01*
X140941428Y-88095142D01*
X141055714Y-88038000D01*
X141284285Y-88038000D01*
X141398571Y-88095142D01*
X141455714Y-88152285D01*
X141512857Y-88266571D01*
X139741428Y-87580857D02*
X140312857Y-87580857D01*
X140370000Y-88152285D01*
X140312857Y-88095142D01*
X140198571Y-88038000D01*
X139912857Y-88038000D01*
X139798571Y-88095142D01*
X139741428Y-88152285D01*
X139684285Y-88266571D01*
X139684285Y-88552285D01*
X139741428Y-88666571D01*
X139798571Y-88723714D01*
X139912857Y-88780857D01*
X140198571Y-88780857D01*
X140312857Y-88723714D01*
X140370000Y-88666571D01*
X139112857Y-88723714D02*
X139112857Y-88780857D01*
X139170000Y-88895142D01*
X139227142Y-88952285D01*
X138027142Y-87580857D02*
X138598571Y-87580857D01*
X138655714Y-88152285D01*
X138598571Y-88095142D01*
X138484285Y-88038000D01*
X138198571Y-88038000D01*
X138084285Y-88095142D01*
X138027142Y-88152285D01*
X137970000Y-88266571D01*
X137970000Y-88552285D01*
X138027142Y-88666571D01*
X138084285Y-88723714D01*
X138198571Y-88780857D01*
X138484285Y-88780857D01*
X138598571Y-88723714D01*
X138655714Y-88666571D01*
X137570000Y-87580857D02*
X136827142Y-87580857D01*
X137227142Y-88038000D01*
X137055714Y-88038000D01*
X136941428Y-88095142D01*
X136884285Y-88152285D01*
X136827142Y-88266571D01*
X136827142Y-88552285D01*
X136884285Y-88666571D01*
X136941428Y-88723714D01*
X137055714Y-88780857D01*
X137398571Y-88780857D01*
X137512857Y-88723714D01*
X137570000Y-88666571D01*
X135741428Y-87580857D02*
X136312857Y-87580857D01*
X136370000Y-88152285D01*
X136312857Y-88095142D01*
X136198571Y-88038000D01*
X135912857Y-88038000D01*
X135798571Y-88095142D01*
X135741428Y-88152285D01*
X135684285Y-88266571D01*
X135684285Y-88552285D01*
X135741428Y-88666571D01*
X135798571Y-88723714D01*
X135912857Y-88780857D01*
X136198571Y-88780857D01*
X136312857Y-88723714D01*
X136370000Y-88666571D01*
X149398571Y-89512857D02*
X149284285Y-89512857D01*
X149170000Y-89570000D01*
X149112857Y-89627142D01*
X149055714Y-89741428D01*
X148998571Y-89970000D01*
X148998571Y-90255714D01*
X149055714Y-90484285D01*
X149112857Y-90598571D01*
X149170000Y-90655714D01*
X149284285Y-90712857D01*
X149398571Y-90712857D01*
X149512857Y-90655714D01*
X149570000Y-90598571D01*
X149627142Y-90484285D01*
X149684285Y-90255714D01*
X149684285Y-89970000D01*
X149627142Y-89741428D01*
X149570000Y-89627142D01*
X149512857Y-89570000D01*
X149398571Y-89512857D01*
X147741428Y-89912857D02*
X147284285Y-89912857D01*
X147570000Y-89512857D02*
X147570000Y-90541428D01*
X147512857Y-90655714D01*
X147398571Y-90712857D01*
X147284285Y-90712857D01*
X146712857Y-90712857D02*
X146827142Y-90655714D01*
X146884285Y-90598571D01*
X146941428Y-90484285D01*
X146941428Y-90141428D01*
X146884285Y-90027142D01*
X146827142Y-89970000D01*
X146712857Y-89912857D01*
X146541428Y-89912857D01*
X146427142Y-89970000D01*
X146370000Y-90027142D01*
X146312857Y-90141428D01*
X146312857Y-90484285D01*
X146370000Y-90598571D01*
X146427142Y-90655714D01*
X146541428Y-90712857D01*
X146712857Y-90712857D01*
X144370000Y-89912857D02*
X144370000Y-90712857D01*
X144655714Y-89455714D02*
X144941428Y-90312857D01*
X144198571Y-90312857D01*
X143684285Y-90655714D02*
X143684285Y-90712857D01*
X143741428Y-90827142D01*
X143798571Y-90884285D01*
X143227142Y-89627142D02*
X143170000Y-89570000D01*
X143055714Y-89512857D01*
X142770000Y-89512857D01*
X142655714Y-89570000D01*
X142598571Y-89627142D01*
X142541428Y-89741428D01*
X142541428Y-89855714D01*
X142598571Y-90027142D01*
X143284285Y-90712857D01*
X142541428Y-90712857D01*
X141970000Y-90712857D02*
X141741428Y-90712857D01*
X141627142Y-90655714D01*
X141570000Y-90598571D01*
X141455714Y-90427142D01*
X141398571Y-90198571D01*
X141398571Y-89741428D01*
X141455714Y-89627142D01*
X141512857Y-89570000D01*
X141627142Y-89512857D01*
X141855714Y-89512857D01*
X141970000Y-89570000D01*
X142027142Y-89627142D01*
X142084285Y-89741428D01*
X142084285Y-90027142D01*
X142027142Y-90141428D01*
X141970000Y-90198571D01*
X141855714Y-90255714D01*
X141627142Y-90255714D01*
X141512857Y-90198571D01*
X141455714Y-90141428D01*
X141398571Y-90027142D01*
X140370000Y-89912857D02*
X140370000Y-90712857D01*
X140655714Y-89455714D02*
X140941428Y-90312857D01*
X140198571Y-90312857D01*
X139684285Y-90655714D02*
X139684285Y-90712857D01*
X139741428Y-90827142D01*
X139798571Y-90884285D01*
X139112857Y-90712857D02*
X138884285Y-90712857D01*
X138770000Y-90655714D01*
X138712857Y-90598571D01*
X138598571Y-90427142D01*
X138541428Y-90198571D01*
X138541428Y-89741428D01*
X138598571Y-89627142D01*
X138655714Y-89570000D01*
X138770000Y-89512857D01*
X138998571Y-89512857D01*
X139112857Y-89570000D01*
X139170000Y-89627142D01*
X139227142Y-89741428D01*
X139227142Y-90027142D01*
X139170000Y-90141428D01*
X139112857Y-90198571D01*
X138998571Y-90255714D01*
X138770000Y-90255714D01*
X138655714Y-90198571D01*
X138598571Y-90141428D01*
X138541428Y-90027142D01*
X137512857Y-89512857D02*
X137741428Y-89512857D01*
X137855714Y-89570000D01*
X137912857Y-89627142D01*
X138027142Y-89798571D01*
X138084285Y-90027142D01*
X138084285Y-90484285D01*
X138027142Y-90598571D01*
X137970000Y-90655714D01*
X137855714Y-90712857D01*
X137627142Y-90712857D01*
X137512857Y-90655714D01*
X137455714Y-90598571D01*
X137398571Y-90484285D01*
X137398571Y-90198571D01*
X137455714Y-90084285D01*
X137512857Y-90027142D01*
X137627142Y-89970000D01*
X137855714Y-89970000D01*
X137970000Y-90027142D01*
X138027142Y-90084285D01*
X138084285Y-90198571D01*
X136998571Y-89512857D02*
X136198571Y-89512857D01*
X136712857Y-90712857D01*
X135684285Y-90655714D02*
X135684285Y-90712857D01*
X135741428Y-90827142D01*
X135798571Y-90884285D01*
X135227142Y-89627142D02*
X135170000Y-89570000D01*
X135055714Y-89512857D01*
X134770000Y-89512857D01*
X134655714Y-89570000D01*
X134598571Y-89627142D01*
X134541428Y-89741428D01*
X134541428Y-89855714D01*
X134598571Y-90027142D01*
X135284285Y-90712857D01*
X134541428Y-90712857D01*
X133970000Y-90712857D02*
X133741428Y-90712857D01*
X133627142Y-90655714D01*
X133570000Y-90598571D01*
X133455714Y-90427142D01*
X133398571Y-90198571D01*
X133398571Y-89741428D01*
X133455714Y-89627142D01*
X133512857Y-89570000D01*
X133627142Y-89512857D01*
X133855714Y-89512857D01*
X133970000Y-89570000D01*
X134027142Y-89627142D01*
X134084285Y-89741428D01*
X134084285Y-90027142D01*
X134027142Y-90141428D01*
X133970000Y-90198571D01*
X133855714Y-90255714D01*
X133627142Y-90255714D01*
X133512857Y-90198571D01*
X133455714Y-90141428D01*
X133398571Y-90027142D01*
X132312857Y-89512857D02*
X132884285Y-89512857D01*
X132941428Y-90084285D01*
X132884285Y-90027142D01*
X132770000Y-89970000D01*
X132484285Y-89970000D01*
X132370000Y-90027142D01*
X132312857Y-90084285D01*
X132255714Y-90198571D01*
X132255714Y-90484285D01*
X132312857Y-90598571D01*
X132370000Y-90655714D01*
X132484285Y-90712857D01*
X132770000Y-90712857D01*
X132884285Y-90655714D01*
X132941428Y-90598571D01*
X144112857Y-91444857D02*
X144341428Y-91444857D01*
X144455714Y-91502000D01*
X144512857Y-91559142D01*
X144627142Y-91730571D01*
X144684285Y-91959142D01*
X144684285Y-92416285D01*
X144627142Y-92530571D01*
X144570000Y-92587714D01*
X144455714Y-92644857D01*
X144227142Y-92644857D01*
X144112857Y-92587714D01*
X144055714Y-92530571D01*
X143998571Y-92416285D01*
X143998571Y-92130571D01*
X144055714Y-92016285D01*
X144112857Y-91959142D01*
X144227142Y-91902000D01*
X144455714Y-91902000D01*
X144570000Y-91959142D01*
X144627142Y-92016285D01*
X144684285Y-92130571D01*
X142570000Y-91844857D02*
X142570000Y-93044857D01*
X142570000Y-91902000D02*
X142455714Y-91844857D01*
X142227142Y-91844857D01*
X142112857Y-91902000D01*
X142055714Y-91959142D01*
X141998571Y-92073428D01*
X141998571Y-92416285D01*
X142055714Y-92530571D01*
X142112857Y-92587714D01*
X142227142Y-92644857D01*
X142455714Y-92644857D01*
X142570000Y-92587714D01*
X141312857Y-92644857D02*
X141427142Y-92587714D01*
X141484285Y-92473428D01*
X141484285Y-91444857D01*
X140341428Y-92644857D02*
X140341428Y-92016285D01*
X140398571Y-91902000D01*
X140512857Y-91844857D01*
X140741428Y-91844857D01*
X140855714Y-91902000D01*
X140341428Y-92587714D02*
X140455714Y-92644857D01*
X140741428Y-92644857D01*
X140855714Y-92587714D01*
X140912857Y-92473428D01*
X140912857Y-92359142D01*
X140855714Y-92244857D01*
X140741428Y-92187714D01*
X140455714Y-92187714D01*
X140341428Y-92130571D01*
X139255714Y-92587714D02*
X139370000Y-92644857D01*
X139598571Y-92644857D01*
X139712857Y-92587714D01*
X139770000Y-92530571D01*
X139827142Y-92416285D01*
X139827142Y-92073428D01*
X139770000Y-91959142D01*
X139712857Y-91902000D01*
X139598571Y-91844857D01*
X139370000Y-91844857D01*
X139255714Y-91902000D01*
X138284285Y-92587714D02*
X138398571Y-92644857D01*
X138627142Y-92644857D01*
X138741428Y-92587714D01*
X138798571Y-92473428D01*
X138798571Y-92016285D01*
X138741428Y-91902000D01*
X138627142Y-91844857D01*
X138398571Y-91844857D01*
X138284285Y-91902000D01*
X138227142Y-92016285D01*
X138227142Y-92130571D01*
X138798571Y-92244857D01*
X137770000Y-92587714D02*
X137655714Y-92644857D01*
X137427142Y-92644857D01*
X137312857Y-92587714D01*
X137255714Y-92473428D01*
X137255714Y-92416285D01*
X137312857Y-92302000D01*
X137427142Y-92244857D01*
X137598571Y-92244857D01*
X137712857Y-92187714D01*
X137770000Y-92073428D01*
X137770000Y-92016285D01*
X137712857Y-91902000D01*
X137598571Y-91844857D01*
X137427142Y-91844857D01*
X137312857Y-91902000D01*
X144570000Y-94576857D02*
X145255714Y-94576857D01*
X144912857Y-94576857D02*
X144912857Y-93376857D01*
X145027142Y-93548285D01*
X145141428Y-93662571D01*
X145255714Y-93719714D01*
X143484285Y-93376857D02*
X144055714Y-93376857D01*
X144112857Y-93948285D01*
X144055714Y-93891142D01*
X143941428Y-93834000D01*
X143655714Y-93834000D01*
X143541428Y-93891142D01*
X143484285Y-93948285D01*
X143427142Y-94062571D01*
X143427142Y-94348285D01*
X143484285Y-94462571D01*
X143541428Y-94519714D01*
X143655714Y-94576857D01*
X143941428Y-94576857D01*
X144055714Y-94519714D01*
X144112857Y-94462571D01*
X141998571Y-93776857D02*
X141998571Y-94976857D01*
X141998571Y-93834000D02*
X141884285Y-93776857D01*
X141655714Y-93776857D01*
X141541428Y-93834000D01*
X141484285Y-93891142D01*
X141427142Y-94005428D01*
X141427142Y-94348285D01*
X141484285Y-94462571D01*
X141541428Y-94519714D01*
X141655714Y-94576857D01*
X141884285Y-94576857D01*
X141998571Y-94519714D01*
X140741428Y-94576857D02*
X140855714Y-94519714D01*
X140912857Y-94405428D01*
X140912857Y-93376857D01*
X139770000Y-94576857D02*
X139770000Y-93948285D01*
X139827142Y-93834000D01*
X139941428Y-93776857D01*
X140170000Y-93776857D01*
X140284285Y-93834000D01*
X139770000Y-94519714D02*
X139884285Y-94576857D01*
X140170000Y-94576857D01*
X140284285Y-94519714D01*
X140341428Y-94405428D01*
X140341428Y-94291142D01*
X140284285Y-94176857D01*
X140170000Y-94119714D01*
X139884285Y-94119714D01*
X139770000Y-94062571D01*
X138684285Y-94519714D02*
X138798571Y-94576857D01*
X139027142Y-94576857D01*
X139141428Y-94519714D01*
X139198571Y-94462571D01*
X139255714Y-94348285D01*
X139255714Y-94005428D01*
X139198571Y-93891142D01*
X139141428Y-93834000D01*
X139027142Y-93776857D01*
X138798571Y-93776857D01*
X138684285Y-93834000D01*
X137712857Y-94519714D02*
X137827142Y-94576857D01*
X138055714Y-94576857D01*
X138170000Y-94519714D01*
X138227142Y-94405428D01*
X138227142Y-93948285D01*
X138170000Y-93834000D01*
X138055714Y-93776857D01*
X137827142Y-93776857D01*
X137712857Y-93834000D01*
X137655714Y-93948285D01*
X137655714Y-94062571D01*
X138227142Y-94176857D01*
X137198571Y-94519714D02*
X137084285Y-94576857D01*
X136855714Y-94576857D01*
X136741428Y-94519714D01*
X136684285Y-94405428D01*
X136684285Y-94348285D01*
X136741428Y-94234000D01*
X136855714Y-94176857D01*
X137027142Y-94176857D01*
X137141428Y-94119714D01*
X137198571Y-94005428D01*
X137198571Y-93948285D01*
X137141428Y-93834000D01*
X137027142Y-93776857D01*
X136855714Y-93776857D01*
X136741428Y-93834000D01*
X144570000Y-96508857D02*
X145255714Y-96508857D01*
X144912857Y-96508857D02*
X144912857Y-95308857D01*
X145027142Y-95480285D01*
X145141428Y-95594571D01*
X145255714Y-95651714D01*
X143998571Y-96508857D02*
X143770000Y-96508857D01*
X143655714Y-96451714D01*
X143598571Y-96394571D01*
X143484285Y-96223142D01*
X143427142Y-95994571D01*
X143427142Y-95537428D01*
X143484285Y-95423142D01*
X143541428Y-95366000D01*
X143655714Y-95308857D01*
X143884285Y-95308857D01*
X143998571Y-95366000D01*
X144055714Y-95423142D01*
X144112857Y-95537428D01*
X144112857Y-95823142D01*
X144055714Y-95937428D01*
X143998571Y-95994571D01*
X143884285Y-96051714D01*
X143655714Y-96051714D01*
X143541428Y-95994571D01*
X143484285Y-95937428D01*
X143427142Y-95823142D01*
X141998571Y-95708857D02*
X141998571Y-96908857D01*
X141998571Y-95766000D02*
X141884285Y-95708857D01*
X141655714Y-95708857D01*
X141541428Y-95766000D01*
X141484285Y-95823142D01*
X141427142Y-95937428D01*
X141427142Y-96280285D01*
X141484285Y-96394571D01*
X141541428Y-96451714D01*
X141655714Y-96508857D01*
X141884285Y-96508857D01*
X141998571Y-96451714D01*
X140741428Y-96508857D02*
X140855714Y-96451714D01*
X140912857Y-96337428D01*
X140912857Y-95308857D01*
X139770000Y-96508857D02*
X139770000Y-95880285D01*
X139827142Y-95766000D01*
X139941428Y-95708857D01*
X140170000Y-95708857D01*
X140284285Y-95766000D01*
X139770000Y-96451714D02*
X139884285Y-96508857D01*
X140170000Y-96508857D01*
X140284285Y-96451714D01*
X140341428Y-96337428D01*
X140341428Y-96223142D01*
X140284285Y-96108857D01*
X140170000Y-96051714D01*
X139884285Y-96051714D01*
X139770000Y-95994571D01*
X138684285Y-96451714D02*
X138798571Y-96508857D01*
X139027142Y-96508857D01*
X139141428Y-96451714D01*
X139198571Y-96394571D01*
X139255714Y-96280285D01*
X139255714Y-95937428D01*
X139198571Y-95823142D01*
X139141428Y-95766000D01*
X139027142Y-95708857D01*
X138798571Y-95708857D01*
X138684285Y-95766000D01*
X137712857Y-96451714D02*
X137827142Y-96508857D01*
X138055714Y-96508857D01*
X138170000Y-96451714D01*
X138227142Y-96337428D01*
X138227142Y-95880285D01*
X138170000Y-95766000D01*
X138055714Y-95708857D01*
X137827142Y-95708857D01*
X137712857Y-95766000D01*
X137655714Y-95880285D01*
X137655714Y-95994571D01*
X138227142Y-96108857D01*
X137198571Y-96451714D02*
X137084285Y-96508857D01*
X136855714Y-96508857D01*
X136741428Y-96451714D01*
X136684285Y-96337428D01*
X136684285Y-96280285D01*
X136741428Y-96166000D01*
X136855714Y-96108857D01*
X137027142Y-96108857D01*
X137141428Y-96051714D01*
X137198571Y-95937428D01*
X137198571Y-95880285D01*
X137141428Y-95766000D01*
X137027142Y-95708857D01*
X136855714Y-95708857D01*
X136741428Y-95766000D01*
X125349142Y-87855714D02*
X125349142Y-88541428D01*
X125349142Y-88198571D02*
X126549142Y-88198571D01*
X126377714Y-88312857D01*
X126263428Y-88427142D01*
X126206285Y-88541428D01*
X126549142Y-87112857D02*
X126549142Y-86998571D01*
X126492000Y-86884285D01*
X126434857Y-86827142D01*
X126320571Y-86770000D01*
X126092000Y-86712857D01*
X125806285Y-86712857D01*
X125577714Y-86770000D01*
X125463428Y-86827142D01*
X125406285Y-86884285D01*
X125349142Y-86998571D01*
X125349142Y-87112857D01*
X125406285Y-87227142D01*
X125463428Y-87284285D01*
X125577714Y-87341428D01*
X125806285Y-87398571D01*
X126092000Y-87398571D01*
X126320571Y-87341428D01*
X126434857Y-87284285D01*
X126492000Y-87227142D01*
X126549142Y-87112857D01*
X126092000Y-85798571D02*
X126092000Y-86255714D01*
X126720571Y-86255714D02*
X126777714Y-86141428D01*
X126892000Y-86027142D01*
X126092000Y-86027142D01*
X126549142Y-85170000D02*
X126606285Y-85284285D01*
X126720571Y-85341428D01*
X126834857Y-85284285D01*
X126892000Y-85170000D01*
X126892000Y-85055714D01*
X126834857Y-84941428D01*
X126720571Y-84884285D01*
X126606285Y-84941428D01*
X126549142Y-85055714D01*
X126549142Y-85170000D01*
X126492000Y-85284285D01*
X126377714Y-85341428D01*
X126263428Y-85341428D01*
X126149142Y-85284285D01*
X126092000Y-85170000D01*
X126092000Y-85055714D01*
X126149142Y-84941428D01*
X126263428Y-84884285D01*
X126377714Y-84884285D01*
X126492000Y-84941428D01*
X126549142Y-85055714D01*
X123417142Y-87855714D02*
X123417142Y-88541428D01*
X123417142Y-88198571D02*
X124617142Y-88198571D01*
X124445714Y-88312857D01*
X124331428Y-88427142D01*
X124274285Y-88541428D01*
X124617142Y-87112857D02*
X124617142Y-86998571D01*
X124560000Y-86884285D01*
X124502857Y-86827142D01*
X124388571Y-86770000D01*
X124160000Y-86712857D01*
X123874285Y-86712857D01*
X123645714Y-86770000D01*
X123531428Y-86827142D01*
X123474285Y-86884285D01*
X123417142Y-86998571D01*
X123417142Y-87112857D01*
X123474285Y-87227142D01*
X123531428Y-87284285D01*
X123645714Y-87341428D01*
X123874285Y-87398571D01*
X124160000Y-87398571D01*
X124388571Y-87341428D01*
X124502857Y-87284285D01*
X124560000Y-87227142D01*
X124617142Y-87112857D01*
X124160000Y-85798571D02*
X124160000Y-86255714D01*
X124788571Y-86255714D02*
X124845714Y-86141428D01*
X124960000Y-86027142D01*
X124160000Y-86027142D01*
X124960000Y-84884285D02*
X124960000Y-85284285D01*
X124617142Y-85341428D01*
X124674285Y-85227142D01*
X124674285Y-85055714D01*
X124617142Y-84941428D01*
X124502857Y-84884285D01*
X124331428Y-84884285D01*
X124217142Y-84941428D01*
X124160000Y-85055714D01*
X124160000Y-85227142D01*
X124217142Y-85341428D01*
X121485142Y-87855714D02*
X121485142Y-88541428D01*
X121485142Y-88198571D02*
X122685142Y-88198571D01*
X122513714Y-88312857D01*
X122399428Y-88427142D01*
X122342285Y-88541428D01*
X122685142Y-87112857D02*
X122685142Y-86998571D01*
X122628000Y-86884285D01*
X122570857Y-86827142D01*
X122456571Y-86770000D01*
X122228000Y-86712857D01*
X121942285Y-86712857D01*
X121713714Y-86770000D01*
X121599428Y-86827142D01*
X121542285Y-86884285D01*
X121485142Y-86998571D01*
X121485142Y-87112857D01*
X121542285Y-87227142D01*
X121599428Y-87284285D01*
X121713714Y-87341428D01*
X121942285Y-87398571D01*
X122228000Y-87398571D01*
X122456571Y-87341428D01*
X122570857Y-87284285D01*
X122628000Y-87227142D01*
X122685142Y-87112857D01*
X122228000Y-85798571D02*
X122228000Y-86255714D01*
X122856571Y-86255714D02*
X122913714Y-86141428D01*
X123028000Y-86027142D01*
X122228000Y-86027142D01*
X122970857Y-85341428D02*
X123028000Y-85227142D01*
X123028000Y-85055714D01*
X122970857Y-84941428D01*
X122856571Y-84884285D01*
X122742285Y-84884285D01*
X122628000Y-84941428D01*
X122228000Y-85341428D01*
X122228000Y-84884285D01*
X119553142Y-87855714D02*
X119553142Y-88541428D01*
X119553142Y-88198571D02*
X120753142Y-88198571D01*
X120581714Y-88312857D01*
X120467428Y-88427142D01*
X120410285Y-88541428D01*
X120753142Y-87112857D02*
X120753142Y-86998571D01*
X120696000Y-86884285D01*
X120638857Y-86827142D01*
X120524571Y-86770000D01*
X120296000Y-86712857D01*
X120010285Y-86712857D01*
X119781714Y-86770000D01*
X119667428Y-86827142D01*
X119610285Y-86884285D01*
X119553142Y-86998571D01*
X119553142Y-87112857D01*
X119610285Y-87227142D01*
X119667428Y-87284285D01*
X119781714Y-87341428D01*
X120010285Y-87398571D01*
X120296000Y-87398571D01*
X120524571Y-87341428D01*
X120638857Y-87284285D01*
X120696000Y-87227142D01*
X120753142Y-87112857D01*
X120753142Y-85798571D02*
X120638857Y-85855714D01*
X120581714Y-85970000D01*
X120581714Y-86084285D01*
X120638857Y-86198571D01*
X120753142Y-86255714D01*
X120924571Y-86255714D01*
X121038857Y-86198571D01*
X121096000Y-86084285D01*
X121096000Y-85970000D01*
X121038857Y-85855714D01*
X120924571Y-85798571D01*
X120638857Y-85798571D01*
X120467428Y-85855714D01*
X120353142Y-85912857D01*
X120296000Y-86027142D01*
X120296000Y-86198571D01*
X117621142Y-87855714D02*
X117621142Y-88541428D01*
X117621142Y-88198571D02*
X118821142Y-88198571D01*
X118649714Y-88312857D01*
X118535428Y-88427142D01*
X118478285Y-88541428D01*
X118821142Y-87112857D02*
X118821142Y-86998571D01*
X118764000Y-86884285D01*
X118706857Y-86827142D01*
X118592571Y-86770000D01*
X118364000Y-86712857D01*
X118078285Y-86712857D01*
X117849714Y-86770000D01*
X117735428Y-86827142D01*
X117678285Y-86884285D01*
X117621142Y-86998571D01*
X117621142Y-87112857D01*
X117678285Y-87227142D01*
X117735428Y-87284285D01*
X117849714Y-87341428D01*
X118078285Y-87398571D01*
X118364000Y-87398571D01*
X118592571Y-87341428D01*
X118706857Y-87284285D01*
X118764000Y-87227142D01*
X118821142Y-87112857D01*
X118706857Y-86255714D02*
X118821142Y-86198571D01*
X118878285Y-86084285D01*
X118878285Y-85970000D01*
X118821142Y-85855714D01*
X118706857Y-85798571D01*
X118535428Y-85798571D01*
X118421142Y-85855714D01*
X118364000Y-85970000D01*
X118364000Y-86084285D01*
X118421142Y-86198571D01*
X118535428Y-86255714D01*
X118821142Y-86255714D01*
X118992571Y-86198571D01*
X119106857Y-86141428D01*
X119164000Y-86027142D01*
X119164000Y-85855714D01*
X115689142Y-87855714D02*
X115689142Y-88541428D01*
X115689142Y-88198571D02*
X116889142Y-88198571D01*
X116717714Y-88312857D01*
X116603428Y-88427142D01*
X116546285Y-88541428D01*
X116889142Y-87112857D02*
X116889142Y-86998571D01*
X116832000Y-86884285D01*
X116774857Y-86827142D01*
X116660571Y-86770000D01*
X116432000Y-86712857D01*
X116146285Y-86712857D01*
X115917714Y-86770000D01*
X115803428Y-86827142D01*
X115746285Y-86884285D01*
X115689142Y-86998571D01*
X115689142Y-87112857D01*
X115746285Y-87227142D01*
X115803428Y-87284285D01*
X115917714Y-87341428D01*
X116146285Y-87398571D01*
X116432000Y-87398571D01*
X116660571Y-87341428D01*
X116774857Y-87284285D01*
X116832000Y-87227142D01*
X116889142Y-87112857D01*
X117232000Y-86255714D02*
X117232000Y-85798571D01*
X116946285Y-86027142D01*
X116946285Y-85970000D01*
X116889142Y-85855714D01*
X116774857Y-85798571D01*
X116603428Y-85798571D01*
X116489142Y-85855714D01*
X116432000Y-85970000D01*
X116432000Y-86141428D01*
X116489142Y-86255714D01*
X113757142Y-87855714D02*
X113757142Y-88541428D01*
X113757142Y-88198571D02*
X114957142Y-88198571D01*
X114785714Y-88312857D01*
X114671428Y-88427142D01*
X114614285Y-88541428D01*
X114957142Y-87112857D02*
X114957142Y-86998571D01*
X114900000Y-86884285D01*
X114842857Y-86827142D01*
X114728571Y-86770000D01*
X114500000Y-86712857D01*
X114214285Y-86712857D01*
X113985714Y-86770000D01*
X113871428Y-86827142D01*
X113814285Y-86884285D01*
X113757142Y-86998571D01*
X113757142Y-87112857D01*
X113814285Y-87227142D01*
X113871428Y-87284285D01*
X113985714Y-87341428D01*
X114214285Y-87398571D01*
X114500000Y-87398571D01*
X114728571Y-87341428D01*
X114842857Y-87284285D01*
X114900000Y-87227142D01*
X114957142Y-87112857D01*
X115300000Y-86084285D02*
X115300000Y-85970000D01*
X115242857Y-85855714D01*
X115071428Y-85798571D01*
X114728571Y-85798571D01*
X114557142Y-85855714D01*
X114500000Y-85970000D01*
X114500000Y-86084285D01*
X114557142Y-86198571D01*
X114728571Y-86255714D01*
X115071428Y-86255714D01*
X115242857Y-86198571D01*
X115300000Y-86084285D01*
X111825142Y-87855714D02*
X111825142Y-88541428D01*
X111825142Y-88198571D02*
X113025142Y-88198571D01*
X112853714Y-88312857D01*
X112739428Y-88427142D01*
X112682285Y-88541428D01*
X113025142Y-87112857D02*
X113025142Y-86998571D01*
X112968000Y-86884285D01*
X112910857Y-86827142D01*
X112796571Y-86770000D01*
X112568000Y-86712857D01*
X112282285Y-86712857D01*
X112053714Y-86770000D01*
X111939428Y-86827142D01*
X111882285Y-86884285D01*
X111825142Y-86998571D01*
X111825142Y-87112857D01*
X111882285Y-87227142D01*
X111939428Y-87284285D01*
X112053714Y-87341428D01*
X112282285Y-87398571D01*
X112568000Y-87398571D01*
X112796571Y-87341428D01*
X112910857Y-87284285D01*
X112968000Y-87227142D01*
X113025142Y-87112857D01*
X112910857Y-86312857D02*
X112910857Y-85627142D01*
X113368000Y-85227142D02*
X113368000Y-84770000D01*
X113082285Y-84998571D01*
X113082285Y-84941428D01*
X113025142Y-84827142D01*
X112910857Y-84770000D01*
X112739428Y-84770000D01*
X112625142Y-84827142D01*
X112568000Y-84941428D01*
X112568000Y-85112857D01*
X112625142Y-85227142D01*
X109893142Y-87855714D02*
X109893142Y-88541428D01*
X109893142Y-88198571D02*
X111093142Y-88198571D01*
X110921714Y-88312857D01*
X110807428Y-88427142D01*
X110750285Y-88541428D01*
X111093142Y-87112857D02*
X111093142Y-86998571D01*
X111036000Y-86884285D01*
X110978857Y-86827142D01*
X110864571Y-86770000D01*
X110636000Y-86712857D01*
X110350285Y-86712857D01*
X110121714Y-86770000D01*
X110007428Y-86827142D01*
X109950285Y-86884285D01*
X109893142Y-86998571D01*
X109893142Y-87112857D01*
X109950285Y-87227142D01*
X110007428Y-87284285D01*
X110121714Y-87341428D01*
X110350285Y-87398571D01*
X110636000Y-87398571D01*
X110864571Y-87341428D01*
X110978857Y-87284285D01*
X111036000Y-87227142D01*
X111093142Y-87112857D01*
X110978857Y-86312857D02*
X110978857Y-85627142D01*
X110978857Y-85227142D02*
X111093142Y-85170000D01*
X111150285Y-85055714D01*
X111150285Y-84941428D01*
X111093142Y-84827142D01*
X110978857Y-84770000D01*
X110807428Y-84770000D01*
X110693142Y-84827142D01*
X110636000Y-84941428D01*
X110636000Y-85055714D01*
X110693142Y-85170000D01*
X110807428Y-85227142D01*
X111093142Y-85227142D01*
X111264571Y-85170000D01*
X111378857Y-85112857D01*
X111436000Y-84998571D01*
X111436000Y-84827142D01*
X107961142Y-87855714D02*
X107961142Y-88541428D01*
X107961142Y-88198571D02*
X109161142Y-88198571D01*
X108989714Y-88312857D01*
X108875428Y-88427142D01*
X108818285Y-88541428D01*
X109161142Y-87112857D02*
X109161142Y-86998571D01*
X109104000Y-86884285D01*
X109046857Y-86827142D01*
X108932571Y-86770000D01*
X108704000Y-86712857D01*
X108418285Y-86712857D01*
X108189714Y-86770000D01*
X108075428Y-86827142D01*
X108018285Y-86884285D01*
X107961142Y-86998571D01*
X107961142Y-87112857D01*
X108018285Y-87227142D01*
X108075428Y-87284285D01*
X108189714Y-87341428D01*
X108418285Y-87398571D01*
X108704000Y-87398571D01*
X108932571Y-87341428D01*
X109046857Y-87284285D01*
X109104000Y-87227142D01*
X109161142Y-87112857D01*
X109046857Y-86312857D02*
X109046857Y-85627142D01*
X109161142Y-84770000D02*
X109046857Y-84827142D01*
X108989714Y-84941428D01*
X108989714Y-85055714D01*
X109046857Y-85170000D01*
X109161142Y-85227142D01*
X109332571Y-85227142D01*
X109446857Y-85170000D01*
X109504000Y-85055714D01*
X109504000Y-84941428D01*
X109446857Y-84827142D01*
X109332571Y-84770000D01*
X109046857Y-84770000D01*
X108875428Y-84827142D01*
X108761142Y-84884285D01*
X108704000Y-84998571D01*
X108704000Y-85170000D01*
X106029142Y-87855714D02*
X106029142Y-88541428D01*
X106029142Y-88198571D02*
X107229142Y-88198571D01*
X107057714Y-88312857D01*
X106943428Y-88427142D01*
X106886285Y-88541428D01*
X107229142Y-87112857D02*
X107229142Y-86998571D01*
X107172000Y-86884285D01*
X107114857Y-86827142D01*
X107000571Y-86770000D01*
X106772000Y-86712857D01*
X106486285Y-86712857D01*
X106257714Y-86770000D01*
X106143428Y-86827142D01*
X106086285Y-86884285D01*
X106029142Y-86998571D01*
X106029142Y-87112857D01*
X106086285Y-87227142D01*
X106143428Y-87284285D01*
X106257714Y-87341428D01*
X106486285Y-87398571D01*
X106772000Y-87398571D01*
X107000571Y-87341428D01*
X107114857Y-87284285D01*
X107172000Y-87227142D01*
X107229142Y-87112857D01*
X107114857Y-86312857D02*
X107114857Y-85627142D01*
X106772000Y-84770000D02*
X106772000Y-85227142D01*
X107400571Y-85227142D02*
X107457714Y-85112857D01*
X107572000Y-84998571D01*
X106772000Y-84998571D01*
X107514857Y-84312857D02*
X107572000Y-84198571D01*
X107572000Y-84027142D01*
X107514857Y-83912857D01*
X107400571Y-83855714D01*
X107286285Y-83855714D01*
X107172000Y-83912857D01*
X106772000Y-84312857D01*
X106772000Y-83855714D01*
X104097142Y-87855714D02*
X104097142Y-88541428D01*
X104097142Y-88198571D02*
X105297142Y-88198571D01*
X105125714Y-88312857D01*
X105011428Y-88427142D01*
X104954285Y-88541428D01*
X105297142Y-87112857D02*
X105297142Y-86998571D01*
X105240000Y-86884285D01*
X105182857Y-86827142D01*
X105068571Y-86770000D01*
X104840000Y-86712857D01*
X104554285Y-86712857D01*
X104325714Y-86770000D01*
X104211428Y-86827142D01*
X104154285Y-86884285D01*
X104097142Y-86998571D01*
X104097142Y-87112857D01*
X104154285Y-87227142D01*
X104211428Y-87284285D01*
X104325714Y-87341428D01*
X104554285Y-87398571D01*
X104840000Y-87398571D01*
X105068571Y-87341428D01*
X105182857Y-87284285D01*
X105240000Y-87227142D01*
X105297142Y-87112857D01*
X105182857Y-86312857D02*
X105182857Y-85627142D01*
X104840000Y-84770000D02*
X104840000Y-85227142D01*
X105468571Y-85227142D02*
X105525714Y-85112857D01*
X105640000Y-84998571D01*
X104840000Y-84998571D01*
X105640000Y-83855714D02*
X105640000Y-84255714D01*
X105297142Y-84312857D01*
X105354285Y-84198571D01*
X105354285Y-84027142D01*
X105297142Y-83912857D01*
X105182857Y-83855714D01*
X105011428Y-83855714D01*
X104897142Y-83912857D01*
X104840000Y-84027142D01*
X104840000Y-84198571D01*
X104897142Y-84312857D01*
X102165142Y-87855714D02*
X102165142Y-88541428D01*
X102165142Y-88198571D02*
X103365142Y-88198571D01*
X103193714Y-88312857D01*
X103079428Y-88427142D01*
X103022285Y-88541428D01*
X103365142Y-87112857D02*
X103365142Y-86998571D01*
X103308000Y-86884285D01*
X103250857Y-86827142D01*
X103136571Y-86770000D01*
X102908000Y-86712857D01*
X102622285Y-86712857D01*
X102393714Y-86770000D01*
X102279428Y-86827142D01*
X102222285Y-86884285D01*
X102165142Y-86998571D01*
X102165142Y-87112857D01*
X102222285Y-87227142D01*
X102279428Y-87284285D01*
X102393714Y-87341428D01*
X102622285Y-87398571D01*
X102908000Y-87398571D01*
X103136571Y-87341428D01*
X103250857Y-87284285D01*
X103308000Y-87227142D01*
X103365142Y-87112857D01*
X103250857Y-86312857D02*
X103250857Y-85627142D01*
X102908000Y-84770000D02*
X102908000Y-85227142D01*
X103536571Y-85227142D02*
X103593714Y-85112857D01*
X103708000Y-84998571D01*
X102908000Y-84998571D01*
X103365142Y-84141428D02*
X103422285Y-84255714D01*
X103536571Y-84312857D01*
X103650857Y-84255714D01*
X103708000Y-84141428D01*
X103708000Y-84027142D01*
X103650857Y-83912857D01*
X103536571Y-83855714D01*
X103422285Y-83912857D01*
X103365142Y-84027142D01*
X103365142Y-84141428D01*
X103308000Y-84255714D01*
X103193714Y-84312857D01*
X103079428Y-84312857D01*
X102965142Y-84255714D01*
X102908000Y-84141428D01*
X102908000Y-84027142D01*
X102965142Y-83912857D01*
X103079428Y-83855714D01*
X103193714Y-83855714D01*
X103308000Y-83912857D01*
X103365142Y-84027142D01*
D13*
X90199642Y-98468571D02*
X91056785Y-98468571D01*
X90628214Y-98468571D02*
X90628214Y-96968571D01*
X90771071Y-97182857D01*
X90913928Y-97325714D01*
X91056785Y-97397142D01*
X89556785Y-98325714D02*
X89485357Y-98397142D01*
X89556785Y-98468571D01*
X89628214Y-98397142D01*
X89556785Y-98325714D01*
X89556785Y-98468571D01*
X88128214Y-96968571D02*
X88842500Y-96968571D01*
X88913928Y-97682857D01*
X88842500Y-97611428D01*
X88699642Y-97540000D01*
X88342500Y-97540000D01*
X88199642Y-97611428D01*
X88128214Y-97682857D01*
X88056785Y-97825714D01*
X88056785Y-98182857D01*
X88128214Y-98325714D01*
X88199642Y-98397142D01*
X88342500Y-98468571D01*
X88699642Y-98468571D01*
X88842500Y-98397142D01*
X88913928Y-98325714D01*
X87413928Y-98468571D02*
X87413928Y-96968571D01*
X86913928Y-98040000D01*
X86413928Y-96968571D01*
X86413928Y-98468571D01*
X85699642Y-98468571D02*
X85699642Y-96968571D01*
X85199642Y-98040000D01*
X84699642Y-96968571D01*
X84699642Y-98468571D01*
D10*
X90447714Y-100872857D02*
X91133428Y-100872857D01*
X90790571Y-100872857D02*
X90790571Y-99672857D01*
X90904857Y-99844285D01*
X91019142Y-99958571D01*
X91133428Y-100015714D01*
X89933428Y-100758571D02*
X89876285Y-100815714D01*
X89933428Y-100872857D01*
X89990571Y-100815714D01*
X89933428Y-100758571D01*
X89933428Y-100872857D01*
X89419142Y-99787142D02*
X89362000Y-99730000D01*
X89247714Y-99672857D01*
X88962000Y-99672857D01*
X88847714Y-99730000D01*
X88790571Y-99787142D01*
X88733428Y-99901428D01*
X88733428Y-100015714D01*
X88790571Y-100187142D01*
X89476285Y-100872857D01*
X88733428Y-100872857D01*
X88219142Y-100872857D02*
X88219142Y-99672857D01*
X87819142Y-100530000D01*
X87419142Y-99672857D01*
X87419142Y-100872857D01*
X86847714Y-100872857D02*
X86847714Y-99672857D01*
X86447714Y-100530000D01*
X86047714Y-99672857D01*
X86047714Y-100872857D01*
D11*
X90816428Y-83447143D02*
X88959286Y-83447143D01*
X89959286Y-84590000D01*
X89530714Y-84590000D01*
X89245000Y-84732857D01*
X89102143Y-84875714D01*
X88959286Y-85161428D01*
X88959286Y-85875714D01*
X89102143Y-86161428D01*
X89245000Y-86304285D01*
X89530714Y-86447142D01*
X90387857Y-86447142D01*
X90673571Y-86304285D01*
X90816428Y-86161428D01*
X87673572Y-86161428D02*
X87530715Y-86304285D01*
X87673572Y-86447142D01*
X87816429Y-86304285D01*
X87673572Y-86161428D01*
X87673572Y-86447142D01*
X85673573Y-83447143D02*
X85387859Y-83447143D01*
X85102144Y-83590000D01*
X84959287Y-83732857D01*
X84816430Y-84018571D01*
X84673573Y-84590000D01*
X84673573Y-85304285D01*
X84816430Y-85875714D01*
X84959287Y-86161428D01*
X85102144Y-86304285D01*
X85387859Y-86447142D01*
X85673573Y-86447142D01*
X85959287Y-86304285D01*
X86102144Y-86161428D01*
X86245001Y-85875714D01*
X86387858Y-85304285D01*
X86387858Y-84590000D01*
X86245001Y-84018571D01*
X86102144Y-83732857D01*
X85959287Y-83590000D01*
X85673573Y-83447143D01*
X83387859Y-86447142D02*
X83387859Y-83447143D01*
X82387860Y-85589999D01*
X81387860Y-83447143D01*
X81387860Y-86447142D01*
X79959289Y-86447142D02*
X79959289Y-83447143D01*
X78959289Y-85589999D01*
X77959290Y-83447143D01*
X77959290Y-86447142D01*
D14*
X82074761Y-100782380D02*
X82646190Y-100782380D01*
X82360476Y-100782380D02*
X82360476Y-99782380D01*
X82455714Y-99925238D01*
X82550952Y-100020476D01*
X82646190Y-100068095D01*
X81646190Y-100687142D02*
X81598571Y-100734761D01*
X81646190Y-100782380D01*
X81693809Y-100734761D01*
X81646190Y-100687142D01*
X81646190Y-100782380D01*
X80979523Y-99782380D02*
X80884285Y-99782380D01*
X80789047Y-99830000D01*
X80741428Y-99877619D01*
X80693809Y-99972857D01*
X80646190Y-100163333D01*
X80646190Y-100401428D01*
X80693809Y-100591904D01*
X80741428Y-100687142D01*
X80789047Y-100734761D01*
X80884285Y-100782380D01*
X80979523Y-100782380D01*
X81074761Y-100734761D01*
X81122380Y-100687142D01*
X81170000Y-100591904D01*
X81217619Y-100401428D01*
X81217619Y-100163333D01*
X81170000Y-99972857D01*
X81122380Y-99877619D01*
X81074761Y-99830000D01*
X80979523Y-99782380D01*
X80217619Y-100782380D02*
X80217619Y-99782380D01*
X79884285Y-100496666D01*
X79550952Y-99782380D01*
X79550952Y-100782380D01*
X79074761Y-100782380D02*
X79074761Y-99782380D01*
X78741428Y-100496666D01*
X78408095Y-99782380D01*
X78408095Y-100782380D01*
D15*
X81547476Y-96081904D02*
X81471285Y-96081904D01*
X81395095Y-96120000D01*
X81357000Y-96158095D01*
X81318904Y-96234285D01*
X81280809Y-96386666D01*
X81280809Y-96577142D01*
X81318904Y-96729523D01*
X81357000Y-96805714D01*
X81395095Y-96843809D01*
X81471285Y-96881904D01*
X81547476Y-96881904D01*
X81623666Y-96843809D01*
X81661761Y-96805714D01*
X81699857Y-96729523D01*
X81737952Y-96577142D01*
X81737952Y-96386666D01*
X81699857Y-96234285D01*
X81661761Y-96158095D01*
X81623666Y-96120000D01*
X81547476Y-96081904D01*
X80937952Y-96805714D02*
X80899857Y-96843809D01*
X80937952Y-96881904D01*
X80976047Y-96843809D01*
X80937952Y-96805714D01*
X80937952Y-96881904D01*
X80442714Y-96424761D02*
X80518904Y-96386666D01*
X80557000Y-96348571D01*
X80595095Y-96272380D01*
X80595095Y-96234285D01*
X80557000Y-96158095D01*
X80518904Y-96120000D01*
X80442714Y-96081904D01*
X80290333Y-96081904D01*
X80214142Y-96120000D01*
X80176047Y-96158095D01*
X80137952Y-96234285D01*
X80137952Y-96272380D01*
X80176047Y-96348571D01*
X80214142Y-96386666D01*
X80290333Y-96424761D01*
X80442714Y-96424761D01*
X80518904Y-96462857D01*
X80557000Y-96500952D01*
X80595095Y-96577142D01*
X80595095Y-96729523D01*
X80557000Y-96805714D01*
X80518904Y-96843809D01*
X80442714Y-96881904D01*
X80290333Y-96881904D01*
X80214142Y-96843809D01*
X80176047Y-96805714D01*
X80137952Y-96729523D01*
X80137952Y-96577142D01*
X80176047Y-96500952D01*
X80214142Y-96462857D01*
X80290333Y-96424761D01*
X79795095Y-96881904D02*
X79795095Y-96081904D01*
X79528428Y-96653333D01*
X79261761Y-96081904D01*
X79261761Y-96881904D01*
X78880809Y-96881904D02*
X78880809Y-96081904D01*
X78614142Y-96653333D01*
X78347476Y-96081904D01*
X78347476Y-96881904D01*
D16*
X81977785Y-97297142D02*
X81892071Y-97297142D01*
X81806357Y-97340000D01*
X81763500Y-97382857D01*
X81720642Y-97468571D01*
X81677785Y-97640000D01*
X81677785Y-97854285D01*
X81720642Y-98025714D01*
X81763500Y-98111428D01*
X81806357Y-98154285D01*
X81892071Y-98197142D01*
X81977785Y-98197142D01*
X82063500Y-98154285D01*
X82106357Y-98111428D01*
X82149214Y-98025714D01*
X82192071Y-97854285D01*
X82192071Y-97640000D01*
X82149214Y-97468571D01*
X82106357Y-97382857D01*
X82063500Y-97340000D01*
X81977785Y-97297142D01*
X81292071Y-98111428D02*
X81249214Y-98154285D01*
X81292071Y-98197142D01*
X81334928Y-98154285D01*
X81292071Y-98111428D01*
X81292071Y-98197142D01*
X80820642Y-98197142D02*
X80649214Y-98197142D01*
X80563500Y-98154285D01*
X80520642Y-98111428D01*
X80434928Y-97982857D01*
X80392071Y-97811428D01*
X80392071Y-97468571D01*
X80434928Y-97382857D01*
X80477785Y-97340000D01*
X80563500Y-97297142D01*
X80734928Y-97297142D01*
X80820642Y-97340000D01*
X80863500Y-97382857D01*
X80906357Y-97468571D01*
X80906357Y-97682857D01*
X80863500Y-97768571D01*
X80820642Y-97811428D01*
X80734928Y-97854285D01*
X80563500Y-97854285D01*
X80477785Y-97811428D01*
X80434928Y-97768571D01*
X80392071Y-97682857D01*
X80006357Y-98197142D02*
X80006357Y-97297142D01*
X79706357Y-97940000D01*
X79406357Y-97297142D01*
X79406357Y-98197142D01*
X78977785Y-98197142D02*
X78977785Y-97297142D01*
X78677785Y-97940000D01*
X78377785Y-97297142D01*
X78377785Y-98197142D01*
D17*
X81117166Y-94866666D02*
X81050500Y-94866666D01*
X80983833Y-94900000D01*
X80950500Y-94933333D01*
X80917166Y-95000000D01*
X80883833Y-95133333D01*
X80883833Y-95300000D01*
X80917166Y-95433333D01*
X80950500Y-95500000D01*
X80983833Y-95533333D01*
X81050500Y-95566666D01*
X81117166Y-95566666D01*
X81183833Y-95533333D01*
X81217166Y-95500000D01*
X81250500Y-95433333D01*
X81283833Y-95300000D01*
X81283833Y-95133333D01*
X81250500Y-95000000D01*
X81217166Y-94933333D01*
X81183833Y-94900000D01*
X81117166Y-94866666D01*
X80583833Y-95500000D02*
X80550500Y-95533333D01*
X80583833Y-95566666D01*
X80617166Y-95533333D01*
X80583833Y-95500000D01*
X80583833Y-95566666D01*
X80317166Y-94866666D02*
X79850500Y-94866666D01*
X80150500Y-95566666D01*
X79583833Y-95566666D02*
X79583833Y-94866666D01*
X79350500Y-95366666D01*
X79117166Y-94866666D01*
X79117166Y-95566666D01*
X78783833Y-95566666D02*
X78783833Y-94866666D01*
X78550500Y-95366666D01*
X78317166Y-94866666D01*
X78317166Y-95566666D01*
D18*
X80256547Y-92436190D02*
X80208928Y-92436190D01*
X80161309Y-92460000D01*
X80137500Y-92483809D01*
X80113690Y-92531428D01*
X80089880Y-92626666D01*
X80089880Y-92745714D01*
X80113690Y-92840952D01*
X80137500Y-92888571D01*
X80161309Y-92912380D01*
X80208928Y-92936190D01*
X80256547Y-92936190D01*
X80304166Y-92912380D01*
X80327976Y-92888571D01*
X80351785Y-92840952D01*
X80375595Y-92745714D01*
X80375595Y-92626666D01*
X80351785Y-92531428D01*
X80327976Y-92483809D01*
X80304166Y-92460000D01*
X80256547Y-92436190D01*
X79875595Y-92888571D02*
X79851785Y-92912380D01*
X79875595Y-92936190D01*
X79899404Y-92912380D01*
X79875595Y-92888571D01*
X79875595Y-92936190D01*
X79399404Y-92436190D02*
X79637500Y-92436190D01*
X79661309Y-92674285D01*
X79637500Y-92650476D01*
X79589880Y-92626666D01*
X79470833Y-92626666D01*
X79423214Y-92650476D01*
X79399404Y-92674285D01*
X79375595Y-92721904D01*
X79375595Y-92840952D01*
X79399404Y-92888571D01*
X79423214Y-92912380D01*
X79470833Y-92936190D01*
X79589880Y-92936190D01*
X79637500Y-92912380D01*
X79661309Y-92888571D01*
X79161309Y-92936190D02*
X79161309Y-92436190D01*
X78994642Y-92793333D01*
X78827976Y-92436190D01*
X78827976Y-92936190D01*
X78589880Y-92936190D02*
X78589880Y-92436190D01*
X78423214Y-92793333D01*
X78256547Y-92436190D01*
X78256547Y-92936190D01*
D19*
X80686857Y-93651428D02*
X80629714Y-93651428D01*
X80572571Y-93680000D01*
X80544000Y-93708571D01*
X80515428Y-93765714D01*
X80486857Y-93880000D01*
X80486857Y-94022857D01*
X80515428Y-94137142D01*
X80544000Y-94194285D01*
X80572571Y-94222857D01*
X80629714Y-94251428D01*
X80686857Y-94251428D01*
X80744000Y-94222857D01*
X80772571Y-94194285D01*
X80801142Y-94137142D01*
X80829714Y-94022857D01*
X80829714Y-93880000D01*
X80801142Y-93765714D01*
X80772571Y-93708571D01*
X80744000Y-93680000D01*
X80686857Y-93651428D01*
X80229714Y-94194285D02*
X80201142Y-94222857D01*
X80229714Y-94251428D01*
X80258285Y-94222857D01*
X80229714Y-94194285D01*
X80229714Y-94251428D01*
X79686857Y-93651428D02*
X79801142Y-93651428D01*
X79858285Y-93680000D01*
X79886857Y-93708571D01*
X79944000Y-93794285D01*
X79972571Y-93908571D01*
X79972571Y-94137142D01*
X79944000Y-94194285D01*
X79915428Y-94222857D01*
X79858285Y-94251428D01*
X79744000Y-94251428D01*
X79686857Y-94222857D01*
X79658285Y-94194285D01*
X79629714Y-94137142D01*
X79629714Y-93994285D01*
X79658285Y-93937142D01*
X79686857Y-93908571D01*
X79744000Y-93880000D01*
X79858285Y-93880000D01*
X79915428Y-93908571D01*
X79944000Y-93937142D01*
X79972571Y-93994285D01*
X79372571Y-94251428D02*
X79372571Y-93651428D01*
X79172571Y-94080000D01*
X78972571Y-93651428D01*
X78972571Y-94251428D01*
X78686857Y-94251428D02*
X78686857Y-93651428D01*
X78486857Y-94080000D01*
X78286857Y-93651428D01*
X78286857Y-94251428D01*
D12*
X194150000Y-99672857D02*
X194264285Y-99730000D01*
X194321428Y-99844285D01*
X194264285Y-99958571D01*
X194150000Y-100015714D01*
X194035714Y-99958571D01*
X193978571Y-99844285D01*
X194035714Y-99730000D01*
X194150000Y-99672857D01*
X193007142Y-100244285D02*
X193407142Y-100244285D01*
X193407142Y-100872857D02*
X193407142Y-99672857D01*
X192835714Y-99672857D01*
X191464285Y-100244285D02*
X190550000Y-100244285D01*
X190550000Y-100587142D02*
X191464285Y-100587142D01*
X188721428Y-101330000D02*
X188778571Y-101272857D01*
X188892857Y-101101428D01*
X188950000Y-100987142D01*
X189007142Y-100815714D01*
X189064285Y-100530000D01*
X189064285Y-100301428D01*
X189007142Y-100015714D01*
X188950000Y-99844285D01*
X188892857Y-99730000D01*
X188778571Y-99558571D01*
X188721428Y-99501428D01*
X188092857Y-99672857D02*
X188207142Y-99730000D01*
X188264285Y-99844285D01*
X188207142Y-99958571D01*
X188092857Y-100015714D01*
X187978571Y-99958571D01*
X187921428Y-99844285D01*
X187978571Y-99730000D01*
X188092857Y-99672857D01*
X186664285Y-100758571D02*
X186721428Y-100815714D01*
X186892857Y-100872857D01*
X187007142Y-100872857D01*
X187178571Y-100815714D01*
X187292857Y-100701428D01*
X187350000Y-100587142D01*
X187407142Y-100358571D01*
X187407142Y-100187142D01*
X187350000Y-99958571D01*
X187292857Y-99844285D01*
X187178571Y-99730000D01*
X187007142Y-99672857D01*
X186892857Y-99672857D01*
X186721428Y-99730000D01*
X186664285Y-99787142D01*
X185350000Y-100872857D02*
X184721428Y-100072857D01*
X185350000Y-100072857D02*
X184721428Y-100872857D01*
X183292857Y-100872857D02*
X183064285Y-100872857D01*
X182950000Y-100815714D01*
X182892857Y-100758571D01*
X182778571Y-100587142D01*
X182721428Y-100358571D01*
X182721428Y-99901428D01*
X182778571Y-99787142D01*
X182835714Y-99730000D01*
X182950000Y-99672857D01*
X183178571Y-99672857D01*
X183292857Y-99730000D01*
X183350000Y-99787142D01*
X183407142Y-99901428D01*
X183407142Y-100187142D01*
X183350000Y-100301428D01*
X183292857Y-100358571D01*
X183178571Y-100415714D01*
X182950000Y-100415714D01*
X182835714Y-100358571D01*
X182778571Y-100301428D01*
X182721428Y-100187142D01*
X181350000Y-99615714D02*
X182378571Y-101158571D01*
X180378571Y-99672857D02*
X180950000Y-99672857D01*
X181007142Y-100244285D01*
X180950000Y-100187142D01*
X180835714Y-100130000D01*
X180550000Y-100130000D01*
X180435714Y-100187142D01*
X180378571Y-100244285D01*
X180321428Y-100358571D01*
X180321428Y-100644285D01*
X180378571Y-100758571D01*
X180435714Y-100815714D01*
X180550000Y-100872857D01*
X180835714Y-100872857D01*
X180950000Y-100815714D01*
X181007142Y-100758571D01*
X179921428Y-101330000D02*
X179864285Y-101272857D01*
X179750000Y-101101428D01*
X179692857Y-100987142D01*
X179635714Y-100815714D01*
X179578571Y-100530000D01*
X179578571Y-100301428D01*
X179635714Y-100015714D01*
X179692857Y-99844285D01*
X179750000Y-99730000D01*
X179864285Y-99558571D01*
X179921428Y-99501428D01*
X178092857Y-100415714D02*
X177178571Y-100415714D01*
X177635714Y-100872857D02*
X177635714Y-99958571D01*
X175807142Y-99672857D02*
X175064285Y-99672857D01*
X175464285Y-100130000D01*
X175292857Y-100130000D01*
X175178571Y-100187142D01*
X175121428Y-100244285D01*
X175064285Y-100358571D01*
X175064285Y-100644285D01*
X175121428Y-100758571D01*
X175178571Y-100815714D01*
X175292857Y-100872857D01*
X175635714Y-100872857D01*
X175750000Y-100815714D01*
X175807142Y-100758571D01*
X174607142Y-99787142D02*
X174550000Y-99730000D01*
X174435714Y-99672857D01*
X174150000Y-99672857D01*
X174035714Y-99730000D01*
X173978571Y-99787142D01*
X173921428Y-99901428D01*
X173921428Y-100015714D01*
X173978571Y-100187142D01*
X174664285Y-100872857D01*
X173921428Y-100872857D01*
X149084285Y-99672857D02*
X149198571Y-99730000D01*
X149255714Y-99844285D01*
X149198571Y-99958571D01*
X149084285Y-100015714D01*
X148970000Y-99958571D01*
X148912857Y-99844285D01*
X148970000Y-99730000D01*
X149084285Y-99672857D01*
X148341428Y-100872857D02*
X148341428Y-99672857D01*
X147655714Y-100872857D02*
X148170000Y-100187142D01*
X147655714Y-99672857D02*
X148341428Y-100358571D01*
X146227142Y-100244285D02*
X145312857Y-100244285D01*
X145312857Y-100587142D02*
X146227142Y-100587142D01*
X143655714Y-99672857D02*
X143770000Y-99730000D01*
X143827142Y-99844285D01*
X143770000Y-99958571D01*
X143655714Y-100015714D01*
X143541428Y-99958571D01*
X143484285Y-99844285D01*
X143541428Y-99730000D01*
X143655714Y-99672857D01*
X142227142Y-100758571D02*
X142284285Y-100815714D01*
X142455714Y-100872857D01*
X142570000Y-100872857D01*
X142741428Y-100815714D01*
X142855714Y-100701428D01*
X142912857Y-100587142D01*
X142970000Y-100358571D01*
X142970000Y-100187142D01*
X142912857Y-99958571D01*
X142855714Y-99844285D01*
X142741428Y-99730000D01*
X142570000Y-99672857D01*
X142455714Y-99672857D01*
X142284285Y-99730000D01*
X142227142Y-99787142D01*
X140798571Y-100415714D02*
X139884285Y-100415714D01*
X140341428Y-100872857D02*
X140341428Y-99958571D01*
X138455714Y-99787142D02*
X138398571Y-99730000D01*
X138284285Y-99672857D01*
X137998571Y-99672857D01*
X137884285Y-99730000D01*
X137827142Y-99787142D01*
X137770000Y-99901428D01*
X137770000Y-100015714D01*
X137827142Y-100187142D01*
X138512857Y-100872857D01*
X137770000Y-100872857D01*
X137370000Y-99672857D02*
X136570000Y-99672857D01*
X137084285Y-100872857D01*
X136227142Y-99672857D02*
X135484285Y-99672857D01*
X135884285Y-100130000D01*
X135712857Y-100130000D01*
X135598571Y-100187142D01*
X135541428Y-100244285D01*
X135484285Y-100358571D01*
X135484285Y-100644285D01*
X135541428Y-100758571D01*
X135598571Y-100815714D01*
X135712857Y-100872857D01*
X136055714Y-100872857D01*
X136170000Y-100815714D01*
X136227142Y-100758571D01*
X134970000Y-100758571D02*
X134912857Y-100815714D01*
X134970000Y-100872857D01*
X135027142Y-100815714D01*
X134970000Y-100758571D01*
X134970000Y-100872857D01*
X133770000Y-100872857D02*
X134455714Y-100872857D01*
X134112857Y-100872857D02*
X134112857Y-99672857D01*
X134227142Y-99844285D01*
X134341428Y-99958571D01*
X134455714Y-100015714D01*
X132684285Y-99672857D02*
X133255714Y-99672857D01*
X133312857Y-100244285D01*
X133255714Y-100187142D01*
X133141428Y-100130000D01*
X132855714Y-100130000D01*
X132741428Y-100187142D01*
X132684285Y-100244285D01*
X132627142Y-100358571D01*
X132627142Y-100644285D01*
X132684285Y-100758571D01*
X132741428Y-100815714D01*
X132855714Y-100872857D01*
X133141428Y-100872857D01*
X133255714Y-100815714D01*
X133312857Y-100758571D01*
D11*
X143533333Y-105045238D02*
X144866666Y-105045238D01*
X144009523Y-103045238D01*
X163819047Y-103045238D02*
X164200000Y-103045238D01*
X164390476Y-103140476D01*
X164485714Y-103235714D01*
X164676190Y-103521428D01*
X164771428Y-103902380D01*
X164771428Y-104664285D01*
X164676190Y-104854761D01*
X164580952Y-104950000D01*
X164390476Y-105045238D01*
X164009523Y-105045238D01*
X163819047Y-104950000D01*
X163723809Y-104854761D01*
X163628571Y-104664285D01*
X163628571Y-104188095D01*
X163723809Y-103997619D01*
X163819047Y-103902380D01*
X164009523Y-103807142D01*
X164390476Y-103807142D01*
X164580952Y-103902380D01*
X164676190Y-103997619D01*
X164771428Y-104188095D01*
X93628571Y-104854761D02*
X93723809Y-104950000D01*
X93914285Y-105045238D01*
X94390476Y-105045238D01*
X94580952Y-104950000D01*
X94676190Y-104854761D01*
X94771428Y-104664285D01*
X94771428Y-104473809D01*
X94676190Y-104188095D01*
X93533333Y-103045238D01*
X94771428Y-103045238D01*
X134580952Y-105045238D02*
X134200000Y-105045238D01*
X134009523Y-104950000D01*
X133914285Y-104854761D01*
X133723809Y-104569047D01*
X133628571Y-104188095D01*
X133628571Y-103426190D01*
X133723809Y-103235714D01*
X133819047Y-103140476D01*
X134009523Y-103045238D01*
X134390476Y-103045238D01*
X134580952Y-103140476D01*
X134676190Y-103235714D01*
X134771428Y-103426190D01*
X134771428Y-103902380D01*
X134676190Y-104092857D01*
X134580952Y-104188095D01*
X134390476Y-104283333D01*
X134009523Y-104283333D01*
X133819047Y-104188095D01*
X133723809Y-104092857D01*
X133628571Y-103902380D01*
X203319047Y-103045238D02*
X202176190Y-103045238D01*
X202747619Y-103045238D02*
X202747619Y-105045238D01*
X202557142Y-104759523D01*
X202366666Y-104569047D01*
X202176190Y-104473809D01*
X203985714Y-105045238D02*
X205223809Y-105045238D01*
X204557142Y-104283333D01*
X204842857Y-104283333D01*
X205033333Y-104188095D01*
X205128571Y-104092857D01*
X205223809Y-103902380D01*
X205223809Y-103426190D01*
X205128571Y-103235714D01*
X205033333Y-103140476D01*
X204842857Y-103045238D01*
X204271428Y-103045238D01*
X204080952Y-103140476D01*
X203985714Y-103235714D01*
D12*
X170375714Y-99672857D02*
X170490000Y-99730000D01*
X170547142Y-99844285D01*
X170490000Y-99958571D01*
X170375714Y-100015714D01*
X170261428Y-99958571D01*
X170204285Y-99844285D01*
X170261428Y-99730000D01*
X170375714Y-99672857D01*
X168947142Y-100758571D02*
X169004285Y-100815714D01*
X169175714Y-100872857D01*
X169290000Y-100872857D01*
X169461428Y-100815714D01*
X169575714Y-100701428D01*
X169632857Y-100587142D01*
X169690000Y-100358571D01*
X169690000Y-100187142D01*
X169632857Y-99958571D01*
X169575714Y-99844285D01*
X169461428Y-99730000D01*
X169290000Y-99672857D01*
X169175714Y-99672857D01*
X169004285Y-99730000D01*
X168947142Y-99787142D01*
X167518571Y-100244285D02*
X166604285Y-100244285D01*
X166604285Y-100587142D02*
X167518571Y-100587142D01*
X164775714Y-101330000D02*
X164832857Y-101272857D01*
X164947142Y-101101428D01*
X165004285Y-100987142D01*
X165061428Y-100815714D01*
X165118571Y-100530000D01*
X165118571Y-100301428D01*
X165061428Y-100015714D01*
X165004285Y-99844285D01*
X164947142Y-99730000D01*
X164832857Y-99558571D01*
X164775714Y-99501428D01*
X164147142Y-99672857D02*
X164261428Y-99730000D01*
X164318571Y-99844285D01*
X164261428Y-99958571D01*
X164147142Y-100015714D01*
X164032857Y-99958571D01*
X163975714Y-99844285D01*
X164032857Y-99730000D01*
X164147142Y-99672857D01*
X163004285Y-100244285D02*
X163404285Y-100244285D01*
X163404285Y-100872857D02*
X163404285Y-99672857D01*
X162832857Y-99672857D01*
X162375714Y-100415714D02*
X161461428Y-100415714D01*
X161004285Y-99672857D02*
X160261428Y-99672857D01*
X160661428Y-100130000D01*
X160490000Y-100130000D01*
X160375714Y-100187142D01*
X160318571Y-100244285D01*
X160261428Y-100358571D01*
X160261428Y-100644285D01*
X160318571Y-100758571D01*
X160375714Y-100815714D01*
X160490000Y-100872857D01*
X160832857Y-100872857D01*
X160947142Y-100815714D01*
X161004285Y-100758571D01*
X159804285Y-99787142D02*
X159747142Y-99730000D01*
X159632857Y-99672857D01*
X159347142Y-99672857D01*
X159232857Y-99730000D01*
X159175714Y-99787142D01*
X159118571Y-99901428D01*
X159118571Y-100015714D01*
X159175714Y-100187142D01*
X159861428Y-100872857D01*
X159118571Y-100872857D01*
X158718571Y-101330000D02*
X158661428Y-101272857D01*
X158547142Y-101101428D01*
X158490000Y-100987142D01*
X158432857Y-100815714D01*
X158375714Y-100530000D01*
X158375714Y-100301428D01*
X158432857Y-100015714D01*
X158490000Y-99844285D01*
X158547142Y-99730000D01*
X158661428Y-99558571D01*
X158718571Y-99501428D01*
X157004285Y-100872857D02*
X156375714Y-100072857D01*
X157004285Y-100072857D02*
X156375714Y-100872857D01*
X154432857Y-99672857D02*
X155004285Y-99672857D01*
X155061428Y-100244285D01*
X155004285Y-100187142D01*
X154890000Y-100130000D01*
X154604285Y-100130000D01*
X154490000Y-100187142D01*
X154432857Y-100244285D01*
X154375714Y-100358571D01*
X154375714Y-100644285D01*
X154432857Y-100758571D01*
X154490000Y-100815714D01*
X154604285Y-100872857D01*
X154890000Y-100872857D01*
X155004285Y-100815714D01*
X155061428Y-100758571D01*
X153004285Y-99615714D02*
X154032857Y-101158571D01*
X152547142Y-100872857D02*
X152318571Y-100872857D01*
X152204285Y-100815714D01*
X152147142Y-100758571D01*
X152032857Y-100587142D01*
X151975714Y-100358571D01*
X151975714Y-99901428D01*
X152032857Y-99787142D01*
X152090000Y-99730000D01*
X152204285Y-99672857D01*
X152432857Y-99672857D01*
X152547142Y-99730000D01*
X152604285Y-99787142D01*
X152661428Y-99901428D01*
X152661428Y-100187142D01*
X152604285Y-100301428D01*
X152547142Y-100358571D01*
X152432857Y-100415714D01*
X152204285Y-100415714D01*
X152090000Y-100358571D01*
X152032857Y-100301428D01*
X151975714Y-100187142D01*
D20*
X90034261Y-96019047D02*
X91005690Y-96019047D01*
X90519976Y-96019047D02*
X90519976Y-94319047D01*
X90681880Y-94561904D01*
X90843785Y-94723809D01*
X91005690Y-94804761D01*
X89305690Y-95857142D02*
X89224738Y-95938095D01*
X89305690Y-96019047D01*
X89386642Y-95938095D01*
X89305690Y-95857142D01*
X89305690Y-96019047D01*
X88658071Y-94319047D02*
X87524738Y-94319047D01*
X88253309Y-96019047D01*
X86877119Y-96019047D02*
X86877119Y-94319047D01*
X86310452Y-95533333D01*
X85743785Y-94319047D01*
X85743785Y-96019047D01*
X84934261Y-96019047D02*
X84934261Y-94319047D01*
X84367595Y-95533333D01*
X83800928Y-94319047D01*
X83800928Y-96019047D01*
D11*
X124676190Y-105045238D02*
X123723809Y-105045238D01*
X123628571Y-104092857D01*
X123723809Y-104188095D01*
X123914285Y-104283333D01*
X124390476Y-104283333D01*
X124580952Y-104188095D01*
X124676190Y-104092857D01*
X124771428Y-103902380D01*
X124771428Y-103426190D01*
X124676190Y-103235714D01*
X124580952Y-103140476D01*
X124390476Y-103045238D01*
X123914285Y-103045238D01*
X123723809Y-103140476D01*
X123628571Y-103235714D01*
X154009523Y-104188095D02*
X153819047Y-104283333D01*
X153723809Y-104378571D01*
X153628571Y-104569047D01*
X153628571Y-104664285D01*
X153723809Y-104854761D01*
X153819047Y-104950000D01*
X154009523Y-105045238D01*
X154390476Y-105045238D01*
X154580952Y-104950000D01*
X154676190Y-104854761D01*
X154771428Y-104664285D01*
X154771428Y-104569047D01*
X154676190Y-104378571D01*
X154580952Y-104283333D01*
X154390476Y-104188095D01*
X154009523Y-104188095D01*
X153819047Y-104092857D01*
X153723809Y-103997619D01*
X153628571Y-103807142D01*
X153628571Y-103426190D01*
X153723809Y-103235714D01*
X153819047Y-103140476D01*
X154009523Y-103045238D01*
X154390476Y-103045238D01*
X154580952Y-103140476D01*
X154676190Y-103235714D01*
X154771428Y-103426190D01*
X154771428Y-103807142D01*
X154676190Y-103997619D01*
X154580952Y-104092857D01*
X154390476Y-104188095D01*
D21*
X90801309Y-87769047D02*
X90682261Y-87650000D01*
X90444166Y-87530952D01*
X89848928Y-87530952D01*
X89610833Y-87650000D01*
X89491785Y-87769047D01*
X89372738Y-88007142D01*
X89372738Y-88245238D01*
X89491785Y-88602380D01*
X90920357Y-90030952D01*
X89372738Y-90030952D01*
X88301309Y-89792857D02*
X88182261Y-89911904D01*
X88301309Y-90030952D01*
X88420357Y-89911904D01*
X88301309Y-89792857D01*
X88301309Y-90030952D01*
X85920357Y-87530952D02*
X87110833Y-87530952D01*
X87229880Y-88721428D01*
X87110833Y-88602380D01*
X86872738Y-88483333D01*
X86277500Y-88483333D01*
X86039404Y-88602380D01*
X85920357Y-88721428D01*
X85801309Y-88959523D01*
X85801309Y-89554761D01*
X85920357Y-89792857D01*
X86039404Y-89911904D01*
X86277500Y-90030952D01*
X86872738Y-90030952D01*
X87110833Y-89911904D01*
X87229880Y-89792857D01*
X84729880Y-90030952D02*
X84729880Y-87530952D01*
X83896547Y-89316666D01*
X83063214Y-87530952D01*
X83063214Y-90030952D01*
X81872738Y-90030952D02*
X81872738Y-87530952D01*
X81039404Y-89316666D01*
X80206071Y-87530952D01*
X80206071Y-90030952D01*
D11*
X84771428Y-103045238D02*
X83628571Y-103045238D01*
X84200000Y-103045238D02*
X84200000Y-105045238D01*
X84009523Y-104759523D01*
X83819047Y-104569047D01*
X83628571Y-104473809D01*
X114580952Y-104378571D02*
X114580952Y-103045238D01*
X114104761Y-105140476D02*
X113628571Y-103711904D01*
X114866666Y-103711904D01*
X183319047Y-103045238D02*
X182176190Y-103045238D01*
X182747619Y-103045238D02*
X182747619Y-105045238D01*
X182557142Y-104759523D01*
X182366666Y-104569047D01*
X182176190Y-104473809D01*
X185223809Y-103045238D02*
X184080952Y-103045238D01*
X184652380Y-103045238D02*
X184652380Y-105045238D01*
X184461904Y-104759523D01*
X184271428Y-104569047D01*
X184080952Y-104473809D01*
X213319047Y-103045238D02*
X212176190Y-103045238D01*
X212747619Y-103045238D02*
X212747619Y-105045238D01*
X212557142Y-104759523D01*
X212366666Y-104569047D01*
X212176190Y-104473809D01*
X215033333Y-104378571D02*
X215033333Y-103045238D01*
X214557142Y-105140476D02*
X214080952Y-103711904D01*
X215319047Y-103711904D01*
D12*
X90929047Y-91805238D02*
X90833809Y-91710000D01*
X90643333Y-91614761D01*
X90167142Y-91614761D01*
X89976666Y-91710000D01*
X89881428Y-91805238D01*
X89786190Y-91995714D01*
X89786190Y-92186190D01*
X89881428Y-92471904D01*
X91024285Y-93614761D01*
X89786190Y-93614761D01*
X88929047Y-93424285D02*
X88833809Y-93519523D01*
X88929047Y-93614761D01*
X89024285Y-93519523D01*
X88929047Y-93424285D01*
X88929047Y-93614761D01*
X87595714Y-91614761D02*
X87405238Y-91614761D01*
X87214761Y-91710000D01*
X87119523Y-91805238D01*
X87024285Y-91995714D01*
X86929047Y-92376666D01*
X86929047Y-92852857D01*
X87024285Y-93233809D01*
X87119523Y-93424285D01*
X87214761Y-93519523D01*
X87405238Y-93614761D01*
X87595714Y-93614761D01*
X87786190Y-93519523D01*
X87881428Y-93424285D01*
X87976666Y-93233809D01*
X88071904Y-92852857D01*
X88071904Y-92376666D01*
X87976666Y-91995714D01*
X87881428Y-91805238D01*
X87786190Y-91710000D01*
X87595714Y-91614761D01*
X86071904Y-93614761D02*
X86071904Y-91614761D01*
X85405238Y-93043333D01*
X84738571Y-91614761D01*
X84738571Y-93614761D01*
X83786190Y-93614761D02*
X83786190Y-91614761D01*
X83119523Y-93043333D01*
X82452857Y-91614761D01*
X82452857Y-93614761D01*
D11*
X193319047Y-103045238D02*
X192176190Y-103045238D01*
X192747619Y-103045238D02*
X192747619Y-105045238D01*
X192557142Y-104759523D01*
X192366666Y-104569047D01*
X192176190Y-104473809D01*
X194080952Y-104854761D02*
X194176190Y-104950000D01*
X194366666Y-105045238D01*
X194842857Y-105045238D01*
X195033333Y-104950000D01*
X195128571Y-104854761D01*
X195223809Y-104664285D01*
X195223809Y-104473809D01*
X195128571Y-104188095D01*
X193985714Y-103045238D01*
X195223809Y-103045238D01*
X103533333Y-105045238D02*
X104771428Y-105045238D01*
X104104761Y-104283333D01*
X104390476Y-104283333D01*
X104580952Y-104188095D01*
X104676190Y-104092857D01*
X104771428Y-103902380D01*
X104771428Y-103426190D01*
X104676190Y-103235714D01*
X104580952Y-103140476D01*
X104390476Y-103045238D01*
X103819047Y-103045238D01*
X103628571Y-103140476D01*
X103533333Y-103235714D01*
D13*
X216159523Y-85352380D02*
X216159523Y-84352380D01*
X215826190Y-85066666D01*
X215492857Y-84352380D01*
X215492857Y-85352380D01*
X214540476Y-84352380D02*
X215016666Y-84352380D01*
X215064285Y-84828571D01*
X215016666Y-84780952D01*
X214921428Y-84733333D01*
X214683333Y-84733333D01*
X214588095Y-84780952D01*
X214540476Y-84828571D01*
X214492857Y-84923809D01*
X214492857Y-85161904D01*
X214540476Y-85257142D01*
X214588095Y-85304761D01*
X214683333Y-85352380D01*
X214921428Y-85352380D01*
X215016666Y-85304761D01*
X215064285Y-85257142D01*
X210159523Y-85852380D02*
X210159523Y-84852380D01*
X209826190Y-85566666D01*
X209492857Y-84852380D01*
X209492857Y-85852380D01*
X208588095Y-85185714D02*
X208588095Y-85852380D01*
X208826190Y-84804761D02*
X209064285Y-85519047D01*
X208445238Y-85519047D01*
X223159523Y-84852380D02*
X223159523Y-83852380D01*
X222826190Y-84566666D01*
X222492857Y-83852380D01*
X222492857Y-84852380D01*
X221588095Y-83852380D02*
X221778571Y-83852380D01*
X221873809Y-83900000D01*
X221921428Y-83947619D01*
X222016666Y-84090476D01*
X222064285Y-84280952D01*
X222064285Y-84661904D01*
X222016666Y-84757142D01*
X221969047Y-84804761D01*
X221873809Y-84852380D01*
X221683333Y-84852380D01*
X221588095Y-84804761D01*
X221540476Y-84757142D01*
X221492857Y-84661904D01*
X221492857Y-84423809D01*
X221540476Y-84328571D01*
X221588095Y-84280952D01*
X221683333Y-84233333D01*
X221873809Y-84233333D01*
X221969047Y-84280952D01*
X222016666Y-84328571D01*
X222064285Y-84423809D01*
X205159523Y-86352380D02*
X205159523Y-85352380D01*
X204826190Y-86066666D01*
X204492857Y-85352380D01*
X204492857Y-86352380D01*
X204111904Y-85352380D02*
X203492857Y-85352380D01*
X203826190Y-85733333D01*
X203683333Y-85733333D01*
X203588095Y-85780952D01*
X203540476Y-85828571D01*
X203492857Y-85923809D01*
X203492857Y-86161904D01*
X203540476Y-86257142D01*
X203588095Y-86304761D01*
X203683333Y-86352380D01*
X203969047Y-86352380D01*
X204064285Y-86304761D01*
X204111904Y-86257142D01*
X214730952Y-83852380D02*
X214730952Y-82852380D01*
X214397619Y-83566666D01*
X214064285Y-82852380D01*
X214064285Y-83852380D01*
X213588095Y-83328571D02*
X213254761Y-83328571D01*
X213111904Y-83852380D02*
X213588095Y-83852380D01*
X213588095Y-82852380D01*
X213111904Y-82852380D01*
X212826190Y-82852380D02*
X212254761Y-82852380D01*
X212540476Y-83852380D02*
X212540476Y-82852380D01*
X211350000Y-83852380D02*
X211683333Y-83376190D01*
X211921428Y-83852380D02*
X211921428Y-82852380D01*
X211540476Y-82852380D01*
X211445238Y-82900000D01*
X211397619Y-82947619D01*
X211350000Y-83042857D01*
X211350000Y-83185714D01*
X211397619Y-83280952D01*
X211445238Y-83328571D01*
X211540476Y-83376190D01*
X211921428Y-83376190D01*
X210921428Y-83852380D02*
X210921428Y-82852380D01*
X209873809Y-83757142D02*
X209921428Y-83804761D01*
X210064285Y-83852380D01*
X210159523Y-83852380D01*
X210302380Y-83804761D01*
X210397619Y-83709523D01*
X210445238Y-83614285D01*
X210492857Y-83423809D01*
X210492857Y-83280952D01*
X210445238Y-83090476D01*
X210397619Y-82995238D01*
X210302380Y-82900000D01*
X210159523Y-82852380D01*
X210064285Y-82852380D01*
X209921428Y-82900000D01*
X209873809Y-82947619D01*
X208683333Y-83852380D02*
X208683333Y-82852380D01*
X208350000Y-83566666D01*
X208016666Y-82852380D01*
X208016666Y-83852380D01*
X207588095Y-83566666D02*
X207111904Y-83566666D01*
X207683333Y-83852380D02*
X207350000Y-82852380D01*
X207016666Y-83852380D01*
X206111904Y-83757142D02*
X206159523Y-83804761D01*
X206302380Y-83852380D01*
X206397619Y-83852380D01*
X206540476Y-83804761D01*
X206635714Y-83709523D01*
X206683333Y-83614285D01*
X206730952Y-83423809D01*
X206730952Y-83280952D01*
X206683333Y-83090476D01*
X206635714Y-82995238D01*
X206540476Y-82900000D01*
X206397619Y-82852380D01*
X206302380Y-82852380D01*
X206159523Y-82900000D01*
X206111904Y-82947619D01*
X205683333Y-83852380D02*
X205683333Y-82852380D01*
X205683333Y-83328571D02*
X205111904Y-83328571D01*
X205111904Y-83852380D02*
X205111904Y-82852380D01*
X204635714Y-83852380D02*
X204635714Y-82852380D01*
X204159523Y-83852380D02*
X204159523Y-82852380D01*
X203588095Y-83852380D01*
X203588095Y-82852380D01*
X203111904Y-83328571D02*
X202778571Y-83328571D01*
X202635714Y-83852380D02*
X203111904Y-83852380D01*
X203111904Y-82852380D01*
X202635714Y-82852380D01*
X201492857Y-83804761D02*
X201350000Y-83852380D01*
X201111904Y-83852380D01*
X201016666Y-83804761D01*
X200969047Y-83757142D01*
X200921428Y-83661904D01*
X200921428Y-83566666D01*
X200969047Y-83471428D01*
X201016666Y-83423809D01*
X201111904Y-83376190D01*
X201302380Y-83328571D01*
X201397619Y-83280952D01*
X201445238Y-83233333D01*
X201492857Y-83138095D01*
X201492857Y-83042857D01*
X201445238Y-82947619D01*
X201397619Y-82900000D01*
X201302380Y-82852380D01*
X201064285Y-82852380D01*
X200921428Y-82900000D01*
X199921428Y-83757142D02*
X199969047Y-83804761D01*
X200111904Y-83852380D01*
X200207142Y-83852380D01*
X200350000Y-83804761D01*
X200445238Y-83709523D01*
X200492857Y-83614285D01*
X200540476Y-83423809D01*
X200540476Y-83280952D01*
X200492857Y-83090476D01*
X200445238Y-82995238D01*
X200350000Y-82900000D01*
X200207142Y-82852380D01*
X200111904Y-82852380D01*
X199969047Y-82900000D01*
X199921428Y-82947619D01*
X198921428Y-83852380D02*
X199254761Y-83376190D01*
X199492857Y-83852380D02*
X199492857Y-82852380D01*
X199111904Y-82852380D01*
X199016666Y-82900000D01*
X198969047Y-82947619D01*
X198921428Y-83042857D01*
X198921428Y-83185714D01*
X198969047Y-83280952D01*
X199016666Y-83328571D01*
X199111904Y-83376190D01*
X199492857Y-83376190D01*
X198492857Y-83328571D02*
X198159523Y-83328571D01*
X198016666Y-83852380D02*
X198492857Y-83852380D01*
X198492857Y-82852380D01*
X198016666Y-82852380D01*
X197683333Y-82852380D02*
X197445238Y-83852380D01*
X197254761Y-83138095D01*
X197064285Y-83852380D01*
X196826190Y-82852380D01*
X196492857Y-83804761D02*
X196350000Y-83852380D01*
X196111904Y-83852380D01*
X196016666Y-83804761D01*
X195969047Y-83757142D01*
X195921428Y-83661904D01*
X195921428Y-83566666D01*
X195969047Y-83471428D01*
X196016666Y-83423809D01*
X196111904Y-83376190D01*
X196302380Y-83328571D01*
X196397619Y-83280952D01*
X196445238Y-83233333D01*
X196492857Y-83138095D01*
X196492857Y-83042857D01*
X196445238Y-82947619D01*
X196397619Y-82900000D01*
X196302380Y-82852380D01*
X196064285Y-82852380D01*
X195921428Y-82900000D01*
X201873809Y-86812380D02*
X201873809Y-85812380D01*
X201540476Y-86526666D01*
X201207142Y-85812380D01*
X201207142Y-86812380D01*
X200778571Y-85907619D02*
X200730952Y-85860000D01*
X200635714Y-85812380D01*
X200397619Y-85812380D01*
X200302380Y-85860000D01*
X200254761Y-85907619D01*
X200207142Y-86002857D01*
X200207142Y-86098095D01*
X200254761Y-86240952D01*
X200826190Y-86812380D01*
X200207142Y-86812380D01*
X199778571Y-86717142D02*
X199730952Y-86764761D01*
X199778571Y-86812380D01*
X199826190Y-86764761D01*
X199778571Y-86717142D01*
X199778571Y-86812380D01*
X198826190Y-85812380D02*
X199302380Y-85812380D01*
X199350000Y-86288571D01*
X199302380Y-86240952D01*
X199207142Y-86193333D01*
X198969047Y-86193333D01*
X198873809Y-86240952D01*
X198826190Y-86288571D01*
X198778571Y-86383809D01*
X198778571Y-86621904D01*
X198826190Y-86717142D01*
X198873809Y-86764761D01*
X198969047Y-86812380D01*
X199207142Y-86812380D01*
X199302380Y-86764761D01*
X199350000Y-86717142D01*
X197659523Y-86812380D02*
X197659523Y-85812380D01*
X197326190Y-86526666D01*
X196992857Y-85812380D01*
X196992857Y-86812380D01*
X196564285Y-85907619D02*
X196516666Y-85860000D01*
X196421428Y-85812380D01*
X196183333Y-85812380D01*
X196088095Y-85860000D01*
X196040476Y-85907619D01*
X195992857Y-86002857D01*
X195992857Y-86098095D01*
X196040476Y-86240952D01*
X196611904Y-86812380D01*
X195992857Y-86812380D01*
X221765714Y-98210714D02*
X221051428Y-98210714D01*
X221480000Y-97782142D02*
X221765714Y-99067857D01*
X221146666Y-98639285D02*
X221860952Y-98639285D01*
X221432380Y-99067857D02*
X221146666Y-97782142D01*
X220289523Y-98210714D02*
X220289523Y-98877380D01*
X220527619Y-97829761D02*
X220765714Y-98544047D01*
X220146666Y-98544047D01*
X225971428Y-101417380D02*
X225971428Y-100417380D01*
X225495238Y-101417380D02*
X225495238Y-100417380D01*
X225161904Y-101131666D01*
X224828571Y-100417380D01*
X224828571Y-101417380D01*
X224352380Y-101417380D02*
X224352380Y-100417380D01*
X223971428Y-100417380D01*
X223876190Y-100465000D01*
X223828571Y-100512619D01*
X223780952Y-100607857D01*
X223780952Y-100750714D01*
X223828571Y-100845952D01*
X223876190Y-100893571D01*
X223971428Y-100941190D01*
X224352380Y-100941190D01*
X223352380Y-100893571D02*
X223019047Y-100893571D01*
X222876190Y-101417380D02*
X223352380Y-101417380D01*
X223352380Y-100417380D01*
X222876190Y-100417380D01*
X221876190Y-101417380D02*
X222209523Y-100941190D01*
X222447619Y-101417380D02*
X222447619Y-100417380D01*
X222066666Y-100417380D01*
X221971428Y-100465000D01*
X221923809Y-100512619D01*
X221876190Y-100607857D01*
X221876190Y-100750714D01*
X221923809Y-100845952D01*
X221971428Y-100893571D01*
X222066666Y-100941190D01*
X222447619Y-100941190D01*
X221447619Y-101417380D02*
X221447619Y-100417380D01*
X221019047Y-101131666D02*
X220542857Y-101131666D01*
X221114285Y-101417380D02*
X220780952Y-100417380D01*
X220447619Y-101417380D01*
X219638095Y-101417380D02*
X220114285Y-101417380D01*
X220114285Y-100417380D01*
X218542857Y-101417380D02*
X218542857Y-100417380D01*
X218209523Y-101131666D01*
X217876190Y-100417380D01*
X217876190Y-101417380D01*
X217447619Y-101131666D02*
X216971428Y-101131666D01*
X217542857Y-101417380D02*
X217209523Y-100417380D01*
X216876190Y-101417380D01*
X215971428Y-101322142D02*
X216019047Y-101369761D01*
X216161904Y-101417380D01*
X216257142Y-101417380D01*
X216400000Y-101369761D01*
X216495238Y-101274523D01*
X216542857Y-101179285D01*
X216590476Y-100988809D01*
X216590476Y-100845952D01*
X216542857Y-100655476D01*
X216495238Y-100560238D01*
X216400000Y-100465000D01*
X216257142Y-100417380D01*
X216161904Y-100417380D01*
X216019047Y-100465000D01*
X215971428Y-100512619D01*
X215542857Y-101417380D02*
X215542857Y-100417380D01*
X215542857Y-100893571D02*
X214971428Y-100893571D01*
X214971428Y-101417380D02*
X214971428Y-100417380D01*
X214495238Y-101417380D02*
X214495238Y-100417380D01*
X214019047Y-101417380D02*
X214019047Y-100417380D01*
X213447619Y-101417380D01*
X213447619Y-100417380D01*
X212971428Y-100893571D02*
X212638095Y-100893571D01*
X212495238Y-101417380D02*
X212971428Y-101417380D01*
X212971428Y-100417380D01*
X212495238Y-100417380D01*
X211352380Y-101369761D02*
X211209523Y-101417380D01*
X210971428Y-101417380D01*
X210876190Y-101369761D01*
X210828571Y-101322142D01*
X210780952Y-101226904D01*
X210780952Y-101131666D01*
X210828571Y-101036428D01*
X210876190Y-100988809D01*
X210971428Y-100941190D01*
X211161904Y-100893571D01*
X211257142Y-100845952D01*
X211304761Y-100798333D01*
X211352380Y-100703095D01*
X211352380Y-100607857D01*
X211304761Y-100512619D01*
X211257142Y-100465000D01*
X211161904Y-100417380D01*
X210923809Y-100417380D01*
X210780952Y-100465000D01*
X209780952Y-101322142D02*
X209828571Y-101369761D01*
X209971428Y-101417380D01*
X210066666Y-101417380D01*
X210209523Y-101369761D01*
X210304761Y-101274523D01*
X210352380Y-101179285D01*
X210400000Y-100988809D01*
X210400000Y-100845952D01*
X210352380Y-100655476D01*
X210304761Y-100560238D01*
X210209523Y-100465000D01*
X210066666Y-100417380D01*
X209971428Y-100417380D01*
X209828571Y-100465000D01*
X209780952Y-100512619D01*
X208780952Y-101417380D02*
X209114285Y-100941190D01*
X209352380Y-101417380D02*
X209352380Y-100417380D01*
X208971428Y-100417380D01*
X208876190Y-100465000D01*
X208828571Y-100512619D01*
X208780952Y-100607857D01*
X208780952Y-100750714D01*
X208828571Y-100845952D01*
X208876190Y-100893571D01*
X208971428Y-100941190D01*
X209352380Y-100941190D01*
X208352380Y-100893571D02*
X208019047Y-100893571D01*
X207876190Y-101417380D02*
X208352380Y-101417380D01*
X208352380Y-100417380D01*
X207876190Y-100417380D01*
X207542857Y-100417380D02*
X207304761Y-101417380D01*
X207114285Y-100703095D01*
X206923809Y-101417380D01*
X206685714Y-100417380D01*
X206352380Y-101369761D02*
X206209523Y-101417380D01*
X205971428Y-101417380D01*
X205876190Y-101369761D01*
X205828571Y-101322142D01*
X205780952Y-101226904D01*
X205780952Y-101131666D01*
X205828571Y-101036428D01*
X205876190Y-100988809D01*
X205971428Y-100941190D01*
X206161904Y-100893571D01*
X206257142Y-100845952D01*
X206304761Y-100798333D01*
X206352380Y-100703095D01*
X206352380Y-100607857D01*
X206304761Y-100512619D01*
X206257142Y-100465000D01*
X206161904Y-100417380D01*
X205923809Y-100417380D01*
X205780952Y-100465000D01*
X225575714Y-97575714D02*
X224861428Y-97575714D01*
X225290000Y-97147142D02*
X225575714Y-98432857D01*
X224956666Y-98004285D02*
X225670952Y-98004285D01*
X225242380Y-98432857D02*
X224956666Y-97147142D01*
X224575714Y-97337619D02*
X224528095Y-97290000D01*
X224432857Y-97242380D01*
X224194761Y-97242380D01*
X224099523Y-97290000D01*
X224051904Y-97337619D01*
X224004285Y-97432857D01*
X224004285Y-97528095D01*
X224051904Y-97670952D01*
X224623333Y-98242380D01*
X224004285Y-98242380D01*
X199850238Y-100782380D02*
X200421666Y-100782380D01*
X200135952Y-100782380D02*
X200135952Y-99782380D01*
X200231190Y-99925238D01*
X200326428Y-100020476D01*
X200421666Y-100068095D01*
X198707380Y-99734761D02*
X199564523Y-101020476D01*
X197945476Y-100115714D02*
X197945476Y-100782380D01*
X198183571Y-99734761D02*
X198421666Y-100449047D01*
X197802619Y-100449047D01*
X197469285Y-99782380D02*
X197469285Y-99972857D01*
X197088333Y-99782380D02*
X197088333Y-99972857D01*
X217320714Y-98210714D02*
X216606428Y-98210714D01*
X217035000Y-97782142D02*
X217320714Y-99067857D01*
X216701666Y-98639285D02*
X217415952Y-98639285D01*
X216987380Y-99067857D02*
X216701666Y-97782142D01*
X215844523Y-97877380D02*
X216035000Y-97877380D01*
X216130238Y-97925000D01*
X216177857Y-97972619D01*
X216273095Y-98115476D01*
X216320714Y-98305952D01*
X216320714Y-98686904D01*
X216273095Y-98782142D01*
X216225476Y-98829761D01*
X216130238Y-98877380D01*
X215939761Y-98877380D01*
X215844523Y-98829761D01*
X215796904Y-98782142D01*
X215749285Y-98686904D01*
X215749285Y-98448809D01*
X215796904Y-98353571D01*
X215844523Y-98305952D01*
X215939761Y-98258333D01*
X216130238Y-98258333D01*
X216225476Y-98305952D01*
X216273095Y-98353571D01*
X216320714Y-98448809D01*
X207001904Y-98845714D02*
X206287619Y-98845714D01*
X206716190Y-98417142D02*
X207001904Y-99702857D01*
X206382857Y-99274285D02*
X207097142Y-99274285D01*
X206668571Y-99702857D02*
X206382857Y-98417142D01*
X205430476Y-99512380D02*
X206001904Y-99512380D01*
X205716190Y-99512380D02*
X205716190Y-98512380D01*
X205811428Y-98655238D01*
X205906666Y-98750476D01*
X206001904Y-98798095D01*
X204811428Y-98512380D02*
X204716190Y-98512380D01*
X204620952Y-98560000D01*
X204573333Y-98607619D01*
X204525714Y-98702857D01*
X204478095Y-98893333D01*
X204478095Y-99131428D01*
X204525714Y-99321904D01*
X204573333Y-99417142D01*
X204620952Y-99464761D01*
X204716190Y-99512380D01*
X204811428Y-99512380D01*
X204906666Y-99464761D01*
X204954285Y-99417142D01*
X205001904Y-99321904D01*
X205049523Y-99131428D01*
X205049523Y-98893333D01*
X205001904Y-98702857D01*
X204954285Y-98607619D01*
X204906666Y-98560000D01*
X204811428Y-98512380D01*
X212240714Y-98845714D02*
X211526428Y-98845714D01*
X211955000Y-98417142D02*
X212240714Y-99702857D01*
X211621666Y-99274285D02*
X212335952Y-99274285D01*
X211907380Y-99702857D02*
X211621666Y-98417142D01*
X211050238Y-98940952D02*
X211145476Y-98893333D01*
X211193095Y-98845714D01*
X211240714Y-98750476D01*
X211240714Y-98702857D01*
X211193095Y-98607619D01*
X211145476Y-98560000D01*
X211050238Y-98512380D01*
X210859761Y-98512380D01*
X210764523Y-98560000D01*
X210716904Y-98607619D01*
X210669285Y-98702857D01*
X210669285Y-98750476D01*
X210716904Y-98845714D01*
X210764523Y-98893333D01*
X210859761Y-98940952D01*
X211050238Y-98940952D01*
X211145476Y-98988571D01*
X211193095Y-99036190D01*
X211240714Y-99131428D01*
X211240714Y-99321904D01*
X211193095Y-99417142D01*
X211145476Y-99464761D01*
X211050238Y-99512380D01*
X210859761Y-99512380D01*
X210764523Y-99464761D01*
X210716904Y-99417142D01*
X210669285Y-99321904D01*
X210669285Y-99131428D01*
X210716904Y-99036190D01*
X210764523Y-98988571D01*
X210859761Y-98940952D01*
X97726476Y-93924380D02*
X98297904Y-93924380D01*
X98012190Y-93924380D02*
X98012190Y-92924380D01*
X98107428Y-93067238D01*
X98202666Y-93162476D01*
X98297904Y-93210095D01*
X97155047Y-93352952D02*
X97250285Y-93305333D01*
X97297904Y-93257714D01*
X97345523Y-93162476D01*
X97345523Y-93114857D01*
X97297904Y-93019619D01*
X97250285Y-92972000D01*
X97155047Y-92924380D01*
X96964571Y-92924380D01*
X96869333Y-92972000D01*
X96821714Y-93019619D01*
X96774095Y-93114857D01*
X96774095Y-93162476D01*
X96821714Y-93257714D01*
X96869333Y-93305333D01*
X96964571Y-93352952D01*
X97155047Y-93352952D01*
X97250285Y-93400571D01*
X97297904Y-93448190D01*
X97345523Y-93543428D01*
X97345523Y-93733904D01*
X97297904Y-93829142D01*
X97250285Y-93876761D01*
X97155047Y-93924380D01*
X96964571Y-93924380D01*
X96869333Y-93876761D01*
X96821714Y-93829142D01*
X96774095Y-93733904D01*
X96774095Y-93543428D01*
X96821714Y-93448190D01*
X96869333Y-93400571D01*
X96964571Y-93352952D01*
X98043904Y-97591619D02*
X97996285Y-97544000D01*
X97901047Y-97496380D01*
X97662952Y-97496380D01*
X97567714Y-97544000D01*
X97520095Y-97591619D01*
X97472476Y-97686857D01*
X97472476Y-97782095D01*
X97520095Y-97924952D01*
X98091523Y-98496380D01*
X97472476Y-98496380D01*
X96615333Y-97829714D02*
X96615333Y-98496380D01*
X96853428Y-97448761D02*
X97091523Y-98163047D01*
X96472476Y-98163047D01*
X98043904Y-100131619D02*
X97996285Y-100084000D01*
X97901047Y-100036380D01*
X97662952Y-100036380D01*
X97567714Y-100084000D01*
X97520095Y-100131619D01*
X97472476Y-100226857D01*
X97472476Y-100322095D01*
X97520095Y-100464952D01*
X98091523Y-101036380D01*
X97472476Y-101036380D01*
X96901047Y-100464952D02*
X96996285Y-100417333D01*
X97043904Y-100369714D01*
X97091523Y-100274476D01*
X97091523Y-100226857D01*
X97043904Y-100131619D01*
X96996285Y-100084000D01*
X96901047Y-100036380D01*
X96710571Y-100036380D01*
X96615333Y-100084000D01*
X96567714Y-100131619D01*
X96520095Y-100226857D01*
X96520095Y-100274476D01*
X96567714Y-100369714D01*
X96615333Y-100417333D01*
X96710571Y-100464952D01*
X96901047Y-100464952D01*
X96996285Y-100512571D01*
X97043904Y-100560190D01*
X97091523Y-100655428D01*
X97091523Y-100845904D01*
X97043904Y-100941142D01*
X96996285Y-100988761D01*
X96901047Y-101036380D01*
X96710571Y-101036380D01*
X96615333Y-100988761D01*
X96567714Y-100941142D01*
X96520095Y-100845904D01*
X96520095Y-100655428D01*
X96567714Y-100560190D01*
X96615333Y-100512571D01*
X96710571Y-100464952D01*
X98043904Y-94797619D02*
X97996285Y-94750000D01*
X97901047Y-94702380D01*
X97662952Y-94702380D01*
X97567714Y-94750000D01*
X97520095Y-94797619D01*
X97472476Y-94892857D01*
X97472476Y-94988095D01*
X97520095Y-95130952D01*
X98091523Y-95702380D01*
X97472476Y-95702380D01*
X96853428Y-94702380D02*
X96758190Y-94702380D01*
X96662952Y-94750000D01*
X96615333Y-94797619D01*
X96567714Y-94892857D01*
X96520095Y-95083333D01*
X96520095Y-95321428D01*
X96567714Y-95511904D01*
X96615333Y-95607142D01*
X96662952Y-95654761D01*
X96758190Y-95702380D01*
X96853428Y-95702380D01*
X96948666Y-95654761D01*
X96996285Y-95607142D01*
X97043904Y-95511904D01*
X97091523Y-95321428D01*
X97091523Y-95083333D01*
X97043904Y-94892857D01*
X96996285Y-94797619D01*
X96948666Y-94750000D01*
X96853428Y-94702380D01*
X93545000Y-98758571D02*
X93545000Y-99330000D01*
X93887857Y-98644285D02*
X92687857Y-99044285D01*
X93887857Y-99444285D01*
X92687857Y-99730000D02*
X93887857Y-100015714D01*
X93030714Y-100244285D01*
X93887857Y-100472857D01*
X92687857Y-100758571D01*
X92745000Y-101844285D02*
X92687857Y-101730000D01*
X92687857Y-101558571D01*
X92745000Y-101387142D01*
X92859285Y-101272857D01*
X92973571Y-101215714D01*
X93202142Y-101158571D01*
X93373571Y-101158571D01*
X93602142Y-101215714D01*
X93716428Y-101272857D01*
X93830714Y-101387142D01*
X93887857Y-101558571D01*
X93887857Y-101672857D01*
X93830714Y-101844285D01*
X93773571Y-101901428D01*
X93373571Y-101901428D01*
X93373571Y-101672857D01*
X97980476Y-89606380D02*
X98551904Y-89606380D01*
X98266190Y-89606380D02*
X98266190Y-88606380D01*
X98361428Y-88749238D01*
X98456666Y-88844476D01*
X98551904Y-88892095D01*
X97123333Y-88939714D02*
X97123333Y-89606380D01*
X97361428Y-88558761D02*
X97599523Y-89273047D01*
X96980476Y-89273047D01*
X98488476Y-83510380D02*
X99059904Y-83510380D01*
X98774190Y-83510380D02*
X98774190Y-82510380D01*
X98869428Y-82653238D01*
X98964666Y-82748476D01*
X99059904Y-82796095D01*
X97869428Y-82510380D02*
X97774190Y-82510380D01*
X97678952Y-82558000D01*
X97631333Y-82605619D01*
X97583714Y-82700857D01*
X97536095Y-82891333D01*
X97536095Y-83129428D01*
X97583714Y-83319904D01*
X97631333Y-83415142D01*
X97678952Y-83462761D01*
X97774190Y-83510380D01*
X97869428Y-83510380D01*
X97964666Y-83462761D01*
X98012285Y-83415142D01*
X98059904Y-83319904D01*
X98107523Y-83129428D01*
X98107523Y-82891333D01*
X98059904Y-82700857D01*
X98012285Y-82605619D01*
X97964666Y-82558000D01*
X97869428Y-82510380D01*
X97726476Y-91892380D02*
X98297904Y-91892380D01*
X98012190Y-91892380D02*
X98012190Y-90892380D01*
X98107428Y-91035238D01*
X98202666Y-91130476D01*
X98297904Y-91178095D01*
X96869333Y-90892380D02*
X97059809Y-90892380D01*
X97155047Y-90940000D01*
X97202666Y-90987619D01*
X97297904Y-91130476D01*
X97345523Y-91320952D01*
X97345523Y-91701904D01*
X97297904Y-91797142D01*
X97250285Y-91844761D01*
X97155047Y-91892380D01*
X96964571Y-91892380D01*
X96869333Y-91844761D01*
X96821714Y-91797142D01*
X96774095Y-91701904D01*
X96774095Y-91463809D01*
X96821714Y-91368571D01*
X96869333Y-91320952D01*
X96964571Y-91273333D01*
X97155047Y-91273333D01*
X97250285Y-91320952D01*
X97297904Y-91368571D01*
X97345523Y-91463809D01*
X98043904Y-96321619D02*
X97996285Y-96274000D01*
X97901047Y-96226380D01*
X97662952Y-96226380D01*
X97567714Y-96274000D01*
X97520095Y-96321619D01*
X97472476Y-96416857D01*
X97472476Y-96512095D01*
X97520095Y-96654952D01*
X98091523Y-97226380D01*
X97472476Y-97226380D01*
X97091523Y-96321619D02*
X97043904Y-96274000D01*
X96948666Y-96226380D01*
X96710571Y-96226380D01*
X96615333Y-96274000D01*
X96567714Y-96321619D01*
X96520095Y-96416857D01*
X96520095Y-96512095D01*
X96567714Y-96654952D01*
X97139142Y-97226380D01*
X96520095Y-97226380D01*
X98043904Y-98861619D02*
X97996285Y-98814000D01*
X97901047Y-98766380D01*
X97662952Y-98766380D01*
X97567714Y-98814000D01*
X97520095Y-98861619D01*
X97472476Y-98956857D01*
X97472476Y-99052095D01*
X97520095Y-99194952D01*
X98091523Y-99766380D01*
X97472476Y-99766380D01*
X96615333Y-98766380D02*
X96805809Y-98766380D01*
X96901047Y-98814000D01*
X96948666Y-98861619D01*
X97043904Y-99004476D01*
X97091523Y-99194952D01*
X97091523Y-99575904D01*
X97043904Y-99671142D01*
X96996285Y-99718761D01*
X96901047Y-99766380D01*
X96710571Y-99766380D01*
X96615333Y-99718761D01*
X96567714Y-99671142D01*
X96520095Y-99575904D01*
X96520095Y-99337809D01*
X96567714Y-99242571D01*
X96615333Y-99194952D01*
X96710571Y-99147333D01*
X96901047Y-99147333D01*
X96996285Y-99194952D01*
X97043904Y-99242571D01*
X97091523Y-99337809D01*
X98234476Y-86812380D02*
X98805904Y-86812380D01*
X98520190Y-86812380D02*
X98520190Y-85812380D01*
X98615428Y-85955238D01*
X98710666Y-86050476D01*
X98805904Y-86098095D01*
X97853523Y-85907619D02*
X97805904Y-85860000D01*
X97710666Y-85812380D01*
X97472571Y-85812380D01*
X97377333Y-85860000D01*
X97329714Y-85907619D01*
X97282095Y-86002857D01*
X97282095Y-86098095D01*
X97329714Y-86240952D01*
X97901142Y-86812380D01*
X97282095Y-86812380D01*
X98091523Y-101306380D02*
X97472476Y-101306380D01*
X97805809Y-101687333D01*
X97662952Y-101687333D01*
X97567714Y-101734952D01*
X97520095Y-101782571D01*
X97472476Y-101877809D01*
X97472476Y-102115904D01*
X97520095Y-102211142D01*
X97567714Y-102258761D01*
X97662952Y-102306380D01*
X97948666Y-102306380D01*
X98043904Y-102258761D01*
X98091523Y-102211142D01*
X96853428Y-101306380D02*
X96758190Y-101306380D01*
X96662952Y-101354000D01*
X96615333Y-101401619D01*
X96567714Y-101496857D01*
X96520095Y-101687333D01*
X96520095Y-101925428D01*
X96567714Y-102115904D01*
X96615333Y-102211142D01*
X96662952Y-102258761D01*
X96758190Y-102306380D01*
X96853428Y-102306380D01*
X96948666Y-102258761D01*
X96996285Y-102211142D01*
X97043904Y-102115904D01*
X97091523Y-101925428D01*
X97091523Y-101687333D01*
X97043904Y-101496857D01*
X96996285Y-101401619D01*
X96948666Y-101354000D01*
X96853428Y-101306380D01*
D11*
X211171428Y-79295238D02*
X211076190Y-79200000D01*
X210885714Y-79104761D01*
X210409523Y-79104761D01*
X210219047Y-79200000D01*
X210123809Y-79295238D01*
X210028571Y-79485714D01*
X210028571Y-79676190D01*
X210123809Y-79961904D01*
X211266666Y-81104761D01*
X210028571Y-81104761D01*
X220028571Y-81104761D02*
X221171428Y-81104761D01*
X220600000Y-81104761D02*
X220600000Y-79104761D01*
X220790476Y-79390476D01*
X220980952Y-79580952D01*
X221171428Y-79676190D01*
X81480952Y-81104761D02*
X82623809Y-81104761D01*
X82052380Y-81104761D02*
X82052380Y-79104761D01*
X82242857Y-79390476D01*
X82433333Y-79580952D01*
X82623809Y-79676190D01*
X79671428Y-79104761D02*
X80623809Y-79104761D01*
X80719047Y-80057142D01*
X80623809Y-79961904D01*
X80433333Y-79866666D01*
X79957142Y-79866666D01*
X79766666Y-79961904D01*
X79671428Y-80057142D01*
X79576190Y-80247619D01*
X79576190Y-80723809D01*
X79671428Y-80914285D01*
X79766666Y-81009523D01*
X79957142Y-81104761D01*
X80433333Y-81104761D01*
X80623809Y-81009523D01*
X80719047Y-80914285D01*
X190219047Y-79771428D02*
X190219047Y-81104761D01*
X190695238Y-79009523D02*
X191171428Y-80438095D01*
X189933333Y-80438095D01*
X161266666Y-79104761D02*
X159933333Y-79104761D01*
X160790476Y-81104761D01*
X131480952Y-81104761D02*
X132623809Y-81104761D01*
X132052380Y-81104761D02*
X132052380Y-79104761D01*
X132242857Y-79390476D01*
X132433333Y-79580952D01*
X132623809Y-79676190D01*
X130242857Y-79104761D02*
X130052380Y-79104761D01*
X129861904Y-79200000D01*
X129766666Y-79295238D01*
X129671428Y-79485714D01*
X129576190Y-79866666D01*
X129576190Y-80342857D01*
X129671428Y-80723809D01*
X129766666Y-80914285D01*
X129861904Y-81009523D01*
X130052380Y-81104761D01*
X130242857Y-81104761D01*
X130433333Y-81009523D01*
X130528571Y-80914285D01*
X130623809Y-80723809D01*
X130719047Y-80342857D01*
X130719047Y-79866666D01*
X130623809Y-79485714D01*
X130528571Y-79295238D01*
X130433333Y-79200000D01*
X130242857Y-79104761D01*
X150790476Y-79961904D02*
X150980952Y-79866666D01*
X151076190Y-79771428D01*
X151171428Y-79580952D01*
X151171428Y-79485714D01*
X151076190Y-79295238D01*
X150980952Y-79200000D01*
X150790476Y-79104761D01*
X150409523Y-79104761D01*
X150219047Y-79200000D01*
X150123809Y-79295238D01*
X150028571Y-79485714D01*
X150028571Y-79580952D01*
X150123809Y-79771428D01*
X150219047Y-79866666D01*
X150409523Y-79961904D01*
X150790476Y-79961904D01*
X150980952Y-80057142D01*
X151076190Y-80152380D01*
X151171428Y-80342857D01*
X151171428Y-80723809D01*
X151076190Y-80914285D01*
X150980952Y-81009523D01*
X150790476Y-81104761D01*
X150409523Y-81104761D01*
X150219047Y-81009523D01*
X150123809Y-80914285D01*
X150028571Y-80723809D01*
X150028571Y-80342857D01*
X150123809Y-80152380D01*
X150219047Y-80057142D01*
X150409523Y-79961904D01*
X101480952Y-81104761D02*
X102623809Y-81104761D01*
X102052380Y-81104761D02*
X102052380Y-79104761D01*
X102242857Y-79390476D01*
X102433333Y-79580952D01*
X102623809Y-79676190D01*
X100814285Y-79104761D02*
X99576190Y-79104761D01*
X100242857Y-79866666D01*
X99957142Y-79866666D01*
X99766666Y-79961904D01*
X99671428Y-80057142D01*
X99576190Y-80247619D01*
X99576190Y-80723809D01*
X99671428Y-80914285D01*
X99766666Y-81009523D01*
X99957142Y-81104761D01*
X100528571Y-81104761D01*
X100719047Y-81009523D01*
X100814285Y-80914285D01*
X201266666Y-79104761D02*
X200028571Y-79104761D01*
X200695238Y-79866666D01*
X200409523Y-79866666D01*
X200219047Y-79961904D01*
X200123809Y-80057142D01*
X200028571Y-80247619D01*
X200028571Y-80723809D01*
X200123809Y-80914285D01*
X200219047Y-81009523D01*
X200409523Y-81104761D01*
X200980952Y-81104761D01*
X201171428Y-81009523D01*
X201266666Y-80914285D01*
X91480952Y-81104761D02*
X92623809Y-81104761D01*
X92052380Y-81104761D02*
X92052380Y-79104761D01*
X92242857Y-79390476D01*
X92433333Y-79580952D01*
X92623809Y-79676190D01*
X89766666Y-79771428D02*
X89766666Y-81104761D01*
X90242857Y-79009523D02*
X90719047Y-80438095D01*
X89480952Y-80438095D01*
X180123809Y-79104761D02*
X181076190Y-79104761D01*
X181171428Y-80057142D01*
X181076190Y-79961904D01*
X180885714Y-79866666D01*
X180409523Y-79866666D01*
X180219047Y-79961904D01*
X180123809Y-80057142D01*
X180028571Y-80247619D01*
X180028571Y-80723809D01*
X180123809Y-80914285D01*
X180219047Y-81009523D01*
X180409523Y-81104761D01*
X180885714Y-81104761D01*
X181076190Y-81009523D01*
X181171428Y-80914285D01*
X170219047Y-79104761D02*
X170600000Y-79104761D01*
X170790476Y-79200000D01*
X170885714Y-79295238D01*
X171076190Y-79580952D01*
X171171428Y-79961904D01*
X171171428Y-80723809D01*
X171076190Y-80914285D01*
X170980952Y-81009523D01*
X170790476Y-81104761D01*
X170409523Y-81104761D01*
X170219047Y-81009523D01*
X170123809Y-80914285D01*
X170028571Y-80723809D01*
X170028571Y-80247619D01*
X170123809Y-80057142D01*
X170219047Y-79961904D01*
X170409523Y-79866666D01*
X170790476Y-79866666D01*
X170980952Y-79961904D01*
X171076190Y-80057142D01*
X171171428Y-80247619D01*
X111480952Y-81104761D02*
X112623809Y-81104761D01*
X112052380Y-81104761D02*
X112052380Y-79104761D01*
X112242857Y-79390476D01*
X112433333Y-79580952D01*
X112623809Y-79676190D01*
X110719047Y-79295238D02*
X110623809Y-79200000D01*
X110433333Y-79104761D01*
X109957142Y-79104761D01*
X109766666Y-79200000D01*
X109671428Y-79295238D01*
X109576190Y-79485714D01*
X109576190Y-79676190D01*
X109671428Y-79961904D01*
X110814285Y-81104761D01*
X109576190Y-81104761D01*
X140980952Y-81104761D02*
X140600000Y-81104761D01*
X140409523Y-81009523D01*
X140314285Y-80914285D01*
X140123809Y-80628571D01*
X140028571Y-80247619D01*
X140028571Y-79485714D01*
X140123809Y-79295238D01*
X140219047Y-79200000D01*
X140409523Y-79104761D01*
X140790476Y-79104761D01*
X140980952Y-79200000D01*
X141076190Y-79295238D01*
X141171428Y-79485714D01*
X141171428Y-79961904D01*
X141076190Y-80152380D01*
X140980952Y-80247619D01*
X140790476Y-80342857D01*
X140409523Y-80342857D01*
X140219047Y-80247619D01*
X140123809Y-80152380D01*
X140028571Y-79961904D01*
X121480952Y-81104761D02*
X122623809Y-81104761D01*
X122052380Y-81104761D02*
X122052380Y-79104761D01*
X122242857Y-79390476D01*
X122433333Y-79580952D01*
X122623809Y-79676190D01*
X119576190Y-81104761D02*
X120719047Y-81104761D01*
X120147619Y-81104761D02*
X120147619Y-79104761D01*
X120338095Y-79390476D01*
X120528571Y-79580952D01*
X120719047Y-79676190D01*
M02*
