G04 #@! TF.GenerationSoftware,KiCad,Pcbnew,(6.0.0)*
G04 #@! TF.CreationDate,2022-05-01T21:30:31-04:00*
G04 #@! TF.ProjectId,ruler,72756c65-722e-46b6-9963-61645f706362,0.1*
G04 #@! TF.SameCoordinates,Original*
G04 #@! TF.FileFunction,Copper,L2,Bot*
G04 #@! TF.FilePolarity,Positive*
%FSLAX46Y46*%
G04 Gerber Fmt 4.6, Leading zero omitted, Abs format (unit mm)*
G04 Created by KiCad (PCBNEW (6.0.0)) date 2022-05-01 21:30:31*
%MOMM*%
%LPD*%
G01*
G04 APERTURE LIST*
%ADD10C,0.200000*%
G04 #@! TA.AperFunction,NonConductor*
%ADD11C,0.200000*%
G04 #@! TD*
G04 #@! TA.AperFunction,ComponentPad*
%ADD12C,7.400000*%
G04 #@! TD*
G04 #@! TA.AperFunction,ComponentPad*
%ADD13C,5.300000*%
G04 #@! TD*
G04 #@! TA.AperFunction,ComponentPad*
%ADD14C,4.200000*%
G04 #@! TD*
G04 #@! TA.AperFunction,ComponentPad*
%ADD15C,3.200000*%
G04 #@! TD*
G04 #@! TA.AperFunction,ComponentPad*
%ADD16C,3.700000*%
G04 #@! TD*
G04 #@! TA.AperFunction,ComponentPad*
%ADD17C,6.300000*%
G04 #@! TD*
G04 #@! TA.AperFunction,ComponentPad*
%ADD18C,7.543800*%
G04 #@! TD*
G04 #@! TA.AperFunction,ComponentPad*
%ADD19C,5.994400*%
G04 #@! TD*
G04 #@! TA.AperFunction,ComponentPad*
%ADD20C,4.673600*%
G04 #@! TD*
G04 #@! TA.AperFunction,ComponentPad*
%ADD21C,3.276600*%
G04 #@! TD*
G04 #@! TA.AperFunction,ComponentPad*
%ADD22C,3.962400*%
G04 #@! TD*
G04 #@! TA.AperFunction,ComponentPad*
%ADD23C,5.334000*%
G04 #@! TD*
G04 #@! TA.AperFunction,ComponentPad*
%ADD24C,2.946400*%
G04 #@! TD*
G04 #@! TA.AperFunction,ComponentPad*
%ADD25C,1.397000*%
G04 #@! TD*
G04 #@! TA.AperFunction,ComponentPad*
%ADD26C,3.454400*%
G04 #@! TD*
G04 #@! TA.AperFunction,ComponentPad*
%ADD27C,1.625600*%
G04 #@! TD*
G04 #@! TA.AperFunction,ComponentPad*
%ADD28C,1.320800*%
G04 #@! TD*
G04 #@! TA.AperFunction,ComponentPad*
%ADD29C,1.498600*%
G04 #@! TD*
G04 #@! TA.AperFunction,ComponentPad*
%ADD30C,2.235200*%
G04 #@! TD*
G04 #@! TA.AperFunction,ComponentPad*
%ADD31C,1.981200*%
G04 #@! TD*
G04 #@! TA.AperFunction,ComponentPad*
%ADD32C,1.778000*%
G04 #@! TD*
G04 #@! TA.AperFunction,ComponentPad*
%ADD33C,2.540000*%
G04 #@! TD*
G04 #@! TA.AperFunction,NonConductor*
%ADD34C,0.025400*%
G04 #@! TD*
G04 APERTURE END LIST*
D10*
D11*
X129085714Y-101417380D02*
X129085714Y-100417380D01*
X128752380Y-101131666D01*
X128419047Y-100417380D01*
X128419047Y-101417380D01*
X127514285Y-101417380D02*
X127514285Y-100893571D01*
X127561904Y-100798333D01*
X127657142Y-100750714D01*
X127847619Y-100750714D01*
X127942857Y-100798333D01*
X127514285Y-101369761D02*
X127609523Y-101417380D01*
X127847619Y-101417380D01*
X127942857Y-101369761D01*
X127990476Y-101274523D01*
X127990476Y-101179285D01*
X127942857Y-101084047D01*
X127847619Y-101036428D01*
X127609523Y-101036428D01*
X127514285Y-100988809D01*
X127133333Y-101417380D02*
X126609523Y-100750714D01*
X127133333Y-100750714D02*
X126609523Y-101417380D01*
X125466666Y-101417380D02*
X125466666Y-100417380D01*
X125085714Y-100417380D01*
X124990476Y-100465000D01*
X124942857Y-100512619D01*
X124895238Y-100607857D01*
X124895238Y-100750714D01*
X124942857Y-100845952D01*
X124990476Y-100893571D01*
X125085714Y-100941190D01*
X125466666Y-100941190D01*
X124466666Y-101417380D02*
X124466666Y-100750714D01*
X124466666Y-100941190D02*
X124419047Y-100845952D01*
X124371428Y-100798333D01*
X124276190Y-100750714D01*
X124180952Y-100750714D01*
X123704761Y-101417380D02*
X123800000Y-101369761D01*
X123847619Y-101322142D01*
X123895238Y-101226904D01*
X123895238Y-100941190D01*
X123847619Y-100845952D01*
X123800000Y-100798333D01*
X123704761Y-100750714D01*
X123561904Y-100750714D01*
X123466666Y-100798333D01*
X123419047Y-100845952D01*
X123371428Y-100941190D01*
X123371428Y-101226904D01*
X123419047Y-101322142D01*
X123466666Y-101369761D01*
X123561904Y-101417380D01*
X123704761Y-101417380D01*
X122990476Y-101369761D02*
X122895238Y-101417380D01*
X122704761Y-101417380D01*
X122609523Y-101369761D01*
X122561904Y-101274523D01*
X122561904Y-101226904D01*
X122609523Y-101131666D01*
X122704761Y-101084047D01*
X122847619Y-101084047D01*
X122942857Y-101036428D01*
X122990476Y-100941190D01*
X122990476Y-100893571D01*
X122942857Y-100798333D01*
X122847619Y-100750714D01*
X122704761Y-100750714D01*
X122609523Y-100798333D01*
X122133333Y-101417380D02*
X122133333Y-100417380D01*
X122038095Y-101036428D02*
X121752380Y-101417380D01*
X121752380Y-100750714D02*
X122133333Y-101131666D01*
X120895238Y-101417380D02*
X120895238Y-100893571D01*
X120942857Y-100798333D01*
X121038095Y-100750714D01*
X121228571Y-100750714D01*
X121323809Y-100798333D01*
X120895238Y-101369761D02*
X120990476Y-101417380D01*
X121228571Y-101417380D01*
X121323809Y-101369761D01*
X121371428Y-101274523D01*
X121371428Y-101179285D01*
X121323809Y-101084047D01*
X121228571Y-101036428D01*
X120990476Y-101036428D01*
X120895238Y-100988809D01*
X119990476Y-100750714D02*
X119990476Y-101417380D01*
X120419047Y-100750714D02*
X120419047Y-101274523D01*
X120371428Y-101369761D01*
X120276190Y-101417380D01*
X120133333Y-101417380D01*
X120038095Y-101369761D01*
X119990476Y-101322142D01*
X119133333Y-101369761D02*
X119228571Y-101417380D01*
X119419047Y-101417380D01*
X119514285Y-101369761D01*
X119561904Y-101274523D01*
X119561904Y-100893571D01*
X119514285Y-100798333D01*
X119419047Y-100750714D01*
X119228571Y-100750714D01*
X119133333Y-100798333D01*
X119085714Y-100893571D01*
X119085714Y-100988809D01*
X119561904Y-101084047D01*
X118657142Y-101417380D02*
X118657142Y-100750714D01*
X118657142Y-100941190D02*
X118609523Y-100845952D01*
X118561904Y-100798333D01*
X118466666Y-100750714D01*
X118371428Y-100750714D01*
X116657142Y-100417380D02*
X116323809Y-101417380D01*
X115990476Y-100417380D01*
X115276190Y-101369761D02*
X115371428Y-101417380D01*
X115561904Y-101417380D01*
X115657142Y-101369761D01*
X115704761Y-101274523D01*
X115704761Y-100893571D01*
X115657142Y-100798333D01*
X115561904Y-100750714D01*
X115371428Y-100750714D01*
X115276190Y-100798333D01*
X115228571Y-100893571D01*
X115228571Y-100988809D01*
X115704761Y-101084047D01*
X114800000Y-101417380D02*
X114800000Y-100750714D01*
X114800000Y-100941190D02*
X114752380Y-100845952D01*
X114704761Y-100798333D01*
X114609523Y-100750714D01*
X114514285Y-100750714D01*
X114228571Y-101369761D02*
X114133333Y-101417380D01*
X113942857Y-101417380D01*
X113847619Y-101369761D01*
X113800000Y-101274523D01*
X113800000Y-101226904D01*
X113847619Y-101131666D01*
X113942857Y-101084047D01*
X114085714Y-101084047D01*
X114180952Y-101036428D01*
X114228571Y-100941190D01*
X114228571Y-100893571D01*
X114180952Y-100798333D01*
X114085714Y-100750714D01*
X113942857Y-100750714D01*
X113847619Y-100798333D01*
X113371428Y-101417380D02*
X113371428Y-100750714D01*
X113371428Y-100417380D02*
X113419047Y-100465000D01*
X113371428Y-100512619D01*
X113323809Y-100465000D01*
X113371428Y-100417380D01*
X113371428Y-100512619D01*
X112752380Y-101417380D02*
X112847619Y-101369761D01*
X112895238Y-101322142D01*
X112942857Y-101226904D01*
X112942857Y-100941190D01*
X112895238Y-100845952D01*
X112847619Y-100798333D01*
X112752380Y-100750714D01*
X112609523Y-100750714D01*
X112514285Y-100798333D01*
X112466666Y-100845952D01*
X112419047Y-100941190D01*
X112419047Y-101226904D01*
X112466666Y-101322142D01*
X112514285Y-101369761D01*
X112609523Y-101417380D01*
X112752380Y-101417380D01*
X111990476Y-100750714D02*
X111990476Y-101417380D01*
X111990476Y-100845952D02*
X111942857Y-100798333D01*
X111847619Y-100750714D01*
X111704761Y-100750714D01*
X111609523Y-100798333D01*
X111561904Y-100893571D01*
X111561904Y-101417380D01*
X110133333Y-100417380D02*
X110038095Y-100417380D01*
X109942857Y-100465000D01*
X109895238Y-100512619D01*
X109847619Y-100607857D01*
X109800000Y-100798333D01*
X109800000Y-101036428D01*
X109847619Y-101226904D01*
X109895238Y-101322142D01*
X109942857Y-101369761D01*
X110038095Y-101417380D01*
X110133333Y-101417380D01*
X110228571Y-101369761D01*
X110276190Y-101322142D01*
X110323809Y-101226904D01*
X110371428Y-101036428D01*
X110371428Y-100798333D01*
X110323809Y-100607857D01*
X110276190Y-100512619D01*
X110228571Y-100465000D01*
X110133333Y-100417380D01*
X109371428Y-101322142D02*
X109323809Y-101369761D01*
X109371428Y-101417380D01*
X109419047Y-101369761D01*
X109371428Y-101322142D01*
X109371428Y-101417380D01*
X108371428Y-101417380D02*
X108942857Y-101417380D01*
X108657142Y-101417380D02*
X108657142Y-100417380D01*
X108752380Y-100560238D01*
X108847619Y-100655476D01*
X108942857Y-100703095D01*
X106419047Y-101417380D02*
X106419047Y-100417380D01*
X106085714Y-101131666D01*
X105752380Y-100417380D01*
X105752380Y-101417380D01*
X104847619Y-101417380D02*
X104847619Y-100893571D01*
X104895238Y-100798333D01*
X104990476Y-100750714D01*
X105180952Y-100750714D01*
X105276190Y-100798333D01*
X104847619Y-101369761D02*
X104942857Y-101417380D01*
X105180952Y-101417380D01*
X105276190Y-101369761D01*
X105323809Y-101274523D01*
X105323809Y-101179285D01*
X105276190Y-101084047D01*
X105180952Y-101036428D01*
X104942857Y-101036428D01*
X104847619Y-100988809D01*
X104466666Y-100750714D02*
X104228571Y-101417380D01*
X103990476Y-100750714D02*
X104228571Y-101417380D01*
X104323809Y-101655476D01*
X104371428Y-101703095D01*
X104466666Y-101750714D01*
X102895238Y-100512619D02*
X102847619Y-100465000D01*
X102752380Y-100417380D01*
X102514285Y-100417380D01*
X102419047Y-100465000D01*
X102371428Y-100512619D01*
X102323809Y-100607857D01*
X102323809Y-100703095D01*
X102371428Y-100845952D01*
X102942857Y-101417380D01*
X102323809Y-101417380D01*
X101704761Y-100417380D02*
X101609523Y-100417380D01*
X101514285Y-100465000D01*
X101466666Y-100512619D01*
X101419047Y-100607857D01*
X101371428Y-100798333D01*
X101371428Y-101036428D01*
X101419047Y-101226904D01*
X101466666Y-101322142D01*
X101514285Y-101369761D01*
X101609523Y-101417380D01*
X101704761Y-101417380D01*
X101800000Y-101369761D01*
X101847619Y-101322142D01*
X101895238Y-101226904D01*
X101942857Y-101036428D01*
X101942857Y-100798333D01*
X101895238Y-100607857D01*
X101847619Y-100512619D01*
X101800000Y-100465000D01*
X101704761Y-100417380D01*
X100990476Y-100512619D02*
X100942857Y-100465000D01*
X100847619Y-100417380D01*
X100609523Y-100417380D01*
X100514285Y-100465000D01*
X100466666Y-100512619D01*
X100419047Y-100607857D01*
X100419047Y-100703095D01*
X100466666Y-100845952D01*
X101038095Y-101417380D01*
X100419047Y-101417380D01*
X100038095Y-100512619D02*
X99990476Y-100465000D01*
X99895238Y-100417380D01*
X99657142Y-100417380D01*
X99561904Y-100465000D01*
X99514285Y-100512619D01*
X99466666Y-100607857D01*
X99466666Y-100703095D01*
X99514285Y-100845952D01*
X100085714Y-101417380D01*
X99466666Y-101417380D01*
D12*
X222350000Y-88900000D03*
D13*
X209350000Y-88900000D03*
D14*
X204350000Y-88900000D03*
D15*
X196850000Y-88900000D03*
D16*
X200350000Y-88900000D03*
D17*
X215350000Y-88900000D03*
D18*
X198755000Y-95250000D03*
D19*
X205740000Y-95250000D03*
D20*
X216535000Y-95250000D03*
D21*
X224790000Y-95250000D03*
D22*
X220980000Y-95250000D03*
D23*
X211455000Y-95250000D03*
D24*
X95250000Y-89154000D03*
D22*
X95250000Y-83058000D03*
D25*
X95250000Y-100584000D03*
D26*
X95250000Y-86360000D03*
D27*
X95250000Y-98044000D03*
D28*
X95250000Y-101854000D03*
D29*
X95250000Y-99314000D03*
D30*
X95250000Y-93472000D03*
D31*
X95250000Y-95250000D03*
D32*
X95250000Y-96774000D03*
D33*
X95250000Y-91440000D03*
D34*
X228511900Y-107861900D02*
X76288100Y-107861900D01*
X76288100Y-82841920D01*
X93056100Y-82841920D01*
X93056100Y-83274080D01*
X93140411Y-83697937D01*
X93305791Y-84097201D01*
X93545887Y-84456530D01*
X93851470Y-84762113D01*
X94003123Y-84863445D01*
X93743182Y-85123386D01*
X93530883Y-85441113D01*
X93384650Y-85794152D01*
X93310100Y-86168937D01*
X93310100Y-86551063D01*
X93384650Y-86925848D01*
X93530883Y-87278887D01*
X93743182Y-87596614D01*
X94013386Y-87866818D01*
X94097054Y-87922724D01*
X93940476Y-88079302D01*
X93755975Y-88355427D01*
X93628889Y-88662241D01*
X93564100Y-88987953D01*
X93564100Y-89320047D01*
X93628889Y-89645759D01*
X93755975Y-89952573D01*
X93940476Y-90228698D01*
X94152462Y-90440684D01*
X94098312Y-90494834D01*
X93936048Y-90737678D01*
X93824279Y-91007512D01*
X93767300Y-91293967D01*
X93767300Y-91586033D01*
X93824279Y-91872488D01*
X93936048Y-92142322D01*
X94098312Y-92385166D01*
X94276909Y-92563763D01*
X94216688Y-92623983D01*
X94071103Y-92841867D01*
X93970822Y-93083966D01*
X93919700Y-93340977D01*
X93919700Y-93603023D01*
X93970822Y-93860034D01*
X94071103Y-94102133D01*
X94216688Y-94320017D01*
X94347474Y-94450803D01*
X94315336Y-94482941D01*
X94183650Y-94680024D01*
X94092942Y-94899010D01*
X94046700Y-95131485D01*
X94046700Y-95368515D01*
X94092942Y-95600990D01*
X94183650Y-95819976D01*
X94315336Y-96017059D01*
X94384532Y-96086255D01*
X94273686Y-96252149D01*
X94190637Y-96452646D01*
X94148300Y-96665492D01*
X94148300Y-96882508D01*
X94190637Y-97095354D01*
X94273686Y-97295851D01*
X94394253Y-97476293D01*
X94395283Y-97477323D01*
X94341214Y-97558244D01*
X94263909Y-97744873D01*
X94224500Y-97942997D01*
X94224500Y-98145003D01*
X94263909Y-98343127D01*
X94341214Y-98529756D01*
X94453442Y-98697718D01*
X94484228Y-98728504D01*
X94397486Y-98858322D01*
X94324969Y-99033395D01*
X94288000Y-99219251D01*
X94288000Y-99408749D01*
X94324969Y-99594605D01*
X94397486Y-99769678D01*
X94502766Y-99927239D01*
X94560448Y-99984921D01*
X94542225Y-100003144D01*
X94442505Y-100152385D01*
X94373817Y-100318213D01*
X94338800Y-100494255D01*
X94338800Y-100673745D01*
X94373817Y-100849787D01*
X94442505Y-101015615D01*
X94542225Y-101164856D01*
X94623310Y-101245941D01*
X94571819Y-101297431D01*
X94476268Y-101440432D01*
X94410452Y-101599326D01*
X94376900Y-101768007D01*
X94376900Y-101939993D01*
X94410452Y-102108674D01*
X94476268Y-102267568D01*
X94571819Y-102410569D01*
X94693431Y-102532181D01*
X94836432Y-102627732D01*
X94995326Y-102693548D01*
X95164007Y-102727100D01*
X95335993Y-102727100D01*
X95504674Y-102693548D01*
X95663568Y-102627732D01*
X95806569Y-102532181D01*
X95928181Y-102410569D01*
X96023732Y-102267568D01*
X96089548Y-102108674D01*
X96123100Y-101939993D01*
X96123100Y-101768007D01*
X96089548Y-101599326D01*
X96023732Y-101440432D01*
X95928181Y-101297431D01*
X95876691Y-101245941D01*
X95957775Y-101164856D01*
X96057495Y-101015615D01*
X96126183Y-100849787D01*
X96161200Y-100673745D01*
X96161200Y-100494255D01*
X96126183Y-100318213D01*
X96057495Y-100152385D01*
X95957775Y-100003144D01*
X95939552Y-99984921D01*
X95942173Y-99982300D01*
X99011110Y-99982300D01*
X99011110Y-102107700D01*
X129588891Y-102107700D01*
X129588891Y-99982300D01*
X99011110Y-99982300D01*
X95942173Y-99982300D01*
X95997234Y-99927239D01*
X96102514Y-99769678D01*
X96175031Y-99594605D01*
X96212000Y-99408749D01*
X96212000Y-99219251D01*
X96180324Y-99060000D01*
X151117300Y-99060000D01*
X151117300Y-101600000D01*
X151117544Y-101602478D01*
X151118267Y-101604860D01*
X151119440Y-101607056D01*
X151121020Y-101608980D01*
X151122944Y-101610560D01*
X151125140Y-101611733D01*
X151127522Y-101612456D01*
X151130000Y-101612700D01*
X171450000Y-101612700D01*
X171452478Y-101612456D01*
X171454860Y-101611733D01*
X171457056Y-101610560D01*
X171458980Y-101608980D01*
X171460560Y-101607056D01*
X171461733Y-101604860D01*
X171462456Y-101602478D01*
X171462700Y-101600000D01*
X171462700Y-99060000D01*
X171462456Y-99057522D01*
X171461733Y-99055140D01*
X171460560Y-99052944D01*
X171458980Y-99051020D01*
X171457056Y-99049440D01*
X171454860Y-99048267D01*
X171452478Y-99047544D01*
X171450000Y-99047300D01*
X151130000Y-99047300D01*
X151127522Y-99047544D01*
X151125140Y-99048267D01*
X151122944Y-99049440D01*
X151121020Y-99051020D01*
X151119440Y-99052944D01*
X151118267Y-99055140D01*
X151117544Y-99057522D01*
X151117300Y-99060000D01*
X96180324Y-99060000D01*
X96175031Y-99033395D01*
X96102514Y-98858322D01*
X96015772Y-98728504D01*
X96046558Y-98697718D01*
X96158786Y-98529756D01*
X96236091Y-98343127D01*
X96275500Y-98145003D01*
X96275500Y-97942997D01*
X96236091Y-97744873D01*
X96158786Y-97558244D01*
X96104717Y-97477323D01*
X96105747Y-97476293D01*
X96226314Y-97295851D01*
X96309363Y-97095354D01*
X96351700Y-96882508D01*
X96351700Y-96665492D01*
X96309363Y-96452646D01*
X96226314Y-96252149D01*
X96115468Y-96086255D01*
X96184664Y-96017059D01*
X96316350Y-95819976D01*
X96407058Y-95600990D01*
X96453300Y-95368515D01*
X96453300Y-95131485D01*
X96407058Y-94899010D01*
X96389885Y-94857551D01*
X194770400Y-94857551D01*
X194770400Y-95642449D01*
X194923526Y-96412265D01*
X195223893Y-97137416D01*
X195659959Y-97790035D01*
X196214965Y-98345041D01*
X196867584Y-98781107D01*
X197592735Y-99081474D01*
X198362551Y-99234600D01*
X199147449Y-99234600D01*
X199917265Y-99081474D01*
X200642416Y-98781107D01*
X201295035Y-98345041D01*
X201850041Y-97790035D01*
X202286107Y-97137416D01*
X202586474Y-96412265D01*
X202642439Y-96130911D01*
X202653455Y-96186293D01*
X202895424Y-96770458D01*
X203246708Y-97296192D01*
X203693808Y-97743292D01*
X204219542Y-98094576D01*
X204803707Y-98336545D01*
X205423852Y-98459900D01*
X206056148Y-98459900D01*
X206676293Y-98336545D01*
X207260458Y-98094576D01*
X207786192Y-97743292D01*
X208233292Y-97296192D01*
X208584576Y-96770458D01*
X208776203Y-96307830D01*
X208903043Y-96614050D01*
X209218191Y-97085702D01*
X209619298Y-97486809D01*
X210090950Y-97801957D01*
X210615022Y-98019035D01*
X211171374Y-98129700D01*
X211738626Y-98129700D01*
X212294978Y-98019035D01*
X212819050Y-97801957D01*
X213290702Y-97486809D01*
X213691809Y-97085702D01*
X214006957Y-96614050D01*
X214173703Y-96211490D01*
X214275662Y-96457641D01*
X214554674Y-96875212D01*
X214909788Y-97230326D01*
X215327359Y-97509338D01*
X215791338Y-97701524D01*
X216283896Y-97799500D01*
X216786104Y-97799500D01*
X217278662Y-97701524D01*
X217742641Y-97509338D01*
X218160212Y-97230326D01*
X218515326Y-96875212D01*
X218794338Y-96457641D01*
X218949950Y-96081961D01*
X219035791Y-96289201D01*
X219275887Y-96648530D01*
X219581470Y-96954113D01*
X219940799Y-97194209D01*
X220340063Y-97359589D01*
X220763920Y-97443900D01*
X221196080Y-97443900D01*
X221619937Y-97359589D01*
X222019201Y-97194209D01*
X222378530Y-96954113D01*
X222684113Y-96648530D01*
X222924209Y-96289201D01*
X223070576Y-95935839D01*
X223149665Y-96126777D01*
X223352235Y-96429944D01*
X223610056Y-96687765D01*
X223913223Y-96890335D01*
X224250083Y-97029867D01*
X224607692Y-97101000D01*
X224972308Y-97101000D01*
X225329917Y-97029867D01*
X225666777Y-96890335D01*
X225969944Y-96687765D01*
X226227765Y-96429944D01*
X226430335Y-96126777D01*
X226569867Y-95789917D01*
X226641000Y-95432308D01*
X226641000Y-95067692D01*
X226569867Y-94710083D01*
X226430335Y-94373223D01*
X226227765Y-94070056D01*
X225969944Y-93812235D01*
X225666777Y-93609665D01*
X225329917Y-93470133D01*
X224972308Y-93399000D01*
X224607692Y-93399000D01*
X224250083Y-93470133D01*
X223913223Y-93609665D01*
X223610056Y-93812235D01*
X223352235Y-94070056D01*
X223149665Y-94373223D01*
X223070576Y-94564161D01*
X222924209Y-94210799D01*
X222684113Y-93851470D01*
X222378530Y-93545887D01*
X222019201Y-93305791D01*
X221619937Y-93140411D01*
X221196080Y-93056100D01*
X220763920Y-93056100D01*
X220340063Y-93140411D01*
X219940799Y-93305791D01*
X219581470Y-93545887D01*
X219275887Y-93851470D01*
X219035791Y-94210799D01*
X218949950Y-94418039D01*
X218794338Y-94042359D01*
X218515326Y-93624788D01*
X218160212Y-93269674D01*
X217742641Y-92990662D01*
X217278662Y-92798476D01*
X216786104Y-92700500D01*
X216283896Y-92700500D01*
X215791338Y-92798476D01*
X215327359Y-92990662D01*
X214909788Y-93269674D01*
X214554674Y-93624788D01*
X214275662Y-94042359D01*
X214173703Y-94288510D01*
X214006957Y-93885950D01*
X213691809Y-93414298D01*
X213290702Y-93013191D01*
X212819050Y-92698043D01*
X212294978Y-92480965D01*
X211738626Y-92370300D01*
X211171374Y-92370300D01*
X210615022Y-92480965D01*
X210090950Y-92698043D01*
X209619298Y-93013191D01*
X209218191Y-93414298D01*
X208903043Y-93885950D01*
X208776203Y-94192170D01*
X208584576Y-93729542D01*
X208233292Y-93203808D01*
X207786192Y-92756708D01*
X207260458Y-92405424D01*
X206676293Y-92163455D01*
X206056148Y-92040100D01*
X205423852Y-92040100D01*
X204803707Y-92163455D01*
X204219542Y-92405424D01*
X203693808Y-92756708D01*
X203246708Y-93203808D01*
X202895424Y-93729542D01*
X202653455Y-94313707D01*
X202642439Y-94369089D01*
X202586474Y-94087735D01*
X202286107Y-93362584D01*
X201850041Y-92709965D01*
X201295035Y-92154959D01*
X200642416Y-91718893D01*
X199917265Y-91418526D01*
X199147449Y-91265400D01*
X198362551Y-91265400D01*
X197592735Y-91418526D01*
X196867584Y-91718893D01*
X196214965Y-92154959D01*
X195659959Y-92709965D01*
X195223893Y-93362584D01*
X194923526Y-94087735D01*
X194770400Y-94857551D01*
X96389885Y-94857551D01*
X96316350Y-94680024D01*
X96184664Y-94482941D01*
X96152526Y-94450803D01*
X96283312Y-94320017D01*
X96428897Y-94102133D01*
X96529178Y-93860034D01*
X96580300Y-93603023D01*
X96580300Y-93340977D01*
X96529178Y-93083966D01*
X96428897Y-92841867D01*
X96283312Y-92623983D01*
X96223092Y-92563763D01*
X96401688Y-92385166D01*
X96563952Y-92142322D01*
X96675721Y-91872488D01*
X96732700Y-91586033D01*
X96732700Y-91293967D01*
X96675721Y-91007512D01*
X96563952Y-90737678D01*
X96401688Y-90494834D01*
X96347538Y-90440684D01*
X96559524Y-90228698D01*
X96744025Y-89952573D01*
X96871111Y-89645759D01*
X96935900Y-89320047D01*
X96935900Y-88987953D01*
X96882892Y-88721465D01*
X195037300Y-88721465D01*
X195037300Y-89078535D01*
X195106961Y-89428745D01*
X195243606Y-89758635D01*
X195441984Y-90055529D01*
X195694471Y-90308016D01*
X195991365Y-90506394D01*
X196321255Y-90643039D01*
X196671465Y-90712700D01*
X197028535Y-90712700D01*
X197378745Y-90643039D01*
X197708635Y-90506394D01*
X198005529Y-90308016D01*
X198258016Y-90055529D01*
X198456394Y-89758635D01*
X198464701Y-89738581D01*
X198522059Y-89877055D01*
X198747796Y-90214895D01*
X199035105Y-90502204D01*
X199372945Y-90727941D01*
X199748332Y-90883432D01*
X200146842Y-90962700D01*
X200553158Y-90962700D01*
X200951668Y-90883432D01*
X201327055Y-90727941D01*
X201664895Y-90502204D01*
X201952204Y-90214895D01*
X202177941Y-89877055D01*
X202214701Y-89788308D01*
X202300512Y-89995474D01*
X202553609Y-90374260D01*
X202875740Y-90696391D01*
X203254526Y-90949488D01*
X203675410Y-91123824D01*
X204122219Y-91212700D01*
X204577781Y-91212700D01*
X205024590Y-91123824D01*
X205445474Y-90949488D01*
X205824260Y-90696391D01*
X206146391Y-90374260D01*
X206399488Y-89995474D01*
X206568133Y-89588328D01*
X206597312Y-89735019D01*
X206813109Y-90255997D01*
X207126396Y-90724865D01*
X207525135Y-91123604D01*
X207994003Y-91436891D01*
X208514981Y-91652688D01*
X209068049Y-91762700D01*
X209631951Y-91762700D01*
X210185019Y-91652688D01*
X210705997Y-91436891D01*
X211174865Y-91123604D01*
X211573604Y-90724865D01*
X211886891Y-90255997D01*
X212092438Y-89759765D01*
X212116526Y-89880864D01*
X212370014Y-90492836D01*
X212738020Y-91043597D01*
X213206403Y-91511980D01*
X213757164Y-91879986D01*
X214369136Y-92133474D01*
X215018803Y-92262700D01*
X215681197Y-92262700D01*
X216330864Y-92133474D01*
X216942836Y-91879986D01*
X217493597Y-91511980D01*
X217961980Y-91043597D01*
X218329986Y-90492836D01*
X218564745Y-89926079D01*
X218587663Y-90041293D01*
X218882610Y-90753358D01*
X219310807Y-91394201D01*
X219855799Y-91939193D01*
X220496642Y-92367390D01*
X221208707Y-92662337D01*
X221964633Y-92812700D01*
X222735367Y-92812700D01*
X223491293Y-92662337D01*
X224203358Y-92367390D01*
X224844201Y-91939193D01*
X225389193Y-91394201D01*
X225817390Y-90753358D01*
X226112337Y-90041293D01*
X226262700Y-89285367D01*
X226262700Y-88514633D01*
X226112337Y-87758707D01*
X225817390Y-87046642D01*
X225389193Y-86405799D01*
X224844201Y-85860807D01*
X224203358Y-85432610D01*
X223491293Y-85137663D01*
X222735367Y-84987300D01*
X221964633Y-84987300D01*
X221208707Y-85137663D01*
X220496642Y-85432610D01*
X219855799Y-85860807D01*
X219310807Y-86405799D01*
X218882610Y-87046642D01*
X218587663Y-87758707D01*
X218564745Y-87873921D01*
X218329986Y-87307164D01*
X217961980Y-86756403D01*
X217493597Y-86288020D01*
X216942836Y-85920014D01*
X216330864Y-85666526D01*
X215681197Y-85537300D01*
X215018803Y-85537300D01*
X214369136Y-85666526D01*
X213757164Y-85920014D01*
X213206403Y-86288020D01*
X212738020Y-86756403D01*
X212370014Y-87307164D01*
X212116526Y-87919136D01*
X212092438Y-88040235D01*
X211886891Y-87544003D01*
X211573604Y-87075135D01*
X211174865Y-86676396D01*
X210705997Y-86363109D01*
X210185019Y-86147312D01*
X209631951Y-86037300D01*
X209068049Y-86037300D01*
X208514981Y-86147312D01*
X207994003Y-86363109D01*
X207525135Y-86676396D01*
X207126396Y-87075135D01*
X206813109Y-87544003D01*
X206597312Y-88064981D01*
X206568133Y-88211672D01*
X206399488Y-87804526D01*
X206146391Y-87425740D01*
X205824260Y-87103609D01*
X205445474Y-86850512D01*
X205024590Y-86676176D01*
X204577781Y-86587300D01*
X204122219Y-86587300D01*
X203675410Y-86676176D01*
X203254526Y-86850512D01*
X202875740Y-87103609D01*
X202553609Y-87425740D01*
X202300512Y-87804526D01*
X202214701Y-88011692D01*
X202177941Y-87922945D01*
X201952204Y-87585105D01*
X201664895Y-87297796D01*
X201327055Y-87072059D01*
X200951668Y-86916568D01*
X200553158Y-86837300D01*
X200146842Y-86837300D01*
X199748332Y-86916568D01*
X199372945Y-87072059D01*
X199035105Y-87297796D01*
X198747796Y-87585105D01*
X198522059Y-87922945D01*
X198464701Y-88061419D01*
X198456394Y-88041365D01*
X198258016Y-87744471D01*
X198005529Y-87491984D01*
X197708635Y-87293606D01*
X197378745Y-87156961D01*
X197028535Y-87087300D01*
X196671465Y-87087300D01*
X196321255Y-87156961D01*
X195991365Y-87293606D01*
X195694471Y-87491984D01*
X195441984Y-87744471D01*
X195243606Y-88041365D01*
X195106961Y-88371255D01*
X195037300Y-88721465D01*
X96882892Y-88721465D01*
X96871111Y-88662241D01*
X96744025Y-88355427D01*
X96559524Y-88079302D01*
X96402946Y-87922724D01*
X96486614Y-87866818D01*
X96756818Y-87596614D01*
X96969117Y-87278887D01*
X97115350Y-86925848D01*
X97189900Y-86551063D01*
X97189900Y-86168937D01*
X97115350Y-85794152D01*
X96969117Y-85441113D01*
X96756818Y-85123386D01*
X96496877Y-84863445D01*
X96648530Y-84762113D01*
X96954113Y-84456530D01*
X97194209Y-84097201D01*
X97359589Y-83697937D01*
X97443900Y-83274080D01*
X97443900Y-82841920D01*
X97359589Y-82418063D01*
X97194209Y-82018799D01*
X96954113Y-81659470D01*
X96648530Y-81353887D01*
X96289201Y-81113791D01*
X95889937Y-80948411D01*
X95466080Y-80864100D01*
X95033920Y-80864100D01*
X94610063Y-80948411D01*
X94210799Y-81113791D01*
X93851470Y-81353887D01*
X93545887Y-81659470D01*
X93305791Y-82018799D01*
X93140411Y-82418063D01*
X93056100Y-82841920D01*
X76288100Y-82841920D01*
X76288100Y-76288100D01*
X228511901Y-76288100D01*
X228511900Y-107861900D02*
X228511901Y-76288100D01*
G04 #@! TA.AperFunction,NonConductor*
G36*
X228511900Y-107861900D02*
G01*
X76288100Y-107861900D01*
X76288100Y-82841920D01*
X93056100Y-82841920D01*
X93056100Y-83274080D01*
X93140411Y-83697937D01*
X93305791Y-84097201D01*
X93545887Y-84456530D01*
X93851470Y-84762113D01*
X94003123Y-84863445D01*
X93743182Y-85123386D01*
X93530883Y-85441113D01*
X93384650Y-85794152D01*
X93310100Y-86168937D01*
X93310100Y-86551063D01*
X93384650Y-86925848D01*
X93530883Y-87278887D01*
X93743182Y-87596614D01*
X94013386Y-87866818D01*
X94097054Y-87922724D01*
X93940476Y-88079302D01*
X93755975Y-88355427D01*
X93628889Y-88662241D01*
X93564100Y-88987953D01*
X93564100Y-89320047D01*
X93628889Y-89645759D01*
X93755975Y-89952573D01*
X93940476Y-90228698D01*
X94152462Y-90440684D01*
X94098312Y-90494834D01*
X93936048Y-90737678D01*
X93824279Y-91007512D01*
X93767300Y-91293967D01*
X93767300Y-91586033D01*
X93824279Y-91872488D01*
X93936048Y-92142322D01*
X94098312Y-92385166D01*
X94276909Y-92563763D01*
X94216688Y-92623983D01*
X94071103Y-92841867D01*
X93970822Y-93083966D01*
X93919700Y-93340977D01*
X93919700Y-93603023D01*
X93970822Y-93860034D01*
X94071103Y-94102133D01*
X94216688Y-94320017D01*
X94347474Y-94450803D01*
X94315336Y-94482941D01*
X94183650Y-94680024D01*
X94092942Y-94899010D01*
X94046700Y-95131485D01*
X94046700Y-95368515D01*
X94092942Y-95600990D01*
X94183650Y-95819976D01*
X94315336Y-96017059D01*
X94384532Y-96086255D01*
X94273686Y-96252149D01*
X94190637Y-96452646D01*
X94148300Y-96665492D01*
X94148300Y-96882508D01*
X94190637Y-97095354D01*
X94273686Y-97295851D01*
X94394253Y-97476293D01*
X94395283Y-97477323D01*
X94341214Y-97558244D01*
X94263909Y-97744873D01*
X94224500Y-97942997D01*
X94224500Y-98145003D01*
X94263909Y-98343127D01*
X94341214Y-98529756D01*
X94453442Y-98697718D01*
X94484228Y-98728504D01*
X94397486Y-98858322D01*
X94324969Y-99033395D01*
X94288000Y-99219251D01*
X94288000Y-99408749D01*
X94324969Y-99594605D01*
X94397486Y-99769678D01*
X94502766Y-99927239D01*
X94560448Y-99984921D01*
X94542225Y-100003144D01*
X94442505Y-100152385D01*
X94373817Y-100318213D01*
X94338800Y-100494255D01*
X94338800Y-100673745D01*
X94373817Y-100849787D01*
X94442505Y-101015615D01*
X94542225Y-101164856D01*
X94623310Y-101245941D01*
X94571819Y-101297431D01*
X94476268Y-101440432D01*
X94410452Y-101599326D01*
X94376900Y-101768007D01*
X94376900Y-101939993D01*
X94410452Y-102108674D01*
X94476268Y-102267568D01*
X94571819Y-102410569D01*
X94693431Y-102532181D01*
X94836432Y-102627732D01*
X94995326Y-102693548D01*
X95164007Y-102727100D01*
X95335993Y-102727100D01*
X95504674Y-102693548D01*
X95663568Y-102627732D01*
X95806569Y-102532181D01*
X95928181Y-102410569D01*
X96023732Y-102267568D01*
X96089548Y-102108674D01*
X96123100Y-101939993D01*
X96123100Y-101768007D01*
X96089548Y-101599326D01*
X96023732Y-101440432D01*
X95928181Y-101297431D01*
X95876691Y-101245941D01*
X95957775Y-101164856D01*
X96057495Y-101015615D01*
X96126183Y-100849787D01*
X96161200Y-100673745D01*
X96161200Y-100494255D01*
X96126183Y-100318213D01*
X96057495Y-100152385D01*
X95957775Y-100003144D01*
X95939552Y-99984921D01*
X95942173Y-99982300D01*
X99011110Y-99982300D01*
X99011110Y-102107700D01*
X129588891Y-102107700D01*
X129588891Y-99982300D01*
X99011110Y-99982300D01*
X95942173Y-99982300D01*
X95997234Y-99927239D01*
X96102514Y-99769678D01*
X96175031Y-99594605D01*
X96212000Y-99408749D01*
X96212000Y-99219251D01*
X96180324Y-99060000D01*
X151117300Y-99060000D01*
X151117300Y-101600000D01*
X151117544Y-101602478D01*
X151118267Y-101604860D01*
X151119440Y-101607056D01*
X151121020Y-101608980D01*
X151122944Y-101610560D01*
X151125140Y-101611733D01*
X151127522Y-101612456D01*
X151130000Y-101612700D01*
X171450000Y-101612700D01*
X171452478Y-101612456D01*
X171454860Y-101611733D01*
X171457056Y-101610560D01*
X171458980Y-101608980D01*
X171460560Y-101607056D01*
X171461733Y-101604860D01*
X171462456Y-101602478D01*
X171462700Y-101600000D01*
X171462700Y-99060000D01*
X171462456Y-99057522D01*
X171461733Y-99055140D01*
X171460560Y-99052944D01*
X171458980Y-99051020D01*
X171457056Y-99049440D01*
X171454860Y-99048267D01*
X171452478Y-99047544D01*
X171450000Y-99047300D01*
X151130000Y-99047300D01*
X151127522Y-99047544D01*
X151125140Y-99048267D01*
X151122944Y-99049440D01*
X151121020Y-99051020D01*
X151119440Y-99052944D01*
X151118267Y-99055140D01*
X151117544Y-99057522D01*
X151117300Y-99060000D01*
X96180324Y-99060000D01*
X96175031Y-99033395D01*
X96102514Y-98858322D01*
X96015772Y-98728504D01*
X96046558Y-98697718D01*
X96158786Y-98529756D01*
X96236091Y-98343127D01*
X96275500Y-98145003D01*
X96275500Y-97942997D01*
X96236091Y-97744873D01*
X96158786Y-97558244D01*
X96104717Y-97477323D01*
X96105747Y-97476293D01*
X96226314Y-97295851D01*
X96309363Y-97095354D01*
X96351700Y-96882508D01*
X96351700Y-96665492D01*
X96309363Y-96452646D01*
X96226314Y-96252149D01*
X96115468Y-96086255D01*
X96184664Y-96017059D01*
X96316350Y-95819976D01*
X96407058Y-95600990D01*
X96453300Y-95368515D01*
X96453300Y-95131485D01*
X96407058Y-94899010D01*
X96389885Y-94857551D01*
X194770400Y-94857551D01*
X194770400Y-95642449D01*
X194923526Y-96412265D01*
X195223893Y-97137416D01*
X195659959Y-97790035D01*
X196214965Y-98345041D01*
X196867584Y-98781107D01*
X197592735Y-99081474D01*
X198362551Y-99234600D01*
X199147449Y-99234600D01*
X199917265Y-99081474D01*
X200642416Y-98781107D01*
X201295035Y-98345041D01*
X201850041Y-97790035D01*
X202286107Y-97137416D01*
X202586474Y-96412265D01*
X202642439Y-96130911D01*
X202653455Y-96186293D01*
X202895424Y-96770458D01*
X203246708Y-97296192D01*
X203693808Y-97743292D01*
X204219542Y-98094576D01*
X204803707Y-98336545D01*
X205423852Y-98459900D01*
X206056148Y-98459900D01*
X206676293Y-98336545D01*
X207260458Y-98094576D01*
X207786192Y-97743292D01*
X208233292Y-97296192D01*
X208584576Y-96770458D01*
X208776203Y-96307830D01*
X208903043Y-96614050D01*
X209218191Y-97085702D01*
X209619298Y-97486809D01*
X210090950Y-97801957D01*
X210615022Y-98019035D01*
X211171374Y-98129700D01*
X211738626Y-98129700D01*
X212294978Y-98019035D01*
X212819050Y-97801957D01*
X213290702Y-97486809D01*
X213691809Y-97085702D01*
X214006957Y-96614050D01*
X214173703Y-96211490D01*
X214275662Y-96457641D01*
X214554674Y-96875212D01*
X214909788Y-97230326D01*
X215327359Y-97509338D01*
X215791338Y-97701524D01*
X216283896Y-97799500D01*
X216786104Y-97799500D01*
X217278662Y-97701524D01*
X217742641Y-97509338D01*
X218160212Y-97230326D01*
X218515326Y-96875212D01*
X218794338Y-96457641D01*
X218949950Y-96081961D01*
X219035791Y-96289201D01*
X219275887Y-96648530D01*
X219581470Y-96954113D01*
X219940799Y-97194209D01*
X220340063Y-97359589D01*
X220763920Y-97443900D01*
X221196080Y-97443900D01*
X221619937Y-97359589D01*
X222019201Y-97194209D01*
X222378530Y-96954113D01*
X222684113Y-96648530D01*
X222924209Y-96289201D01*
X223070576Y-95935839D01*
X223149665Y-96126777D01*
X223352235Y-96429944D01*
X223610056Y-96687765D01*
X223913223Y-96890335D01*
X224250083Y-97029867D01*
X224607692Y-97101000D01*
X224972308Y-97101000D01*
X225329917Y-97029867D01*
X225666777Y-96890335D01*
X225969944Y-96687765D01*
X226227765Y-96429944D01*
X226430335Y-96126777D01*
X226569867Y-95789917D01*
X226641000Y-95432308D01*
X226641000Y-95067692D01*
X226569867Y-94710083D01*
X226430335Y-94373223D01*
X226227765Y-94070056D01*
X225969944Y-93812235D01*
X225666777Y-93609665D01*
X225329917Y-93470133D01*
X224972308Y-93399000D01*
X224607692Y-93399000D01*
X224250083Y-93470133D01*
X223913223Y-93609665D01*
X223610056Y-93812235D01*
X223352235Y-94070056D01*
X223149665Y-94373223D01*
X223070576Y-94564161D01*
X222924209Y-94210799D01*
X222684113Y-93851470D01*
X222378530Y-93545887D01*
X222019201Y-93305791D01*
X221619937Y-93140411D01*
X221196080Y-93056100D01*
X220763920Y-93056100D01*
X220340063Y-93140411D01*
X219940799Y-93305791D01*
X219581470Y-93545887D01*
X219275887Y-93851470D01*
X219035791Y-94210799D01*
X218949950Y-94418039D01*
X218794338Y-94042359D01*
X218515326Y-93624788D01*
X218160212Y-93269674D01*
X217742641Y-92990662D01*
X217278662Y-92798476D01*
X216786104Y-92700500D01*
X216283896Y-92700500D01*
X215791338Y-92798476D01*
X215327359Y-92990662D01*
X214909788Y-93269674D01*
X214554674Y-93624788D01*
X214275662Y-94042359D01*
X214173703Y-94288510D01*
X214006957Y-93885950D01*
X213691809Y-93414298D01*
X213290702Y-93013191D01*
X212819050Y-92698043D01*
X212294978Y-92480965D01*
X211738626Y-92370300D01*
X211171374Y-92370300D01*
X210615022Y-92480965D01*
X210090950Y-92698043D01*
X209619298Y-93013191D01*
X209218191Y-93414298D01*
X208903043Y-93885950D01*
X208776203Y-94192170D01*
X208584576Y-93729542D01*
X208233292Y-93203808D01*
X207786192Y-92756708D01*
X207260458Y-92405424D01*
X206676293Y-92163455D01*
X206056148Y-92040100D01*
X205423852Y-92040100D01*
X204803707Y-92163455D01*
X204219542Y-92405424D01*
X203693808Y-92756708D01*
X203246708Y-93203808D01*
X202895424Y-93729542D01*
X202653455Y-94313707D01*
X202642439Y-94369089D01*
X202586474Y-94087735D01*
X202286107Y-93362584D01*
X201850041Y-92709965D01*
X201295035Y-92154959D01*
X200642416Y-91718893D01*
X199917265Y-91418526D01*
X199147449Y-91265400D01*
X198362551Y-91265400D01*
X197592735Y-91418526D01*
X196867584Y-91718893D01*
X196214965Y-92154959D01*
X195659959Y-92709965D01*
X195223893Y-93362584D01*
X194923526Y-94087735D01*
X194770400Y-94857551D01*
X96389885Y-94857551D01*
X96316350Y-94680024D01*
X96184664Y-94482941D01*
X96152526Y-94450803D01*
X96283312Y-94320017D01*
X96428897Y-94102133D01*
X96529178Y-93860034D01*
X96580300Y-93603023D01*
X96580300Y-93340977D01*
X96529178Y-93083966D01*
X96428897Y-92841867D01*
X96283312Y-92623983D01*
X96223092Y-92563763D01*
X96401688Y-92385166D01*
X96563952Y-92142322D01*
X96675721Y-91872488D01*
X96732700Y-91586033D01*
X96732700Y-91293967D01*
X96675721Y-91007512D01*
X96563952Y-90737678D01*
X96401688Y-90494834D01*
X96347538Y-90440684D01*
X96559524Y-90228698D01*
X96744025Y-89952573D01*
X96871111Y-89645759D01*
X96935900Y-89320047D01*
X96935900Y-88987953D01*
X96882892Y-88721465D01*
X195037300Y-88721465D01*
X195037300Y-89078535D01*
X195106961Y-89428745D01*
X195243606Y-89758635D01*
X195441984Y-90055529D01*
X195694471Y-90308016D01*
X195991365Y-90506394D01*
X196321255Y-90643039D01*
X196671465Y-90712700D01*
X197028535Y-90712700D01*
X197378745Y-90643039D01*
X197708635Y-90506394D01*
X198005529Y-90308016D01*
X198258016Y-90055529D01*
X198456394Y-89758635D01*
X198464701Y-89738581D01*
X198522059Y-89877055D01*
X198747796Y-90214895D01*
X199035105Y-90502204D01*
X199372945Y-90727941D01*
X199748332Y-90883432D01*
X200146842Y-90962700D01*
X200553158Y-90962700D01*
X200951668Y-90883432D01*
X201327055Y-90727941D01*
X201664895Y-90502204D01*
X201952204Y-90214895D01*
X202177941Y-89877055D01*
X202214701Y-89788308D01*
X202300512Y-89995474D01*
X202553609Y-90374260D01*
X202875740Y-90696391D01*
X203254526Y-90949488D01*
X203675410Y-91123824D01*
X204122219Y-91212700D01*
X204577781Y-91212700D01*
X205024590Y-91123824D01*
X205445474Y-90949488D01*
X205824260Y-90696391D01*
X206146391Y-90374260D01*
X206399488Y-89995474D01*
X206568133Y-89588328D01*
X206597312Y-89735019D01*
X206813109Y-90255997D01*
X207126396Y-90724865D01*
X207525135Y-91123604D01*
X207994003Y-91436891D01*
X208514981Y-91652688D01*
X209068049Y-91762700D01*
X209631951Y-91762700D01*
X210185019Y-91652688D01*
X210705997Y-91436891D01*
X211174865Y-91123604D01*
X211573604Y-90724865D01*
X211886891Y-90255997D01*
X212092438Y-89759765D01*
X212116526Y-89880864D01*
X212370014Y-90492836D01*
X212738020Y-91043597D01*
X213206403Y-91511980D01*
X213757164Y-91879986D01*
X214369136Y-92133474D01*
X215018803Y-92262700D01*
X215681197Y-92262700D01*
X216330864Y-92133474D01*
X216942836Y-91879986D01*
X217493597Y-91511980D01*
X217961980Y-91043597D01*
X218329986Y-90492836D01*
X218564745Y-89926079D01*
X218587663Y-90041293D01*
X218882610Y-90753358D01*
X219310807Y-91394201D01*
X219855799Y-91939193D01*
X220496642Y-92367390D01*
X221208707Y-92662337D01*
X221964633Y-92812700D01*
X222735367Y-92812700D01*
X223491293Y-92662337D01*
X224203358Y-92367390D01*
X224844201Y-91939193D01*
X225389193Y-91394201D01*
X225817390Y-90753358D01*
X226112337Y-90041293D01*
X226262700Y-89285367D01*
X226262700Y-88514633D01*
X226112337Y-87758707D01*
X225817390Y-87046642D01*
X225389193Y-86405799D01*
X224844201Y-85860807D01*
X224203358Y-85432610D01*
X223491293Y-85137663D01*
X222735367Y-84987300D01*
X221964633Y-84987300D01*
X221208707Y-85137663D01*
X220496642Y-85432610D01*
X219855799Y-85860807D01*
X219310807Y-86405799D01*
X218882610Y-87046642D01*
X218587663Y-87758707D01*
X218564745Y-87873921D01*
X218329986Y-87307164D01*
X217961980Y-86756403D01*
X217493597Y-86288020D01*
X216942836Y-85920014D01*
X216330864Y-85666526D01*
X215681197Y-85537300D01*
X215018803Y-85537300D01*
X214369136Y-85666526D01*
X213757164Y-85920014D01*
X213206403Y-86288020D01*
X212738020Y-86756403D01*
X212370014Y-87307164D01*
X212116526Y-87919136D01*
X212092438Y-88040235D01*
X211886891Y-87544003D01*
X211573604Y-87075135D01*
X211174865Y-86676396D01*
X210705997Y-86363109D01*
X210185019Y-86147312D01*
X209631951Y-86037300D01*
X209068049Y-86037300D01*
X208514981Y-86147312D01*
X207994003Y-86363109D01*
X207525135Y-86676396D01*
X207126396Y-87075135D01*
X206813109Y-87544003D01*
X206597312Y-88064981D01*
X206568133Y-88211672D01*
X206399488Y-87804526D01*
X206146391Y-87425740D01*
X205824260Y-87103609D01*
X205445474Y-86850512D01*
X205024590Y-86676176D01*
X204577781Y-86587300D01*
X204122219Y-86587300D01*
X203675410Y-86676176D01*
X203254526Y-86850512D01*
X202875740Y-87103609D01*
X202553609Y-87425740D01*
X202300512Y-87804526D01*
X202214701Y-88011692D01*
X202177941Y-87922945D01*
X201952204Y-87585105D01*
X201664895Y-87297796D01*
X201327055Y-87072059D01*
X200951668Y-86916568D01*
X200553158Y-86837300D01*
X200146842Y-86837300D01*
X199748332Y-86916568D01*
X199372945Y-87072059D01*
X199035105Y-87297796D01*
X198747796Y-87585105D01*
X198522059Y-87922945D01*
X198464701Y-88061419D01*
X198456394Y-88041365D01*
X198258016Y-87744471D01*
X198005529Y-87491984D01*
X197708635Y-87293606D01*
X197378745Y-87156961D01*
X197028535Y-87087300D01*
X196671465Y-87087300D01*
X196321255Y-87156961D01*
X195991365Y-87293606D01*
X195694471Y-87491984D01*
X195441984Y-87744471D01*
X195243606Y-88041365D01*
X195106961Y-88371255D01*
X195037300Y-88721465D01*
X96882892Y-88721465D01*
X96871111Y-88662241D01*
X96744025Y-88355427D01*
X96559524Y-88079302D01*
X96402946Y-87922724D01*
X96486614Y-87866818D01*
X96756818Y-87596614D01*
X96969117Y-87278887D01*
X97115350Y-86925848D01*
X97189900Y-86551063D01*
X97189900Y-86168937D01*
X97115350Y-85794152D01*
X96969117Y-85441113D01*
X96756818Y-85123386D01*
X96496877Y-84863445D01*
X96648530Y-84762113D01*
X96954113Y-84456530D01*
X97194209Y-84097201D01*
X97359589Y-83697937D01*
X97443900Y-83274080D01*
X97443900Y-82841920D01*
X97359589Y-82418063D01*
X97194209Y-82018799D01*
X96954113Y-81659470D01*
X96648530Y-81353887D01*
X96289201Y-81113791D01*
X95889937Y-80948411D01*
X95466080Y-80864100D01*
X95033920Y-80864100D01*
X94610063Y-80948411D01*
X94210799Y-81113791D01*
X93851470Y-81353887D01*
X93545887Y-81659470D01*
X93305791Y-82018799D01*
X93140411Y-82418063D01*
X93056100Y-82841920D01*
X76288100Y-82841920D01*
X76288100Y-76288100D01*
X228511901Y-76288100D01*
X228511900Y-107861900D01*
G37*
G04 #@! TD.AperFunction*
M02*
