M48
; DRILL file {KiCad (5.1.4)-1} date 11/29/2021 12:53:23 PM
; FORMAT={-:-/ absolute / inch / decimal}
; #@! TF.CreationDate,2021-11-29T12:53:23-05:00
; #@! TF.GenerationSoftware,Kicad,Pcbnew,(5.1.4)-1
; #@! TF.FileFunction,Plated,1,2,PTH
FMAT,2
INCH
T1C0.0120
T2C0.0150
T3C0.0190
T4C0.0240
T5C0.0300
T6C0.0380
T7C0.0480
T8C0.0600
T9C0.0760
T10C0.0866
T11C0.0890
T12C0.0960
T13C0.1063
T14C0.1160
T15C0.1260
T16C0.1440
T17C0.1693
T18C0.1700
T19C0.1960
T20C0.2087
T21C0.2520
T22C0.2570
%
G90
G05
T1
X3.75Y-4.01
T2
X3.75Y-3.96
T3
X3.75Y-3.91
T4
X3.75Y-3.86
T5
X3.75Y-3.81
T6
X3.75Y-3.75
T7
X3.75Y-3.68
T8
X3.75Y-3.6
T9
X3.75Y-3.51
T10
X7.75Y-3.5
T11
X8.85Y-3.75
T12
X3.75Y-3.4
T13
X7.8878Y-3.5
T14
X8.7Y-3.75
X3.75Y-3.27
T15
X8.0453Y-3.5
T16
X8.525Y-3.75
T17
X8.2421Y-3.5
T18
X8.325Y-3.75
T19
X8.1Y-3.75
T20
X8.4783Y-3.5
T21
X8.7539Y-3.5
T22
X7.825Y-3.75
T0
M30
