G04 #@! TF.GenerationSoftware,KiCad,Pcbnew,(5.1.4)-1*
G04 #@! TF.CreationDate,2021-11-29T12:53:37-05:00*
G04 #@! TF.ProjectId,ruler,72756c65-722e-46b6-9963-61645f706362,0.1*
G04 #@! TF.SameCoordinates,Original*
G04 #@! TF.FileFunction,Soldermask,Bot*
G04 #@! TF.FilePolarity,Negative*
%FSLAX46Y46*%
G04 Gerber Fmt 4.6, Leading zero omitted, Abs format (unit mm)*
G04 Created by KiCad (PCBNEW (5.1.4)-1) date 2021-11-29 12:53:37*
%MOMM*%
%LPD*%
G04 APERTURE LIST*
%ADD10C,0.100000*%
G04 APERTURE END LIST*
D10*
G36*
X76498400Y-76200000D02*
G01*
X76701600Y-76200000D01*
X76701600Y-77470000D01*
X76498400Y-77470000D01*
X76498400Y-76200000D01*
G37*
G36*
X77498400Y-76200000D02*
G01*
X77701600Y-76200000D01*
X77701600Y-77470000D01*
X77498400Y-77470000D01*
X77498400Y-76200000D01*
G37*
G36*
X227301600Y-107950000D02*
G01*
X227098400Y-107950000D01*
X227098400Y-106680000D01*
X227301600Y-106680000D01*
X227301600Y-107950000D01*
G37*
G36*
X228301600Y-107950000D02*
G01*
X228098400Y-107950000D01*
X228098400Y-106680000D01*
X228301600Y-106680000D01*
X228301600Y-107950000D01*
G37*
G36*
X226352400Y-107950000D02*
G01*
X226047600Y-107950000D01*
X226047600Y-104140000D01*
X226352400Y-104140000D01*
X226352400Y-107950000D01*
G37*
G36*
X216352400Y-107950000D02*
G01*
X216047600Y-107950000D01*
X216047600Y-104140000D01*
X216352400Y-104140000D01*
X216352400Y-107950000D01*
G37*
G36*
X221301600Y-107950000D02*
G01*
X221098400Y-107950000D01*
X221098400Y-105410000D01*
X221301600Y-105410000D01*
X221301600Y-107950000D01*
G37*
G36*
X225301600Y-107950000D02*
G01*
X225098400Y-107950000D01*
X225098400Y-106680000D01*
X225301600Y-106680000D01*
X225301600Y-107950000D01*
G37*
G36*
X224301600Y-107950000D02*
G01*
X224098400Y-107950000D01*
X224098400Y-106680000D01*
X224301600Y-106680000D01*
X224301600Y-107950000D01*
G37*
G36*
X223301600Y-107950000D02*
G01*
X223098400Y-107950000D01*
X223098400Y-106680000D01*
X223301600Y-106680000D01*
X223301600Y-107950000D01*
G37*
G36*
X222301600Y-107950000D02*
G01*
X222098400Y-107950000D01*
X222098400Y-106680000D01*
X222301600Y-106680000D01*
X222301600Y-107950000D01*
G37*
G36*
X220301600Y-107950000D02*
G01*
X220098400Y-107950000D01*
X220098400Y-106680000D01*
X220301600Y-106680000D01*
X220301600Y-107950000D01*
G37*
G36*
X219301600Y-107950000D02*
G01*
X219098400Y-107950000D01*
X219098400Y-106680000D01*
X219301600Y-106680000D01*
X219301600Y-107950000D01*
G37*
G36*
X218301600Y-107950000D02*
G01*
X218098400Y-107950000D01*
X218098400Y-106680000D01*
X218301600Y-106680000D01*
X218301600Y-107950000D01*
G37*
G36*
X217301600Y-107950000D02*
G01*
X217098400Y-107950000D01*
X217098400Y-106680000D01*
X217301600Y-106680000D01*
X217301600Y-107950000D01*
G37*
G36*
X216352400Y-107950000D02*
G01*
X216047600Y-107950000D01*
X216047600Y-104140000D01*
X216352400Y-104140000D01*
X216352400Y-107950000D01*
G37*
G36*
X206352400Y-107950000D02*
G01*
X206047600Y-107950000D01*
X206047600Y-104140000D01*
X206352400Y-104140000D01*
X206352400Y-107950000D01*
G37*
G36*
X211301600Y-107950000D02*
G01*
X211098400Y-107950000D01*
X211098400Y-105410000D01*
X211301600Y-105410000D01*
X211301600Y-107950000D01*
G37*
G36*
X215301600Y-107950000D02*
G01*
X215098400Y-107950000D01*
X215098400Y-106680000D01*
X215301600Y-106680000D01*
X215301600Y-107950000D01*
G37*
G36*
X214301600Y-107950000D02*
G01*
X214098400Y-107950000D01*
X214098400Y-106680000D01*
X214301600Y-106680000D01*
X214301600Y-107950000D01*
G37*
G36*
X213301600Y-107950000D02*
G01*
X213098400Y-107950000D01*
X213098400Y-106680000D01*
X213301600Y-106680000D01*
X213301600Y-107950000D01*
G37*
G36*
X212301600Y-107950000D02*
G01*
X212098400Y-107950000D01*
X212098400Y-106680000D01*
X212301600Y-106680000D01*
X212301600Y-107950000D01*
G37*
G36*
X210301600Y-107950000D02*
G01*
X210098400Y-107950000D01*
X210098400Y-106680000D01*
X210301600Y-106680000D01*
X210301600Y-107950000D01*
G37*
G36*
X209301600Y-107950000D02*
G01*
X209098400Y-107950000D01*
X209098400Y-106680000D01*
X209301600Y-106680000D01*
X209301600Y-107950000D01*
G37*
G36*
X208301600Y-107950000D02*
G01*
X208098400Y-107950000D01*
X208098400Y-106680000D01*
X208301600Y-106680000D01*
X208301600Y-107950000D01*
G37*
G36*
X207301600Y-107950000D02*
G01*
X207098400Y-107950000D01*
X207098400Y-106680000D01*
X207301600Y-106680000D01*
X207301600Y-107950000D01*
G37*
G36*
X206352400Y-107950000D02*
G01*
X206047600Y-107950000D01*
X206047600Y-104140000D01*
X206352400Y-104140000D01*
X206352400Y-107950000D01*
G37*
G36*
X196352400Y-107950000D02*
G01*
X196047600Y-107950000D01*
X196047600Y-104140000D01*
X196352400Y-104140000D01*
X196352400Y-107950000D01*
G37*
G36*
X201301600Y-107950000D02*
G01*
X201098400Y-107950000D01*
X201098400Y-105410000D01*
X201301600Y-105410000D01*
X201301600Y-107950000D01*
G37*
G36*
X205301600Y-107950000D02*
G01*
X205098400Y-107950000D01*
X205098400Y-106680000D01*
X205301600Y-106680000D01*
X205301600Y-107950000D01*
G37*
G36*
X204301600Y-107950000D02*
G01*
X204098400Y-107950000D01*
X204098400Y-106680000D01*
X204301600Y-106680000D01*
X204301600Y-107950000D01*
G37*
G36*
X203301600Y-107950000D02*
G01*
X203098400Y-107950000D01*
X203098400Y-106680000D01*
X203301600Y-106680000D01*
X203301600Y-107950000D01*
G37*
G36*
X202301600Y-107950000D02*
G01*
X202098400Y-107950000D01*
X202098400Y-106680000D01*
X202301600Y-106680000D01*
X202301600Y-107950000D01*
G37*
G36*
X200301600Y-107950000D02*
G01*
X200098400Y-107950000D01*
X200098400Y-106680000D01*
X200301600Y-106680000D01*
X200301600Y-107950000D01*
G37*
G36*
X199301600Y-107950000D02*
G01*
X199098400Y-107950000D01*
X199098400Y-106680000D01*
X199301600Y-106680000D01*
X199301600Y-107950000D01*
G37*
G36*
X198301600Y-107950000D02*
G01*
X198098400Y-107950000D01*
X198098400Y-106680000D01*
X198301600Y-106680000D01*
X198301600Y-107950000D01*
G37*
G36*
X197301600Y-107950000D02*
G01*
X197098400Y-107950000D01*
X197098400Y-106680000D01*
X197301600Y-106680000D01*
X197301600Y-107950000D01*
G37*
G36*
X196352400Y-107950000D02*
G01*
X196047600Y-107950000D01*
X196047600Y-104140000D01*
X196352400Y-104140000D01*
X196352400Y-107950000D01*
G37*
G36*
X186352400Y-107950000D02*
G01*
X186047600Y-107950000D01*
X186047600Y-104140000D01*
X186352400Y-104140000D01*
X186352400Y-107950000D01*
G37*
G36*
X191301600Y-107950000D02*
G01*
X191098400Y-107950000D01*
X191098400Y-105410000D01*
X191301600Y-105410000D01*
X191301600Y-107950000D01*
G37*
G36*
X195301600Y-107950000D02*
G01*
X195098400Y-107950000D01*
X195098400Y-106680000D01*
X195301600Y-106680000D01*
X195301600Y-107950000D01*
G37*
G36*
X194301600Y-107950000D02*
G01*
X194098400Y-107950000D01*
X194098400Y-106680000D01*
X194301600Y-106680000D01*
X194301600Y-107950000D01*
G37*
G36*
X193301600Y-107950000D02*
G01*
X193098400Y-107950000D01*
X193098400Y-106680000D01*
X193301600Y-106680000D01*
X193301600Y-107950000D01*
G37*
G36*
X192301600Y-107950000D02*
G01*
X192098400Y-107950000D01*
X192098400Y-106680000D01*
X192301600Y-106680000D01*
X192301600Y-107950000D01*
G37*
G36*
X190301600Y-107950000D02*
G01*
X190098400Y-107950000D01*
X190098400Y-106680000D01*
X190301600Y-106680000D01*
X190301600Y-107950000D01*
G37*
G36*
X189301600Y-107950000D02*
G01*
X189098400Y-107950000D01*
X189098400Y-106680000D01*
X189301600Y-106680000D01*
X189301600Y-107950000D01*
G37*
G36*
X188301600Y-107950000D02*
G01*
X188098400Y-107950000D01*
X188098400Y-106680000D01*
X188301600Y-106680000D01*
X188301600Y-107950000D01*
G37*
G36*
X187301600Y-107950000D02*
G01*
X187098400Y-107950000D01*
X187098400Y-106680000D01*
X187301600Y-106680000D01*
X187301600Y-107950000D01*
G37*
G36*
X186352400Y-107950000D02*
G01*
X186047600Y-107950000D01*
X186047600Y-104140000D01*
X186352400Y-104140000D01*
X186352400Y-107950000D01*
G37*
G36*
X176352400Y-107950000D02*
G01*
X176047600Y-107950000D01*
X176047600Y-104140000D01*
X176352400Y-104140000D01*
X176352400Y-107950000D01*
G37*
G36*
X181301600Y-107950000D02*
G01*
X181098400Y-107950000D01*
X181098400Y-105410000D01*
X181301600Y-105410000D01*
X181301600Y-107950000D01*
G37*
G36*
X185301600Y-107950000D02*
G01*
X185098400Y-107950000D01*
X185098400Y-106680000D01*
X185301600Y-106680000D01*
X185301600Y-107950000D01*
G37*
G36*
X184301600Y-107950000D02*
G01*
X184098400Y-107950000D01*
X184098400Y-106680000D01*
X184301600Y-106680000D01*
X184301600Y-107950000D01*
G37*
G36*
X183301600Y-107950000D02*
G01*
X183098400Y-107950000D01*
X183098400Y-106680000D01*
X183301600Y-106680000D01*
X183301600Y-107950000D01*
G37*
G36*
X182301600Y-107950000D02*
G01*
X182098400Y-107950000D01*
X182098400Y-106680000D01*
X182301600Y-106680000D01*
X182301600Y-107950000D01*
G37*
G36*
X180301600Y-107950000D02*
G01*
X180098400Y-107950000D01*
X180098400Y-106680000D01*
X180301600Y-106680000D01*
X180301600Y-107950000D01*
G37*
G36*
X179301600Y-107950000D02*
G01*
X179098400Y-107950000D01*
X179098400Y-106680000D01*
X179301600Y-106680000D01*
X179301600Y-107950000D01*
G37*
G36*
X178301600Y-107950000D02*
G01*
X178098400Y-107950000D01*
X178098400Y-106680000D01*
X178301600Y-106680000D01*
X178301600Y-107950000D01*
G37*
G36*
X177301600Y-107950000D02*
G01*
X177098400Y-107950000D01*
X177098400Y-106680000D01*
X177301600Y-106680000D01*
X177301600Y-107950000D01*
G37*
G36*
X176352400Y-107950000D02*
G01*
X176047600Y-107950000D01*
X176047600Y-104140000D01*
X176352400Y-104140000D01*
X176352400Y-107950000D01*
G37*
G36*
X166352400Y-107950000D02*
G01*
X166047600Y-107950000D01*
X166047600Y-104140000D01*
X166352400Y-104140000D01*
X166352400Y-107950000D01*
G37*
G36*
X171301600Y-107950000D02*
G01*
X171098400Y-107950000D01*
X171098400Y-105410000D01*
X171301600Y-105410000D01*
X171301600Y-107950000D01*
G37*
G36*
X175301600Y-107950000D02*
G01*
X175098400Y-107950000D01*
X175098400Y-106680000D01*
X175301600Y-106680000D01*
X175301600Y-107950000D01*
G37*
G36*
X174301600Y-107950000D02*
G01*
X174098400Y-107950000D01*
X174098400Y-106680000D01*
X174301600Y-106680000D01*
X174301600Y-107950000D01*
G37*
G36*
X173301600Y-107950000D02*
G01*
X173098400Y-107950000D01*
X173098400Y-106680000D01*
X173301600Y-106680000D01*
X173301600Y-107950000D01*
G37*
G36*
X172301600Y-107950000D02*
G01*
X172098400Y-107950000D01*
X172098400Y-106680000D01*
X172301600Y-106680000D01*
X172301600Y-107950000D01*
G37*
G36*
X170301600Y-107950000D02*
G01*
X170098400Y-107950000D01*
X170098400Y-106680000D01*
X170301600Y-106680000D01*
X170301600Y-107950000D01*
G37*
G36*
X169301600Y-107950000D02*
G01*
X169098400Y-107950000D01*
X169098400Y-106680000D01*
X169301600Y-106680000D01*
X169301600Y-107950000D01*
G37*
G36*
X168301600Y-107950000D02*
G01*
X168098400Y-107950000D01*
X168098400Y-106680000D01*
X168301600Y-106680000D01*
X168301600Y-107950000D01*
G37*
G36*
X167301600Y-107950000D02*
G01*
X167098400Y-107950000D01*
X167098400Y-106680000D01*
X167301600Y-106680000D01*
X167301600Y-107950000D01*
G37*
G36*
X166352400Y-107950000D02*
G01*
X166047600Y-107950000D01*
X166047600Y-104140000D01*
X166352400Y-104140000D01*
X166352400Y-107950000D01*
G37*
G36*
X156352400Y-107950000D02*
G01*
X156047600Y-107950000D01*
X156047600Y-104140000D01*
X156352400Y-104140000D01*
X156352400Y-107950000D01*
G37*
G36*
X161301600Y-107950000D02*
G01*
X161098400Y-107950000D01*
X161098400Y-105410000D01*
X161301600Y-105410000D01*
X161301600Y-107950000D01*
G37*
G36*
X165301600Y-107950000D02*
G01*
X165098400Y-107950000D01*
X165098400Y-106680000D01*
X165301600Y-106680000D01*
X165301600Y-107950000D01*
G37*
G36*
X164301600Y-107950000D02*
G01*
X164098400Y-107950000D01*
X164098400Y-106680000D01*
X164301600Y-106680000D01*
X164301600Y-107950000D01*
G37*
G36*
X163301600Y-107950000D02*
G01*
X163098400Y-107950000D01*
X163098400Y-106680000D01*
X163301600Y-106680000D01*
X163301600Y-107950000D01*
G37*
G36*
X162301600Y-107950000D02*
G01*
X162098400Y-107950000D01*
X162098400Y-106680000D01*
X162301600Y-106680000D01*
X162301600Y-107950000D01*
G37*
G36*
X160301600Y-107950000D02*
G01*
X160098400Y-107950000D01*
X160098400Y-106680000D01*
X160301600Y-106680000D01*
X160301600Y-107950000D01*
G37*
G36*
X159301600Y-107950000D02*
G01*
X159098400Y-107950000D01*
X159098400Y-106680000D01*
X159301600Y-106680000D01*
X159301600Y-107950000D01*
G37*
G36*
X158301600Y-107950000D02*
G01*
X158098400Y-107950000D01*
X158098400Y-106680000D01*
X158301600Y-106680000D01*
X158301600Y-107950000D01*
G37*
G36*
X157301600Y-107950000D02*
G01*
X157098400Y-107950000D01*
X157098400Y-106680000D01*
X157301600Y-106680000D01*
X157301600Y-107950000D01*
G37*
G36*
X156352400Y-107950000D02*
G01*
X156047600Y-107950000D01*
X156047600Y-104140000D01*
X156352400Y-104140000D01*
X156352400Y-107950000D01*
G37*
G36*
X146352400Y-107950000D02*
G01*
X146047600Y-107950000D01*
X146047600Y-104140000D01*
X146352400Y-104140000D01*
X146352400Y-107950000D01*
G37*
G36*
X151301600Y-107950000D02*
G01*
X151098400Y-107950000D01*
X151098400Y-105410000D01*
X151301600Y-105410000D01*
X151301600Y-107950000D01*
G37*
G36*
X155301600Y-107950000D02*
G01*
X155098400Y-107950000D01*
X155098400Y-106680000D01*
X155301600Y-106680000D01*
X155301600Y-107950000D01*
G37*
G36*
X154301600Y-107950000D02*
G01*
X154098400Y-107950000D01*
X154098400Y-106680000D01*
X154301600Y-106680000D01*
X154301600Y-107950000D01*
G37*
G36*
X153301600Y-107950000D02*
G01*
X153098400Y-107950000D01*
X153098400Y-106680000D01*
X153301600Y-106680000D01*
X153301600Y-107950000D01*
G37*
G36*
X152301600Y-107950000D02*
G01*
X152098400Y-107950000D01*
X152098400Y-106680000D01*
X152301600Y-106680000D01*
X152301600Y-107950000D01*
G37*
G36*
X150301600Y-107950000D02*
G01*
X150098400Y-107950000D01*
X150098400Y-106680000D01*
X150301600Y-106680000D01*
X150301600Y-107950000D01*
G37*
G36*
X149301600Y-107950000D02*
G01*
X149098400Y-107950000D01*
X149098400Y-106680000D01*
X149301600Y-106680000D01*
X149301600Y-107950000D01*
G37*
G36*
X148301600Y-107950000D02*
G01*
X148098400Y-107950000D01*
X148098400Y-106680000D01*
X148301600Y-106680000D01*
X148301600Y-107950000D01*
G37*
G36*
X147301600Y-107950000D02*
G01*
X147098400Y-107950000D01*
X147098400Y-106680000D01*
X147301600Y-106680000D01*
X147301600Y-107950000D01*
G37*
G36*
X146352400Y-107950000D02*
G01*
X146047600Y-107950000D01*
X146047600Y-104140000D01*
X146352400Y-104140000D01*
X146352400Y-107950000D01*
G37*
G36*
X136352400Y-107950000D02*
G01*
X136047600Y-107950000D01*
X136047600Y-104140000D01*
X136352400Y-104140000D01*
X136352400Y-107950000D01*
G37*
G36*
X141301600Y-107950000D02*
G01*
X141098400Y-107950000D01*
X141098400Y-105410000D01*
X141301600Y-105410000D01*
X141301600Y-107950000D01*
G37*
G36*
X145301600Y-107950000D02*
G01*
X145098400Y-107950000D01*
X145098400Y-106680000D01*
X145301600Y-106680000D01*
X145301600Y-107950000D01*
G37*
G36*
X144301600Y-107950000D02*
G01*
X144098400Y-107950000D01*
X144098400Y-106680000D01*
X144301600Y-106680000D01*
X144301600Y-107950000D01*
G37*
G36*
X143301600Y-107950000D02*
G01*
X143098400Y-107950000D01*
X143098400Y-106680000D01*
X143301600Y-106680000D01*
X143301600Y-107950000D01*
G37*
G36*
X142301600Y-107950000D02*
G01*
X142098400Y-107950000D01*
X142098400Y-106680000D01*
X142301600Y-106680000D01*
X142301600Y-107950000D01*
G37*
G36*
X140301600Y-107950000D02*
G01*
X140098400Y-107950000D01*
X140098400Y-106680000D01*
X140301600Y-106680000D01*
X140301600Y-107950000D01*
G37*
G36*
X139301600Y-107950000D02*
G01*
X139098400Y-107950000D01*
X139098400Y-106680000D01*
X139301600Y-106680000D01*
X139301600Y-107950000D01*
G37*
G36*
X138301600Y-107950000D02*
G01*
X138098400Y-107950000D01*
X138098400Y-106680000D01*
X138301600Y-106680000D01*
X138301600Y-107950000D01*
G37*
G36*
X137301600Y-107950000D02*
G01*
X137098400Y-107950000D01*
X137098400Y-106680000D01*
X137301600Y-106680000D01*
X137301600Y-107950000D01*
G37*
G36*
X136352400Y-107950000D02*
G01*
X136047600Y-107950000D01*
X136047600Y-104140000D01*
X136352400Y-104140000D01*
X136352400Y-107950000D01*
G37*
G36*
X126352400Y-107950000D02*
G01*
X126047600Y-107950000D01*
X126047600Y-104140000D01*
X126352400Y-104140000D01*
X126352400Y-107950000D01*
G37*
G36*
X131301600Y-107950000D02*
G01*
X131098400Y-107950000D01*
X131098400Y-105410000D01*
X131301600Y-105410000D01*
X131301600Y-107950000D01*
G37*
G36*
X135301600Y-107950000D02*
G01*
X135098400Y-107950000D01*
X135098400Y-106680000D01*
X135301600Y-106680000D01*
X135301600Y-107950000D01*
G37*
G36*
X134301600Y-107950000D02*
G01*
X134098400Y-107950000D01*
X134098400Y-106680000D01*
X134301600Y-106680000D01*
X134301600Y-107950000D01*
G37*
G36*
X133301600Y-107950000D02*
G01*
X133098400Y-107950000D01*
X133098400Y-106680000D01*
X133301600Y-106680000D01*
X133301600Y-107950000D01*
G37*
G36*
X132301600Y-107950000D02*
G01*
X132098400Y-107950000D01*
X132098400Y-106680000D01*
X132301600Y-106680000D01*
X132301600Y-107950000D01*
G37*
G36*
X130301600Y-107950000D02*
G01*
X130098400Y-107950000D01*
X130098400Y-106680000D01*
X130301600Y-106680000D01*
X130301600Y-107950000D01*
G37*
G36*
X129301600Y-107950000D02*
G01*
X129098400Y-107950000D01*
X129098400Y-106680000D01*
X129301600Y-106680000D01*
X129301600Y-107950000D01*
G37*
G36*
X128301600Y-107950000D02*
G01*
X128098400Y-107950000D01*
X128098400Y-106680000D01*
X128301600Y-106680000D01*
X128301600Y-107950000D01*
G37*
G36*
X127301600Y-107950000D02*
G01*
X127098400Y-107950000D01*
X127098400Y-106680000D01*
X127301600Y-106680000D01*
X127301600Y-107950000D01*
G37*
G36*
X126352400Y-107950000D02*
G01*
X126047600Y-107950000D01*
X126047600Y-104140000D01*
X126352400Y-104140000D01*
X126352400Y-107950000D01*
G37*
G36*
X116352400Y-107950000D02*
G01*
X116047600Y-107950000D01*
X116047600Y-104140000D01*
X116352400Y-104140000D01*
X116352400Y-107950000D01*
G37*
G36*
X121301600Y-107950000D02*
G01*
X121098400Y-107950000D01*
X121098400Y-105410000D01*
X121301600Y-105410000D01*
X121301600Y-107950000D01*
G37*
G36*
X125301600Y-107950000D02*
G01*
X125098400Y-107950000D01*
X125098400Y-106680000D01*
X125301600Y-106680000D01*
X125301600Y-107950000D01*
G37*
G36*
X124301600Y-107950000D02*
G01*
X124098400Y-107950000D01*
X124098400Y-106680000D01*
X124301600Y-106680000D01*
X124301600Y-107950000D01*
G37*
G36*
X123301600Y-107950000D02*
G01*
X123098400Y-107950000D01*
X123098400Y-106680000D01*
X123301600Y-106680000D01*
X123301600Y-107950000D01*
G37*
G36*
X122301600Y-107950000D02*
G01*
X122098400Y-107950000D01*
X122098400Y-106680000D01*
X122301600Y-106680000D01*
X122301600Y-107950000D01*
G37*
G36*
X120301600Y-107950000D02*
G01*
X120098400Y-107950000D01*
X120098400Y-106680000D01*
X120301600Y-106680000D01*
X120301600Y-107950000D01*
G37*
G36*
X119301600Y-107950000D02*
G01*
X119098400Y-107950000D01*
X119098400Y-106680000D01*
X119301600Y-106680000D01*
X119301600Y-107950000D01*
G37*
G36*
X118301600Y-107950000D02*
G01*
X118098400Y-107950000D01*
X118098400Y-106680000D01*
X118301600Y-106680000D01*
X118301600Y-107950000D01*
G37*
G36*
X117301600Y-107950000D02*
G01*
X117098400Y-107950000D01*
X117098400Y-106680000D01*
X117301600Y-106680000D01*
X117301600Y-107950000D01*
G37*
G36*
X116352400Y-107950000D02*
G01*
X116047600Y-107950000D01*
X116047600Y-104140000D01*
X116352400Y-104140000D01*
X116352400Y-107950000D01*
G37*
G36*
X106352400Y-107950000D02*
G01*
X106047600Y-107950000D01*
X106047600Y-104140000D01*
X106352400Y-104140000D01*
X106352400Y-107950000D01*
G37*
G36*
X111301600Y-107950000D02*
G01*
X111098400Y-107950000D01*
X111098400Y-105410000D01*
X111301600Y-105410000D01*
X111301600Y-107950000D01*
G37*
G36*
X115301600Y-107950000D02*
G01*
X115098400Y-107950000D01*
X115098400Y-106680000D01*
X115301600Y-106680000D01*
X115301600Y-107950000D01*
G37*
G36*
X114301600Y-107950000D02*
G01*
X114098400Y-107950000D01*
X114098400Y-106680000D01*
X114301600Y-106680000D01*
X114301600Y-107950000D01*
G37*
G36*
X113301600Y-107950000D02*
G01*
X113098400Y-107950000D01*
X113098400Y-106680000D01*
X113301600Y-106680000D01*
X113301600Y-107950000D01*
G37*
G36*
X112301600Y-107950000D02*
G01*
X112098400Y-107950000D01*
X112098400Y-106680000D01*
X112301600Y-106680000D01*
X112301600Y-107950000D01*
G37*
G36*
X110301600Y-107950000D02*
G01*
X110098400Y-107950000D01*
X110098400Y-106680000D01*
X110301600Y-106680000D01*
X110301600Y-107950000D01*
G37*
G36*
X109301600Y-107950000D02*
G01*
X109098400Y-107950000D01*
X109098400Y-106680000D01*
X109301600Y-106680000D01*
X109301600Y-107950000D01*
G37*
G36*
X108301600Y-107950000D02*
G01*
X108098400Y-107950000D01*
X108098400Y-106680000D01*
X108301600Y-106680000D01*
X108301600Y-107950000D01*
G37*
G36*
X107301600Y-107950000D02*
G01*
X107098400Y-107950000D01*
X107098400Y-106680000D01*
X107301600Y-106680000D01*
X107301600Y-107950000D01*
G37*
G36*
X106352400Y-107950000D02*
G01*
X106047600Y-107950000D01*
X106047600Y-104140000D01*
X106352400Y-104140000D01*
X106352400Y-107950000D01*
G37*
G36*
X96352400Y-107950000D02*
G01*
X96047600Y-107950000D01*
X96047600Y-104140000D01*
X96352400Y-104140000D01*
X96352400Y-107950000D01*
G37*
G36*
X101301600Y-107950000D02*
G01*
X101098400Y-107950000D01*
X101098400Y-105410000D01*
X101301600Y-105410000D01*
X101301600Y-107950000D01*
G37*
G36*
X105301600Y-107950000D02*
G01*
X105098400Y-107950000D01*
X105098400Y-106680000D01*
X105301600Y-106680000D01*
X105301600Y-107950000D01*
G37*
G36*
X104301600Y-107950000D02*
G01*
X104098400Y-107950000D01*
X104098400Y-106680000D01*
X104301600Y-106680000D01*
X104301600Y-107950000D01*
G37*
G36*
X103301600Y-107950000D02*
G01*
X103098400Y-107950000D01*
X103098400Y-106680000D01*
X103301600Y-106680000D01*
X103301600Y-107950000D01*
G37*
G36*
X102301600Y-107950000D02*
G01*
X102098400Y-107950000D01*
X102098400Y-106680000D01*
X102301600Y-106680000D01*
X102301600Y-107950000D01*
G37*
G36*
X100301600Y-107950000D02*
G01*
X100098400Y-107950000D01*
X100098400Y-106680000D01*
X100301600Y-106680000D01*
X100301600Y-107950000D01*
G37*
G36*
X99301600Y-107950000D02*
G01*
X99098400Y-107950000D01*
X99098400Y-106680000D01*
X99301600Y-106680000D01*
X99301600Y-107950000D01*
G37*
G36*
X98301600Y-107950000D02*
G01*
X98098400Y-107950000D01*
X98098400Y-106680000D01*
X98301600Y-106680000D01*
X98301600Y-107950000D01*
G37*
G36*
X97301600Y-107950000D02*
G01*
X97098400Y-107950000D01*
X97098400Y-106680000D01*
X97301600Y-106680000D01*
X97301600Y-107950000D01*
G37*
G36*
X78447600Y-76200000D02*
G01*
X78752400Y-76200000D01*
X78752400Y-80010000D01*
X78447600Y-80010000D01*
X78447600Y-76200000D01*
G37*
G36*
X88447600Y-76200000D02*
G01*
X88752400Y-76200000D01*
X88752400Y-80010000D01*
X88447600Y-80010000D01*
X88447600Y-76200000D01*
G37*
G36*
X83498400Y-76200000D02*
G01*
X83701600Y-76200000D01*
X83701600Y-78740000D01*
X83498400Y-78740000D01*
X83498400Y-76200000D01*
G37*
G36*
X79498400Y-76200000D02*
G01*
X79701600Y-76200000D01*
X79701600Y-77470000D01*
X79498400Y-77470000D01*
X79498400Y-76200000D01*
G37*
G36*
X80498400Y-76200000D02*
G01*
X80701600Y-76200000D01*
X80701600Y-77470000D01*
X80498400Y-77470000D01*
X80498400Y-76200000D01*
G37*
G36*
X81498400Y-76200000D02*
G01*
X81701600Y-76200000D01*
X81701600Y-77470000D01*
X81498400Y-77470000D01*
X81498400Y-76200000D01*
G37*
G36*
X82498400Y-76200000D02*
G01*
X82701600Y-76200000D01*
X82701600Y-77470000D01*
X82498400Y-77470000D01*
X82498400Y-76200000D01*
G37*
G36*
X84498400Y-76200000D02*
G01*
X84701600Y-76200000D01*
X84701600Y-77470000D01*
X84498400Y-77470000D01*
X84498400Y-76200000D01*
G37*
G36*
X85498400Y-76200000D02*
G01*
X85701600Y-76200000D01*
X85701600Y-77470000D01*
X85498400Y-77470000D01*
X85498400Y-76200000D01*
G37*
G36*
X86498400Y-76200000D02*
G01*
X86701600Y-76200000D01*
X86701600Y-77470000D01*
X86498400Y-77470000D01*
X86498400Y-76200000D01*
G37*
G36*
X87498400Y-76200000D02*
G01*
X87701600Y-76200000D01*
X87701600Y-77470000D01*
X87498400Y-77470000D01*
X87498400Y-76200000D01*
G37*
G36*
X88447600Y-76200000D02*
G01*
X88752400Y-76200000D01*
X88752400Y-80010000D01*
X88447600Y-80010000D01*
X88447600Y-76200000D01*
G37*
G36*
X98447600Y-76200000D02*
G01*
X98752400Y-76200000D01*
X98752400Y-80010000D01*
X98447600Y-80010000D01*
X98447600Y-76200000D01*
G37*
G36*
X93498400Y-76200000D02*
G01*
X93701600Y-76200000D01*
X93701600Y-78740000D01*
X93498400Y-78740000D01*
X93498400Y-76200000D01*
G37*
G36*
X89498400Y-76200000D02*
G01*
X89701600Y-76200000D01*
X89701600Y-77470000D01*
X89498400Y-77470000D01*
X89498400Y-76200000D01*
G37*
G36*
X90498400Y-76200000D02*
G01*
X90701600Y-76200000D01*
X90701600Y-77470000D01*
X90498400Y-77470000D01*
X90498400Y-76200000D01*
G37*
G36*
X91498400Y-76200000D02*
G01*
X91701600Y-76200000D01*
X91701600Y-77470000D01*
X91498400Y-77470000D01*
X91498400Y-76200000D01*
G37*
G36*
X92498400Y-76200000D02*
G01*
X92701600Y-76200000D01*
X92701600Y-77470000D01*
X92498400Y-77470000D01*
X92498400Y-76200000D01*
G37*
G36*
X94498400Y-76200000D02*
G01*
X94701600Y-76200000D01*
X94701600Y-77470000D01*
X94498400Y-77470000D01*
X94498400Y-76200000D01*
G37*
G36*
X95498400Y-76200000D02*
G01*
X95701600Y-76200000D01*
X95701600Y-77470000D01*
X95498400Y-77470000D01*
X95498400Y-76200000D01*
G37*
G36*
X96498400Y-76200000D02*
G01*
X96701600Y-76200000D01*
X96701600Y-77470000D01*
X96498400Y-77470000D01*
X96498400Y-76200000D01*
G37*
G36*
X97498400Y-76200000D02*
G01*
X97701600Y-76200000D01*
X97701600Y-77470000D01*
X97498400Y-77470000D01*
X97498400Y-76200000D01*
G37*
G36*
X98447600Y-76200000D02*
G01*
X98752400Y-76200000D01*
X98752400Y-80010000D01*
X98447600Y-80010000D01*
X98447600Y-76200000D01*
G37*
G36*
X108447600Y-76200000D02*
G01*
X108752400Y-76200000D01*
X108752400Y-80010000D01*
X108447600Y-80010000D01*
X108447600Y-76200000D01*
G37*
G36*
X103498400Y-76200000D02*
G01*
X103701600Y-76200000D01*
X103701600Y-78740000D01*
X103498400Y-78740000D01*
X103498400Y-76200000D01*
G37*
G36*
X99498400Y-76200000D02*
G01*
X99701600Y-76200000D01*
X99701600Y-77470000D01*
X99498400Y-77470000D01*
X99498400Y-76200000D01*
G37*
G36*
X100498400Y-76200000D02*
G01*
X100701600Y-76200000D01*
X100701600Y-77470000D01*
X100498400Y-77470000D01*
X100498400Y-76200000D01*
G37*
G36*
X101498400Y-76200000D02*
G01*
X101701600Y-76200000D01*
X101701600Y-77470000D01*
X101498400Y-77470000D01*
X101498400Y-76200000D01*
G37*
G36*
X102498400Y-76200000D02*
G01*
X102701600Y-76200000D01*
X102701600Y-77470000D01*
X102498400Y-77470000D01*
X102498400Y-76200000D01*
G37*
G36*
X104498400Y-76200000D02*
G01*
X104701600Y-76200000D01*
X104701600Y-77470000D01*
X104498400Y-77470000D01*
X104498400Y-76200000D01*
G37*
G36*
X105498400Y-76200000D02*
G01*
X105701600Y-76200000D01*
X105701600Y-77470000D01*
X105498400Y-77470000D01*
X105498400Y-76200000D01*
G37*
G36*
X106498400Y-76200000D02*
G01*
X106701600Y-76200000D01*
X106701600Y-77470000D01*
X106498400Y-77470000D01*
X106498400Y-76200000D01*
G37*
G36*
X107498400Y-76200000D02*
G01*
X107701600Y-76200000D01*
X107701600Y-77470000D01*
X107498400Y-77470000D01*
X107498400Y-76200000D01*
G37*
G36*
X108447600Y-76200000D02*
G01*
X108752400Y-76200000D01*
X108752400Y-80010000D01*
X108447600Y-80010000D01*
X108447600Y-76200000D01*
G37*
G36*
X118447600Y-76200000D02*
G01*
X118752400Y-76200000D01*
X118752400Y-80010000D01*
X118447600Y-80010000D01*
X118447600Y-76200000D01*
G37*
G36*
X113498400Y-76200000D02*
G01*
X113701600Y-76200000D01*
X113701600Y-78740000D01*
X113498400Y-78740000D01*
X113498400Y-76200000D01*
G37*
G36*
X109498400Y-76200000D02*
G01*
X109701600Y-76200000D01*
X109701600Y-77470000D01*
X109498400Y-77470000D01*
X109498400Y-76200000D01*
G37*
G36*
X110498400Y-76200000D02*
G01*
X110701600Y-76200000D01*
X110701600Y-77470000D01*
X110498400Y-77470000D01*
X110498400Y-76200000D01*
G37*
G36*
X111498400Y-76200000D02*
G01*
X111701600Y-76200000D01*
X111701600Y-77470000D01*
X111498400Y-77470000D01*
X111498400Y-76200000D01*
G37*
G36*
X112498400Y-76200000D02*
G01*
X112701600Y-76200000D01*
X112701600Y-77470000D01*
X112498400Y-77470000D01*
X112498400Y-76200000D01*
G37*
G36*
X114498400Y-76200000D02*
G01*
X114701600Y-76200000D01*
X114701600Y-77470000D01*
X114498400Y-77470000D01*
X114498400Y-76200000D01*
G37*
G36*
X115498400Y-76200000D02*
G01*
X115701600Y-76200000D01*
X115701600Y-77470000D01*
X115498400Y-77470000D01*
X115498400Y-76200000D01*
G37*
G36*
X116498400Y-76200000D02*
G01*
X116701600Y-76200000D01*
X116701600Y-77470000D01*
X116498400Y-77470000D01*
X116498400Y-76200000D01*
G37*
G36*
X117498400Y-76200000D02*
G01*
X117701600Y-76200000D01*
X117701600Y-77470000D01*
X117498400Y-77470000D01*
X117498400Y-76200000D01*
G37*
G36*
X118447600Y-76200000D02*
G01*
X118752400Y-76200000D01*
X118752400Y-80010000D01*
X118447600Y-80010000D01*
X118447600Y-76200000D01*
G37*
G36*
X128447600Y-76200000D02*
G01*
X128752400Y-76200000D01*
X128752400Y-80010000D01*
X128447600Y-80010000D01*
X128447600Y-76200000D01*
G37*
G36*
X123498400Y-76200000D02*
G01*
X123701600Y-76200000D01*
X123701600Y-78740000D01*
X123498400Y-78740000D01*
X123498400Y-76200000D01*
G37*
G36*
X119498400Y-76200000D02*
G01*
X119701600Y-76200000D01*
X119701600Y-77470000D01*
X119498400Y-77470000D01*
X119498400Y-76200000D01*
G37*
G36*
X120498400Y-76200000D02*
G01*
X120701600Y-76200000D01*
X120701600Y-77470000D01*
X120498400Y-77470000D01*
X120498400Y-76200000D01*
G37*
G36*
X121498400Y-76200000D02*
G01*
X121701600Y-76200000D01*
X121701600Y-77470000D01*
X121498400Y-77470000D01*
X121498400Y-76200000D01*
G37*
G36*
X122498400Y-76200000D02*
G01*
X122701600Y-76200000D01*
X122701600Y-77470000D01*
X122498400Y-77470000D01*
X122498400Y-76200000D01*
G37*
G36*
X124498400Y-76200000D02*
G01*
X124701600Y-76200000D01*
X124701600Y-77470000D01*
X124498400Y-77470000D01*
X124498400Y-76200000D01*
G37*
G36*
X125498400Y-76200000D02*
G01*
X125701600Y-76200000D01*
X125701600Y-77470000D01*
X125498400Y-77470000D01*
X125498400Y-76200000D01*
G37*
G36*
X126498400Y-76200000D02*
G01*
X126701600Y-76200000D01*
X126701600Y-77470000D01*
X126498400Y-77470000D01*
X126498400Y-76200000D01*
G37*
G36*
X127498400Y-76200000D02*
G01*
X127701600Y-76200000D01*
X127701600Y-77470000D01*
X127498400Y-77470000D01*
X127498400Y-76200000D01*
G37*
G36*
X128447600Y-76200000D02*
G01*
X128752400Y-76200000D01*
X128752400Y-80010000D01*
X128447600Y-80010000D01*
X128447600Y-76200000D01*
G37*
G36*
X138447600Y-76200000D02*
G01*
X138752400Y-76200000D01*
X138752400Y-80010000D01*
X138447600Y-80010000D01*
X138447600Y-76200000D01*
G37*
G36*
X133498400Y-76200000D02*
G01*
X133701600Y-76200000D01*
X133701600Y-78740000D01*
X133498400Y-78740000D01*
X133498400Y-76200000D01*
G37*
G36*
X129498400Y-76200000D02*
G01*
X129701600Y-76200000D01*
X129701600Y-77470000D01*
X129498400Y-77470000D01*
X129498400Y-76200000D01*
G37*
G36*
X130498400Y-76200000D02*
G01*
X130701600Y-76200000D01*
X130701600Y-77470000D01*
X130498400Y-77470000D01*
X130498400Y-76200000D01*
G37*
G36*
X131498400Y-76200000D02*
G01*
X131701600Y-76200000D01*
X131701600Y-77470000D01*
X131498400Y-77470000D01*
X131498400Y-76200000D01*
G37*
G36*
X132498400Y-76200000D02*
G01*
X132701600Y-76200000D01*
X132701600Y-77470000D01*
X132498400Y-77470000D01*
X132498400Y-76200000D01*
G37*
G36*
X134498400Y-76200000D02*
G01*
X134701600Y-76200000D01*
X134701600Y-77470000D01*
X134498400Y-77470000D01*
X134498400Y-76200000D01*
G37*
G36*
X135498400Y-76200000D02*
G01*
X135701600Y-76200000D01*
X135701600Y-77470000D01*
X135498400Y-77470000D01*
X135498400Y-76200000D01*
G37*
G36*
X136498400Y-76200000D02*
G01*
X136701600Y-76200000D01*
X136701600Y-77470000D01*
X136498400Y-77470000D01*
X136498400Y-76200000D01*
G37*
G36*
X137498400Y-76200000D02*
G01*
X137701600Y-76200000D01*
X137701600Y-77470000D01*
X137498400Y-77470000D01*
X137498400Y-76200000D01*
G37*
G36*
X138447600Y-76200000D02*
G01*
X138752400Y-76200000D01*
X138752400Y-80010000D01*
X138447600Y-80010000D01*
X138447600Y-76200000D01*
G37*
G36*
X148447600Y-76200000D02*
G01*
X148752400Y-76200000D01*
X148752400Y-80010000D01*
X148447600Y-80010000D01*
X148447600Y-76200000D01*
G37*
G36*
X143498400Y-76200000D02*
G01*
X143701600Y-76200000D01*
X143701600Y-78740000D01*
X143498400Y-78740000D01*
X143498400Y-76200000D01*
G37*
G36*
X139498400Y-76200000D02*
G01*
X139701600Y-76200000D01*
X139701600Y-77470000D01*
X139498400Y-77470000D01*
X139498400Y-76200000D01*
G37*
G36*
X140498400Y-76200000D02*
G01*
X140701600Y-76200000D01*
X140701600Y-77470000D01*
X140498400Y-77470000D01*
X140498400Y-76200000D01*
G37*
G36*
X141498400Y-76200000D02*
G01*
X141701600Y-76200000D01*
X141701600Y-77470000D01*
X141498400Y-77470000D01*
X141498400Y-76200000D01*
G37*
G36*
X142498400Y-76200000D02*
G01*
X142701600Y-76200000D01*
X142701600Y-77470000D01*
X142498400Y-77470000D01*
X142498400Y-76200000D01*
G37*
G36*
X144498400Y-76200000D02*
G01*
X144701600Y-76200000D01*
X144701600Y-77470000D01*
X144498400Y-77470000D01*
X144498400Y-76200000D01*
G37*
G36*
X145498400Y-76200000D02*
G01*
X145701600Y-76200000D01*
X145701600Y-77470000D01*
X145498400Y-77470000D01*
X145498400Y-76200000D01*
G37*
G36*
X146498400Y-76200000D02*
G01*
X146701600Y-76200000D01*
X146701600Y-77470000D01*
X146498400Y-77470000D01*
X146498400Y-76200000D01*
G37*
G36*
X147498400Y-76200000D02*
G01*
X147701600Y-76200000D01*
X147701600Y-77470000D01*
X147498400Y-77470000D01*
X147498400Y-76200000D01*
G37*
G36*
X148447600Y-76200000D02*
G01*
X148752400Y-76200000D01*
X148752400Y-80010000D01*
X148447600Y-80010000D01*
X148447600Y-76200000D01*
G37*
G36*
X158447600Y-76200000D02*
G01*
X158752400Y-76200000D01*
X158752400Y-80010000D01*
X158447600Y-80010000D01*
X158447600Y-76200000D01*
G37*
G36*
X153498400Y-76200000D02*
G01*
X153701600Y-76200000D01*
X153701600Y-78740000D01*
X153498400Y-78740000D01*
X153498400Y-76200000D01*
G37*
G36*
X149498400Y-76200000D02*
G01*
X149701600Y-76200000D01*
X149701600Y-77470000D01*
X149498400Y-77470000D01*
X149498400Y-76200000D01*
G37*
G36*
X150498400Y-76200000D02*
G01*
X150701600Y-76200000D01*
X150701600Y-77470000D01*
X150498400Y-77470000D01*
X150498400Y-76200000D01*
G37*
G36*
X151498400Y-76200000D02*
G01*
X151701600Y-76200000D01*
X151701600Y-77470000D01*
X151498400Y-77470000D01*
X151498400Y-76200000D01*
G37*
G36*
X152498400Y-76200000D02*
G01*
X152701600Y-76200000D01*
X152701600Y-77470000D01*
X152498400Y-77470000D01*
X152498400Y-76200000D01*
G37*
G36*
X154498400Y-76200000D02*
G01*
X154701600Y-76200000D01*
X154701600Y-77470000D01*
X154498400Y-77470000D01*
X154498400Y-76200000D01*
G37*
G36*
X155498400Y-76200000D02*
G01*
X155701600Y-76200000D01*
X155701600Y-77470000D01*
X155498400Y-77470000D01*
X155498400Y-76200000D01*
G37*
G36*
X156498400Y-76200000D02*
G01*
X156701600Y-76200000D01*
X156701600Y-77470000D01*
X156498400Y-77470000D01*
X156498400Y-76200000D01*
G37*
G36*
X157498400Y-76200000D02*
G01*
X157701600Y-76200000D01*
X157701600Y-77470000D01*
X157498400Y-77470000D01*
X157498400Y-76200000D01*
G37*
G36*
X158447600Y-76200000D02*
G01*
X158752400Y-76200000D01*
X158752400Y-80010000D01*
X158447600Y-80010000D01*
X158447600Y-76200000D01*
G37*
G36*
X168447600Y-76200000D02*
G01*
X168752400Y-76200000D01*
X168752400Y-80010000D01*
X168447600Y-80010000D01*
X168447600Y-76200000D01*
G37*
G36*
X163498400Y-76200000D02*
G01*
X163701600Y-76200000D01*
X163701600Y-78740000D01*
X163498400Y-78740000D01*
X163498400Y-76200000D01*
G37*
G36*
X159498400Y-76200000D02*
G01*
X159701600Y-76200000D01*
X159701600Y-77470000D01*
X159498400Y-77470000D01*
X159498400Y-76200000D01*
G37*
G36*
X160498400Y-76200000D02*
G01*
X160701600Y-76200000D01*
X160701600Y-77470000D01*
X160498400Y-77470000D01*
X160498400Y-76200000D01*
G37*
G36*
X161498400Y-76200000D02*
G01*
X161701600Y-76200000D01*
X161701600Y-77470000D01*
X161498400Y-77470000D01*
X161498400Y-76200000D01*
G37*
G36*
X162498400Y-76200000D02*
G01*
X162701600Y-76200000D01*
X162701600Y-77470000D01*
X162498400Y-77470000D01*
X162498400Y-76200000D01*
G37*
G36*
X164498400Y-76200000D02*
G01*
X164701600Y-76200000D01*
X164701600Y-77470000D01*
X164498400Y-77470000D01*
X164498400Y-76200000D01*
G37*
G36*
X165498400Y-76200000D02*
G01*
X165701600Y-76200000D01*
X165701600Y-77470000D01*
X165498400Y-77470000D01*
X165498400Y-76200000D01*
G37*
G36*
X166498400Y-76200000D02*
G01*
X166701600Y-76200000D01*
X166701600Y-77470000D01*
X166498400Y-77470000D01*
X166498400Y-76200000D01*
G37*
G36*
X167498400Y-76200000D02*
G01*
X167701600Y-76200000D01*
X167701600Y-77470000D01*
X167498400Y-77470000D01*
X167498400Y-76200000D01*
G37*
G36*
X168447600Y-76200000D02*
G01*
X168752400Y-76200000D01*
X168752400Y-80010000D01*
X168447600Y-80010000D01*
X168447600Y-76200000D01*
G37*
G36*
X178447600Y-76200000D02*
G01*
X178752400Y-76200000D01*
X178752400Y-80010000D01*
X178447600Y-80010000D01*
X178447600Y-76200000D01*
G37*
G36*
X173498400Y-76200000D02*
G01*
X173701600Y-76200000D01*
X173701600Y-78740000D01*
X173498400Y-78740000D01*
X173498400Y-76200000D01*
G37*
G36*
X169498400Y-76200000D02*
G01*
X169701600Y-76200000D01*
X169701600Y-77470000D01*
X169498400Y-77470000D01*
X169498400Y-76200000D01*
G37*
G36*
X170498400Y-76200000D02*
G01*
X170701600Y-76200000D01*
X170701600Y-77470000D01*
X170498400Y-77470000D01*
X170498400Y-76200000D01*
G37*
G36*
X171498400Y-76200000D02*
G01*
X171701600Y-76200000D01*
X171701600Y-77470000D01*
X171498400Y-77470000D01*
X171498400Y-76200000D01*
G37*
G36*
X172498400Y-76200000D02*
G01*
X172701600Y-76200000D01*
X172701600Y-77470000D01*
X172498400Y-77470000D01*
X172498400Y-76200000D01*
G37*
G36*
X174498400Y-76200000D02*
G01*
X174701600Y-76200000D01*
X174701600Y-77470000D01*
X174498400Y-77470000D01*
X174498400Y-76200000D01*
G37*
G36*
X175498400Y-76200000D02*
G01*
X175701600Y-76200000D01*
X175701600Y-77470000D01*
X175498400Y-77470000D01*
X175498400Y-76200000D01*
G37*
G36*
X176498400Y-76200000D02*
G01*
X176701600Y-76200000D01*
X176701600Y-77470000D01*
X176498400Y-77470000D01*
X176498400Y-76200000D01*
G37*
G36*
X177498400Y-76200000D02*
G01*
X177701600Y-76200000D01*
X177701600Y-77470000D01*
X177498400Y-77470000D01*
X177498400Y-76200000D01*
G37*
G36*
X178447600Y-76200000D02*
G01*
X178752400Y-76200000D01*
X178752400Y-80010000D01*
X178447600Y-80010000D01*
X178447600Y-76200000D01*
G37*
G36*
X188447600Y-76200000D02*
G01*
X188752400Y-76200000D01*
X188752400Y-80010000D01*
X188447600Y-80010000D01*
X188447600Y-76200000D01*
G37*
G36*
X183498400Y-76200000D02*
G01*
X183701600Y-76200000D01*
X183701600Y-78740000D01*
X183498400Y-78740000D01*
X183498400Y-76200000D01*
G37*
G36*
X179498400Y-76200000D02*
G01*
X179701600Y-76200000D01*
X179701600Y-77470000D01*
X179498400Y-77470000D01*
X179498400Y-76200000D01*
G37*
G36*
X180498400Y-76200000D02*
G01*
X180701600Y-76200000D01*
X180701600Y-77470000D01*
X180498400Y-77470000D01*
X180498400Y-76200000D01*
G37*
G36*
X181498400Y-76200000D02*
G01*
X181701600Y-76200000D01*
X181701600Y-77470000D01*
X181498400Y-77470000D01*
X181498400Y-76200000D01*
G37*
G36*
X182498400Y-76200000D02*
G01*
X182701600Y-76200000D01*
X182701600Y-77470000D01*
X182498400Y-77470000D01*
X182498400Y-76200000D01*
G37*
G36*
X184498400Y-76200000D02*
G01*
X184701600Y-76200000D01*
X184701600Y-77470000D01*
X184498400Y-77470000D01*
X184498400Y-76200000D01*
G37*
G36*
X185498400Y-76200000D02*
G01*
X185701600Y-76200000D01*
X185701600Y-77470000D01*
X185498400Y-77470000D01*
X185498400Y-76200000D01*
G37*
G36*
X186498400Y-76200000D02*
G01*
X186701600Y-76200000D01*
X186701600Y-77470000D01*
X186498400Y-77470000D01*
X186498400Y-76200000D01*
G37*
G36*
X187498400Y-76200000D02*
G01*
X187701600Y-76200000D01*
X187701600Y-77470000D01*
X187498400Y-77470000D01*
X187498400Y-76200000D01*
G37*
G36*
X188447600Y-76200000D02*
G01*
X188752400Y-76200000D01*
X188752400Y-80010000D01*
X188447600Y-80010000D01*
X188447600Y-76200000D01*
G37*
G36*
X198447600Y-76200000D02*
G01*
X198752400Y-76200000D01*
X198752400Y-80010000D01*
X198447600Y-80010000D01*
X198447600Y-76200000D01*
G37*
G36*
X193498400Y-76200000D02*
G01*
X193701600Y-76200000D01*
X193701600Y-78740000D01*
X193498400Y-78740000D01*
X193498400Y-76200000D01*
G37*
G36*
X189498400Y-76200000D02*
G01*
X189701600Y-76200000D01*
X189701600Y-77470000D01*
X189498400Y-77470000D01*
X189498400Y-76200000D01*
G37*
G36*
X190498400Y-76200000D02*
G01*
X190701600Y-76200000D01*
X190701600Y-77470000D01*
X190498400Y-77470000D01*
X190498400Y-76200000D01*
G37*
G36*
X191498400Y-76200000D02*
G01*
X191701600Y-76200000D01*
X191701600Y-77470000D01*
X191498400Y-77470000D01*
X191498400Y-76200000D01*
G37*
G36*
X192498400Y-76200000D02*
G01*
X192701600Y-76200000D01*
X192701600Y-77470000D01*
X192498400Y-77470000D01*
X192498400Y-76200000D01*
G37*
G36*
X194498400Y-76200000D02*
G01*
X194701600Y-76200000D01*
X194701600Y-77470000D01*
X194498400Y-77470000D01*
X194498400Y-76200000D01*
G37*
G36*
X195498400Y-76200000D02*
G01*
X195701600Y-76200000D01*
X195701600Y-77470000D01*
X195498400Y-77470000D01*
X195498400Y-76200000D01*
G37*
G36*
X196498400Y-76200000D02*
G01*
X196701600Y-76200000D01*
X196701600Y-77470000D01*
X196498400Y-77470000D01*
X196498400Y-76200000D01*
G37*
G36*
X197498400Y-76200000D02*
G01*
X197701600Y-76200000D01*
X197701600Y-77470000D01*
X197498400Y-77470000D01*
X197498400Y-76200000D01*
G37*
G36*
X198447600Y-76200000D02*
G01*
X198752400Y-76200000D01*
X198752400Y-80010000D01*
X198447600Y-80010000D01*
X198447600Y-76200000D01*
G37*
G36*
X208447600Y-76200000D02*
G01*
X208752400Y-76200000D01*
X208752400Y-80010000D01*
X208447600Y-80010000D01*
X208447600Y-76200000D01*
G37*
G36*
X203498400Y-76200000D02*
G01*
X203701600Y-76200000D01*
X203701600Y-78740000D01*
X203498400Y-78740000D01*
X203498400Y-76200000D01*
G37*
G36*
X199498400Y-76200000D02*
G01*
X199701600Y-76200000D01*
X199701600Y-77470000D01*
X199498400Y-77470000D01*
X199498400Y-76200000D01*
G37*
G36*
X200498400Y-76200000D02*
G01*
X200701600Y-76200000D01*
X200701600Y-77470000D01*
X200498400Y-77470000D01*
X200498400Y-76200000D01*
G37*
G36*
X201498400Y-76200000D02*
G01*
X201701600Y-76200000D01*
X201701600Y-77470000D01*
X201498400Y-77470000D01*
X201498400Y-76200000D01*
G37*
G36*
X202498400Y-76200000D02*
G01*
X202701600Y-76200000D01*
X202701600Y-77470000D01*
X202498400Y-77470000D01*
X202498400Y-76200000D01*
G37*
G36*
X204498400Y-76200000D02*
G01*
X204701600Y-76200000D01*
X204701600Y-77470000D01*
X204498400Y-77470000D01*
X204498400Y-76200000D01*
G37*
G36*
X205498400Y-76200000D02*
G01*
X205701600Y-76200000D01*
X205701600Y-77470000D01*
X205498400Y-77470000D01*
X205498400Y-76200000D01*
G37*
G36*
X206498400Y-76200000D02*
G01*
X206701600Y-76200000D01*
X206701600Y-77470000D01*
X206498400Y-77470000D01*
X206498400Y-76200000D01*
G37*
G36*
X207498400Y-76200000D02*
G01*
X207701600Y-76200000D01*
X207701600Y-77470000D01*
X207498400Y-77470000D01*
X207498400Y-76200000D01*
G37*
G36*
X223498400Y-76200000D02*
G01*
X223701600Y-76200000D01*
X223701600Y-78740000D01*
X223498400Y-78740000D01*
X223498400Y-76200000D01*
G37*
G36*
X219498400Y-76200000D02*
G01*
X219701600Y-76200000D01*
X219701600Y-77470000D01*
X219498400Y-77470000D01*
X219498400Y-76200000D01*
G37*
G36*
X220498400Y-76200000D02*
G01*
X220701600Y-76200000D01*
X220701600Y-77470000D01*
X220498400Y-77470000D01*
X220498400Y-76200000D01*
G37*
G36*
X221498400Y-76200000D02*
G01*
X221701600Y-76200000D01*
X221701600Y-77470000D01*
X221498400Y-77470000D01*
X221498400Y-76200000D01*
G37*
G36*
X222498400Y-76200000D02*
G01*
X222701600Y-76200000D01*
X222701600Y-77470000D01*
X222498400Y-77470000D01*
X222498400Y-76200000D01*
G37*
G36*
X224498400Y-76200000D02*
G01*
X224701600Y-76200000D01*
X224701600Y-77470000D01*
X224498400Y-77470000D01*
X224498400Y-76200000D01*
G37*
G36*
X225498400Y-76200000D02*
G01*
X225701600Y-76200000D01*
X225701600Y-77470000D01*
X225498400Y-77470000D01*
X225498400Y-76200000D01*
G37*
G36*
X226498400Y-76200000D02*
G01*
X226701600Y-76200000D01*
X226701600Y-77470000D01*
X226498400Y-77470000D01*
X226498400Y-76200000D01*
G37*
G36*
X227498400Y-76200000D02*
G01*
X227701600Y-76200000D01*
X227701600Y-77470000D01*
X227498400Y-77470000D01*
X227498400Y-76200000D01*
G37*
G36*
X217498400Y-76200000D02*
G01*
X217701600Y-76200000D01*
X217701600Y-77470000D01*
X217498400Y-77470000D01*
X217498400Y-76200000D01*
G37*
G36*
X216498400Y-76200000D02*
G01*
X216701600Y-76200000D01*
X216701600Y-77470000D01*
X216498400Y-77470000D01*
X216498400Y-76200000D01*
G37*
G36*
X215498400Y-76200000D02*
G01*
X215701600Y-76200000D01*
X215701600Y-77470000D01*
X215498400Y-77470000D01*
X215498400Y-76200000D01*
G37*
G36*
X214498400Y-76200000D02*
G01*
X214701600Y-76200000D01*
X214701600Y-77470000D01*
X214498400Y-77470000D01*
X214498400Y-76200000D01*
G37*
G36*
X212498400Y-76200000D02*
G01*
X212701600Y-76200000D01*
X212701600Y-77470000D01*
X212498400Y-77470000D01*
X212498400Y-76200000D01*
G37*
G36*
X211498400Y-76200000D02*
G01*
X211701600Y-76200000D01*
X211701600Y-77470000D01*
X211498400Y-77470000D01*
X211498400Y-76200000D01*
G37*
G36*
X210498400Y-76200000D02*
G01*
X210701600Y-76200000D01*
X210701600Y-77470000D01*
X210498400Y-77470000D01*
X210498400Y-76200000D01*
G37*
G36*
X209498400Y-76200000D02*
G01*
X209701600Y-76200000D01*
X209701600Y-77470000D01*
X209498400Y-77470000D01*
X209498400Y-76200000D01*
G37*
G36*
X213498400Y-76200000D02*
G01*
X213701600Y-76200000D01*
X213701600Y-78740000D01*
X213498400Y-78740000D01*
X213498400Y-76200000D01*
G37*
G36*
X218447600Y-76200000D02*
G01*
X218752400Y-76200000D01*
X218752400Y-80010000D01*
X218447600Y-80010000D01*
X218447600Y-76200000D01*
G37*
G36*
X208447600Y-76200000D02*
G01*
X208752400Y-76200000D01*
X208752400Y-80010000D01*
X208447600Y-80010000D01*
X208447600Y-76200000D01*
G37*
G36*
X77301600Y-107950000D02*
G01*
X77098400Y-107950000D01*
X77098400Y-106680000D01*
X77301600Y-106680000D01*
X77301600Y-107950000D01*
G37*
G36*
X78301600Y-107950000D02*
G01*
X78098400Y-107950000D01*
X78098400Y-106680000D01*
X78301600Y-106680000D01*
X78301600Y-107950000D01*
G37*
G36*
X79301600Y-107950000D02*
G01*
X79098400Y-107950000D01*
X79098400Y-106680000D01*
X79301600Y-106680000D01*
X79301600Y-107950000D01*
G37*
G36*
X80301600Y-107950000D02*
G01*
X80098400Y-107950000D01*
X80098400Y-106680000D01*
X80301600Y-106680000D01*
X80301600Y-107950000D01*
G37*
G36*
X82301600Y-107950000D02*
G01*
X82098400Y-107950000D01*
X82098400Y-106680000D01*
X82301600Y-106680000D01*
X82301600Y-107950000D01*
G37*
G36*
X83301600Y-107950000D02*
G01*
X83098400Y-107950000D01*
X83098400Y-106680000D01*
X83301600Y-106680000D01*
X83301600Y-107950000D01*
G37*
G36*
X84301600Y-107950000D02*
G01*
X84098400Y-107950000D01*
X84098400Y-106680000D01*
X84301600Y-106680000D01*
X84301600Y-107950000D01*
G37*
G36*
X85301600Y-107950000D02*
G01*
X85098400Y-107950000D01*
X85098400Y-106680000D01*
X85301600Y-106680000D01*
X85301600Y-107950000D01*
G37*
G36*
X81301600Y-107950000D02*
G01*
X81098400Y-107950000D01*
X81098400Y-105410000D01*
X81301600Y-105410000D01*
X81301600Y-107950000D01*
G37*
G36*
X87301600Y-107950000D02*
G01*
X87098400Y-107950000D01*
X87098400Y-106680000D01*
X87301600Y-106680000D01*
X87301600Y-107950000D01*
G37*
G36*
X88301600Y-107950000D02*
G01*
X88098400Y-107950000D01*
X88098400Y-106680000D01*
X88301600Y-106680000D01*
X88301600Y-107950000D01*
G37*
G36*
X89301600Y-107950000D02*
G01*
X89098400Y-107950000D01*
X89098400Y-106680000D01*
X89301600Y-106680000D01*
X89301600Y-107950000D01*
G37*
G36*
X90301600Y-107950000D02*
G01*
X90098400Y-107950000D01*
X90098400Y-106680000D01*
X90301600Y-106680000D01*
X90301600Y-107950000D01*
G37*
G36*
X92301600Y-107950000D02*
G01*
X92098400Y-107950000D01*
X92098400Y-106680000D01*
X92301600Y-106680000D01*
X92301600Y-107950000D01*
G37*
G36*
X93301600Y-107950000D02*
G01*
X93098400Y-107950000D01*
X93098400Y-106680000D01*
X93301600Y-106680000D01*
X93301600Y-107950000D01*
G37*
G36*
X94301600Y-107950000D02*
G01*
X94098400Y-107950000D01*
X94098400Y-106680000D01*
X94301600Y-106680000D01*
X94301600Y-107950000D01*
G37*
G36*
X95301600Y-107950000D02*
G01*
X95098400Y-107950000D01*
X95098400Y-106680000D01*
X95301600Y-106680000D01*
X95301600Y-107950000D01*
G37*
G36*
X91301600Y-107950000D02*
G01*
X91098400Y-107950000D01*
X91098400Y-105410000D01*
X91301600Y-105410000D01*
X91301600Y-107950000D01*
G37*
G36*
X86352400Y-107950000D02*
G01*
X86047600Y-107950000D01*
X86047600Y-104140000D01*
X86352400Y-104140000D01*
X86352400Y-107950000D01*
G37*
G36*
X96352400Y-107950000D02*
G01*
X96047600Y-107950000D01*
X96047600Y-104140000D01*
X96352400Y-104140000D01*
X96352400Y-107950000D01*
G37*
G36*
X95711899Y-81077864D02*
G01*
X95842771Y-81103896D01*
X96212608Y-81257088D01*
X96545452Y-81479487D01*
X96828513Y-81762548D01*
X97050912Y-82095392D01*
X97204104Y-82465229D01*
X97282200Y-82857846D01*
X97282200Y-83258154D01*
X97204104Y-83650771D01*
X97050912Y-84020608D01*
X96828513Y-84353452D01*
X96545452Y-84636513D01*
X96525065Y-84650135D01*
X96363920Y-84757809D01*
X96344978Y-84773355D01*
X96329433Y-84792297D01*
X96317882Y-84813907D01*
X96310769Y-84837356D01*
X96308367Y-84861742D01*
X96310769Y-84886128D01*
X96317882Y-84909577D01*
X96329433Y-84931188D01*
X96344979Y-84950130D01*
X96363921Y-84965675D01*
X96383534Y-84978780D01*
X96631218Y-85226464D01*
X96825820Y-85517706D01*
X96959865Y-85841318D01*
X97028200Y-86184863D01*
X97028200Y-86535137D01*
X96959865Y-86878682D01*
X96825820Y-87202294D01*
X96631218Y-87493536D01*
X96383536Y-87741218D01*
X96286772Y-87805874D01*
X96275927Y-87813120D01*
X96256985Y-87828665D01*
X96241440Y-87847607D01*
X96229889Y-87869218D01*
X96222776Y-87892667D01*
X96220374Y-87917053D01*
X96222776Y-87941439D01*
X96229889Y-87964888D01*
X96241440Y-87986499D01*
X96256985Y-88005441D01*
X96433924Y-88182380D01*
X96443013Y-88195983D01*
X96600729Y-88432021D01*
X96715626Y-88709407D01*
X96721192Y-88737389D01*
X96774200Y-89003878D01*
X96774200Y-89304122D01*
X96758793Y-89381578D01*
X96715626Y-89598593D01*
X96600729Y-89875979D01*
X96549633Y-89952449D01*
X96433924Y-90125620D01*
X96218688Y-90340856D01*
X96206118Y-90351173D01*
X96190573Y-90370115D01*
X96179023Y-90391727D01*
X96171911Y-90415176D01*
X96169510Y-90439562D01*
X96171913Y-90463948D01*
X96179027Y-90487397D01*
X96190579Y-90509007D01*
X96206116Y-90527939D01*
X96276088Y-90597911D01*
X96292041Y-90621787D01*
X96420656Y-90814273D01*
X96461903Y-90913852D01*
X96520235Y-91054678D01*
X96520235Y-91054680D01*
X96571000Y-91309891D01*
X96571000Y-91570109D01*
X96564855Y-91601000D01*
X96520235Y-91825322D01*
X96461903Y-91966148D01*
X96420656Y-92065727D01*
X96420655Y-92065728D01*
X96276088Y-92282089D01*
X96092089Y-92466088D01*
X96092086Y-92466090D01*
X96083922Y-92474254D01*
X96082632Y-92475314D01*
X96067098Y-92494265D01*
X96055560Y-92515883D01*
X96048461Y-92539336D01*
X96046074Y-92563724D01*
X96048491Y-92588108D01*
X96055618Y-92611553D01*
X96067182Y-92633157D01*
X96082680Y-92652030D01*
X96157711Y-92727061D01*
X96285600Y-92918460D01*
X96300305Y-92953962D01*
X96373692Y-93131133D01*
X96418600Y-93356902D01*
X96418600Y-93587098D01*
X96373692Y-93812867D01*
X96337203Y-93900959D01*
X96285600Y-94025540D01*
X96157711Y-94216939D01*
X96012230Y-94362420D01*
X95996690Y-94381356D01*
X95985139Y-94402967D01*
X95978026Y-94426416D01*
X95975624Y-94450802D01*
X95978026Y-94475188D01*
X95985139Y-94498637D01*
X95996690Y-94520248D01*
X96012235Y-94539190D01*
X96059064Y-94586019D01*
X96173055Y-94756619D01*
X96251573Y-94946177D01*
X96291600Y-95147410D01*
X96291600Y-95352590D01*
X96251573Y-95553823D01*
X96189558Y-95703540D01*
X96173054Y-95743383D01*
X96109261Y-95838856D01*
X96059062Y-95913984D01*
X95977591Y-95995456D01*
X95962046Y-96014398D01*
X95950495Y-96036009D01*
X95943382Y-96059458D01*
X95940980Y-96083844D01*
X95943382Y-96108230D01*
X95950495Y-96131679D01*
X95962047Y-96153289D01*
X95977591Y-96172231D01*
X95980145Y-96174785D01*
X96081763Y-96326866D01*
X96083018Y-96328745D01*
X96153877Y-96499813D01*
X96190000Y-96681417D01*
X96190000Y-96866583D01*
X96153877Y-97048187D01*
X96083018Y-97219255D01*
X95980146Y-97373214D01*
X95969079Y-97384281D01*
X95953534Y-97403223D01*
X95941983Y-97424834D01*
X95934870Y-97448283D01*
X95932468Y-97472669D01*
X95934870Y-97497055D01*
X95941983Y-97520504D01*
X95953528Y-97542104D01*
X96015490Y-97634837D01*
X96080605Y-97792039D01*
X96113800Y-97958923D01*
X96113800Y-98129077D01*
X96080605Y-98295961D01*
X96015490Y-98453163D01*
X95920958Y-98594641D01*
X95880074Y-98635525D01*
X95864538Y-98654456D01*
X95852987Y-98676067D01*
X95845875Y-98699516D01*
X95843473Y-98723902D01*
X95845875Y-98748288D01*
X95852988Y-98771737D01*
X95864540Y-98793348D01*
X95864997Y-98793905D01*
X95959216Y-98934915D01*
X95959216Y-98934916D01*
X96016372Y-99072900D01*
X96019545Y-99080562D01*
X96050300Y-99235176D01*
X96050300Y-99392824D01*
X96019545Y-99547438D01*
X95959216Y-99693085D01*
X95871636Y-99824159D01*
X95799261Y-99896534D01*
X95783716Y-99915476D01*
X95772165Y-99937087D01*
X95765052Y-99960536D01*
X95762650Y-99984922D01*
X95765052Y-100009308D01*
X95772165Y-100032757D01*
X95783716Y-100054368D01*
X95799247Y-100073293D01*
X95832175Y-100106221D01*
X95914199Y-100228978D01*
X95970698Y-100365379D01*
X95999500Y-100510181D01*
X95999500Y-100657819D01*
X95970698Y-100802621D01*
X95914199Y-100939022D01*
X95832175Y-101061779D01*
X95736385Y-101157569D01*
X95720854Y-101176494D01*
X95709303Y-101198105D01*
X95702190Y-101221554D01*
X95699788Y-101245940D01*
X95702190Y-101270326D01*
X95709303Y-101293775D01*
X95720854Y-101315386D01*
X95736399Y-101334328D01*
X95802581Y-101400510D01*
X95880435Y-101517027D01*
X95934062Y-101646493D01*
X95961400Y-101783932D01*
X95961400Y-101924068D01*
X95934062Y-102061507D01*
X95880435Y-102190973D01*
X95802581Y-102307490D01*
X95703490Y-102406581D01*
X95586973Y-102484435D01*
X95457507Y-102538062D01*
X95320068Y-102565400D01*
X95179932Y-102565400D01*
X95042493Y-102538062D01*
X94913027Y-102484435D01*
X94796510Y-102406581D01*
X94697419Y-102307490D01*
X94619565Y-102190973D01*
X94565938Y-102061507D01*
X94538600Y-101924068D01*
X94538600Y-101783932D01*
X94565938Y-101646493D01*
X94619565Y-101517027D01*
X94697419Y-101400510D01*
X94763601Y-101334328D01*
X94779146Y-101315386D01*
X94790697Y-101293775D01*
X94797810Y-101270326D01*
X94800212Y-101245940D01*
X94797810Y-101221554D01*
X94790697Y-101198105D01*
X94779146Y-101176494D01*
X94763615Y-101157569D01*
X94667825Y-101061779D01*
X94585801Y-100939022D01*
X94529302Y-100802621D01*
X94500500Y-100657819D01*
X94500500Y-100510181D01*
X94529302Y-100365379D01*
X94585801Y-100228978D01*
X94667825Y-100106221D01*
X94700753Y-100073293D01*
X94716284Y-100054368D01*
X94727835Y-100032757D01*
X94734948Y-100009308D01*
X94737350Y-99984922D01*
X94734948Y-99960536D01*
X94727835Y-99937087D01*
X94716284Y-99915476D01*
X94700739Y-99896534D01*
X94628364Y-99824159D01*
X94540784Y-99693085D01*
X94480455Y-99547438D01*
X94449700Y-99392824D01*
X94449700Y-99235176D01*
X94480455Y-99080562D01*
X94483629Y-99072900D01*
X94540784Y-98934916D01*
X94540784Y-98934915D01*
X94634872Y-98794102D01*
X94635326Y-98793550D01*
X94646919Y-98771962D01*
X94654078Y-98748527D01*
X94656528Y-98724146D01*
X94654174Y-98699755D01*
X94647106Y-98676292D01*
X94635598Y-98654659D01*
X94619931Y-98635530D01*
X94579042Y-98594641D01*
X94484510Y-98453163D01*
X94419395Y-98295961D01*
X94386200Y-98129077D01*
X94386200Y-97958923D01*
X94419395Y-97792039D01*
X94484510Y-97634837D01*
X94546472Y-97542104D01*
X94558017Y-97520504D01*
X94565130Y-97497055D01*
X94567532Y-97472669D01*
X94565130Y-97448283D01*
X94558017Y-97424834D01*
X94546466Y-97403223D01*
X94530921Y-97384281D01*
X94519854Y-97373214D01*
X94416982Y-97219255D01*
X94346123Y-97048187D01*
X94310000Y-96866583D01*
X94310000Y-96681417D01*
X94346123Y-96499813D01*
X94416982Y-96328745D01*
X94418238Y-96326866D01*
X94519855Y-96174785D01*
X94522411Y-96172229D01*
X94537952Y-96153293D01*
X94549504Y-96131683D01*
X94556618Y-96108235D01*
X94559021Y-96083849D01*
X94556620Y-96059462D01*
X94549508Y-96036013D01*
X94537958Y-96014402D01*
X94522410Y-95995455D01*
X94440936Y-95913981D01*
X94390739Y-95838856D01*
X94326946Y-95743383D01*
X94310442Y-95703540D01*
X94248427Y-95553823D01*
X94208400Y-95352590D01*
X94208400Y-95147410D01*
X94248427Y-94946177D01*
X94326945Y-94756619D01*
X94440936Y-94586019D01*
X94487765Y-94539190D01*
X94503310Y-94520248D01*
X94514861Y-94498637D01*
X94521974Y-94475188D01*
X94524376Y-94450802D01*
X94521974Y-94426416D01*
X94514861Y-94402967D01*
X94503310Y-94381356D01*
X94487770Y-94362420D01*
X94342289Y-94216939D01*
X94214400Y-94025540D01*
X94162797Y-93900959D01*
X94126308Y-93812867D01*
X94081400Y-93587098D01*
X94081400Y-93356902D01*
X94126308Y-93131133D01*
X94199695Y-92953962D01*
X94214400Y-92918460D01*
X94342289Y-92727061D01*
X94417320Y-92652030D01*
X94432860Y-92633094D01*
X94444411Y-92611483D01*
X94451524Y-92588034D01*
X94453926Y-92563648D01*
X94451524Y-92539262D01*
X94444411Y-92515813D01*
X94432860Y-92494202D01*
X94417315Y-92475260D01*
X94416023Y-92474199D01*
X94407914Y-92466090D01*
X94407911Y-92466088D01*
X94223912Y-92282089D01*
X94079345Y-92065728D01*
X94079344Y-92065727D01*
X94038097Y-91966148D01*
X93979765Y-91825322D01*
X93935145Y-91601000D01*
X93929000Y-91570109D01*
X93929000Y-91309891D01*
X93979765Y-91054680D01*
X93979765Y-91054678D01*
X94038097Y-90913852D01*
X94079344Y-90814273D01*
X94207959Y-90621787D01*
X94223912Y-90597911D01*
X94293884Y-90527939D01*
X94309424Y-90509003D01*
X94320975Y-90487392D01*
X94328088Y-90463943D01*
X94330490Y-90439557D01*
X94328088Y-90415171D01*
X94320975Y-90391722D01*
X94309424Y-90370111D01*
X94293879Y-90351169D01*
X94281309Y-90340853D01*
X94066076Y-90125620D01*
X93950367Y-89952449D01*
X93899271Y-89875979D01*
X93784374Y-89598593D01*
X93741207Y-89381578D01*
X93725800Y-89304122D01*
X93725800Y-89003878D01*
X93778808Y-88737389D01*
X93784374Y-88709407D01*
X93899271Y-88432021D01*
X94056987Y-88195983D01*
X94066076Y-88182380D01*
X94243015Y-88005441D01*
X94258560Y-87986499D01*
X94270111Y-87964888D01*
X94277224Y-87941439D01*
X94279626Y-87917053D01*
X94277224Y-87892667D01*
X94270111Y-87869218D01*
X94258560Y-87847607D01*
X94243015Y-87828665D01*
X94224073Y-87813120D01*
X94213229Y-87805874D01*
X94116464Y-87741218D01*
X93868782Y-87493536D01*
X93674180Y-87202294D01*
X93540135Y-86878682D01*
X93471800Y-86535137D01*
X93471800Y-86184863D01*
X93540135Y-85841318D01*
X93674180Y-85517706D01*
X93868782Y-85226464D01*
X94116466Y-84978780D01*
X94136079Y-84965675D01*
X94155021Y-84950130D01*
X94170567Y-84931188D01*
X94182118Y-84909577D01*
X94189231Y-84886128D01*
X94191633Y-84861742D01*
X94189231Y-84837356D01*
X94182118Y-84813907D01*
X94170567Y-84792297D01*
X94155022Y-84773355D01*
X94136080Y-84757809D01*
X93974935Y-84650135D01*
X93954548Y-84636513D01*
X93671487Y-84353452D01*
X93449088Y-84020608D01*
X93295896Y-83650771D01*
X93217800Y-83258154D01*
X93217800Y-82857846D01*
X93295896Y-82465229D01*
X93449088Y-82095392D01*
X93671487Y-81762548D01*
X93954548Y-81479487D01*
X94287392Y-81257088D01*
X94657229Y-81103896D01*
X94788101Y-81077864D01*
X95049844Y-81025800D01*
X95450156Y-81025800D01*
X95711899Y-81077864D01*
X95711899Y-81077864D01*
G37*
G36*
X199483949Y-91497202D02*
G01*
X199870099Y-91574012D01*
X200565822Y-91862190D01*
X201191956Y-92280560D01*
X201724440Y-92813044D01*
X202087836Y-93356903D01*
X202142811Y-93439180D01*
X202220036Y-93625618D01*
X202430988Y-94134901D01*
X202505484Y-94509415D01*
X202519841Y-94581597D01*
X202526954Y-94605046D01*
X202538505Y-94626657D01*
X202554050Y-94645599D01*
X202572992Y-94661144D01*
X202594603Y-94672695D01*
X202618052Y-94679808D01*
X202642438Y-94682210D01*
X202666824Y-94679808D01*
X202690273Y-94672695D01*
X202711884Y-94661144D01*
X202730826Y-94645599D01*
X202746371Y-94626657D01*
X202757922Y-94605046D01*
X202765035Y-94581597D01*
X202808940Y-94360874D01*
X203038719Y-93806138D01*
X203074251Y-93752961D01*
X203372308Y-93306886D01*
X203796886Y-92882308D01*
X204296136Y-92548720D01*
X204318791Y-92539336D01*
X204850874Y-92318940D01*
X205439777Y-92201800D01*
X206040223Y-92201800D01*
X206629126Y-92318940D01*
X207161209Y-92539336D01*
X207183864Y-92548720D01*
X207683114Y-92882308D01*
X208107692Y-93306886D01*
X208405750Y-93752961D01*
X208441281Y-93806138D01*
X208660719Y-94335909D01*
X208672270Y-94357520D01*
X208687815Y-94376462D01*
X208706757Y-94392007D01*
X208728368Y-94403558D01*
X208751817Y-94410671D01*
X208776203Y-94413073D01*
X208800589Y-94410671D01*
X208824038Y-94403558D01*
X208845649Y-94392007D01*
X208864591Y-94376462D01*
X208880136Y-94357520D01*
X208891687Y-94335909D01*
X209046339Y-93962546D01*
X209062850Y-93937835D01*
X209343792Y-93517376D01*
X209722376Y-93138792D01*
X210167544Y-92841340D01*
X210662189Y-92636451D01*
X211024972Y-92564289D01*
X211187299Y-92532000D01*
X211722701Y-92532000D01*
X211885028Y-92564289D01*
X212247811Y-92636451D01*
X212742456Y-92841340D01*
X213187624Y-93138792D01*
X213566208Y-93517376D01*
X213863660Y-93962544D01*
X214050276Y-94413073D01*
X214058219Y-94432251D01*
X214069770Y-94453862D01*
X214085315Y-94472804D01*
X214104257Y-94488349D01*
X214125868Y-94499900D01*
X214149317Y-94507013D01*
X214173703Y-94509415D01*
X214198089Y-94507013D01*
X214221538Y-94499900D01*
X214243149Y-94488349D01*
X214262091Y-94472804D01*
X214277636Y-94453862D01*
X214289182Y-94432261D01*
X214418959Y-94118952D01*
X214680274Y-93727866D01*
X215012866Y-93395274D01*
X215403952Y-93133959D01*
X215838504Y-92953961D01*
X216242353Y-92873631D01*
X216299821Y-92862200D01*
X216770179Y-92862200D01*
X216827647Y-92873631D01*
X217231496Y-92953961D01*
X217666048Y-93133959D01*
X218057134Y-93395274D01*
X218389726Y-93727866D01*
X218651041Y-94118952D01*
X218831039Y-94553504D01*
X218831040Y-94553512D01*
X218834465Y-94561779D01*
X218846016Y-94583390D01*
X218861561Y-94602332D01*
X218880503Y-94617877D01*
X218902114Y-94629428D01*
X218925563Y-94636541D01*
X218949949Y-94638943D01*
X218974335Y-94636541D01*
X218997784Y-94629428D01*
X219019395Y-94617877D01*
X219038337Y-94602332D01*
X219053882Y-94583390D01*
X219065433Y-94561779D01*
X219068861Y-94553504D01*
X219150040Y-94357520D01*
X219179087Y-94287394D01*
X219205123Y-94248428D01*
X219401487Y-93954548D01*
X219684548Y-93671487D01*
X220017392Y-93449088D01*
X220041317Y-93439178D01*
X220239948Y-93356902D01*
X220387229Y-93295896D01*
X220518101Y-93269864D01*
X220779844Y-93217800D01*
X221180156Y-93217800D01*
X221441899Y-93269864D01*
X221572771Y-93295896D01*
X221720052Y-93356902D01*
X221918684Y-93439178D01*
X221942608Y-93449088D01*
X222275452Y-93671487D01*
X222558513Y-93954548D01*
X222754877Y-94248428D01*
X222780913Y-94287394D01*
X222934104Y-94657229D01*
X222942263Y-94698249D01*
X222949376Y-94721698D01*
X222960927Y-94743308D01*
X222976472Y-94762250D01*
X222995414Y-94777796D01*
X223017024Y-94789347D01*
X223040473Y-94796460D01*
X223064859Y-94798862D01*
X223089246Y-94796460D01*
X223112695Y-94789347D01*
X223134305Y-94777796D01*
X223153247Y-94762251D01*
X223168793Y-94743309D01*
X223180344Y-94721698D01*
X223292961Y-94449818D01*
X223292962Y-94449816D01*
X223477835Y-94173134D01*
X223713134Y-93937835D01*
X223989816Y-93752962D01*
X223989818Y-93752961D01*
X224297250Y-93625618D01*
X224623617Y-93560700D01*
X224956383Y-93560700D01*
X225282750Y-93625618D01*
X225590182Y-93752961D01*
X225590184Y-93752962D01*
X225866866Y-93937835D01*
X226102165Y-94173134D01*
X226287038Y-94449816D01*
X226287039Y-94449818D01*
X226414382Y-94757250D01*
X226479300Y-95083617D01*
X226479300Y-95416383D01*
X226414382Y-95742750D01*
X226292908Y-96036013D01*
X226287038Y-96050184D01*
X226102165Y-96326866D01*
X225866866Y-96562165D01*
X225590184Y-96747038D01*
X225590183Y-96747039D01*
X225590182Y-96747039D01*
X225282750Y-96874382D01*
X224956383Y-96939300D01*
X224623617Y-96939300D01*
X224297250Y-96874382D01*
X223989818Y-96747039D01*
X223989817Y-96747039D01*
X223989816Y-96747038D01*
X223713134Y-96562165D01*
X223477835Y-96326866D01*
X223292962Y-96050184D01*
X223287092Y-96036013D01*
X223180344Y-95778302D01*
X223168793Y-95756691D01*
X223153248Y-95737749D01*
X223134306Y-95722204D01*
X223112695Y-95710653D01*
X223089246Y-95703540D01*
X223064860Y-95701138D01*
X223040474Y-95703540D01*
X223017025Y-95710653D01*
X222995414Y-95722204D01*
X222976472Y-95737749D01*
X222960927Y-95756691D01*
X222949376Y-95778302D01*
X222942263Y-95801751D01*
X222934104Y-95842771D01*
X222796579Y-96174786D01*
X222780912Y-96212608D01*
X222558513Y-96545452D01*
X222275452Y-96828513D01*
X221942608Y-97050912D01*
X221942607Y-97050913D01*
X221942606Y-97050913D01*
X221834285Y-97095781D01*
X221572771Y-97204104D01*
X221496601Y-97219255D01*
X221180156Y-97282200D01*
X220779844Y-97282200D01*
X220463399Y-97219255D01*
X220387229Y-97204104D01*
X220125715Y-97095781D01*
X220017394Y-97050913D01*
X220017393Y-97050913D01*
X220017392Y-97050912D01*
X219684548Y-96828513D01*
X219401487Y-96545452D01*
X219179088Y-96212608D01*
X219163422Y-96174786D01*
X219096988Y-96014402D01*
X219065432Y-95938219D01*
X219053882Y-95916610D01*
X219038337Y-95897668D01*
X219019395Y-95882123D01*
X218997784Y-95870572D01*
X218974335Y-95863459D01*
X218949949Y-95861057D01*
X218925563Y-95863459D01*
X218902114Y-95870572D01*
X218880503Y-95882123D01*
X218861561Y-95897668D01*
X218846016Y-95916610D01*
X218834465Y-95938221D01*
X218831040Y-95946488D01*
X218831039Y-95946496D01*
X218651041Y-96381048D01*
X218389726Y-96772134D01*
X218057134Y-97104726D01*
X217666048Y-97366041D01*
X217231496Y-97546039D01*
X216827647Y-97626369D01*
X216770179Y-97637800D01*
X216299821Y-97637800D01*
X216242353Y-97626369D01*
X215838504Y-97546039D01*
X215403952Y-97366041D01*
X215012866Y-97104726D01*
X214680274Y-96772134D01*
X214418959Y-96381048D01*
X214289182Y-96067739D01*
X214277636Y-96046138D01*
X214262091Y-96027196D01*
X214243149Y-96011651D01*
X214221538Y-96000100D01*
X214198089Y-95992987D01*
X214173703Y-95990585D01*
X214149317Y-95992987D01*
X214125868Y-96000100D01*
X214104257Y-96011651D01*
X214085315Y-96027196D01*
X214069770Y-96046138D01*
X214058220Y-96067746D01*
X213863660Y-96537456D01*
X213566208Y-96982624D01*
X213187624Y-97361208D01*
X212742456Y-97658660D01*
X212247811Y-97863549D01*
X211985255Y-97915775D01*
X211722701Y-97968000D01*
X211187299Y-97968000D01*
X210924745Y-97915775D01*
X210662189Y-97863549D01*
X210167544Y-97658660D01*
X209722376Y-97361208D01*
X209343792Y-96982624D01*
X209046340Y-96537456D01*
X208891687Y-96164090D01*
X208880136Y-96142480D01*
X208864591Y-96123538D01*
X208845649Y-96107993D01*
X208824038Y-96096442D01*
X208800589Y-96089329D01*
X208776203Y-96086927D01*
X208751817Y-96089329D01*
X208728368Y-96096442D01*
X208706757Y-96107993D01*
X208687815Y-96123538D01*
X208672270Y-96142480D01*
X208660719Y-96164091D01*
X208446436Y-96681417D01*
X208441280Y-96693864D01*
X208107692Y-97193114D01*
X207683114Y-97617692D01*
X207183864Y-97951280D01*
X207183863Y-97951281D01*
X207183862Y-97951281D01*
X206629126Y-98181060D01*
X206040223Y-98298200D01*
X205439777Y-98298200D01*
X204850874Y-98181060D01*
X204296138Y-97951281D01*
X204296137Y-97951281D01*
X204296136Y-97951280D01*
X203796886Y-97617692D01*
X203372308Y-97193114D01*
X203038720Y-96693864D01*
X203033564Y-96681417D01*
X202808940Y-96139126D01*
X202765035Y-95918403D01*
X202757922Y-95894954D01*
X202746371Y-95873343D01*
X202730825Y-95854401D01*
X202711884Y-95838856D01*
X202690273Y-95827305D01*
X202666824Y-95820192D01*
X202642438Y-95817790D01*
X202618052Y-95820192D01*
X202594603Y-95827305D01*
X202572992Y-95838856D01*
X202554050Y-95854402D01*
X202538505Y-95873343D01*
X202526954Y-95894954D01*
X202519842Y-95918399D01*
X202430988Y-96365099D01*
X202239036Y-96828513D01*
X202146915Y-97050913D01*
X202142810Y-97060822D01*
X201724440Y-97686956D01*
X201191956Y-98219440D01*
X200565822Y-98637810D01*
X200565821Y-98637811D01*
X200565820Y-98637811D01*
X200472918Y-98676292D01*
X199870099Y-98925988D01*
X199500811Y-98999444D01*
X199131524Y-99072900D01*
X198378476Y-99072900D01*
X198009189Y-98999444D01*
X197639901Y-98925988D01*
X197037082Y-98676292D01*
X196944180Y-98637811D01*
X196944179Y-98637811D01*
X196944178Y-98637810D01*
X196318044Y-98219440D01*
X195785560Y-97686956D01*
X195367190Y-97060822D01*
X195363086Y-97050913D01*
X195270964Y-96828513D01*
X195079012Y-96365099D01*
X194980555Y-95870124D01*
X194932100Y-95626524D01*
X194932100Y-94873476D01*
X195030316Y-94379711D01*
X195079012Y-94134901D01*
X195289964Y-93625618D01*
X195367189Y-93439180D01*
X195422165Y-93356903D01*
X195785560Y-92813044D01*
X196318044Y-92280560D01*
X196944178Y-91862190D01*
X197639901Y-91574012D01*
X198026051Y-91497202D01*
X198378476Y-91427100D01*
X199131524Y-91427100D01*
X199483949Y-91497202D01*
X199483949Y-91497202D01*
G37*
G36*
X223202564Y-85245099D02*
G01*
X223444126Y-85293149D01*
X224126765Y-85575907D01*
X224741123Y-85986408D01*
X225263592Y-86508877D01*
X225674093Y-87123235D01*
X225956851Y-87805874D01*
X225989513Y-87970077D01*
X226101000Y-88530557D01*
X226101000Y-89269443D01*
X226017773Y-89687852D01*
X225956851Y-89994126D01*
X225674093Y-90676765D01*
X225263592Y-91291123D01*
X224741123Y-91813592D01*
X224126765Y-92224093D01*
X223444126Y-92506851D01*
X223202564Y-92554901D01*
X222719443Y-92651000D01*
X221980557Y-92651000D01*
X221497436Y-92554901D01*
X221255874Y-92506851D01*
X220573235Y-92224093D01*
X219958877Y-91813592D01*
X219436408Y-91291123D01*
X219025907Y-90676765D01*
X218743149Y-89994126D01*
X218692209Y-89738034D01*
X218685097Y-89714588D01*
X218673546Y-89692977D01*
X218658001Y-89674035D01*
X218639059Y-89658490D01*
X218617448Y-89646939D01*
X218593999Y-89639826D01*
X218569613Y-89637424D01*
X218545227Y-89639826D01*
X218521778Y-89646939D01*
X218500167Y-89658490D01*
X218481225Y-89674035D01*
X218465680Y-89692977D01*
X218454129Y-89714588D01*
X218447016Y-89738037D01*
X218427988Y-89833696D01*
X218187654Y-90413912D01*
X218186689Y-90416242D01*
X217836379Y-90940518D01*
X217390518Y-91386379D01*
X216866242Y-91736689D01*
X216866241Y-91736690D01*
X216866240Y-91736690D01*
X216283696Y-91977988D01*
X215665272Y-92101000D01*
X215034728Y-92101000D01*
X214416304Y-91977988D01*
X213833760Y-91736690D01*
X213833759Y-91736690D01*
X213833758Y-91736689D01*
X213309482Y-91386379D01*
X212863621Y-90940518D01*
X212513311Y-90416242D01*
X212512346Y-90413912D01*
X212272012Y-89833696D01*
X212217699Y-89560648D01*
X212210586Y-89537199D01*
X212199035Y-89515588D01*
X212183490Y-89496646D01*
X212164548Y-89481101D01*
X212142937Y-89469550D01*
X212119488Y-89462437D01*
X212095102Y-89460035D01*
X212070716Y-89462437D01*
X212047267Y-89469550D01*
X212025656Y-89481101D01*
X212006714Y-89496646D01*
X211991169Y-89515588D01*
X211979618Y-89537199D01*
X211972505Y-89560648D01*
X211947203Y-89687853D01*
X211743596Y-90179402D01*
X211741582Y-90182416D01*
X211448004Y-90621787D01*
X211071787Y-90998004D01*
X210986965Y-91054680D01*
X210629402Y-91293596D01*
X210137852Y-91497203D01*
X209616027Y-91601000D01*
X209083973Y-91601000D01*
X208562148Y-91497203D01*
X208070598Y-91293596D01*
X207713035Y-91054680D01*
X207628213Y-90998004D01*
X207251996Y-90621787D01*
X206958418Y-90182416D01*
X206956404Y-90179402D01*
X206752797Y-89687852D01*
X206692209Y-89383256D01*
X206685096Y-89359807D01*
X206673545Y-89338196D01*
X206658000Y-89319254D01*
X206639058Y-89303709D01*
X206617447Y-89292158D01*
X206593998Y-89285045D01*
X206569612Y-89282643D01*
X206545226Y-89285045D01*
X206521777Y-89292158D01*
X206500166Y-89303709D01*
X206481224Y-89319254D01*
X206465679Y-89338196D01*
X206454128Y-89359807D01*
X206447015Y-89383256D01*
X206418339Y-89527424D01*
X206273963Y-89875978D01*
X206256192Y-89918881D01*
X206020791Y-90271183D01*
X205721183Y-90570791D01*
X205368881Y-90806192D01*
X205368880Y-90806193D01*
X205368879Y-90806193D01*
X204977423Y-90968339D01*
X204561856Y-91051000D01*
X204138144Y-91051000D01*
X203722577Y-90968339D01*
X203331121Y-90806193D01*
X203331120Y-90806193D01*
X203331119Y-90806192D01*
X202978817Y-90570791D01*
X202679209Y-90271183D01*
X202443808Y-89918881D01*
X202350236Y-89692977D01*
X202330185Y-89644570D01*
X202318634Y-89622959D01*
X202303089Y-89604018D01*
X202284147Y-89588472D01*
X202262536Y-89576921D01*
X202239087Y-89569808D01*
X202214701Y-89567406D01*
X202190315Y-89569808D01*
X202166866Y-89576921D01*
X202145255Y-89588472D01*
X202126314Y-89604017D01*
X202110768Y-89622959D01*
X202099217Y-89644570D01*
X202081288Y-89687853D01*
X202034644Y-89800461D01*
X201826603Y-90111817D01*
X201561817Y-90376603D01*
X201250461Y-90584644D01*
X201250460Y-90584645D01*
X201250459Y-90584645D01*
X201166007Y-90619626D01*
X200904501Y-90727946D01*
X200537233Y-90801000D01*
X200162767Y-90801000D01*
X199979134Y-90764473D01*
X199795499Y-90727946D01*
X199533993Y-90619626D01*
X199449541Y-90584645D01*
X199449540Y-90584645D01*
X199449539Y-90584644D01*
X199138183Y-90376603D01*
X198873397Y-90111817D01*
X198665356Y-89800461D01*
X198600784Y-89644570D01*
X198580185Y-89594841D01*
X198568634Y-89573230D01*
X198553089Y-89554288D01*
X198534147Y-89538743D01*
X198512536Y-89527192D01*
X198489087Y-89520079D01*
X198464701Y-89517677D01*
X198440315Y-89520079D01*
X198416866Y-89527192D01*
X198395255Y-89538743D01*
X198376313Y-89554288D01*
X198360768Y-89573230D01*
X198349217Y-89594841D01*
X198328619Y-89644570D01*
X198313097Y-89682042D01*
X198132415Y-89952451D01*
X197902451Y-90182415D01*
X197632042Y-90363097D01*
X197331579Y-90487553D01*
X197245229Y-90504729D01*
X197012611Y-90551000D01*
X196687389Y-90551000D01*
X196454771Y-90504729D01*
X196368421Y-90487553D01*
X196067958Y-90363097D01*
X195797549Y-90182415D01*
X195567585Y-89952451D01*
X195386903Y-89682042D01*
X195371382Y-89644570D01*
X195336620Y-89560648D01*
X195262447Y-89381579D01*
X195229366Y-89215271D01*
X195199000Y-89062611D01*
X195199000Y-88737389D01*
X195262447Y-88418422D01*
X195292653Y-88345499D01*
X195354584Y-88195982D01*
X195386902Y-88117960D01*
X195466027Y-87999541D01*
X195567585Y-87847549D01*
X195797549Y-87617585D01*
X196067958Y-87436903D01*
X196368421Y-87312447D01*
X196474744Y-87291298D01*
X196687389Y-87249000D01*
X197012611Y-87249000D01*
X197225256Y-87291298D01*
X197331579Y-87312447D01*
X197632042Y-87436903D01*
X197902451Y-87617585D01*
X198132415Y-87847549D01*
X198233973Y-87999541D01*
X198313098Y-88117960D01*
X198349217Y-88205159D01*
X198360768Y-88226770D01*
X198376313Y-88245712D01*
X198395255Y-88261257D01*
X198416866Y-88272808D01*
X198440315Y-88279921D01*
X198464701Y-88282323D01*
X198489087Y-88279921D01*
X198512536Y-88272808D01*
X198534147Y-88261257D01*
X198553089Y-88245712D01*
X198568634Y-88226770D01*
X198580185Y-88205159D01*
X198665355Y-87999541D01*
X198707932Y-87935820D01*
X198873397Y-87688183D01*
X199138183Y-87423397D01*
X199449539Y-87215356D01*
X199795499Y-87072054D01*
X199979134Y-87035527D01*
X200162767Y-86999000D01*
X200537233Y-86999000D01*
X200904501Y-87072054D01*
X201250461Y-87215356D01*
X201561817Y-87423397D01*
X201826603Y-87688183D01*
X201992068Y-87935820D01*
X202034645Y-87999541D01*
X202099217Y-88155430D01*
X202110768Y-88177041D01*
X202126314Y-88195983D01*
X202145256Y-88211528D01*
X202166866Y-88223079D01*
X202190315Y-88230192D01*
X202214701Y-88232594D01*
X202239087Y-88230192D01*
X202262536Y-88223079D01*
X202284147Y-88211528D01*
X202303089Y-88195982D01*
X202318634Y-88177040D01*
X202330185Y-88155430D01*
X202443807Y-87881121D01*
X202466200Y-87847607D01*
X202679209Y-87528817D01*
X202978817Y-87229209D01*
X203331119Y-86993808D01*
X203331121Y-86993807D01*
X203722577Y-86831661D01*
X204138144Y-86749000D01*
X204561856Y-86749000D01*
X204977423Y-86831661D01*
X205368879Y-86993807D01*
X205368881Y-86993808D01*
X205721183Y-87229209D01*
X206020791Y-87528817D01*
X206233800Y-87847607D01*
X206256193Y-87881121D01*
X206418339Y-88272576D01*
X206447015Y-88416744D01*
X206454128Y-88440193D01*
X206465679Y-88461803D01*
X206481224Y-88480745D01*
X206500166Y-88496291D01*
X206521776Y-88507842D01*
X206545225Y-88514955D01*
X206569611Y-88517357D01*
X206593998Y-88514955D01*
X206617447Y-88507842D01*
X206639057Y-88496291D01*
X206657999Y-88480746D01*
X206673545Y-88461804D01*
X206685096Y-88440194D01*
X206692209Y-88416744D01*
X206752797Y-88112148D01*
X206956404Y-87620598D01*
X207114654Y-87383760D01*
X207251996Y-87178213D01*
X207628213Y-86801996D01*
X208027596Y-86535137D01*
X208070598Y-86506404D01*
X208562148Y-86302797D01*
X209083973Y-86199000D01*
X209616027Y-86199000D01*
X210137852Y-86302797D01*
X210629402Y-86506404D01*
X210672404Y-86535137D01*
X211071787Y-86801996D01*
X211448004Y-87178213D01*
X211585346Y-87383760D01*
X211743596Y-87620598D01*
X211947203Y-88112147D01*
X211972505Y-88239352D01*
X211979618Y-88262801D01*
X211991169Y-88284411D01*
X212006714Y-88303353D01*
X212025656Y-88318899D01*
X212047267Y-88330450D01*
X212070715Y-88337563D01*
X212095102Y-88339965D01*
X212119488Y-88337563D01*
X212142937Y-88330450D01*
X212164547Y-88318899D01*
X212183489Y-88303354D01*
X212199035Y-88284412D01*
X212210586Y-88262801D01*
X212217699Y-88239352D01*
X212272012Y-87966304D01*
X212513310Y-87383760D01*
X212560960Y-87312447D01*
X212863621Y-86859482D01*
X213309482Y-86413621D01*
X213833758Y-86063311D01*
X214019418Y-85986408D01*
X214416304Y-85822012D01*
X215034728Y-85699000D01*
X215665272Y-85699000D01*
X216283696Y-85822012D01*
X216680582Y-85986408D01*
X216866242Y-86063311D01*
X217390518Y-86413621D01*
X217836379Y-86859482D01*
X218139041Y-87312447D01*
X218186690Y-87383760D01*
X218427988Y-87966304D01*
X218447016Y-88061963D01*
X218454129Y-88085412D01*
X218465680Y-88107023D01*
X218481225Y-88125965D01*
X218500167Y-88141510D01*
X218521778Y-88153061D01*
X218545227Y-88160174D01*
X218569613Y-88162576D01*
X218593999Y-88160174D01*
X218617448Y-88153061D01*
X218639059Y-88141510D01*
X218658001Y-88125965D01*
X218673546Y-88107023D01*
X218685097Y-88085412D01*
X218692210Y-88061963D01*
X218707221Y-87986499D01*
X218743149Y-87805874D01*
X219025907Y-87123235D01*
X219436408Y-86508877D01*
X219958877Y-85986408D01*
X220573235Y-85575907D01*
X221255874Y-85293149D01*
X221497436Y-85245099D01*
X221980557Y-85149000D01*
X222719443Y-85149000D01*
X223202564Y-85245099D01*
X223202564Y-85245099D01*
G37*
M02*
