G04 #@! TF.GenerationSoftware,KiCad,Pcbnew,(5.1.4)-1*
G04 #@! TF.CreationDate,2021-11-29T12:53:37-05:00*
G04 #@! TF.ProjectId,ruler,72756c65-722e-46b6-9963-61645f706362,0.1*
G04 #@! TF.SameCoordinates,Original*
G04 #@! TF.FileFunction,Soldermask,Top*
G04 #@! TF.FilePolarity,Negative*
%FSLAX46Y46*%
G04 Gerber Fmt 4.6, Leading zero omitted, Abs format (unit mm)*
G04 Created by KiCad (PCBNEW (5.1.4)-1) date 2021-11-29 12:53:37*
%MOMM*%
%LPD*%
G04 APERTURE LIST*
%ADD10C,0.100000*%
G04 APERTURE END LIST*
D10*
G36*
X215798400Y-107950000D02*
G01*
X216001600Y-107950000D01*
X216001600Y-105410000D01*
X215798400Y-105410000D01*
X215798400Y-107950000D01*
G37*
G36*
X218973400Y-107950000D02*
G01*
X219176600Y-107950000D01*
X219176600Y-105410000D01*
X218973400Y-105410000D01*
X218973400Y-107950000D01*
G37*
G36*
X222148400Y-107950000D02*
G01*
X222351600Y-107950000D01*
X222351600Y-105410000D01*
X222148400Y-105410000D01*
X222148400Y-107950000D01*
G37*
G36*
X225323400Y-107950000D02*
G01*
X225526600Y-107950000D01*
X225526600Y-105410000D01*
X225323400Y-105410000D01*
X225323400Y-107950000D01*
G37*
G36*
X212623400Y-107950000D02*
G01*
X212826600Y-107950000D01*
X212826600Y-105410000D01*
X212623400Y-105410000D01*
X212623400Y-107950000D01*
G37*
G36*
X209448400Y-107950000D02*
G01*
X209651600Y-107950000D01*
X209651600Y-105410000D01*
X209448400Y-105410000D01*
X209448400Y-107950000D01*
G37*
G36*
X206273400Y-107950000D02*
G01*
X206476600Y-107950000D01*
X206476600Y-105410000D01*
X206273400Y-105410000D01*
X206273400Y-107950000D01*
G37*
G36*
X204685900Y-107950000D02*
G01*
X204889100Y-107950000D01*
X204889100Y-106362500D01*
X204685900Y-106362500D01*
X204685900Y-107950000D01*
G37*
G36*
X207860900Y-107950000D02*
G01*
X208064100Y-107950000D01*
X208064100Y-106362500D01*
X207860900Y-106362500D01*
X207860900Y-107950000D01*
G37*
G36*
X211035900Y-107950000D02*
G01*
X211239100Y-107950000D01*
X211239100Y-106362500D01*
X211035900Y-106362500D01*
X211035900Y-107950000D01*
G37*
G36*
X214210900Y-107950000D02*
G01*
X214414100Y-107950000D01*
X214414100Y-106362500D01*
X214210900Y-106362500D01*
X214210900Y-107950000D01*
G37*
G36*
X217385900Y-107950000D02*
G01*
X217589100Y-107950000D01*
X217589100Y-106362500D01*
X217385900Y-106362500D01*
X217385900Y-107950000D01*
G37*
G36*
X220560900Y-107950000D02*
G01*
X220764100Y-107950000D01*
X220764100Y-106362500D01*
X220560900Y-106362500D01*
X220560900Y-107950000D01*
G37*
G36*
X223735900Y-107950000D02*
G01*
X223939100Y-107950000D01*
X223939100Y-106362500D01*
X223735900Y-106362500D01*
X223735900Y-107950000D01*
G37*
G36*
X226910900Y-107950000D02*
G01*
X227114100Y-107950000D01*
X227114100Y-106362500D01*
X226910900Y-106362500D01*
X226910900Y-107950000D01*
G37*
G36*
X203892150Y-107950000D02*
G01*
X204095350Y-107950000D01*
X204095350Y-107156250D01*
X203892150Y-107156250D01*
X203892150Y-107950000D01*
G37*
G36*
X205479650Y-107950000D02*
G01*
X205682850Y-107950000D01*
X205682850Y-107156250D01*
X205479650Y-107156250D01*
X205479650Y-107950000D01*
G37*
G36*
X207067150Y-107950000D02*
G01*
X207270350Y-107950000D01*
X207270350Y-107156250D01*
X207067150Y-107156250D01*
X207067150Y-107950000D01*
G37*
G36*
X208654650Y-107950000D02*
G01*
X208857850Y-107950000D01*
X208857850Y-107156250D01*
X208654650Y-107156250D01*
X208654650Y-107950000D01*
G37*
G36*
X210242150Y-107950000D02*
G01*
X210445350Y-107950000D01*
X210445350Y-107156250D01*
X210242150Y-107156250D01*
X210242150Y-107950000D01*
G37*
G36*
X211829650Y-107950000D02*
G01*
X212032850Y-107950000D01*
X212032850Y-107156250D01*
X211829650Y-107156250D01*
X211829650Y-107950000D01*
G37*
G36*
X213417150Y-107950000D02*
G01*
X213620350Y-107950000D01*
X213620350Y-107156250D01*
X213417150Y-107156250D01*
X213417150Y-107950000D01*
G37*
G36*
X215004650Y-107950000D02*
G01*
X215207850Y-107950000D01*
X215207850Y-107156250D01*
X215004650Y-107156250D01*
X215004650Y-107950000D01*
G37*
G36*
X216592150Y-107950000D02*
G01*
X216795350Y-107950000D01*
X216795350Y-107156250D01*
X216592150Y-107156250D01*
X216592150Y-107950000D01*
G37*
G36*
X218179650Y-107950000D02*
G01*
X218382850Y-107950000D01*
X218382850Y-107156250D01*
X218179650Y-107156250D01*
X218179650Y-107950000D01*
G37*
G36*
X219767150Y-107950000D02*
G01*
X219970350Y-107950000D01*
X219970350Y-107156250D01*
X219767150Y-107156250D01*
X219767150Y-107950000D01*
G37*
G36*
X221354650Y-107950000D02*
G01*
X221557850Y-107950000D01*
X221557850Y-107156250D01*
X221354650Y-107156250D01*
X221354650Y-107950000D01*
G37*
G36*
X222942150Y-107950000D02*
G01*
X223145350Y-107950000D01*
X223145350Y-107156250D01*
X222942150Y-107156250D01*
X222942150Y-107950000D01*
G37*
G36*
X224529650Y-107950000D02*
G01*
X224732850Y-107950000D01*
X224732850Y-107156250D01*
X224529650Y-107156250D01*
X224529650Y-107950000D01*
G37*
G36*
X226117150Y-107950000D02*
G01*
X226320350Y-107950000D01*
X226320350Y-107156250D01*
X226117150Y-107156250D01*
X226117150Y-107950000D01*
G37*
G36*
X227704650Y-107950000D02*
G01*
X227907850Y-107950000D01*
X227907850Y-107156250D01*
X227704650Y-107156250D01*
X227704650Y-107950000D01*
G37*
G36*
X203047600Y-107950000D02*
G01*
X203352400Y-107950000D01*
X203352400Y-104140000D01*
X203047600Y-104140000D01*
X203047600Y-107950000D01*
G37*
G36*
X177647600Y-107950000D02*
G01*
X177952400Y-107950000D01*
X177952400Y-104140000D01*
X177647600Y-104140000D01*
X177647600Y-107950000D01*
G37*
G36*
X190398400Y-107950000D02*
G01*
X190601600Y-107950000D01*
X190601600Y-105410000D01*
X190398400Y-105410000D01*
X190398400Y-107950000D01*
G37*
G36*
X193573400Y-107950000D02*
G01*
X193776600Y-107950000D01*
X193776600Y-105410000D01*
X193573400Y-105410000D01*
X193573400Y-107950000D01*
G37*
G36*
X196748400Y-107950000D02*
G01*
X196951600Y-107950000D01*
X196951600Y-105410000D01*
X196748400Y-105410000D01*
X196748400Y-107950000D01*
G37*
G36*
X199923400Y-107950000D02*
G01*
X200126600Y-107950000D01*
X200126600Y-105410000D01*
X199923400Y-105410000D01*
X199923400Y-107950000D01*
G37*
G36*
X187223400Y-107950000D02*
G01*
X187426600Y-107950000D01*
X187426600Y-105410000D01*
X187223400Y-105410000D01*
X187223400Y-107950000D01*
G37*
G36*
X184048400Y-107950000D02*
G01*
X184251600Y-107950000D01*
X184251600Y-105410000D01*
X184048400Y-105410000D01*
X184048400Y-107950000D01*
G37*
G36*
X180873400Y-107950000D02*
G01*
X181076600Y-107950000D01*
X181076600Y-105410000D01*
X180873400Y-105410000D01*
X180873400Y-107950000D01*
G37*
G36*
X179285900Y-107950000D02*
G01*
X179489100Y-107950000D01*
X179489100Y-106362500D01*
X179285900Y-106362500D01*
X179285900Y-107950000D01*
G37*
G36*
X182460900Y-107950000D02*
G01*
X182664100Y-107950000D01*
X182664100Y-106362500D01*
X182460900Y-106362500D01*
X182460900Y-107950000D01*
G37*
G36*
X185635900Y-107950000D02*
G01*
X185839100Y-107950000D01*
X185839100Y-106362500D01*
X185635900Y-106362500D01*
X185635900Y-107950000D01*
G37*
G36*
X188810900Y-107950000D02*
G01*
X189014100Y-107950000D01*
X189014100Y-106362500D01*
X188810900Y-106362500D01*
X188810900Y-107950000D01*
G37*
G36*
X191985900Y-107950000D02*
G01*
X192189100Y-107950000D01*
X192189100Y-106362500D01*
X191985900Y-106362500D01*
X191985900Y-107950000D01*
G37*
G36*
X195160900Y-107950000D02*
G01*
X195364100Y-107950000D01*
X195364100Y-106362500D01*
X195160900Y-106362500D01*
X195160900Y-107950000D01*
G37*
G36*
X198335900Y-107950000D02*
G01*
X198539100Y-107950000D01*
X198539100Y-106362500D01*
X198335900Y-106362500D01*
X198335900Y-107950000D01*
G37*
G36*
X201510900Y-107950000D02*
G01*
X201714100Y-107950000D01*
X201714100Y-106362500D01*
X201510900Y-106362500D01*
X201510900Y-107950000D01*
G37*
G36*
X178492150Y-107950000D02*
G01*
X178695350Y-107950000D01*
X178695350Y-107156250D01*
X178492150Y-107156250D01*
X178492150Y-107950000D01*
G37*
G36*
X180079650Y-107950000D02*
G01*
X180282850Y-107950000D01*
X180282850Y-107156250D01*
X180079650Y-107156250D01*
X180079650Y-107950000D01*
G37*
G36*
X181667150Y-107950000D02*
G01*
X181870350Y-107950000D01*
X181870350Y-107156250D01*
X181667150Y-107156250D01*
X181667150Y-107950000D01*
G37*
G36*
X183254650Y-107950000D02*
G01*
X183457850Y-107950000D01*
X183457850Y-107156250D01*
X183254650Y-107156250D01*
X183254650Y-107950000D01*
G37*
G36*
X184842150Y-107950000D02*
G01*
X185045350Y-107950000D01*
X185045350Y-107156250D01*
X184842150Y-107156250D01*
X184842150Y-107950000D01*
G37*
G36*
X186429650Y-107950000D02*
G01*
X186632850Y-107950000D01*
X186632850Y-107156250D01*
X186429650Y-107156250D01*
X186429650Y-107950000D01*
G37*
G36*
X188017150Y-107950000D02*
G01*
X188220350Y-107950000D01*
X188220350Y-107156250D01*
X188017150Y-107156250D01*
X188017150Y-107950000D01*
G37*
G36*
X189604650Y-107950000D02*
G01*
X189807850Y-107950000D01*
X189807850Y-107156250D01*
X189604650Y-107156250D01*
X189604650Y-107950000D01*
G37*
G36*
X191192150Y-107950000D02*
G01*
X191395350Y-107950000D01*
X191395350Y-107156250D01*
X191192150Y-107156250D01*
X191192150Y-107950000D01*
G37*
G36*
X192779650Y-107950000D02*
G01*
X192982850Y-107950000D01*
X192982850Y-107156250D01*
X192779650Y-107156250D01*
X192779650Y-107950000D01*
G37*
G36*
X194367150Y-107950000D02*
G01*
X194570350Y-107950000D01*
X194570350Y-107156250D01*
X194367150Y-107156250D01*
X194367150Y-107950000D01*
G37*
G36*
X195954650Y-107950000D02*
G01*
X196157850Y-107950000D01*
X196157850Y-107156250D01*
X195954650Y-107156250D01*
X195954650Y-107950000D01*
G37*
G36*
X197542150Y-107950000D02*
G01*
X197745350Y-107950000D01*
X197745350Y-107156250D01*
X197542150Y-107156250D01*
X197542150Y-107950000D01*
G37*
G36*
X199129650Y-107950000D02*
G01*
X199332850Y-107950000D01*
X199332850Y-107156250D01*
X199129650Y-107156250D01*
X199129650Y-107950000D01*
G37*
G36*
X200717150Y-107950000D02*
G01*
X200920350Y-107950000D01*
X200920350Y-107156250D01*
X200717150Y-107156250D01*
X200717150Y-107950000D01*
G37*
G36*
X202304650Y-107950000D02*
G01*
X202507850Y-107950000D01*
X202507850Y-107156250D01*
X202304650Y-107156250D01*
X202304650Y-107950000D01*
G37*
G36*
X177647600Y-107950000D02*
G01*
X177952400Y-107950000D01*
X177952400Y-104140000D01*
X177647600Y-104140000D01*
X177647600Y-107950000D01*
G37*
G36*
X152247600Y-107950000D02*
G01*
X152552400Y-107950000D01*
X152552400Y-104140000D01*
X152247600Y-104140000D01*
X152247600Y-107950000D01*
G37*
G36*
X164998400Y-107950000D02*
G01*
X165201600Y-107950000D01*
X165201600Y-105410000D01*
X164998400Y-105410000D01*
X164998400Y-107950000D01*
G37*
G36*
X168173400Y-107950000D02*
G01*
X168376600Y-107950000D01*
X168376600Y-105410000D01*
X168173400Y-105410000D01*
X168173400Y-107950000D01*
G37*
G36*
X171348400Y-107950000D02*
G01*
X171551600Y-107950000D01*
X171551600Y-105410000D01*
X171348400Y-105410000D01*
X171348400Y-107950000D01*
G37*
G36*
X174523400Y-107950000D02*
G01*
X174726600Y-107950000D01*
X174726600Y-105410000D01*
X174523400Y-105410000D01*
X174523400Y-107950000D01*
G37*
G36*
X161823400Y-107950000D02*
G01*
X162026600Y-107950000D01*
X162026600Y-105410000D01*
X161823400Y-105410000D01*
X161823400Y-107950000D01*
G37*
G36*
X158648400Y-107950000D02*
G01*
X158851600Y-107950000D01*
X158851600Y-105410000D01*
X158648400Y-105410000D01*
X158648400Y-107950000D01*
G37*
G36*
X155473400Y-107950000D02*
G01*
X155676600Y-107950000D01*
X155676600Y-105410000D01*
X155473400Y-105410000D01*
X155473400Y-107950000D01*
G37*
G36*
X153885900Y-107950000D02*
G01*
X154089100Y-107950000D01*
X154089100Y-106362500D01*
X153885900Y-106362500D01*
X153885900Y-107950000D01*
G37*
G36*
X157060900Y-107950000D02*
G01*
X157264100Y-107950000D01*
X157264100Y-106362500D01*
X157060900Y-106362500D01*
X157060900Y-107950000D01*
G37*
G36*
X160235900Y-107950000D02*
G01*
X160439100Y-107950000D01*
X160439100Y-106362500D01*
X160235900Y-106362500D01*
X160235900Y-107950000D01*
G37*
G36*
X163410900Y-107950000D02*
G01*
X163614100Y-107950000D01*
X163614100Y-106362500D01*
X163410900Y-106362500D01*
X163410900Y-107950000D01*
G37*
G36*
X166585900Y-107950000D02*
G01*
X166789100Y-107950000D01*
X166789100Y-106362500D01*
X166585900Y-106362500D01*
X166585900Y-107950000D01*
G37*
G36*
X169760900Y-107950000D02*
G01*
X169964100Y-107950000D01*
X169964100Y-106362500D01*
X169760900Y-106362500D01*
X169760900Y-107950000D01*
G37*
G36*
X172935900Y-107950000D02*
G01*
X173139100Y-107950000D01*
X173139100Y-106362500D01*
X172935900Y-106362500D01*
X172935900Y-107950000D01*
G37*
G36*
X176110900Y-107950000D02*
G01*
X176314100Y-107950000D01*
X176314100Y-106362500D01*
X176110900Y-106362500D01*
X176110900Y-107950000D01*
G37*
G36*
X153092150Y-107950000D02*
G01*
X153295350Y-107950000D01*
X153295350Y-107156250D01*
X153092150Y-107156250D01*
X153092150Y-107950000D01*
G37*
G36*
X154679650Y-107950000D02*
G01*
X154882850Y-107950000D01*
X154882850Y-107156250D01*
X154679650Y-107156250D01*
X154679650Y-107950000D01*
G37*
G36*
X156267150Y-107950000D02*
G01*
X156470350Y-107950000D01*
X156470350Y-107156250D01*
X156267150Y-107156250D01*
X156267150Y-107950000D01*
G37*
G36*
X157854650Y-107950000D02*
G01*
X158057850Y-107950000D01*
X158057850Y-107156250D01*
X157854650Y-107156250D01*
X157854650Y-107950000D01*
G37*
G36*
X159442150Y-107950000D02*
G01*
X159645350Y-107950000D01*
X159645350Y-107156250D01*
X159442150Y-107156250D01*
X159442150Y-107950000D01*
G37*
G36*
X161029650Y-107950000D02*
G01*
X161232850Y-107950000D01*
X161232850Y-107156250D01*
X161029650Y-107156250D01*
X161029650Y-107950000D01*
G37*
G36*
X162617150Y-107950000D02*
G01*
X162820350Y-107950000D01*
X162820350Y-107156250D01*
X162617150Y-107156250D01*
X162617150Y-107950000D01*
G37*
G36*
X164204650Y-107950000D02*
G01*
X164407850Y-107950000D01*
X164407850Y-107156250D01*
X164204650Y-107156250D01*
X164204650Y-107950000D01*
G37*
G36*
X165792150Y-107950000D02*
G01*
X165995350Y-107950000D01*
X165995350Y-107156250D01*
X165792150Y-107156250D01*
X165792150Y-107950000D01*
G37*
G36*
X167379650Y-107950000D02*
G01*
X167582850Y-107950000D01*
X167582850Y-107156250D01*
X167379650Y-107156250D01*
X167379650Y-107950000D01*
G37*
G36*
X168967150Y-107950000D02*
G01*
X169170350Y-107950000D01*
X169170350Y-107156250D01*
X168967150Y-107156250D01*
X168967150Y-107950000D01*
G37*
G36*
X170554650Y-107950000D02*
G01*
X170757850Y-107950000D01*
X170757850Y-107156250D01*
X170554650Y-107156250D01*
X170554650Y-107950000D01*
G37*
G36*
X172142150Y-107950000D02*
G01*
X172345350Y-107950000D01*
X172345350Y-107156250D01*
X172142150Y-107156250D01*
X172142150Y-107950000D01*
G37*
G36*
X173729650Y-107950000D02*
G01*
X173932850Y-107950000D01*
X173932850Y-107156250D01*
X173729650Y-107156250D01*
X173729650Y-107950000D01*
G37*
G36*
X175317150Y-107950000D02*
G01*
X175520350Y-107950000D01*
X175520350Y-107156250D01*
X175317150Y-107156250D01*
X175317150Y-107950000D01*
G37*
G36*
X176904650Y-107950000D02*
G01*
X177107850Y-107950000D01*
X177107850Y-107156250D01*
X176904650Y-107156250D01*
X176904650Y-107950000D01*
G37*
G36*
X152247600Y-107950000D02*
G01*
X152552400Y-107950000D01*
X152552400Y-104140000D01*
X152247600Y-104140000D01*
X152247600Y-107950000D01*
G37*
G36*
X126847600Y-107950000D02*
G01*
X127152400Y-107950000D01*
X127152400Y-104140000D01*
X126847600Y-104140000D01*
X126847600Y-107950000D01*
G37*
G36*
X139598400Y-107950000D02*
G01*
X139801600Y-107950000D01*
X139801600Y-105410000D01*
X139598400Y-105410000D01*
X139598400Y-107950000D01*
G37*
G36*
X142773400Y-107950000D02*
G01*
X142976600Y-107950000D01*
X142976600Y-105410000D01*
X142773400Y-105410000D01*
X142773400Y-107950000D01*
G37*
G36*
X145948400Y-107950000D02*
G01*
X146151600Y-107950000D01*
X146151600Y-105410000D01*
X145948400Y-105410000D01*
X145948400Y-107950000D01*
G37*
G36*
X149123400Y-107950000D02*
G01*
X149326600Y-107950000D01*
X149326600Y-105410000D01*
X149123400Y-105410000D01*
X149123400Y-107950000D01*
G37*
G36*
X136423400Y-107950000D02*
G01*
X136626600Y-107950000D01*
X136626600Y-105410000D01*
X136423400Y-105410000D01*
X136423400Y-107950000D01*
G37*
G36*
X133248400Y-107950000D02*
G01*
X133451600Y-107950000D01*
X133451600Y-105410000D01*
X133248400Y-105410000D01*
X133248400Y-107950000D01*
G37*
G36*
X130073400Y-107950000D02*
G01*
X130276600Y-107950000D01*
X130276600Y-105410000D01*
X130073400Y-105410000D01*
X130073400Y-107950000D01*
G37*
G36*
X128485900Y-107950000D02*
G01*
X128689100Y-107950000D01*
X128689100Y-106362500D01*
X128485900Y-106362500D01*
X128485900Y-107950000D01*
G37*
G36*
X131660900Y-107950000D02*
G01*
X131864100Y-107950000D01*
X131864100Y-106362500D01*
X131660900Y-106362500D01*
X131660900Y-107950000D01*
G37*
G36*
X134835900Y-107950000D02*
G01*
X135039100Y-107950000D01*
X135039100Y-106362500D01*
X134835900Y-106362500D01*
X134835900Y-107950000D01*
G37*
G36*
X138010900Y-107950000D02*
G01*
X138214100Y-107950000D01*
X138214100Y-106362500D01*
X138010900Y-106362500D01*
X138010900Y-107950000D01*
G37*
G36*
X141185900Y-107950000D02*
G01*
X141389100Y-107950000D01*
X141389100Y-106362500D01*
X141185900Y-106362500D01*
X141185900Y-107950000D01*
G37*
G36*
X144360900Y-107950000D02*
G01*
X144564100Y-107950000D01*
X144564100Y-106362500D01*
X144360900Y-106362500D01*
X144360900Y-107950000D01*
G37*
G36*
X147535900Y-107950000D02*
G01*
X147739100Y-107950000D01*
X147739100Y-106362500D01*
X147535900Y-106362500D01*
X147535900Y-107950000D01*
G37*
G36*
X150710900Y-107950000D02*
G01*
X150914100Y-107950000D01*
X150914100Y-106362500D01*
X150710900Y-106362500D01*
X150710900Y-107950000D01*
G37*
G36*
X127692150Y-107950000D02*
G01*
X127895350Y-107950000D01*
X127895350Y-107156250D01*
X127692150Y-107156250D01*
X127692150Y-107950000D01*
G37*
G36*
X129279650Y-107950000D02*
G01*
X129482850Y-107950000D01*
X129482850Y-107156250D01*
X129279650Y-107156250D01*
X129279650Y-107950000D01*
G37*
G36*
X130867150Y-107950000D02*
G01*
X131070350Y-107950000D01*
X131070350Y-107156250D01*
X130867150Y-107156250D01*
X130867150Y-107950000D01*
G37*
G36*
X132454650Y-107950000D02*
G01*
X132657850Y-107950000D01*
X132657850Y-107156250D01*
X132454650Y-107156250D01*
X132454650Y-107950000D01*
G37*
G36*
X134042150Y-107950000D02*
G01*
X134245350Y-107950000D01*
X134245350Y-107156250D01*
X134042150Y-107156250D01*
X134042150Y-107950000D01*
G37*
G36*
X135629650Y-107950000D02*
G01*
X135832850Y-107950000D01*
X135832850Y-107156250D01*
X135629650Y-107156250D01*
X135629650Y-107950000D01*
G37*
G36*
X137217150Y-107950000D02*
G01*
X137420350Y-107950000D01*
X137420350Y-107156250D01*
X137217150Y-107156250D01*
X137217150Y-107950000D01*
G37*
G36*
X138804650Y-107950000D02*
G01*
X139007850Y-107950000D01*
X139007850Y-107156250D01*
X138804650Y-107156250D01*
X138804650Y-107950000D01*
G37*
G36*
X140392150Y-107950000D02*
G01*
X140595350Y-107950000D01*
X140595350Y-107156250D01*
X140392150Y-107156250D01*
X140392150Y-107950000D01*
G37*
G36*
X141979650Y-107950000D02*
G01*
X142182850Y-107950000D01*
X142182850Y-107156250D01*
X141979650Y-107156250D01*
X141979650Y-107950000D01*
G37*
G36*
X143567150Y-107950000D02*
G01*
X143770350Y-107950000D01*
X143770350Y-107156250D01*
X143567150Y-107156250D01*
X143567150Y-107950000D01*
G37*
G36*
X145154650Y-107950000D02*
G01*
X145357850Y-107950000D01*
X145357850Y-107156250D01*
X145154650Y-107156250D01*
X145154650Y-107950000D01*
G37*
G36*
X146742150Y-107950000D02*
G01*
X146945350Y-107950000D01*
X146945350Y-107156250D01*
X146742150Y-107156250D01*
X146742150Y-107950000D01*
G37*
G36*
X148329650Y-107950000D02*
G01*
X148532850Y-107950000D01*
X148532850Y-107156250D01*
X148329650Y-107156250D01*
X148329650Y-107950000D01*
G37*
G36*
X149917150Y-107950000D02*
G01*
X150120350Y-107950000D01*
X150120350Y-107156250D01*
X149917150Y-107156250D01*
X149917150Y-107950000D01*
G37*
G36*
X151504650Y-107950000D02*
G01*
X151707850Y-107950000D01*
X151707850Y-107156250D01*
X151504650Y-107156250D01*
X151504650Y-107950000D01*
G37*
G36*
X100704650Y-107950000D02*
G01*
X100907850Y-107950000D01*
X100907850Y-107156250D01*
X100704650Y-107156250D01*
X100704650Y-107950000D01*
G37*
G36*
X99117150Y-107950000D02*
G01*
X99320350Y-107950000D01*
X99320350Y-107156250D01*
X99117150Y-107156250D01*
X99117150Y-107950000D01*
G37*
G36*
X97529650Y-107950000D02*
G01*
X97732850Y-107950000D01*
X97732850Y-107156250D01*
X97529650Y-107156250D01*
X97529650Y-107950000D01*
G37*
G36*
X95942150Y-107950000D02*
G01*
X96145350Y-107950000D01*
X96145350Y-107156250D01*
X95942150Y-107156250D01*
X95942150Y-107950000D01*
G37*
G36*
X94354650Y-107950000D02*
G01*
X94557850Y-107950000D01*
X94557850Y-107156250D01*
X94354650Y-107156250D01*
X94354650Y-107950000D01*
G37*
G36*
X92767150Y-107950000D02*
G01*
X92970350Y-107950000D01*
X92970350Y-107156250D01*
X92767150Y-107156250D01*
X92767150Y-107950000D01*
G37*
G36*
X91179650Y-107950000D02*
G01*
X91382850Y-107950000D01*
X91382850Y-107156250D01*
X91179650Y-107156250D01*
X91179650Y-107950000D01*
G37*
G36*
X89592150Y-107950000D02*
G01*
X89795350Y-107950000D01*
X89795350Y-107156250D01*
X89592150Y-107156250D01*
X89592150Y-107950000D01*
G37*
G36*
X88004650Y-107950000D02*
G01*
X88207850Y-107950000D01*
X88207850Y-107156250D01*
X88004650Y-107156250D01*
X88004650Y-107950000D01*
G37*
G36*
X86417150Y-107950000D02*
G01*
X86620350Y-107950000D01*
X86620350Y-107156250D01*
X86417150Y-107156250D01*
X86417150Y-107950000D01*
G37*
G36*
X84829650Y-107950000D02*
G01*
X85032850Y-107950000D01*
X85032850Y-107156250D01*
X84829650Y-107156250D01*
X84829650Y-107950000D01*
G37*
G36*
X83242150Y-107950000D02*
G01*
X83445350Y-107950000D01*
X83445350Y-107156250D01*
X83242150Y-107156250D01*
X83242150Y-107950000D01*
G37*
G36*
X81654650Y-107950000D02*
G01*
X81857850Y-107950000D01*
X81857850Y-107156250D01*
X81654650Y-107156250D01*
X81654650Y-107950000D01*
G37*
G36*
X80067150Y-107950000D02*
G01*
X80270350Y-107950000D01*
X80270350Y-107156250D01*
X80067150Y-107156250D01*
X80067150Y-107950000D01*
G37*
G36*
X78479650Y-107950000D02*
G01*
X78682850Y-107950000D01*
X78682850Y-107156250D01*
X78479650Y-107156250D01*
X78479650Y-107950000D01*
G37*
G36*
X76892150Y-107950000D02*
G01*
X77095350Y-107950000D01*
X77095350Y-107156250D01*
X76892150Y-107156250D01*
X76892150Y-107950000D01*
G37*
G36*
X99910900Y-107950000D02*
G01*
X100114100Y-107950000D01*
X100114100Y-106362500D01*
X99910900Y-106362500D01*
X99910900Y-107950000D01*
G37*
G36*
X96735900Y-107950000D02*
G01*
X96939100Y-107950000D01*
X96939100Y-106362500D01*
X96735900Y-106362500D01*
X96735900Y-107950000D01*
G37*
G36*
X93560900Y-107950000D02*
G01*
X93764100Y-107950000D01*
X93764100Y-106362500D01*
X93560900Y-106362500D01*
X93560900Y-107950000D01*
G37*
G36*
X90385900Y-107950000D02*
G01*
X90589100Y-107950000D01*
X90589100Y-106362500D01*
X90385900Y-106362500D01*
X90385900Y-107950000D01*
G37*
G36*
X87210900Y-107950000D02*
G01*
X87414100Y-107950000D01*
X87414100Y-106362500D01*
X87210900Y-106362500D01*
X87210900Y-107950000D01*
G37*
G36*
X84035900Y-107950000D02*
G01*
X84239100Y-107950000D01*
X84239100Y-106362500D01*
X84035900Y-106362500D01*
X84035900Y-107950000D01*
G37*
G36*
X80860900Y-107950000D02*
G01*
X81064100Y-107950000D01*
X81064100Y-106362500D01*
X80860900Y-106362500D01*
X80860900Y-107950000D01*
G37*
G36*
X77685900Y-107950000D02*
G01*
X77889100Y-107950000D01*
X77889100Y-106362500D01*
X77685900Y-106362500D01*
X77685900Y-107950000D01*
G37*
G36*
X79273400Y-107950000D02*
G01*
X79476600Y-107950000D01*
X79476600Y-105410000D01*
X79273400Y-105410000D01*
X79273400Y-107950000D01*
G37*
G36*
X82448400Y-107950000D02*
G01*
X82651600Y-107950000D01*
X82651600Y-105410000D01*
X82448400Y-105410000D01*
X82448400Y-107950000D01*
G37*
G36*
X85623400Y-107950000D02*
G01*
X85826600Y-107950000D01*
X85826600Y-105410000D01*
X85623400Y-105410000D01*
X85623400Y-107950000D01*
G37*
G36*
X98323400Y-107950000D02*
G01*
X98526600Y-107950000D01*
X98526600Y-105410000D01*
X98323400Y-105410000D01*
X98323400Y-107950000D01*
G37*
G36*
X95148400Y-107950000D02*
G01*
X95351600Y-107950000D01*
X95351600Y-105410000D01*
X95148400Y-105410000D01*
X95148400Y-107950000D01*
G37*
G36*
X91973400Y-107950000D02*
G01*
X92176600Y-107950000D01*
X92176600Y-105410000D01*
X91973400Y-105410000D01*
X91973400Y-107950000D01*
G37*
G36*
X88798400Y-107950000D02*
G01*
X89001600Y-107950000D01*
X89001600Y-105410000D01*
X88798400Y-105410000D01*
X88798400Y-107950000D01*
G37*
G36*
X126104650Y-107950000D02*
G01*
X126307850Y-107950000D01*
X126307850Y-107156250D01*
X126104650Y-107156250D01*
X126104650Y-107950000D01*
G37*
G36*
X124517150Y-107950000D02*
G01*
X124720350Y-107950000D01*
X124720350Y-107156250D01*
X124517150Y-107156250D01*
X124517150Y-107950000D01*
G37*
G36*
X122929650Y-107950000D02*
G01*
X123132850Y-107950000D01*
X123132850Y-107156250D01*
X122929650Y-107156250D01*
X122929650Y-107950000D01*
G37*
G36*
X121342150Y-107950000D02*
G01*
X121545350Y-107950000D01*
X121545350Y-107156250D01*
X121342150Y-107156250D01*
X121342150Y-107950000D01*
G37*
G36*
X119754650Y-107950000D02*
G01*
X119957850Y-107950000D01*
X119957850Y-107156250D01*
X119754650Y-107156250D01*
X119754650Y-107950000D01*
G37*
G36*
X118167150Y-107950000D02*
G01*
X118370350Y-107950000D01*
X118370350Y-107156250D01*
X118167150Y-107156250D01*
X118167150Y-107950000D01*
G37*
G36*
X116579650Y-107950000D02*
G01*
X116782850Y-107950000D01*
X116782850Y-107156250D01*
X116579650Y-107156250D01*
X116579650Y-107950000D01*
G37*
G36*
X114992150Y-107950000D02*
G01*
X115195350Y-107950000D01*
X115195350Y-107156250D01*
X114992150Y-107156250D01*
X114992150Y-107950000D01*
G37*
G36*
X113404650Y-107950000D02*
G01*
X113607850Y-107950000D01*
X113607850Y-107156250D01*
X113404650Y-107156250D01*
X113404650Y-107950000D01*
G37*
G36*
X111817150Y-107950000D02*
G01*
X112020350Y-107950000D01*
X112020350Y-107156250D01*
X111817150Y-107156250D01*
X111817150Y-107950000D01*
G37*
G36*
X110229650Y-107950000D02*
G01*
X110432850Y-107950000D01*
X110432850Y-107156250D01*
X110229650Y-107156250D01*
X110229650Y-107950000D01*
G37*
G36*
X108642150Y-107950000D02*
G01*
X108845350Y-107950000D01*
X108845350Y-107156250D01*
X108642150Y-107156250D01*
X108642150Y-107950000D01*
G37*
G36*
X107054650Y-107950000D02*
G01*
X107257850Y-107950000D01*
X107257850Y-107156250D01*
X107054650Y-107156250D01*
X107054650Y-107950000D01*
G37*
G36*
X105467150Y-107950000D02*
G01*
X105670350Y-107950000D01*
X105670350Y-107156250D01*
X105467150Y-107156250D01*
X105467150Y-107950000D01*
G37*
G36*
X103879650Y-107950000D02*
G01*
X104082850Y-107950000D01*
X104082850Y-107156250D01*
X103879650Y-107156250D01*
X103879650Y-107950000D01*
G37*
G36*
X102292150Y-107950000D02*
G01*
X102495350Y-107950000D01*
X102495350Y-107156250D01*
X102292150Y-107156250D01*
X102292150Y-107950000D01*
G37*
G36*
X125310900Y-107950000D02*
G01*
X125514100Y-107950000D01*
X125514100Y-106362500D01*
X125310900Y-106362500D01*
X125310900Y-107950000D01*
G37*
G36*
X122135900Y-107950000D02*
G01*
X122339100Y-107950000D01*
X122339100Y-106362500D01*
X122135900Y-106362500D01*
X122135900Y-107950000D01*
G37*
G36*
X118960900Y-107950000D02*
G01*
X119164100Y-107950000D01*
X119164100Y-106362500D01*
X118960900Y-106362500D01*
X118960900Y-107950000D01*
G37*
G36*
X115785900Y-107950000D02*
G01*
X115989100Y-107950000D01*
X115989100Y-106362500D01*
X115785900Y-106362500D01*
X115785900Y-107950000D01*
G37*
G36*
X112610900Y-107950000D02*
G01*
X112814100Y-107950000D01*
X112814100Y-106362500D01*
X112610900Y-106362500D01*
X112610900Y-107950000D01*
G37*
G36*
X109435900Y-107950000D02*
G01*
X109639100Y-107950000D01*
X109639100Y-106362500D01*
X109435900Y-106362500D01*
X109435900Y-107950000D01*
G37*
G36*
X106260900Y-107950000D02*
G01*
X106464100Y-107950000D01*
X106464100Y-106362500D01*
X106260900Y-106362500D01*
X106260900Y-107950000D01*
G37*
G36*
X103085900Y-107950000D02*
G01*
X103289100Y-107950000D01*
X103289100Y-106362500D01*
X103085900Y-106362500D01*
X103085900Y-107950000D01*
G37*
G36*
X104673400Y-107950000D02*
G01*
X104876600Y-107950000D01*
X104876600Y-105410000D01*
X104673400Y-105410000D01*
X104673400Y-107950000D01*
G37*
G36*
X107848400Y-107950000D02*
G01*
X108051600Y-107950000D01*
X108051600Y-105410000D01*
X107848400Y-105410000D01*
X107848400Y-107950000D01*
G37*
G36*
X111023400Y-107950000D02*
G01*
X111226600Y-107950000D01*
X111226600Y-105410000D01*
X111023400Y-105410000D01*
X111023400Y-107950000D01*
G37*
G36*
X123723400Y-107950000D02*
G01*
X123926600Y-107950000D01*
X123926600Y-105410000D01*
X123723400Y-105410000D01*
X123723400Y-107950000D01*
G37*
G36*
X120548400Y-107950000D02*
G01*
X120751600Y-107950000D01*
X120751600Y-105410000D01*
X120548400Y-105410000D01*
X120548400Y-107950000D01*
G37*
G36*
X117373400Y-107950000D02*
G01*
X117576600Y-107950000D01*
X117576600Y-105410000D01*
X117373400Y-105410000D01*
X117373400Y-107950000D01*
G37*
G36*
X114198400Y-107950000D02*
G01*
X114401600Y-107950000D01*
X114401600Y-105410000D01*
X114198400Y-105410000D01*
X114198400Y-107950000D01*
G37*
G36*
X101447600Y-107950000D02*
G01*
X101752400Y-107950000D01*
X101752400Y-104140000D01*
X101447600Y-104140000D01*
X101447600Y-107950000D01*
G37*
G36*
X126847600Y-107950000D02*
G01*
X127152400Y-107950000D01*
X127152400Y-104140000D01*
X126847600Y-104140000D01*
X126847600Y-107950000D01*
G37*
G36*
X226161600Y-76200000D02*
G01*
X225958400Y-76200000D01*
X225958400Y-78740000D01*
X226161600Y-78740000D01*
X226161600Y-76200000D01*
G37*
G36*
X223621600Y-76200000D02*
G01*
X223418400Y-76200000D01*
X223418400Y-78740000D01*
X223621600Y-78740000D01*
X223621600Y-76200000D01*
G37*
G36*
X221081600Y-76200000D02*
G01*
X220878400Y-76200000D01*
X220878400Y-78740000D01*
X221081600Y-78740000D01*
X221081600Y-76200000D01*
G37*
G36*
X218541600Y-76200000D02*
G01*
X218338400Y-76200000D01*
X218338400Y-78740000D01*
X218541600Y-78740000D01*
X218541600Y-76200000D01*
G37*
G36*
X216001600Y-76200000D02*
G01*
X215798400Y-76200000D01*
X215798400Y-78740000D01*
X216001600Y-78740000D01*
X216001600Y-76200000D01*
G37*
G36*
X213461600Y-76200000D02*
G01*
X213258400Y-76200000D01*
X213258400Y-78740000D01*
X213461600Y-78740000D01*
X213461600Y-76200000D01*
G37*
G36*
X210921600Y-76200000D02*
G01*
X210718400Y-76200000D01*
X210718400Y-78740000D01*
X210921600Y-78740000D01*
X210921600Y-76200000D01*
G37*
G36*
X208381600Y-76200000D02*
G01*
X208178400Y-76200000D01*
X208178400Y-78740000D01*
X208381600Y-78740000D01*
X208381600Y-76200000D01*
G37*
G36*
X205841600Y-76200000D02*
G01*
X205638400Y-76200000D01*
X205638400Y-78740000D01*
X205841600Y-78740000D01*
X205841600Y-76200000D01*
G37*
G36*
X227431600Y-76200000D02*
G01*
X227228400Y-76200000D01*
X227228400Y-77470000D01*
X227431600Y-77470000D01*
X227431600Y-76200000D01*
G37*
G36*
X224891600Y-76200000D02*
G01*
X224688400Y-76200000D01*
X224688400Y-77470000D01*
X224891600Y-77470000D01*
X224891600Y-76200000D01*
G37*
G36*
X222351600Y-76200000D02*
G01*
X222148400Y-76200000D01*
X222148400Y-77470000D01*
X222351600Y-77470000D01*
X222351600Y-76200000D01*
G37*
G36*
X219811600Y-76200000D02*
G01*
X219608400Y-76200000D01*
X219608400Y-77470000D01*
X219811600Y-77470000D01*
X219811600Y-76200000D01*
G37*
G36*
X217271600Y-76200000D02*
G01*
X217068400Y-76200000D01*
X217068400Y-77470000D01*
X217271600Y-77470000D01*
X217271600Y-76200000D01*
G37*
G36*
X214731600Y-76200000D02*
G01*
X214528400Y-76200000D01*
X214528400Y-77470000D01*
X214731600Y-77470000D01*
X214731600Y-76200000D01*
G37*
G36*
X212191600Y-76200000D02*
G01*
X211988400Y-76200000D01*
X211988400Y-77470000D01*
X212191600Y-77470000D01*
X212191600Y-76200000D01*
G37*
G36*
X209651600Y-76200000D02*
G01*
X209448400Y-76200000D01*
X209448400Y-77470000D01*
X209651600Y-77470000D01*
X209651600Y-76200000D01*
G37*
G36*
X207111600Y-76200000D02*
G01*
X206908400Y-76200000D01*
X206908400Y-77470000D01*
X207111600Y-77470000D01*
X207111600Y-76200000D01*
G37*
G36*
X204571600Y-76200000D02*
G01*
X204368400Y-76200000D01*
X204368400Y-77470000D01*
X204571600Y-77470000D01*
X204571600Y-76200000D01*
G37*
G36*
X177952400Y-76200000D02*
G01*
X177647600Y-76200000D01*
X177647600Y-80010000D01*
X177952400Y-80010000D01*
X177952400Y-76200000D01*
G37*
G36*
X203352400Y-76200000D02*
G01*
X203047600Y-76200000D01*
X203047600Y-80010000D01*
X203352400Y-80010000D01*
X203352400Y-76200000D01*
G37*
G36*
X200761600Y-76200000D02*
G01*
X200558400Y-76200000D01*
X200558400Y-78740000D01*
X200761600Y-78740000D01*
X200761600Y-76200000D01*
G37*
G36*
X198221600Y-76200000D02*
G01*
X198018400Y-76200000D01*
X198018400Y-78740000D01*
X198221600Y-78740000D01*
X198221600Y-76200000D01*
G37*
G36*
X195681600Y-76200000D02*
G01*
X195478400Y-76200000D01*
X195478400Y-78740000D01*
X195681600Y-78740000D01*
X195681600Y-76200000D01*
G37*
G36*
X193141600Y-76200000D02*
G01*
X192938400Y-76200000D01*
X192938400Y-78740000D01*
X193141600Y-78740000D01*
X193141600Y-76200000D01*
G37*
G36*
X190601600Y-76200000D02*
G01*
X190398400Y-76200000D01*
X190398400Y-78740000D01*
X190601600Y-78740000D01*
X190601600Y-76200000D01*
G37*
G36*
X188061600Y-76200000D02*
G01*
X187858400Y-76200000D01*
X187858400Y-78740000D01*
X188061600Y-78740000D01*
X188061600Y-76200000D01*
G37*
G36*
X185521600Y-76200000D02*
G01*
X185318400Y-76200000D01*
X185318400Y-78740000D01*
X185521600Y-78740000D01*
X185521600Y-76200000D01*
G37*
G36*
X182981600Y-76200000D02*
G01*
X182778400Y-76200000D01*
X182778400Y-78740000D01*
X182981600Y-78740000D01*
X182981600Y-76200000D01*
G37*
G36*
X180441600Y-76200000D02*
G01*
X180238400Y-76200000D01*
X180238400Y-78740000D01*
X180441600Y-78740000D01*
X180441600Y-76200000D01*
G37*
G36*
X202031600Y-76200000D02*
G01*
X201828400Y-76200000D01*
X201828400Y-77470000D01*
X202031600Y-77470000D01*
X202031600Y-76200000D01*
G37*
G36*
X199491600Y-76200000D02*
G01*
X199288400Y-76200000D01*
X199288400Y-77470000D01*
X199491600Y-77470000D01*
X199491600Y-76200000D01*
G37*
G36*
X196951600Y-76200000D02*
G01*
X196748400Y-76200000D01*
X196748400Y-77470000D01*
X196951600Y-77470000D01*
X196951600Y-76200000D01*
G37*
G36*
X194411600Y-76200000D02*
G01*
X194208400Y-76200000D01*
X194208400Y-77470000D01*
X194411600Y-77470000D01*
X194411600Y-76200000D01*
G37*
G36*
X191871600Y-76200000D02*
G01*
X191668400Y-76200000D01*
X191668400Y-77470000D01*
X191871600Y-77470000D01*
X191871600Y-76200000D01*
G37*
G36*
X189331600Y-76200000D02*
G01*
X189128400Y-76200000D01*
X189128400Y-77470000D01*
X189331600Y-77470000D01*
X189331600Y-76200000D01*
G37*
G36*
X186791600Y-76200000D02*
G01*
X186588400Y-76200000D01*
X186588400Y-77470000D01*
X186791600Y-77470000D01*
X186791600Y-76200000D01*
G37*
G36*
X184251600Y-76200000D02*
G01*
X184048400Y-76200000D01*
X184048400Y-77470000D01*
X184251600Y-77470000D01*
X184251600Y-76200000D01*
G37*
G36*
X181711600Y-76200000D02*
G01*
X181508400Y-76200000D01*
X181508400Y-77470000D01*
X181711600Y-77470000D01*
X181711600Y-76200000D01*
G37*
G36*
X179171600Y-76200000D02*
G01*
X178968400Y-76200000D01*
X178968400Y-77470000D01*
X179171600Y-77470000D01*
X179171600Y-76200000D01*
G37*
G36*
X152552400Y-76200000D02*
G01*
X152247600Y-76200000D01*
X152247600Y-80010000D01*
X152552400Y-80010000D01*
X152552400Y-76200000D01*
G37*
G36*
X177952400Y-76200000D02*
G01*
X177647600Y-76200000D01*
X177647600Y-80010000D01*
X177952400Y-80010000D01*
X177952400Y-76200000D01*
G37*
G36*
X175361600Y-76200000D02*
G01*
X175158400Y-76200000D01*
X175158400Y-78740000D01*
X175361600Y-78740000D01*
X175361600Y-76200000D01*
G37*
G36*
X172821600Y-76200000D02*
G01*
X172618400Y-76200000D01*
X172618400Y-78740000D01*
X172821600Y-78740000D01*
X172821600Y-76200000D01*
G37*
G36*
X170281600Y-76200000D02*
G01*
X170078400Y-76200000D01*
X170078400Y-78740000D01*
X170281600Y-78740000D01*
X170281600Y-76200000D01*
G37*
G36*
X167741600Y-76200000D02*
G01*
X167538400Y-76200000D01*
X167538400Y-78740000D01*
X167741600Y-78740000D01*
X167741600Y-76200000D01*
G37*
G36*
X165201600Y-76200000D02*
G01*
X164998400Y-76200000D01*
X164998400Y-78740000D01*
X165201600Y-78740000D01*
X165201600Y-76200000D01*
G37*
G36*
X162661600Y-76200000D02*
G01*
X162458400Y-76200000D01*
X162458400Y-78740000D01*
X162661600Y-78740000D01*
X162661600Y-76200000D01*
G37*
G36*
X160121600Y-76200000D02*
G01*
X159918400Y-76200000D01*
X159918400Y-78740000D01*
X160121600Y-78740000D01*
X160121600Y-76200000D01*
G37*
G36*
X157581600Y-76200000D02*
G01*
X157378400Y-76200000D01*
X157378400Y-78740000D01*
X157581600Y-78740000D01*
X157581600Y-76200000D01*
G37*
G36*
X155041600Y-76200000D02*
G01*
X154838400Y-76200000D01*
X154838400Y-78740000D01*
X155041600Y-78740000D01*
X155041600Y-76200000D01*
G37*
G36*
X176631600Y-76200000D02*
G01*
X176428400Y-76200000D01*
X176428400Y-77470000D01*
X176631600Y-77470000D01*
X176631600Y-76200000D01*
G37*
G36*
X174091600Y-76200000D02*
G01*
X173888400Y-76200000D01*
X173888400Y-77470000D01*
X174091600Y-77470000D01*
X174091600Y-76200000D01*
G37*
G36*
X171551600Y-76200000D02*
G01*
X171348400Y-76200000D01*
X171348400Y-77470000D01*
X171551600Y-77470000D01*
X171551600Y-76200000D01*
G37*
G36*
X169011600Y-76200000D02*
G01*
X168808400Y-76200000D01*
X168808400Y-77470000D01*
X169011600Y-77470000D01*
X169011600Y-76200000D01*
G37*
G36*
X166471600Y-76200000D02*
G01*
X166268400Y-76200000D01*
X166268400Y-77470000D01*
X166471600Y-77470000D01*
X166471600Y-76200000D01*
G37*
G36*
X163931600Y-76200000D02*
G01*
X163728400Y-76200000D01*
X163728400Y-77470000D01*
X163931600Y-77470000D01*
X163931600Y-76200000D01*
G37*
G36*
X161391600Y-76200000D02*
G01*
X161188400Y-76200000D01*
X161188400Y-77470000D01*
X161391600Y-77470000D01*
X161391600Y-76200000D01*
G37*
G36*
X158851600Y-76200000D02*
G01*
X158648400Y-76200000D01*
X158648400Y-77470000D01*
X158851600Y-77470000D01*
X158851600Y-76200000D01*
G37*
G36*
X156311600Y-76200000D02*
G01*
X156108400Y-76200000D01*
X156108400Y-77470000D01*
X156311600Y-77470000D01*
X156311600Y-76200000D01*
G37*
G36*
X153771600Y-76200000D02*
G01*
X153568400Y-76200000D01*
X153568400Y-77470000D01*
X153771600Y-77470000D01*
X153771600Y-76200000D01*
G37*
G36*
X127152400Y-76200000D02*
G01*
X126847600Y-76200000D01*
X126847600Y-80010000D01*
X127152400Y-80010000D01*
X127152400Y-76200000D01*
G37*
G36*
X152552400Y-76200000D02*
G01*
X152247600Y-76200000D01*
X152247600Y-80010000D01*
X152552400Y-80010000D01*
X152552400Y-76200000D01*
G37*
G36*
X149961600Y-76200000D02*
G01*
X149758400Y-76200000D01*
X149758400Y-78740000D01*
X149961600Y-78740000D01*
X149961600Y-76200000D01*
G37*
G36*
X147421600Y-76200000D02*
G01*
X147218400Y-76200000D01*
X147218400Y-78740000D01*
X147421600Y-78740000D01*
X147421600Y-76200000D01*
G37*
G36*
X144881600Y-76200000D02*
G01*
X144678400Y-76200000D01*
X144678400Y-78740000D01*
X144881600Y-78740000D01*
X144881600Y-76200000D01*
G37*
G36*
X142341600Y-76200000D02*
G01*
X142138400Y-76200000D01*
X142138400Y-78740000D01*
X142341600Y-78740000D01*
X142341600Y-76200000D01*
G37*
G36*
X139801600Y-76200000D02*
G01*
X139598400Y-76200000D01*
X139598400Y-78740000D01*
X139801600Y-78740000D01*
X139801600Y-76200000D01*
G37*
G36*
X137261600Y-76200000D02*
G01*
X137058400Y-76200000D01*
X137058400Y-78740000D01*
X137261600Y-78740000D01*
X137261600Y-76200000D01*
G37*
G36*
X134721600Y-76200000D02*
G01*
X134518400Y-76200000D01*
X134518400Y-78740000D01*
X134721600Y-78740000D01*
X134721600Y-76200000D01*
G37*
G36*
X132181600Y-76200000D02*
G01*
X131978400Y-76200000D01*
X131978400Y-78740000D01*
X132181600Y-78740000D01*
X132181600Y-76200000D01*
G37*
G36*
X129641600Y-76200000D02*
G01*
X129438400Y-76200000D01*
X129438400Y-78740000D01*
X129641600Y-78740000D01*
X129641600Y-76200000D01*
G37*
G36*
X151231600Y-76200000D02*
G01*
X151028400Y-76200000D01*
X151028400Y-77470000D01*
X151231600Y-77470000D01*
X151231600Y-76200000D01*
G37*
G36*
X148691600Y-76200000D02*
G01*
X148488400Y-76200000D01*
X148488400Y-77470000D01*
X148691600Y-77470000D01*
X148691600Y-76200000D01*
G37*
G36*
X146151600Y-76200000D02*
G01*
X145948400Y-76200000D01*
X145948400Y-77470000D01*
X146151600Y-77470000D01*
X146151600Y-76200000D01*
G37*
G36*
X143611600Y-76200000D02*
G01*
X143408400Y-76200000D01*
X143408400Y-77470000D01*
X143611600Y-77470000D01*
X143611600Y-76200000D01*
G37*
G36*
X141071600Y-76200000D02*
G01*
X140868400Y-76200000D01*
X140868400Y-77470000D01*
X141071600Y-77470000D01*
X141071600Y-76200000D01*
G37*
G36*
X138531600Y-76200000D02*
G01*
X138328400Y-76200000D01*
X138328400Y-77470000D01*
X138531600Y-77470000D01*
X138531600Y-76200000D01*
G37*
G36*
X135991600Y-76200000D02*
G01*
X135788400Y-76200000D01*
X135788400Y-77470000D01*
X135991600Y-77470000D01*
X135991600Y-76200000D01*
G37*
G36*
X133451600Y-76200000D02*
G01*
X133248400Y-76200000D01*
X133248400Y-77470000D01*
X133451600Y-77470000D01*
X133451600Y-76200000D01*
G37*
G36*
X130911600Y-76200000D02*
G01*
X130708400Y-76200000D01*
X130708400Y-77470000D01*
X130911600Y-77470000D01*
X130911600Y-76200000D01*
G37*
G36*
X128371600Y-76200000D02*
G01*
X128168400Y-76200000D01*
X128168400Y-77470000D01*
X128371600Y-77470000D01*
X128371600Y-76200000D01*
G37*
G36*
X77571600Y-76200000D02*
G01*
X77368400Y-76200000D01*
X77368400Y-77470000D01*
X77571600Y-77470000D01*
X77571600Y-76200000D01*
G37*
G36*
X80111600Y-76200000D02*
G01*
X79908400Y-76200000D01*
X79908400Y-77470000D01*
X80111600Y-77470000D01*
X80111600Y-76200000D01*
G37*
G36*
X82651600Y-76200000D02*
G01*
X82448400Y-76200000D01*
X82448400Y-77470000D01*
X82651600Y-77470000D01*
X82651600Y-76200000D01*
G37*
G36*
X85191600Y-76200000D02*
G01*
X84988400Y-76200000D01*
X84988400Y-77470000D01*
X85191600Y-77470000D01*
X85191600Y-76200000D01*
G37*
G36*
X87731600Y-76200000D02*
G01*
X87528400Y-76200000D01*
X87528400Y-77470000D01*
X87731600Y-77470000D01*
X87731600Y-76200000D01*
G37*
G36*
X90271600Y-76200000D02*
G01*
X90068400Y-76200000D01*
X90068400Y-77470000D01*
X90271600Y-77470000D01*
X90271600Y-76200000D01*
G37*
G36*
X92811600Y-76200000D02*
G01*
X92608400Y-76200000D01*
X92608400Y-77470000D01*
X92811600Y-77470000D01*
X92811600Y-76200000D01*
G37*
G36*
X95351600Y-76200000D02*
G01*
X95148400Y-76200000D01*
X95148400Y-77470000D01*
X95351600Y-77470000D01*
X95351600Y-76200000D01*
G37*
G36*
X97891600Y-76200000D02*
G01*
X97688400Y-76200000D01*
X97688400Y-77470000D01*
X97891600Y-77470000D01*
X97891600Y-76200000D01*
G37*
G36*
X100431600Y-76200000D02*
G01*
X100228400Y-76200000D01*
X100228400Y-77470000D01*
X100431600Y-77470000D01*
X100431600Y-76200000D01*
G37*
G36*
X78841600Y-76200000D02*
G01*
X78638400Y-76200000D01*
X78638400Y-78740000D01*
X78841600Y-78740000D01*
X78841600Y-76200000D01*
G37*
G36*
X81381600Y-76200000D02*
G01*
X81178400Y-76200000D01*
X81178400Y-78740000D01*
X81381600Y-78740000D01*
X81381600Y-76200000D01*
G37*
G36*
X83921600Y-76200000D02*
G01*
X83718400Y-76200000D01*
X83718400Y-78740000D01*
X83921600Y-78740000D01*
X83921600Y-76200000D01*
G37*
G36*
X86461600Y-76200000D02*
G01*
X86258400Y-76200000D01*
X86258400Y-78740000D01*
X86461600Y-78740000D01*
X86461600Y-76200000D01*
G37*
G36*
X89001600Y-76200000D02*
G01*
X88798400Y-76200000D01*
X88798400Y-78740000D01*
X89001600Y-78740000D01*
X89001600Y-76200000D01*
G37*
G36*
X91541600Y-76200000D02*
G01*
X91338400Y-76200000D01*
X91338400Y-78740000D01*
X91541600Y-78740000D01*
X91541600Y-76200000D01*
G37*
G36*
X94081600Y-76200000D02*
G01*
X93878400Y-76200000D01*
X93878400Y-78740000D01*
X94081600Y-78740000D01*
X94081600Y-76200000D01*
G37*
G36*
X96621600Y-76200000D02*
G01*
X96418400Y-76200000D01*
X96418400Y-78740000D01*
X96621600Y-78740000D01*
X96621600Y-76200000D01*
G37*
G36*
X99161600Y-76200000D02*
G01*
X98958400Y-76200000D01*
X98958400Y-78740000D01*
X99161600Y-78740000D01*
X99161600Y-76200000D01*
G37*
G36*
X102971600Y-76200000D02*
G01*
X102768400Y-76200000D01*
X102768400Y-77470000D01*
X102971600Y-77470000D01*
X102971600Y-76200000D01*
G37*
G36*
X105511600Y-76200000D02*
G01*
X105308400Y-76200000D01*
X105308400Y-77470000D01*
X105511600Y-77470000D01*
X105511600Y-76200000D01*
G37*
G36*
X108051600Y-76200000D02*
G01*
X107848400Y-76200000D01*
X107848400Y-77470000D01*
X108051600Y-77470000D01*
X108051600Y-76200000D01*
G37*
G36*
X110591600Y-76200000D02*
G01*
X110388400Y-76200000D01*
X110388400Y-77470000D01*
X110591600Y-77470000D01*
X110591600Y-76200000D01*
G37*
G36*
X113131600Y-76200000D02*
G01*
X112928400Y-76200000D01*
X112928400Y-77470000D01*
X113131600Y-77470000D01*
X113131600Y-76200000D01*
G37*
G36*
X115671600Y-76200000D02*
G01*
X115468400Y-76200000D01*
X115468400Y-77470000D01*
X115671600Y-77470000D01*
X115671600Y-76200000D01*
G37*
G36*
X118211600Y-76200000D02*
G01*
X118008400Y-76200000D01*
X118008400Y-77470000D01*
X118211600Y-77470000D01*
X118211600Y-76200000D01*
G37*
G36*
X120751600Y-76200000D02*
G01*
X120548400Y-76200000D01*
X120548400Y-77470000D01*
X120751600Y-77470000D01*
X120751600Y-76200000D01*
G37*
G36*
X123291600Y-76200000D02*
G01*
X123088400Y-76200000D01*
X123088400Y-77470000D01*
X123291600Y-77470000D01*
X123291600Y-76200000D01*
G37*
G36*
X125831600Y-76200000D02*
G01*
X125628400Y-76200000D01*
X125628400Y-77470000D01*
X125831600Y-77470000D01*
X125831600Y-76200000D01*
G37*
G36*
X104241600Y-76200000D02*
G01*
X104038400Y-76200000D01*
X104038400Y-78740000D01*
X104241600Y-78740000D01*
X104241600Y-76200000D01*
G37*
G36*
X106781600Y-76200000D02*
G01*
X106578400Y-76200000D01*
X106578400Y-78740000D01*
X106781600Y-78740000D01*
X106781600Y-76200000D01*
G37*
G36*
X109321600Y-76200000D02*
G01*
X109118400Y-76200000D01*
X109118400Y-78740000D01*
X109321600Y-78740000D01*
X109321600Y-76200000D01*
G37*
G36*
X111861600Y-76200000D02*
G01*
X111658400Y-76200000D01*
X111658400Y-78740000D01*
X111861600Y-78740000D01*
X111861600Y-76200000D01*
G37*
G36*
X114401600Y-76200000D02*
G01*
X114198400Y-76200000D01*
X114198400Y-78740000D01*
X114401600Y-78740000D01*
X114401600Y-76200000D01*
G37*
G36*
X116941600Y-76200000D02*
G01*
X116738400Y-76200000D01*
X116738400Y-78740000D01*
X116941600Y-78740000D01*
X116941600Y-76200000D01*
G37*
G36*
X119481600Y-76200000D02*
G01*
X119278400Y-76200000D01*
X119278400Y-78740000D01*
X119481600Y-78740000D01*
X119481600Y-76200000D01*
G37*
G36*
X122021600Y-76200000D02*
G01*
X121818400Y-76200000D01*
X121818400Y-78740000D01*
X122021600Y-78740000D01*
X122021600Y-76200000D01*
G37*
G36*
X124561600Y-76200000D02*
G01*
X124358400Y-76200000D01*
X124358400Y-78740000D01*
X124561600Y-78740000D01*
X124561600Y-76200000D01*
G37*
G36*
X127152400Y-76200000D02*
G01*
X126847600Y-76200000D01*
X126847600Y-80010000D01*
X127152400Y-80010000D01*
X127152400Y-76200000D01*
G37*
G36*
X101752400Y-76200000D02*
G01*
X101447600Y-76200000D01*
X101447600Y-80010000D01*
X101752400Y-80010000D01*
X101752400Y-76200000D01*
G37*
G36*
X95711899Y-81077864D02*
G01*
X95842771Y-81103896D01*
X96212608Y-81257088D01*
X96545452Y-81479487D01*
X96828513Y-81762548D01*
X97050912Y-82095392D01*
X97204104Y-82465229D01*
X97282200Y-82857846D01*
X97282200Y-83258154D01*
X97204104Y-83650771D01*
X97148923Y-83783989D01*
X97053933Y-84013316D01*
X97050912Y-84020608D01*
X96828513Y-84353452D01*
X96545452Y-84636513D01*
X96454115Y-84697543D01*
X96363920Y-84757809D01*
X96344978Y-84773355D01*
X96329433Y-84792297D01*
X96317882Y-84813907D01*
X96310769Y-84837356D01*
X96308367Y-84861742D01*
X96310769Y-84886128D01*
X96317882Y-84909577D01*
X96329433Y-84931188D01*
X96344979Y-84950130D01*
X96363921Y-84965675D01*
X96383534Y-84978780D01*
X96631218Y-85226464D01*
X96825820Y-85517706D01*
X96951869Y-85822013D01*
X96959865Y-85841319D01*
X97028200Y-86184861D01*
X97028200Y-86535139D01*
X96991429Y-86720000D01*
X96959865Y-86878682D01*
X96825820Y-87202294D01*
X96631218Y-87493536D01*
X96383536Y-87741218D01*
X96286772Y-87805874D01*
X96275927Y-87813120D01*
X96256985Y-87828665D01*
X96241440Y-87847607D01*
X96229889Y-87869218D01*
X96222776Y-87892667D01*
X96220374Y-87917053D01*
X96222776Y-87941439D01*
X96229889Y-87964888D01*
X96241440Y-87986499D01*
X96256985Y-88005441D01*
X96433924Y-88182380D01*
X96476241Y-88245712D01*
X96600729Y-88432021D01*
X96715626Y-88709407D01*
X96735436Y-88809000D01*
X96774200Y-89003878D01*
X96774200Y-89304122D01*
X96761446Y-89368242D01*
X96715626Y-89598593D01*
X96600729Y-89875979D01*
X96502933Y-90022341D01*
X96433924Y-90125620D01*
X96218688Y-90340856D01*
X96206118Y-90351173D01*
X96190573Y-90370115D01*
X96179023Y-90391727D01*
X96171911Y-90415176D01*
X96169510Y-90439562D01*
X96171913Y-90463948D01*
X96179027Y-90487397D01*
X96190579Y-90509007D01*
X96206116Y-90527939D01*
X96276088Y-90597911D01*
X96292041Y-90621787D01*
X96420656Y-90814273D01*
X96448295Y-90881000D01*
X96520235Y-91054678D01*
X96520235Y-91054680D01*
X96571000Y-91309891D01*
X96571000Y-91570109D01*
X96564855Y-91601000D01*
X96520235Y-91825322D01*
X96461903Y-91966148D01*
X96420656Y-92065727D01*
X96420655Y-92065728D01*
X96276088Y-92282089D01*
X96092089Y-92466088D01*
X96092086Y-92466090D01*
X96083922Y-92474254D01*
X96082632Y-92475314D01*
X96067098Y-92494265D01*
X96055560Y-92515883D01*
X96048461Y-92539336D01*
X96046074Y-92563724D01*
X96048491Y-92588108D01*
X96055618Y-92611553D01*
X96067182Y-92633157D01*
X96082680Y-92652030D01*
X96157711Y-92727061D01*
X96285600Y-92918460D01*
X96300305Y-92953962D01*
X96373692Y-93131133D01*
X96418600Y-93356902D01*
X96418600Y-93587098D01*
X96373692Y-93812867D01*
X96337203Y-93900959D01*
X96285600Y-94025540D01*
X96157711Y-94216939D01*
X96012230Y-94362420D01*
X95996690Y-94381356D01*
X95985139Y-94402967D01*
X95978026Y-94426416D01*
X95975624Y-94450802D01*
X95978026Y-94475188D01*
X95985139Y-94498637D01*
X95996690Y-94520248D01*
X96012235Y-94539190D01*
X96059064Y-94586019D01*
X96173055Y-94756619D01*
X96251573Y-94946177D01*
X96291600Y-95147410D01*
X96291600Y-95352590D01*
X96251573Y-95553823D01*
X96189558Y-95703540D01*
X96173054Y-95743383D01*
X96109261Y-95838856D01*
X96059062Y-95913984D01*
X95977591Y-95995456D01*
X95962046Y-96014398D01*
X95950495Y-96036009D01*
X95943382Y-96059458D01*
X95940980Y-96083844D01*
X95943382Y-96108230D01*
X95950495Y-96131679D01*
X95962047Y-96153289D01*
X95977591Y-96172231D01*
X95980146Y-96174786D01*
X95998680Y-96202524D01*
X96081763Y-96326866D01*
X96083018Y-96328745D01*
X96153877Y-96499813D01*
X96190000Y-96681417D01*
X96190000Y-96866583D01*
X96153877Y-97048187D01*
X96083018Y-97219255D01*
X95980146Y-97373214D01*
X95969079Y-97384281D01*
X95953534Y-97403223D01*
X95941983Y-97424834D01*
X95934870Y-97448283D01*
X95932468Y-97472669D01*
X95934870Y-97497055D01*
X95941983Y-97520504D01*
X95953528Y-97542104D01*
X96015490Y-97634837D01*
X96080605Y-97792039D01*
X96080605Y-97792040D01*
X96113800Y-97958922D01*
X96113800Y-98129078D01*
X96104864Y-98174000D01*
X96080605Y-98295961D01*
X96015490Y-98453163D01*
X95920958Y-98594641D01*
X95880074Y-98635525D01*
X95864538Y-98654456D01*
X95852987Y-98676067D01*
X95845875Y-98699516D01*
X95843473Y-98723902D01*
X95845875Y-98748288D01*
X95852988Y-98771737D01*
X95864540Y-98793348D01*
X95864997Y-98793905D01*
X95959216Y-98934915D01*
X95959216Y-98934916D01*
X96016372Y-99072900D01*
X96019545Y-99080562D01*
X96050300Y-99235176D01*
X96050300Y-99392824D01*
X96019545Y-99547438D01*
X95959216Y-99693085D01*
X95871636Y-99824159D01*
X95799261Y-99896534D01*
X95783716Y-99915476D01*
X95772165Y-99937087D01*
X95765052Y-99960536D01*
X95762650Y-99984922D01*
X95765052Y-100009308D01*
X95772165Y-100032757D01*
X95783716Y-100054368D01*
X95799247Y-100073293D01*
X95832175Y-100106221D01*
X95914199Y-100228978D01*
X95970698Y-100365379D01*
X95995401Y-100489575D01*
X95999500Y-100510180D01*
X95999500Y-100657820D01*
X95997546Y-100667641D01*
X95970698Y-100802621D01*
X95914199Y-100939022D01*
X95832175Y-101061779D01*
X95736385Y-101157569D01*
X95720854Y-101176494D01*
X95709303Y-101198105D01*
X95702190Y-101221554D01*
X95699788Y-101245940D01*
X95702190Y-101270326D01*
X95709303Y-101293775D01*
X95720854Y-101315386D01*
X95736399Y-101334328D01*
X95802581Y-101400510D01*
X95880435Y-101517027D01*
X95934062Y-101646493D01*
X95961400Y-101783932D01*
X95961400Y-101924068D01*
X95934062Y-102061507D01*
X95880435Y-102190973D01*
X95802581Y-102307490D01*
X95703490Y-102406581D01*
X95586973Y-102484435D01*
X95457507Y-102538062D01*
X95320068Y-102565400D01*
X95179932Y-102565400D01*
X95042493Y-102538062D01*
X94913027Y-102484435D01*
X94796510Y-102406581D01*
X94697419Y-102307490D01*
X94619565Y-102190973D01*
X94565938Y-102061507D01*
X94538600Y-101924068D01*
X94538600Y-101783932D01*
X94565938Y-101646493D01*
X94619565Y-101517027D01*
X94697419Y-101400510D01*
X94763601Y-101334328D01*
X94779146Y-101315386D01*
X94790697Y-101293775D01*
X94797810Y-101270326D01*
X94800212Y-101245940D01*
X94797810Y-101221554D01*
X94790697Y-101198105D01*
X94779146Y-101176494D01*
X94763615Y-101157569D01*
X94667825Y-101061779D01*
X94585801Y-100939022D01*
X94529302Y-100802621D01*
X94502454Y-100667641D01*
X94500500Y-100657820D01*
X94500500Y-100510180D01*
X94504599Y-100489575D01*
X94529302Y-100365379D01*
X94585801Y-100228978D01*
X94667825Y-100106221D01*
X94700753Y-100073293D01*
X94716284Y-100054368D01*
X94727835Y-100032757D01*
X94734948Y-100009308D01*
X94737350Y-99984922D01*
X94734948Y-99960536D01*
X94727835Y-99937087D01*
X94716284Y-99915476D01*
X94700739Y-99896534D01*
X94628364Y-99824159D01*
X94540784Y-99693085D01*
X94480455Y-99547438D01*
X94449700Y-99392824D01*
X94449700Y-99235176D01*
X94480455Y-99080562D01*
X94483629Y-99072900D01*
X94540784Y-98934916D01*
X94540784Y-98934915D01*
X94634872Y-98794102D01*
X94635326Y-98793550D01*
X94646919Y-98771962D01*
X94654078Y-98748527D01*
X94656528Y-98724146D01*
X94654174Y-98699755D01*
X94647106Y-98676292D01*
X94635598Y-98654659D01*
X94619931Y-98635530D01*
X94579042Y-98594641D01*
X94484510Y-98453163D01*
X94419395Y-98295961D01*
X94395136Y-98174000D01*
X94386200Y-98129078D01*
X94386200Y-97958922D01*
X94419395Y-97792040D01*
X94419395Y-97792039D01*
X94484510Y-97634837D01*
X94546472Y-97542104D01*
X94558017Y-97520504D01*
X94565130Y-97497055D01*
X94567532Y-97472669D01*
X94565130Y-97448283D01*
X94558017Y-97424834D01*
X94546466Y-97403223D01*
X94530921Y-97384281D01*
X94519854Y-97373214D01*
X94416982Y-97219255D01*
X94346123Y-97048187D01*
X94310000Y-96866583D01*
X94310000Y-96681417D01*
X94346123Y-96499813D01*
X94416982Y-96328745D01*
X94418238Y-96326866D01*
X94501320Y-96202524D01*
X94519852Y-96174789D01*
X94519853Y-96174788D01*
X94519855Y-96174785D01*
X94522411Y-96172229D01*
X94537952Y-96153293D01*
X94549504Y-96131683D01*
X94556618Y-96108235D01*
X94559021Y-96083849D01*
X94556620Y-96059462D01*
X94549508Y-96036013D01*
X94537958Y-96014402D01*
X94522410Y-95995455D01*
X94440936Y-95913981D01*
X94390739Y-95838856D01*
X94326946Y-95743383D01*
X94310442Y-95703540D01*
X94248427Y-95553823D01*
X94208400Y-95352590D01*
X94208400Y-95147410D01*
X94248427Y-94946177D01*
X94326945Y-94756619D01*
X94440936Y-94586019D01*
X94487765Y-94539190D01*
X94503310Y-94520248D01*
X94514861Y-94498637D01*
X94521974Y-94475188D01*
X94524376Y-94450802D01*
X94521974Y-94426416D01*
X94514861Y-94402967D01*
X94503310Y-94381356D01*
X94487770Y-94362420D01*
X94342289Y-94216939D01*
X94214400Y-94025540D01*
X94162797Y-93900959D01*
X94126308Y-93812867D01*
X94081400Y-93587098D01*
X94081400Y-93356902D01*
X94126308Y-93131133D01*
X94199695Y-92953962D01*
X94214400Y-92918460D01*
X94342289Y-92727061D01*
X94417320Y-92652030D01*
X94432860Y-92633094D01*
X94444411Y-92611483D01*
X94451524Y-92588034D01*
X94453926Y-92563648D01*
X94451524Y-92539262D01*
X94444411Y-92515813D01*
X94432860Y-92494202D01*
X94417315Y-92475260D01*
X94416023Y-92474199D01*
X94407914Y-92466090D01*
X94407911Y-92466088D01*
X94223912Y-92282089D01*
X94079345Y-92065728D01*
X94079344Y-92065727D01*
X94038097Y-91966148D01*
X93979765Y-91825322D01*
X93935145Y-91601000D01*
X93929000Y-91570109D01*
X93929000Y-91309891D01*
X93979765Y-91054680D01*
X93979765Y-91054678D01*
X94051705Y-90881000D01*
X94079344Y-90814273D01*
X94207959Y-90621787D01*
X94223912Y-90597911D01*
X94293884Y-90527939D01*
X94309424Y-90509003D01*
X94320975Y-90487392D01*
X94328088Y-90463943D01*
X94330490Y-90439557D01*
X94328088Y-90415171D01*
X94320975Y-90391722D01*
X94309424Y-90370111D01*
X94293879Y-90351169D01*
X94281309Y-90340853D01*
X94066076Y-90125620D01*
X93997067Y-90022341D01*
X93899271Y-89875979D01*
X93784374Y-89598593D01*
X93738554Y-89368242D01*
X93725800Y-89304122D01*
X93725800Y-89003878D01*
X93764564Y-88809000D01*
X93784374Y-88709407D01*
X93899271Y-88432021D01*
X94023759Y-88245712D01*
X94066076Y-88182380D01*
X94243015Y-88005441D01*
X94258560Y-87986499D01*
X94270111Y-87964888D01*
X94277224Y-87941439D01*
X94279626Y-87917053D01*
X94277224Y-87892667D01*
X94270111Y-87869218D01*
X94258560Y-87847607D01*
X94243015Y-87828665D01*
X94224073Y-87813120D01*
X94213229Y-87805874D01*
X94116464Y-87741218D01*
X93868782Y-87493536D01*
X93674180Y-87202294D01*
X93540135Y-86878682D01*
X93508571Y-86720000D01*
X93471800Y-86535139D01*
X93471800Y-86184861D01*
X93540135Y-85841319D01*
X93548132Y-85822013D01*
X93674180Y-85517706D01*
X93868782Y-85226464D01*
X94116466Y-84978780D01*
X94136079Y-84965675D01*
X94155021Y-84950130D01*
X94170567Y-84931188D01*
X94182118Y-84909577D01*
X94189231Y-84886128D01*
X94191633Y-84861742D01*
X94189231Y-84837356D01*
X94182118Y-84813907D01*
X94170567Y-84792297D01*
X94155022Y-84773355D01*
X94136080Y-84757809D01*
X94045885Y-84697543D01*
X93954548Y-84636513D01*
X93671487Y-84353452D01*
X93449088Y-84020608D01*
X93446068Y-84013316D01*
X93351077Y-83783989D01*
X93295896Y-83650771D01*
X93217800Y-83258154D01*
X93217800Y-82857846D01*
X93295896Y-82465229D01*
X93449088Y-82095392D01*
X93671487Y-81762548D01*
X93954548Y-81479487D01*
X94287392Y-81257088D01*
X94657229Y-81103896D01*
X94788101Y-81077864D01*
X95049844Y-81025800D01*
X95450156Y-81025800D01*
X95711899Y-81077864D01*
X95711899Y-81077864D01*
G37*
G36*
X150664928Y-99981764D02*
G01*
X150686009Y-99988160D01*
X150705445Y-99998548D01*
X150722476Y-100012524D01*
X150736452Y-100029555D01*
X150746840Y-100048991D01*
X150753236Y-100070072D01*
X150756000Y-100098140D01*
X150756000Y-100561860D01*
X150753236Y-100589928D01*
X150746840Y-100611009D01*
X150736452Y-100630445D01*
X150722476Y-100647476D01*
X150705445Y-100661452D01*
X150686009Y-100671840D01*
X150664928Y-100678236D01*
X150636860Y-100681000D01*
X148823140Y-100681000D01*
X148795072Y-100678236D01*
X148773991Y-100671840D01*
X148754555Y-100661452D01*
X148737524Y-100647476D01*
X148723548Y-100630445D01*
X148713160Y-100611009D01*
X148706764Y-100589928D01*
X148704000Y-100561860D01*
X148704000Y-100098140D01*
X148706764Y-100070072D01*
X148713160Y-100048991D01*
X148723548Y-100029555D01*
X148737524Y-100012524D01*
X148754555Y-99998548D01*
X148773991Y-99988160D01*
X148795072Y-99981764D01*
X148823140Y-99979000D01*
X150636860Y-99979000D01*
X150664928Y-99981764D01*
X150664928Y-99981764D01*
G37*
G36*
X145714928Y-99981764D02*
G01*
X145736009Y-99988160D01*
X145755445Y-99998548D01*
X145772476Y-100012524D01*
X145786452Y-100029555D01*
X145796840Y-100048991D01*
X145803236Y-100070072D01*
X145806000Y-100098140D01*
X145806000Y-100561860D01*
X145803236Y-100589928D01*
X145796840Y-100611009D01*
X145786452Y-100630445D01*
X145772476Y-100647476D01*
X145755445Y-100661452D01*
X145736009Y-100671840D01*
X145714928Y-100678236D01*
X145686860Y-100681000D01*
X143873140Y-100681000D01*
X143845072Y-100678236D01*
X143823991Y-100671840D01*
X143804555Y-100661452D01*
X143787524Y-100647476D01*
X143773548Y-100630445D01*
X143763160Y-100611009D01*
X143756764Y-100589928D01*
X143754000Y-100561860D01*
X143754000Y-100098140D01*
X143756764Y-100070072D01*
X143763160Y-100048991D01*
X143773548Y-100029555D01*
X143787524Y-100012524D01*
X143804555Y-99998548D01*
X143823991Y-99988160D01*
X143845072Y-99981764D01*
X143873140Y-99979000D01*
X145686860Y-99979000D01*
X145714928Y-99981764D01*
X145714928Y-99981764D01*
G37*
G36*
X81331000Y-100381000D02*
G01*
X76149000Y-100381000D01*
X76149000Y-97739000D01*
X81331000Y-97739000D01*
X81331000Y-100381000D01*
X81331000Y-100381000D01*
G37*
G36*
X156451000Y-99751000D02*
G01*
X155289000Y-99751000D01*
X155289000Y-98999000D01*
X156451000Y-98999000D01*
X156451000Y-99751000D01*
X156451000Y-99751000D01*
G37*
G36*
X154251000Y-99751000D02*
G01*
X153089000Y-99751000D01*
X153089000Y-97099000D01*
X154251000Y-97099000D01*
X154251000Y-99751000D01*
X154251000Y-99751000D01*
G37*
G36*
X145714928Y-98711764D02*
G01*
X145736009Y-98718160D01*
X145755445Y-98728548D01*
X145772476Y-98742524D01*
X145786452Y-98759555D01*
X145796840Y-98778991D01*
X145803236Y-98800072D01*
X145806000Y-98828140D01*
X145806000Y-99291860D01*
X145803236Y-99319928D01*
X145796840Y-99341009D01*
X145786452Y-99360445D01*
X145772476Y-99377476D01*
X145755445Y-99391452D01*
X145736009Y-99401840D01*
X145714928Y-99408236D01*
X145686860Y-99411000D01*
X143873140Y-99411000D01*
X143845072Y-99408236D01*
X143823991Y-99401840D01*
X143804555Y-99391452D01*
X143787524Y-99377476D01*
X143773548Y-99360445D01*
X143763160Y-99341009D01*
X143756764Y-99319928D01*
X143754000Y-99291860D01*
X143754000Y-98828140D01*
X143756764Y-98800072D01*
X143763160Y-98778991D01*
X143773548Y-98759555D01*
X143787524Y-98742524D01*
X143804555Y-98728548D01*
X143823991Y-98718160D01*
X143845072Y-98711764D01*
X143873140Y-98709000D01*
X145686860Y-98709000D01*
X145714928Y-98711764D01*
X145714928Y-98711764D01*
G37*
G36*
X150664928Y-98711764D02*
G01*
X150686009Y-98718160D01*
X150705445Y-98728548D01*
X150722476Y-98742524D01*
X150736452Y-98759555D01*
X150746840Y-98778991D01*
X150753236Y-98800072D01*
X150756000Y-98828140D01*
X150756000Y-99291860D01*
X150753236Y-99319928D01*
X150746840Y-99341009D01*
X150736452Y-99360445D01*
X150722476Y-99377476D01*
X150705445Y-99391452D01*
X150686009Y-99401840D01*
X150664928Y-99408236D01*
X150636860Y-99411000D01*
X148823140Y-99411000D01*
X148795072Y-99408236D01*
X148773991Y-99401840D01*
X148754555Y-99391452D01*
X148737524Y-99377476D01*
X148723548Y-99360445D01*
X148713160Y-99341009D01*
X148706764Y-99319928D01*
X148704000Y-99291860D01*
X148704000Y-98828140D01*
X148706764Y-98800072D01*
X148713160Y-98778991D01*
X148723548Y-98759555D01*
X148737524Y-98742524D01*
X148754555Y-98728548D01*
X148773991Y-98718160D01*
X148795072Y-98711764D01*
X148823140Y-98709000D01*
X150636860Y-98709000D01*
X150664928Y-98711764D01*
X150664928Y-98711764D01*
G37*
G36*
X159446000Y-99326000D02*
G01*
X158694000Y-99326000D01*
X158694000Y-97524000D01*
X159446000Y-97524000D01*
X159446000Y-99326000D01*
X159446000Y-99326000D01*
G37*
G36*
X161346000Y-99326000D02*
G01*
X160594000Y-99326000D01*
X160594000Y-97524000D01*
X161346000Y-97524000D01*
X161346000Y-99326000D01*
X161346000Y-99326000D01*
G37*
G36*
X165731000Y-99176000D02*
G01*
X164929000Y-99176000D01*
X164929000Y-97674000D01*
X165731000Y-97674000D01*
X165731000Y-99176000D01*
X165731000Y-99176000D01*
G37*
G36*
X164231000Y-99176000D02*
G01*
X163429000Y-99176000D01*
X163429000Y-97674000D01*
X164231000Y-97674000D01*
X164231000Y-99176000D01*
X164231000Y-99176000D01*
G37*
G36*
X199483949Y-91497202D02*
G01*
X199870099Y-91574012D01*
X200565822Y-91862190D01*
X201191956Y-92280560D01*
X201724440Y-92813044D01*
X202087836Y-93356903D01*
X202142811Y-93439180D01*
X202220036Y-93625618D01*
X202430988Y-94134901D01*
X202505484Y-94509415D01*
X202519841Y-94581597D01*
X202526954Y-94605046D01*
X202538505Y-94626657D01*
X202554050Y-94645599D01*
X202572992Y-94661144D01*
X202594603Y-94672695D01*
X202618052Y-94679808D01*
X202642438Y-94682210D01*
X202666824Y-94679808D01*
X202690273Y-94672695D01*
X202711884Y-94661144D01*
X202730826Y-94645599D01*
X202746371Y-94626657D01*
X202757922Y-94605046D01*
X202765035Y-94581597D01*
X202808940Y-94360874D01*
X203038719Y-93806138D01*
X203074251Y-93752961D01*
X203372308Y-93306886D01*
X203796886Y-92882308D01*
X204296136Y-92548720D01*
X204318791Y-92539336D01*
X204850874Y-92318940D01*
X205439777Y-92201800D01*
X206040223Y-92201800D01*
X206629126Y-92318940D01*
X207161209Y-92539336D01*
X207183864Y-92548720D01*
X207683114Y-92882308D01*
X208107692Y-93306886D01*
X208405750Y-93752961D01*
X208441281Y-93806138D01*
X208660719Y-94335909D01*
X208672270Y-94357520D01*
X208687815Y-94376462D01*
X208706757Y-94392007D01*
X208728368Y-94403558D01*
X208751817Y-94410671D01*
X208776203Y-94413073D01*
X208800589Y-94410671D01*
X208824038Y-94403558D01*
X208845649Y-94392007D01*
X208864591Y-94376462D01*
X208880136Y-94357520D01*
X208891687Y-94335909D01*
X209046339Y-93962546D01*
X209062850Y-93937835D01*
X209343792Y-93517376D01*
X209722376Y-93138792D01*
X210167544Y-92841340D01*
X210662189Y-92636451D01*
X211024972Y-92564289D01*
X211187299Y-92532000D01*
X211722701Y-92532000D01*
X211885028Y-92564289D01*
X212247811Y-92636451D01*
X212742456Y-92841340D01*
X213187624Y-93138792D01*
X213566208Y-93517376D01*
X213847150Y-93937835D01*
X213863661Y-93962546D01*
X213928446Y-94118952D01*
X214050276Y-94413073D01*
X214058219Y-94432251D01*
X214069770Y-94453862D01*
X214085315Y-94472804D01*
X214104257Y-94488349D01*
X214125868Y-94499900D01*
X214149317Y-94507013D01*
X214173703Y-94509415D01*
X214198089Y-94507013D01*
X214221538Y-94499900D01*
X214243149Y-94488349D01*
X214262091Y-94472804D01*
X214277636Y-94453862D01*
X214289182Y-94432261D01*
X214418959Y-94118952D01*
X214680274Y-93727866D01*
X215012866Y-93395274D01*
X215403952Y-93133959D01*
X215838504Y-92953961D01*
X216242353Y-92873631D01*
X216299821Y-92862200D01*
X216770179Y-92862200D01*
X216827647Y-92873631D01*
X217231496Y-92953961D01*
X217666048Y-93133959D01*
X218057134Y-93395274D01*
X218389726Y-93727866D01*
X218651041Y-94118952D01*
X218831039Y-94553504D01*
X218831040Y-94553512D01*
X218834465Y-94561779D01*
X218846016Y-94583390D01*
X218861561Y-94602332D01*
X218880503Y-94617877D01*
X218902114Y-94629428D01*
X218925563Y-94636541D01*
X218949949Y-94638943D01*
X218974335Y-94636541D01*
X218997784Y-94629428D01*
X219019395Y-94617877D01*
X219038337Y-94602332D01*
X219053882Y-94583390D01*
X219065433Y-94561779D01*
X219068861Y-94553504D01*
X219150040Y-94357520D01*
X219179087Y-94287394D01*
X219205123Y-94248428D01*
X219401487Y-93954548D01*
X219684548Y-93671487D01*
X220017392Y-93449088D01*
X220041317Y-93439178D01*
X220239948Y-93356902D01*
X220387229Y-93295896D01*
X220518101Y-93269864D01*
X220779844Y-93217800D01*
X221180156Y-93217800D01*
X221441899Y-93269864D01*
X221572771Y-93295896D01*
X221720052Y-93356902D01*
X221918684Y-93439178D01*
X221942608Y-93449088D01*
X222275452Y-93671487D01*
X222558513Y-93954548D01*
X222754877Y-94248428D01*
X222780913Y-94287394D01*
X222934104Y-94657229D01*
X222942263Y-94698249D01*
X222949376Y-94721698D01*
X222960927Y-94743308D01*
X222976472Y-94762250D01*
X222995414Y-94777796D01*
X223017024Y-94789347D01*
X223040473Y-94796460D01*
X223064859Y-94798862D01*
X223089246Y-94796460D01*
X223112695Y-94789347D01*
X223134305Y-94777796D01*
X223153247Y-94762251D01*
X223168793Y-94743309D01*
X223180344Y-94721698D01*
X223292961Y-94449818D01*
X223292962Y-94449816D01*
X223477835Y-94173134D01*
X223713134Y-93937835D01*
X223989816Y-93752962D01*
X223989818Y-93752961D01*
X224297250Y-93625618D01*
X224623617Y-93560700D01*
X224956383Y-93560700D01*
X225282750Y-93625618D01*
X225590182Y-93752961D01*
X225590184Y-93752962D01*
X225866866Y-93937835D01*
X226102165Y-94173134D01*
X226287038Y-94449816D01*
X226287039Y-94449818D01*
X226414382Y-94757250D01*
X226479300Y-95083617D01*
X226479300Y-95416383D01*
X226414382Y-95742750D01*
X226292908Y-96036013D01*
X226287038Y-96050184D01*
X226102165Y-96326866D01*
X225866866Y-96562165D01*
X225590184Y-96747038D01*
X225590183Y-96747039D01*
X225590182Y-96747039D01*
X225282750Y-96874382D01*
X224956383Y-96939300D01*
X224623617Y-96939300D01*
X224297250Y-96874382D01*
X223989818Y-96747039D01*
X223989817Y-96747039D01*
X223989816Y-96747038D01*
X223713134Y-96562165D01*
X223477835Y-96326866D01*
X223292962Y-96050184D01*
X223287092Y-96036013D01*
X223180344Y-95778302D01*
X223168793Y-95756691D01*
X223153248Y-95737749D01*
X223134306Y-95722204D01*
X223112695Y-95710653D01*
X223089246Y-95703540D01*
X223064860Y-95701138D01*
X223040474Y-95703540D01*
X223017025Y-95710653D01*
X222995414Y-95722204D01*
X222976472Y-95737749D01*
X222960927Y-95756691D01*
X222949376Y-95778302D01*
X222942263Y-95801751D01*
X222934104Y-95842771D01*
X222796579Y-96174786D01*
X222780912Y-96212608D01*
X222558513Y-96545452D01*
X222275452Y-96828513D01*
X221942608Y-97050912D01*
X221942607Y-97050913D01*
X221942606Y-97050913D01*
X221834285Y-97095781D01*
X221572771Y-97204104D01*
X221496601Y-97219255D01*
X221180156Y-97282200D01*
X220779844Y-97282200D01*
X220463399Y-97219255D01*
X220387229Y-97204104D01*
X220125715Y-97095781D01*
X220017394Y-97050913D01*
X220017393Y-97050913D01*
X220017392Y-97050912D01*
X219684548Y-96828513D01*
X219401487Y-96545452D01*
X219179088Y-96212608D01*
X219163422Y-96174786D01*
X219096988Y-96014402D01*
X219065432Y-95938219D01*
X219053882Y-95916610D01*
X219038337Y-95897668D01*
X219019395Y-95882123D01*
X218997784Y-95870572D01*
X218974335Y-95863459D01*
X218949949Y-95861057D01*
X218925563Y-95863459D01*
X218902114Y-95870572D01*
X218880503Y-95882123D01*
X218861561Y-95897668D01*
X218846016Y-95916610D01*
X218834465Y-95938221D01*
X218831040Y-95946488D01*
X218831039Y-95946496D01*
X218651041Y-96381048D01*
X218389726Y-96772134D01*
X218057134Y-97104726D01*
X217666048Y-97366041D01*
X217231496Y-97546039D01*
X216827647Y-97626369D01*
X216770179Y-97637800D01*
X216299821Y-97637800D01*
X216242353Y-97626369D01*
X215838504Y-97546039D01*
X215403952Y-97366041D01*
X215012866Y-97104726D01*
X214680274Y-96772134D01*
X214418959Y-96381048D01*
X214289182Y-96067739D01*
X214277636Y-96046138D01*
X214262091Y-96027196D01*
X214243149Y-96011651D01*
X214221538Y-96000100D01*
X214198089Y-95992987D01*
X214173703Y-95990585D01*
X214149317Y-95992987D01*
X214125868Y-96000100D01*
X214104257Y-96011651D01*
X214085315Y-96027196D01*
X214069770Y-96046138D01*
X214058220Y-96067746D01*
X213863660Y-96537456D01*
X213566208Y-96982624D01*
X213187624Y-97361208D01*
X212742456Y-97658660D01*
X212247811Y-97863549D01*
X211985255Y-97915775D01*
X211722701Y-97968000D01*
X211187299Y-97968000D01*
X210924745Y-97915775D01*
X210662189Y-97863549D01*
X210167544Y-97658660D01*
X209722376Y-97361208D01*
X209343792Y-96982624D01*
X209046340Y-96537456D01*
X208891687Y-96164090D01*
X208880136Y-96142480D01*
X208864591Y-96123538D01*
X208845649Y-96107993D01*
X208824038Y-96096442D01*
X208800589Y-96089329D01*
X208776203Y-96086927D01*
X208751817Y-96089329D01*
X208728368Y-96096442D01*
X208706757Y-96107993D01*
X208687815Y-96123538D01*
X208672270Y-96142480D01*
X208660719Y-96164091D01*
X208446436Y-96681417D01*
X208441280Y-96693864D01*
X208107692Y-97193114D01*
X207683114Y-97617692D01*
X207183864Y-97951280D01*
X207183863Y-97951281D01*
X207183862Y-97951281D01*
X206629126Y-98181060D01*
X206040223Y-98298200D01*
X205439777Y-98298200D01*
X204850874Y-98181060D01*
X204296138Y-97951281D01*
X204296137Y-97951281D01*
X204296136Y-97951280D01*
X203796886Y-97617692D01*
X203372308Y-97193114D01*
X203038720Y-96693864D01*
X203033564Y-96681417D01*
X202808940Y-96139126D01*
X202765035Y-95918403D01*
X202757922Y-95894954D01*
X202746371Y-95873343D01*
X202730825Y-95854401D01*
X202711884Y-95838856D01*
X202690273Y-95827305D01*
X202666824Y-95820192D01*
X202642438Y-95817790D01*
X202618052Y-95820192D01*
X202594603Y-95827305D01*
X202572992Y-95838856D01*
X202554050Y-95854402D01*
X202538505Y-95873343D01*
X202526954Y-95894954D01*
X202519842Y-95918399D01*
X202430988Y-96365099D01*
X202259160Y-96779928D01*
X202146915Y-97050913D01*
X202142810Y-97060822D01*
X201724440Y-97686956D01*
X201191956Y-98219440D01*
X200565822Y-98637810D01*
X200565821Y-98637811D01*
X200565820Y-98637811D01*
X200379570Y-98714958D01*
X199870099Y-98925988D01*
X199503043Y-98999000D01*
X199131524Y-99072900D01*
X198378476Y-99072900D01*
X198006957Y-98999000D01*
X197639901Y-98925988D01*
X197130430Y-98714958D01*
X196944180Y-98637811D01*
X196944179Y-98637811D01*
X196944178Y-98637810D01*
X196318044Y-98219440D01*
X195785560Y-97686956D01*
X195367190Y-97060822D01*
X195363086Y-97050913D01*
X195250840Y-96779928D01*
X195079012Y-96365099D01*
X194980555Y-95870124D01*
X194932100Y-95626524D01*
X194932100Y-94873476D01*
X195030316Y-94379711D01*
X195079012Y-94134901D01*
X195289964Y-93625618D01*
X195367189Y-93439180D01*
X195422165Y-93356903D01*
X195785560Y-92813044D01*
X196318044Y-92280560D01*
X196944178Y-91862190D01*
X197639901Y-91574012D01*
X198026051Y-91497202D01*
X198378476Y-91427100D01*
X199131524Y-91427100D01*
X199483949Y-91497202D01*
X199483949Y-91497202D01*
G37*
G36*
X150664928Y-97441764D02*
G01*
X150686009Y-97448160D01*
X150705445Y-97458548D01*
X150722476Y-97472524D01*
X150736452Y-97489555D01*
X150746840Y-97508991D01*
X150753236Y-97530072D01*
X150756000Y-97558140D01*
X150756000Y-98021860D01*
X150753236Y-98049928D01*
X150746840Y-98071009D01*
X150736452Y-98090445D01*
X150722476Y-98107476D01*
X150705445Y-98121452D01*
X150686009Y-98131840D01*
X150664928Y-98138236D01*
X150636860Y-98141000D01*
X148823140Y-98141000D01*
X148795072Y-98138236D01*
X148773991Y-98131840D01*
X148754555Y-98121452D01*
X148737524Y-98107476D01*
X148723548Y-98090445D01*
X148713160Y-98071009D01*
X148706764Y-98049928D01*
X148704000Y-98021860D01*
X148704000Y-97558140D01*
X148706764Y-97530072D01*
X148713160Y-97508991D01*
X148723548Y-97489555D01*
X148737524Y-97472524D01*
X148754555Y-97458548D01*
X148773991Y-97448160D01*
X148795072Y-97441764D01*
X148823140Y-97439000D01*
X150636860Y-97439000D01*
X150664928Y-97441764D01*
X150664928Y-97441764D01*
G37*
G36*
X145714928Y-97441764D02*
G01*
X145736009Y-97448160D01*
X145755445Y-97458548D01*
X145772476Y-97472524D01*
X145786452Y-97489555D01*
X145796840Y-97508991D01*
X145803236Y-97530072D01*
X145806000Y-97558140D01*
X145806000Y-98021860D01*
X145803236Y-98049928D01*
X145796840Y-98071009D01*
X145786452Y-98090445D01*
X145772476Y-98107476D01*
X145755445Y-98121452D01*
X145736009Y-98131840D01*
X145714928Y-98138236D01*
X145686860Y-98141000D01*
X143873140Y-98141000D01*
X143845072Y-98138236D01*
X143823991Y-98131840D01*
X143804555Y-98121452D01*
X143787524Y-98107476D01*
X143773548Y-98090445D01*
X143763160Y-98071009D01*
X143756764Y-98049928D01*
X143754000Y-98021860D01*
X143754000Y-97558140D01*
X143756764Y-97530072D01*
X143763160Y-97508991D01*
X143773548Y-97489555D01*
X143787524Y-97472524D01*
X143804555Y-97458548D01*
X143823991Y-97448160D01*
X143845072Y-97441764D01*
X143873140Y-97439000D01*
X145686860Y-97439000D01*
X145714928Y-97441764D01*
X145714928Y-97441764D01*
G37*
G36*
X156451000Y-97851000D02*
G01*
X155289000Y-97851000D01*
X155289000Y-97099000D01*
X156451000Y-97099000D01*
X156451000Y-97851000D01*
X156451000Y-97851000D01*
G37*
G36*
X81331000Y-96888500D02*
G01*
X76149000Y-96888500D01*
X76149000Y-94881500D01*
X81331000Y-94881500D01*
X81331000Y-96888500D01*
X81331000Y-96888500D01*
G37*
G36*
X145714928Y-96171764D02*
G01*
X145736009Y-96178160D01*
X145755445Y-96188548D01*
X145772476Y-96202524D01*
X145786452Y-96219555D01*
X145796840Y-96238991D01*
X145803236Y-96260072D01*
X145806000Y-96288140D01*
X145806000Y-96751860D01*
X145803236Y-96779928D01*
X145796840Y-96801009D01*
X145786452Y-96820445D01*
X145772476Y-96837476D01*
X145755445Y-96851452D01*
X145736009Y-96861840D01*
X145714928Y-96868236D01*
X145686860Y-96871000D01*
X143873140Y-96871000D01*
X143845072Y-96868236D01*
X143823991Y-96861840D01*
X143804555Y-96851452D01*
X143787524Y-96837476D01*
X143773548Y-96820445D01*
X143763160Y-96801009D01*
X143756764Y-96779928D01*
X143754000Y-96751860D01*
X143754000Y-96288140D01*
X143756764Y-96260072D01*
X143763160Y-96238991D01*
X143773548Y-96219555D01*
X143787524Y-96202524D01*
X143804555Y-96188548D01*
X143823991Y-96178160D01*
X143845072Y-96171764D01*
X143873140Y-96169000D01*
X145686860Y-96169000D01*
X145714928Y-96171764D01*
X145714928Y-96171764D01*
G37*
G36*
X150664928Y-96171764D02*
G01*
X150686009Y-96178160D01*
X150705445Y-96188548D01*
X150722476Y-96202524D01*
X150736452Y-96219555D01*
X150746840Y-96238991D01*
X150753236Y-96260072D01*
X150756000Y-96288140D01*
X150756000Y-96751860D01*
X150753236Y-96779928D01*
X150746840Y-96801009D01*
X150736452Y-96820445D01*
X150722476Y-96837476D01*
X150705445Y-96851452D01*
X150686009Y-96861840D01*
X150664928Y-96868236D01*
X150636860Y-96871000D01*
X148823140Y-96871000D01*
X148795072Y-96868236D01*
X148773991Y-96861840D01*
X148754555Y-96851452D01*
X148737524Y-96837476D01*
X148723548Y-96820445D01*
X148713160Y-96801009D01*
X148706764Y-96779928D01*
X148704000Y-96751860D01*
X148704000Y-96288140D01*
X148706764Y-96260072D01*
X148713160Y-96238991D01*
X148723548Y-96219555D01*
X148737524Y-96202524D01*
X148754555Y-96188548D01*
X148773991Y-96178160D01*
X148795072Y-96171764D01*
X148823140Y-96169000D01*
X150636860Y-96169000D01*
X150664928Y-96171764D01*
X150664928Y-96171764D01*
G37*
G36*
X81331000Y-94031000D02*
G01*
X76149000Y-94031000D01*
X76149000Y-92659000D01*
X81331000Y-92659000D01*
X81331000Y-94031000D01*
X81331000Y-94031000D01*
G37*
G36*
X223202564Y-85245099D02*
G01*
X223444126Y-85293149D01*
X224126765Y-85575907D01*
X224741123Y-85986408D01*
X225263592Y-86508877D01*
X225674093Y-87123235D01*
X225956851Y-87805874D01*
X225989513Y-87970077D01*
X226101000Y-88530557D01*
X226101000Y-89269443D01*
X226017773Y-89687852D01*
X225956851Y-89994126D01*
X225674093Y-90676765D01*
X225263592Y-91291123D01*
X224741123Y-91813592D01*
X224126765Y-92224093D01*
X223444126Y-92506851D01*
X223202564Y-92554901D01*
X222719443Y-92651000D01*
X221980557Y-92651000D01*
X221497436Y-92554901D01*
X221255874Y-92506851D01*
X220573235Y-92224093D01*
X219958877Y-91813592D01*
X219436408Y-91291123D01*
X219025907Y-90676765D01*
X218743149Y-89994126D01*
X218692209Y-89738034D01*
X218685097Y-89714588D01*
X218673546Y-89692977D01*
X218658001Y-89674035D01*
X218639059Y-89658490D01*
X218617448Y-89646939D01*
X218593999Y-89639826D01*
X218569613Y-89637424D01*
X218545227Y-89639826D01*
X218521778Y-89646939D01*
X218500167Y-89658490D01*
X218481225Y-89674035D01*
X218465680Y-89692977D01*
X218454129Y-89714588D01*
X218447016Y-89738037D01*
X218427988Y-89833696D01*
X218187654Y-90413912D01*
X218186689Y-90416242D01*
X217836379Y-90940518D01*
X217390518Y-91386379D01*
X216866242Y-91736689D01*
X216866241Y-91736690D01*
X216866240Y-91736690D01*
X216283696Y-91977988D01*
X215665272Y-92101000D01*
X215034728Y-92101000D01*
X214416304Y-91977988D01*
X213833760Y-91736690D01*
X213833759Y-91736690D01*
X213833758Y-91736689D01*
X213309482Y-91386379D01*
X212863621Y-90940518D01*
X212513311Y-90416242D01*
X212512346Y-90413912D01*
X212272012Y-89833696D01*
X212217699Y-89560648D01*
X212210586Y-89537199D01*
X212199035Y-89515588D01*
X212183490Y-89496646D01*
X212164548Y-89481101D01*
X212142937Y-89469550D01*
X212119488Y-89462437D01*
X212095102Y-89460035D01*
X212070716Y-89462437D01*
X212047267Y-89469550D01*
X212025656Y-89481101D01*
X212006714Y-89496646D01*
X211991169Y-89515588D01*
X211979618Y-89537199D01*
X211972505Y-89560648D01*
X211947203Y-89687853D01*
X211743596Y-90179402D01*
X211741582Y-90182416D01*
X211448004Y-90621787D01*
X211071787Y-90998004D01*
X210986965Y-91054680D01*
X210629402Y-91293596D01*
X210137852Y-91497203D01*
X209616027Y-91601000D01*
X209083973Y-91601000D01*
X208562148Y-91497203D01*
X208070598Y-91293596D01*
X207713035Y-91054680D01*
X207628213Y-90998004D01*
X207251996Y-90621787D01*
X206958418Y-90182416D01*
X206956404Y-90179402D01*
X206752797Y-89687852D01*
X206692209Y-89383256D01*
X206685096Y-89359807D01*
X206673545Y-89338196D01*
X206658000Y-89319254D01*
X206639058Y-89303709D01*
X206617447Y-89292158D01*
X206593998Y-89285045D01*
X206569612Y-89282643D01*
X206545226Y-89285045D01*
X206521777Y-89292158D01*
X206500166Y-89303709D01*
X206481224Y-89319254D01*
X206465679Y-89338196D01*
X206454128Y-89359807D01*
X206447015Y-89383256D01*
X206418339Y-89527424D01*
X206258596Y-89913078D01*
X206256192Y-89918881D01*
X206020791Y-90271183D01*
X205721183Y-90570791D01*
X205368881Y-90806192D01*
X205368880Y-90806193D01*
X205368879Y-90806193D01*
X204977423Y-90968339D01*
X204561856Y-91051000D01*
X204138144Y-91051000D01*
X203722577Y-90968339D01*
X203331121Y-90806193D01*
X203331120Y-90806193D01*
X203331119Y-90806192D01*
X202978817Y-90570791D01*
X202679209Y-90271183D01*
X202443808Y-89918881D01*
X202441404Y-89913078D01*
X202330185Y-89644570D01*
X202318634Y-89622959D01*
X202303089Y-89604018D01*
X202284147Y-89588472D01*
X202262536Y-89576921D01*
X202239087Y-89569808D01*
X202214701Y-89567406D01*
X202190315Y-89569808D01*
X202166866Y-89576921D01*
X202145255Y-89588472D01*
X202126314Y-89604017D01*
X202110768Y-89622959D01*
X202099217Y-89644570D01*
X202060190Y-89738788D01*
X202034644Y-89800461D01*
X201826603Y-90111817D01*
X201561817Y-90376603D01*
X201250461Y-90584644D01*
X201250460Y-90584645D01*
X201250459Y-90584645D01*
X201166007Y-90619626D01*
X200904501Y-90727946D01*
X200537233Y-90801000D01*
X200162767Y-90801000D01*
X199979134Y-90764473D01*
X199795499Y-90727946D01*
X199533993Y-90619626D01*
X199449541Y-90584645D01*
X199449540Y-90584645D01*
X199449539Y-90584644D01*
X199138183Y-90376603D01*
X198873397Y-90111817D01*
X198665356Y-89800461D01*
X198639678Y-89738468D01*
X198580185Y-89594841D01*
X198568634Y-89573230D01*
X198553089Y-89554288D01*
X198534147Y-89538743D01*
X198512536Y-89527192D01*
X198489087Y-89520079D01*
X198464701Y-89517677D01*
X198440315Y-89520079D01*
X198416866Y-89527192D01*
X198395255Y-89538743D01*
X198376313Y-89554288D01*
X198360768Y-89573230D01*
X198349217Y-89594841D01*
X198328619Y-89644570D01*
X198313097Y-89682042D01*
X198132415Y-89952451D01*
X197902451Y-90182415D01*
X197632042Y-90363097D01*
X197331579Y-90487553D01*
X197245229Y-90504729D01*
X197012611Y-90551000D01*
X196687389Y-90551000D01*
X196454771Y-90504729D01*
X196368421Y-90487553D01*
X196067958Y-90363097D01*
X195797549Y-90182415D01*
X195567585Y-89952451D01*
X195386903Y-89682042D01*
X195371382Y-89644570D01*
X195336620Y-89560648D01*
X195262447Y-89381579D01*
X195229366Y-89215271D01*
X195199000Y-89062611D01*
X195199000Y-88737389D01*
X195253818Y-88461803D01*
X195262447Y-88418421D01*
X195354584Y-88195982D01*
X195386902Y-88117960D01*
X195466027Y-87999541D01*
X195567585Y-87847549D01*
X195797549Y-87617585D01*
X196067958Y-87436903D01*
X196368421Y-87312447D01*
X196474744Y-87291298D01*
X196687389Y-87249000D01*
X197012611Y-87249000D01*
X197225256Y-87291298D01*
X197331579Y-87312447D01*
X197632042Y-87436903D01*
X197902451Y-87617585D01*
X198132415Y-87847549D01*
X198233973Y-87999541D01*
X198313098Y-88117960D01*
X198349217Y-88205159D01*
X198360768Y-88226770D01*
X198376313Y-88245712D01*
X198395255Y-88261257D01*
X198416866Y-88272808D01*
X198440315Y-88279921D01*
X198464701Y-88282323D01*
X198489087Y-88279921D01*
X198512536Y-88272808D01*
X198534147Y-88261257D01*
X198553089Y-88245712D01*
X198568634Y-88226770D01*
X198580185Y-88205159D01*
X198665355Y-87999541D01*
X198707932Y-87935820D01*
X198873397Y-87688183D01*
X199138183Y-87423397D01*
X199449539Y-87215356D01*
X199795499Y-87072054D01*
X200088016Y-87013869D01*
X200162767Y-86999000D01*
X200537233Y-86999000D01*
X200611984Y-87013869D01*
X200904501Y-87072054D01*
X201250461Y-87215356D01*
X201561817Y-87423397D01*
X201826603Y-87688183D01*
X201992068Y-87935820D01*
X202034645Y-87999541D01*
X202099217Y-88155430D01*
X202110768Y-88177041D01*
X202126314Y-88195983D01*
X202145256Y-88211528D01*
X202166866Y-88223079D01*
X202190315Y-88230192D01*
X202214701Y-88232594D01*
X202239087Y-88230192D01*
X202262536Y-88223079D01*
X202284147Y-88211528D01*
X202303089Y-88195982D01*
X202318634Y-88177040D01*
X202330185Y-88155430D01*
X202443807Y-87881121D01*
X202466200Y-87847607D01*
X202679209Y-87528817D01*
X202978817Y-87229209D01*
X203331119Y-86993808D01*
X203331121Y-86993807D01*
X203722577Y-86831661D01*
X204138144Y-86749000D01*
X204561856Y-86749000D01*
X204977423Y-86831661D01*
X205368879Y-86993807D01*
X205368881Y-86993808D01*
X205721183Y-87229209D01*
X206020791Y-87528817D01*
X206233800Y-87847607D01*
X206256193Y-87881121D01*
X206418339Y-88272576D01*
X206447015Y-88416744D01*
X206454128Y-88440193D01*
X206465679Y-88461803D01*
X206481224Y-88480745D01*
X206500166Y-88496291D01*
X206521776Y-88507842D01*
X206545225Y-88514955D01*
X206569611Y-88517357D01*
X206593998Y-88514955D01*
X206617447Y-88507842D01*
X206639057Y-88496291D01*
X206657999Y-88480746D01*
X206673545Y-88461804D01*
X206685096Y-88440194D01*
X206692209Y-88416744D01*
X206752797Y-88112148D01*
X206956404Y-87620598D01*
X207114654Y-87383760D01*
X207251996Y-87178213D01*
X207628213Y-86801996D01*
X208027596Y-86535137D01*
X208070598Y-86506404D01*
X208562148Y-86302797D01*
X209083973Y-86199000D01*
X209616027Y-86199000D01*
X210137852Y-86302797D01*
X210629402Y-86506404D01*
X210672404Y-86535137D01*
X211071787Y-86801996D01*
X211448004Y-87178213D01*
X211585346Y-87383760D01*
X211743596Y-87620598D01*
X211947203Y-88112147D01*
X211972505Y-88239352D01*
X211979618Y-88262801D01*
X211991169Y-88284411D01*
X212006714Y-88303353D01*
X212025656Y-88318899D01*
X212047267Y-88330450D01*
X212070715Y-88337563D01*
X212095102Y-88339965D01*
X212119488Y-88337563D01*
X212142937Y-88330450D01*
X212164547Y-88318899D01*
X212183489Y-88303354D01*
X212199035Y-88284412D01*
X212210586Y-88262801D01*
X212217699Y-88239352D01*
X212272012Y-87966304D01*
X212513310Y-87383760D01*
X212560960Y-87312447D01*
X212863621Y-86859482D01*
X213309482Y-86413621D01*
X213833758Y-86063311D01*
X213833760Y-86063310D01*
X214416304Y-85822012D01*
X215034728Y-85699000D01*
X215665272Y-85699000D01*
X216283696Y-85822012D01*
X216866240Y-86063310D01*
X216866242Y-86063311D01*
X217390518Y-86413621D01*
X217836379Y-86859482D01*
X218139041Y-87312447D01*
X218186690Y-87383760D01*
X218427988Y-87966304D01*
X218447016Y-88061963D01*
X218454129Y-88085412D01*
X218465680Y-88107023D01*
X218481225Y-88125965D01*
X218500167Y-88141510D01*
X218521778Y-88153061D01*
X218545227Y-88160174D01*
X218569613Y-88162576D01*
X218593999Y-88160174D01*
X218617448Y-88153061D01*
X218639059Y-88141510D01*
X218658001Y-88125965D01*
X218673546Y-88107023D01*
X218685097Y-88085412D01*
X218692210Y-88061963D01*
X218707221Y-87986499D01*
X218743149Y-87805874D01*
X219025907Y-87123235D01*
X219436408Y-86508877D01*
X219958877Y-85986408D01*
X220573235Y-85575907D01*
X221255874Y-85293149D01*
X221497436Y-85245099D01*
X221980557Y-85149000D01*
X222719443Y-85149000D01*
X223202564Y-85245099D01*
X223202564Y-85245099D01*
G37*
G36*
X81331000Y-91999000D02*
G01*
X76149000Y-91999000D01*
X76149000Y-90881000D01*
X81331000Y-90881000D01*
X81331000Y-91999000D01*
X81331000Y-91999000D01*
G37*
G36*
X162310604Y-88232347D02*
G01*
X162347144Y-88243432D01*
X162380821Y-88261433D01*
X162410341Y-88285659D01*
X162434567Y-88315179D01*
X162452568Y-88348856D01*
X162463653Y-88385396D01*
X162468000Y-88429538D01*
X162468000Y-89878462D01*
X162463653Y-89922604D01*
X162452568Y-89959144D01*
X162434567Y-89992821D01*
X162410341Y-90022341D01*
X162380821Y-90046567D01*
X162347144Y-90064568D01*
X162310604Y-90075653D01*
X162266462Y-90080000D01*
X161317538Y-90080000D01*
X161273396Y-90075653D01*
X161236856Y-90064568D01*
X161203179Y-90046567D01*
X161173659Y-90022341D01*
X161149433Y-89992821D01*
X161131432Y-89959144D01*
X161120347Y-89922604D01*
X161116000Y-89878462D01*
X161116000Y-88429538D01*
X161120347Y-88385396D01*
X161131432Y-88348856D01*
X161149433Y-88315179D01*
X161173659Y-88285659D01*
X161203179Y-88261433D01*
X161236856Y-88243432D01*
X161273396Y-88232347D01*
X161317538Y-88228000D01*
X162266462Y-88228000D01*
X162310604Y-88232347D01*
X162310604Y-88232347D01*
G37*
G36*
X165110604Y-88232347D02*
G01*
X165147144Y-88243432D01*
X165180821Y-88261433D01*
X165210341Y-88285659D01*
X165234567Y-88315179D01*
X165252568Y-88348856D01*
X165263653Y-88385396D01*
X165268000Y-88429538D01*
X165268000Y-89878462D01*
X165263653Y-89922604D01*
X165252568Y-89959144D01*
X165234567Y-89992821D01*
X165210341Y-90022341D01*
X165180821Y-90046567D01*
X165147144Y-90064568D01*
X165110604Y-90075653D01*
X165066462Y-90080000D01*
X164117538Y-90080000D01*
X164073396Y-90075653D01*
X164036856Y-90064568D01*
X164003179Y-90046567D01*
X163973659Y-90022341D01*
X163949433Y-89992821D01*
X163931432Y-89959144D01*
X163920347Y-89922604D01*
X163916000Y-89878462D01*
X163916000Y-88429538D01*
X163920347Y-88385396D01*
X163931432Y-88348856D01*
X163949433Y-88315179D01*
X163973659Y-88285659D01*
X164003179Y-88261433D01*
X164036856Y-88243432D01*
X164073396Y-88232347D01*
X164117538Y-88228000D01*
X165066462Y-88228000D01*
X165110604Y-88232347D01*
X165110604Y-88232347D01*
G37*
G36*
X81331000Y-89967000D02*
G01*
X76149000Y-89967000D01*
X76149000Y-89103000D01*
X81331000Y-89103000D01*
X81331000Y-89967000D01*
X81331000Y-89967000D01*
G37*
G36*
X101676000Y-89911000D02*
G01*
X101324000Y-89911000D01*
X101324000Y-88809000D01*
X101676000Y-88809000D01*
X101676000Y-89911000D01*
X101676000Y-89911000D01*
G37*
G36*
X102476000Y-89911000D02*
G01*
X102124000Y-89911000D01*
X102124000Y-88809000D01*
X102476000Y-88809000D01*
X102476000Y-89911000D01*
X102476000Y-89911000D01*
G37*
G36*
X104076000Y-89911000D02*
G01*
X103724000Y-89911000D01*
X103724000Y-88809000D01*
X104076000Y-88809000D01*
X104076000Y-89911000D01*
X104076000Y-89911000D01*
G37*
G36*
X103276000Y-89911000D02*
G01*
X102924000Y-89911000D01*
X102924000Y-88809000D01*
X103276000Y-88809000D01*
X103276000Y-89911000D01*
X103276000Y-89911000D01*
G37*
G36*
X106476000Y-89911000D02*
G01*
X106124000Y-89911000D01*
X106124000Y-88809000D01*
X106476000Y-88809000D01*
X106476000Y-89911000D01*
X106476000Y-89911000D01*
G37*
G36*
X107276000Y-89911000D02*
G01*
X106924000Y-89911000D01*
X106924000Y-88809000D01*
X107276000Y-88809000D01*
X107276000Y-89911000D01*
X107276000Y-89911000D01*
G37*
G36*
X105676000Y-89911000D02*
G01*
X105324000Y-89911000D01*
X105324000Y-88809000D01*
X105676000Y-88809000D01*
X105676000Y-89911000D01*
X105676000Y-89911000D01*
G37*
G36*
X108876000Y-89911000D02*
G01*
X108524000Y-89911000D01*
X108524000Y-88809000D01*
X108876000Y-88809000D01*
X108876000Y-89911000D01*
X108876000Y-89911000D01*
G37*
G36*
X108076000Y-89911000D02*
G01*
X107724000Y-89911000D01*
X107724000Y-88809000D01*
X108076000Y-88809000D01*
X108076000Y-89911000D01*
X108076000Y-89911000D01*
G37*
G36*
X104876000Y-89911000D02*
G01*
X104524000Y-89911000D01*
X104524000Y-88809000D01*
X104876000Y-88809000D01*
X104876000Y-89911000D01*
X104876000Y-89911000D01*
G37*
G36*
X159218968Y-88407565D02*
G01*
X159257638Y-88419296D01*
X159293277Y-88438346D01*
X159324517Y-88463983D01*
X159350154Y-88495223D01*
X159369204Y-88530862D01*
X159380935Y-88569532D01*
X159385500Y-88615888D01*
X159385500Y-89692112D01*
X159380935Y-89738468D01*
X159369204Y-89777138D01*
X159350154Y-89812777D01*
X159324517Y-89844017D01*
X159293277Y-89869654D01*
X159257638Y-89888704D01*
X159218968Y-89900435D01*
X159172612Y-89905000D01*
X158521388Y-89905000D01*
X158475032Y-89900435D01*
X158436362Y-89888704D01*
X158400723Y-89869654D01*
X158369483Y-89844017D01*
X158343846Y-89812777D01*
X158324796Y-89777138D01*
X158313065Y-89738468D01*
X158308500Y-89692112D01*
X158308500Y-88615888D01*
X158313065Y-88569532D01*
X158324796Y-88530862D01*
X158343846Y-88495223D01*
X158369483Y-88463983D01*
X158400723Y-88438346D01*
X158436362Y-88419296D01*
X158475032Y-88407565D01*
X158521388Y-88403000D01*
X159172612Y-88403000D01*
X159218968Y-88407565D01*
X159218968Y-88407565D01*
G37*
G36*
X157343968Y-88407565D02*
G01*
X157382638Y-88419296D01*
X157418277Y-88438346D01*
X157449517Y-88463983D01*
X157475154Y-88495223D01*
X157494204Y-88530862D01*
X157505935Y-88569532D01*
X157510500Y-88615888D01*
X157510500Y-89692112D01*
X157505935Y-89738468D01*
X157494204Y-89777138D01*
X157475154Y-89812777D01*
X157449517Y-89844017D01*
X157418277Y-89869654D01*
X157382638Y-89888704D01*
X157343968Y-89900435D01*
X157297612Y-89905000D01*
X156646388Y-89905000D01*
X156600032Y-89900435D01*
X156561362Y-89888704D01*
X156525723Y-89869654D01*
X156494483Y-89844017D01*
X156468846Y-89812777D01*
X156449796Y-89777138D01*
X156438065Y-89738468D01*
X156433500Y-89692112D01*
X156433500Y-88615888D01*
X156438065Y-88569532D01*
X156449796Y-88530862D01*
X156468846Y-88495223D01*
X156494483Y-88463983D01*
X156525723Y-88438346D01*
X156561362Y-88419296D01*
X156600032Y-88407565D01*
X156646388Y-88403000D01*
X157297612Y-88403000D01*
X157343968Y-88407565D01*
X157343968Y-88407565D01*
G37*
G36*
X152716591Y-88632085D02*
G01*
X152750569Y-88642393D01*
X152781890Y-88659134D01*
X152809339Y-88681661D01*
X152831866Y-88709110D01*
X152848607Y-88740431D01*
X152858915Y-88774409D01*
X152863000Y-88815890D01*
X152863000Y-89492110D01*
X152858915Y-89533591D01*
X152848607Y-89567569D01*
X152831866Y-89598890D01*
X152809339Y-89626339D01*
X152781890Y-89648866D01*
X152750569Y-89665607D01*
X152716591Y-89675915D01*
X152675110Y-89680000D01*
X152073890Y-89680000D01*
X152032409Y-89675915D01*
X151998431Y-89665607D01*
X151967110Y-89648866D01*
X151939661Y-89626339D01*
X151917134Y-89598890D01*
X151900393Y-89567569D01*
X151890085Y-89533591D01*
X151886000Y-89492110D01*
X151886000Y-88815890D01*
X151890085Y-88774409D01*
X151900393Y-88740431D01*
X151917134Y-88709110D01*
X151939661Y-88681661D01*
X151967110Y-88659134D01*
X151998431Y-88642393D01*
X152032409Y-88632085D01*
X152073890Y-88628000D01*
X152675110Y-88628000D01*
X152716591Y-88632085D01*
X152716591Y-88632085D01*
G37*
G36*
X154291591Y-88632085D02*
G01*
X154325569Y-88642393D01*
X154356890Y-88659134D01*
X154384339Y-88681661D01*
X154406866Y-88709110D01*
X154423607Y-88740431D01*
X154433915Y-88774409D01*
X154438000Y-88815890D01*
X154438000Y-89492110D01*
X154433915Y-89533591D01*
X154423607Y-89567569D01*
X154406866Y-89598890D01*
X154384339Y-89626339D01*
X154356890Y-89648866D01*
X154325569Y-89665607D01*
X154291591Y-89675915D01*
X154250110Y-89680000D01*
X153648890Y-89680000D01*
X153607409Y-89675915D01*
X153573431Y-89665607D01*
X153542110Y-89648866D01*
X153514661Y-89626339D01*
X153492134Y-89598890D01*
X153475393Y-89567569D01*
X153465085Y-89533591D01*
X153461000Y-89492110D01*
X153461000Y-88815890D01*
X153465085Y-88774409D01*
X153475393Y-88740431D01*
X153492134Y-88709110D01*
X153514661Y-88681661D01*
X153542110Y-88659134D01*
X153573431Y-88642393D01*
X153607409Y-88632085D01*
X153648890Y-88628000D01*
X154250110Y-88628000D01*
X154291591Y-88632085D01*
X154291591Y-88632085D01*
G37*
G36*
X149308938Y-88785716D02*
G01*
X149329557Y-88791971D01*
X149348553Y-88802124D01*
X149365208Y-88815792D01*
X149378876Y-88832447D01*
X149389029Y-88851443D01*
X149395284Y-88872062D01*
X149398000Y-88899640D01*
X149398000Y-89408360D01*
X149395284Y-89435938D01*
X149389029Y-89456557D01*
X149378876Y-89475553D01*
X149365208Y-89492208D01*
X149348553Y-89505876D01*
X149329557Y-89516029D01*
X149308938Y-89522284D01*
X149281360Y-89525000D01*
X148822640Y-89525000D01*
X148795062Y-89522284D01*
X148774443Y-89516029D01*
X148755447Y-89505876D01*
X148738792Y-89492208D01*
X148725124Y-89475553D01*
X148714971Y-89456557D01*
X148708716Y-89435938D01*
X148706000Y-89408360D01*
X148706000Y-88899640D01*
X148708716Y-88872062D01*
X148714971Y-88851443D01*
X148725124Y-88832447D01*
X148738792Y-88815792D01*
X148755447Y-88802124D01*
X148774443Y-88791971D01*
X148795062Y-88785716D01*
X148822640Y-88783000D01*
X149281360Y-88783000D01*
X149308938Y-88785716D01*
X149308938Y-88785716D01*
G37*
G36*
X148338938Y-88785716D02*
G01*
X148359557Y-88791971D01*
X148378553Y-88802124D01*
X148395208Y-88815792D01*
X148408876Y-88832447D01*
X148419029Y-88851443D01*
X148425284Y-88872062D01*
X148428000Y-88899640D01*
X148428000Y-89408360D01*
X148425284Y-89435938D01*
X148419029Y-89456557D01*
X148408876Y-89475553D01*
X148395208Y-89492208D01*
X148378553Y-89505876D01*
X148359557Y-89516029D01*
X148338938Y-89522284D01*
X148311360Y-89525000D01*
X147852640Y-89525000D01*
X147825062Y-89522284D01*
X147804443Y-89516029D01*
X147785447Y-89505876D01*
X147768792Y-89492208D01*
X147755124Y-89475553D01*
X147744971Y-89456557D01*
X147738716Y-89435938D01*
X147736000Y-89408360D01*
X147736000Y-88899640D01*
X147738716Y-88872062D01*
X147744971Y-88851443D01*
X147755124Y-88832447D01*
X147768792Y-88815792D01*
X147785447Y-88802124D01*
X147804443Y-88791971D01*
X147825062Y-88785716D01*
X147852640Y-88783000D01*
X148311360Y-88783000D01*
X148338938Y-88785716D01*
X148338938Y-88785716D01*
G37*
G36*
X144182170Y-88904803D02*
G01*
X144193877Y-88908355D01*
X144213077Y-88918617D01*
X144235716Y-88927994D01*
X144259749Y-88932774D01*
X144284253Y-88932774D01*
X144308286Y-88927993D01*
X144330923Y-88918617D01*
X144350123Y-88908355D01*
X144361830Y-88904803D01*
X144380138Y-88903000D01*
X144803862Y-88903000D01*
X144822170Y-88904803D01*
X144833875Y-88908354D01*
X144844665Y-88914121D01*
X144854119Y-88921881D01*
X144861879Y-88931335D01*
X144867646Y-88942125D01*
X144871197Y-88953830D01*
X144873000Y-88972138D01*
X144873000Y-89335862D01*
X144871197Y-89354170D01*
X144867646Y-89365875D01*
X144861879Y-89376665D01*
X144854119Y-89386119D01*
X144844665Y-89393879D01*
X144833875Y-89399646D01*
X144822170Y-89403197D01*
X144803862Y-89405000D01*
X144380138Y-89405000D01*
X144361830Y-89403197D01*
X144350123Y-89399645D01*
X144330923Y-89389383D01*
X144308284Y-89380006D01*
X144284251Y-89375226D01*
X144259747Y-89375226D01*
X144235714Y-89380007D01*
X144213077Y-89389383D01*
X144193877Y-89399645D01*
X144182170Y-89403197D01*
X144163862Y-89405000D01*
X143740138Y-89405000D01*
X143721830Y-89403197D01*
X143710125Y-89399646D01*
X143699335Y-89393879D01*
X143689881Y-89386119D01*
X143682121Y-89376665D01*
X143676354Y-89365875D01*
X143672803Y-89354170D01*
X143671000Y-89335862D01*
X143671000Y-88972138D01*
X143672803Y-88953830D01*
X143676354Y-88942125D01*
X143682121Y-88931335D01*
X143689881Y-88921881D01*
X143699335Y-88914121D01*
X143710125Y-88908354D01*
X143721830Y-88904803D01*
X143740138Y-88903000D01*
X144163862Y-88903000D01*
X144182170Y-88904803D01*
X144182170Y-88904803D01*
G37*
G36*
X104951000Y-88411000D02*
G01*
X104599000Y-88411000D01*
X104599000Y-87309000D01*
X104951000Y-87309000D01*
X104951000Y-88411000D01*
X104951000Y-88411000D01*
G37*
G36*
X103001000Y-88411000D02*
G01*
X102649000Y-88411000D01*
X102649000Y-87309000D01*
X103001000Y-87309000D01*
X103001000Y-88411000D01*
X103001000Y-88411000D01*
G37*
G36*
X103651000Y-88411000D02*
G01*
X103299000Y-88411000D01*
X103299000Y-87309000D01*
X103651000Y-87309000D01*
X103651000Y-88411000D01*
X103651000Y-88411000D01*
G37*
G36*
X102351000Y-88411000D02*
G01*
X101999000Y-88411000D01*
X101999000Y-87309000D01*
X102351000Y-87309000D01*
X102351000Y-88411000D01*
X102351000Y-88411000D01*
G37*
G36*
X104301000Y-88411000D02*
G01*
X103949000Y-88411000D01*
X103949000Y-87309000D01*
X104301000Y-87309000D01*
X104301000Y-88411000D01*
X104301000Y-88411000D01*
G37*
G36*
X106251000Y-88411000D02*
G01*
X105899000Y-88411000D01*
X105899000Y-87309000D01*
X106251000Y-87309000D01*
X106251000Y-88411000D01*
X106251000Y-88411000D01*
G37*
G36*
X105601000Y-88411000D02*
G01*
X105249000Y-88411000D01*
X105249000Y-87309000D01*
X105601000Y-87309000D01*
X105601000Y-88411000D01*
X105601000Y-88411000D01*
G37*
G36*
X108201000Y-88411000D02*
G01*
X107849000Y-88411000D01*
X107849000Y-87309000D01*
X108201000Y-87309000D01*
X108201000Y-88411000D01*
X108201000Y-88411000D01*
G37*
G36*
X108851000Y-88411000D02*
G01*
X108499000Y-88411000D01*
X108499000Y-87309000D01*
X108851000Y-87309000D01*
X108851000Y-88411000D01*
X108851000Y-88411000D01*
G37*
G36*
X101701000Y-88411000D02*
G01*
X101349000Y-88411000D01*
X101349000Y-87309000D01*
X101701000Y-87309000D01*
X101701000Y-88411000D01*
X101701000Y-88411000D01*
G37*
G36*
X107551000Y-88411000D02*
G01*
X107199000Y-88411000D01*
X107199000Y-87309000D01*
X107551000Y-87309000D01*
X107551000Y-88411000D01*
X107551000Y-88411000D01*
G37*
G36*
X106901000Y-88411000D02*
G01*
X106549000Y-88411000D01*
X106549000Y-87309000D01*
X106901000Y-87309000D01*
X106901000Y-88411000D01*
X106901000Y-88411000D01*
G37*
G36*
X81331000Y-87935000D02*
G01*
X76149000Y-87935000D01*
X76149000Y-87325000D01*
X81331000Y-87325000D01*
X81331000Y-87935000D01*
X81331000Y-87935000D01*
G37*
G36*
X144844798Y-83622247D02*
G01*
X144880367Y-83633037D01*
X144913139Y-83650554D01*
X144941869Y-83674131D01*
X144965446Y-83702861D01*
X144982963Y-83735633D01*
X144993753Y-83771202D01*
X144998000Y-83814325D01*
X144998000Y-86873675D01*
X144993753Y-86916798D01*
X144982963Y-86952367D01*
X144965446Y-86985139D01*
X144941869Y-87013869D01*
X144913139Y-87037446D01*
X144880367Y-87054963D01*
X144844798Y-87065753D01*
X144801675Y-87070000D01*
X143742325Y-87070000D01*
X143699202Y-87065753D01*
X143663633Y-87054963D01*
X143630861Y-87037446D01*
X143602131Y-87013869D01*
X143578554Y-86985139D01*
X143561037Y-86952367D01*
X143550247Y-86916798D01*
X143546000Y-86873675D01*
X143546000Y-83814325D01*
X143550247Y-83771202D01*
X143561037Y-83735633D01*
X143578554Y-83702861D01*
X143602131Y-83674131D01*
X143630861Y-83650554D01*
X143663633Y-83633037D01*
X143699202Y-83622247D01*
X143742325Y-83618000D01*
X144801675Y-83618000D01*
X144844798Y-83622247D01*
X144844798Y-83622247D01*
G37*
G36*
X150644798Y-83622247D02*
G01*
X150680367Y-83633037D01*
X150713139Y-83650554D01*
X150741869Y-83674131D01*
X150765446Y-83702861D01*
X150782963Y-83735633D01*
X150793753Y-83771202D01*
X150798000Y-83814325D01*
X150798000Y-86873675D01*
X150793753Y-86916798D01*
X150782963Y-86952367D01*
X150765446Y-86985139D01*
X150741869Y-87013869D01*
X150713139Y-87037446D01*
X150680367Y-87054963D01*
X150644798Y-87065753D01*
X150601675Y-87070000D01*
X149542325Y-87070000D01*
X149499202Y-87065753D01*
X149463633Y-87054963D01*
X149430861Y-87037446D01*
X149402131Y-87013869D01*
X149378554Y-86985139D01*
X149361037Y-86952367D01*
X149350247Y-86916798D01*
X149346000Y-86873675D01*
X149346000Y-83814325D01*
X149350247Y-83771202D01*
X149361037Y-83735633D01*
X149378554Y-83702861D01*
X149402131Y-83674131D01*
X149430861Y-83650554D01*
X149463633Y-83633037D01*
X149499202Y-83622247D01*
X149542325Y-83618000D01*
X150601675Y-83618000D01*
X150644798Y-83622247D01*
X150644798Y-83622247D01*
G37*
G36*
X107491000Y-86911000D02*
G01*
X107139000Y-86911000D01*
X107139000Y-85809000D01*
X107491000Y-85809000D01*
X107491000Y-86911000D01*
X107491000Y-86911000D01*
G37*
G36*
X103046000Y-86911000D02*
G01*
X102694000Y-86911000D01*
X102694000Y-85809000D01*
X103046000Y-85809000D01*
X103046000Y-86911000D01*
X103046000Y-86911000D01*
G37*
G36*
X103681000Y-86911000D02*
G01*
X103329000Y-86911000D01*
X103329000Y-85809000D01*
X103681000Y-85809000D01*
X103681000Y-86911000D01*
X103681000Y-86911000D01*
G37*
G36*
X104316000Y-86911000D02*
G01*
X103964000Y-86911000D01*
X103964000Y-85809000D01*
X104316000Y-85809000D01*
X104316000Y-86911000D01*
X104316000Y-86911000D01*
G37*
G36*
X104951000Y-86911000D02*
G01*
X104599000Y-86911000D01*
X104599000Y-85809000D01*
X104951000Y-85809000D01*
X104951000Y-86911000D01*
X104951000Y-86911000D01*
G37*
G36*
X106221000Y-86911000D02*
G01*
X105869000Y-86911000D01*
X105869000Y-85809000D01*
X106221000Y-85809000D01*
X106221000Y-86911000D01*
X106221000Y-86911000D01*
G37*
G36*
X105586000Y-86911000D02*
G01*
X105234000Y-86911000D01*
X105234000Y-85809000D01*
X105586000Y-85809000D01*
X105586000Y-86911000D01*
X105586000Y-86911000D01*
G37*
G36*
X106856000Y-86911000D02*
G01*
X106504000Y-86911000D01*
X106504000Y-85809000D01*
X106856000Y-85809000D01*
X106856000Y-86911000D01*
X106856000Y-86911000D01*
G37*
G36*
X108761000Y-86911000D02*
G01*
X108409000Y-86911000D01*
X108409000Y-85809000D01*
X108761000Y-85809000D01*
X108761000Y-86911000D01*
X108761000Y-86911000D01*
G37*
G36*
X101776000Y-86911000D02*
G01*
X101424000Y-86911000D01*
X101424000Y-85809000D01*
X101776000Y-85809000D01*
X101776000Y-86911000D01*
X101776000Y-86911000D01*
G37*
G36*
X102411000Y-86911000D02*
G01*
X102059000Y-86911000D01*
X102059000Y-85809000D01*
X102411000Y-85809000D01*
X102411000Y-86911000D01*
X102411000Y-86911000D01*
G37*
G36*
X108126000Y-86911000D02*
G01*
X107774000Y-86911000D01*
X107774000Y-85809000D01*
X108126000Y-85809000D01*
X108126000Y-86911000D01*
X108126000Y-86911000D01*
G37*
G36*
X158234798Y-83972247D02*
G01*
X158270367Y-83983037D01*
X158303139Y-84000554D01*
X158331869Y-84024131D01*
X158355446Y-84052861D01*
X158372963Y-84085633D01*
X158383753Y-84121202D01*
X158388000Y-84164325D01*
X158388000Y-86523675D01*
X158383753Y-86566798D01*
X158372963Y-86602367D01*
X158355446Y-86635139D01*
X158331869Y-86663869D01*
X158303139Y-86687446D01*
X158270367Y-86704963D01*
X158234798Y-86715753D01*
X158191675Y-86720000D01*
X157132325Y-86720000D01*
X157089202Y-86715753D01*
X157053633Y-86704963D01*
X157020861Y-86687446D01*
X156992131Y-86663869D01*
X156968554Y-86635139D01*
X156951037Y-86602367D01*
X156940247Y-86566798D01*
X156936000Y-86523675D01*
X156936000Y-84164325D01*
X156940247Y-84121202D01*
X156951037Y-84085633D01*
X156968554Y-84052861D01*
X156992131Y-84024131D01*
X157020861Y-84000554D01*
X157053633Y-83983037D01*
X157089202Y-83972247D01*
X157132325Y-83968000D01*
X158191675Y-83968000D01*
X158234798Y-83972247D01*
X158234798Y-83972247D01*
G37*
G36*
X153734798Y-83972247D02*
G01*
X153770367Y-83983037D01*
X153803139Y-84000554D01*
X153831869Y-84024131D01*
X153855446Y-84052861D01*
X153872963Y-84085633D01*
X153883753Y-84121202D01*
X153888000Y-84164325D01*
X153888000Y-86523675D01*
X153883753Y-86566798D01*
X153872963Y-86602367D01*
X153855446Y-86635139D01*
X153831869Y-86663869D01*
X153803139Y-86687446D01*
X153770367Y-86704963D01*
X153734798Y-86715753D01*
X153691675Y-86720000D01*
X152632325Y-86720000D01*
X152589202Y-86715753D01*
X152553633Y-86704963D01*
X152520861Y-86687446D01*
X152492131Y-86663869D01*
X152468554Y-86635139D01*
X152451037Y-86602367D01*
X152440247Y-86566798D01*
X152436000Y-86523675D01*
X152436000Y-84164325D01*
X152440247Y-84121202D01*
X152451037Y-84085633D01*
X152468554Y-84052861D01*
X152492131Y-84024131D01*
X152520861Y-84000554D01*
X152553633Y-83983037D01*
X152589202Y-83972247D01*
X152632325Y-83968000D01*
X153691675Y-83968000D01*
X153734798Y-83972247D01*
X153734798Y-83972247D01*
G37*
G36*
X81331000Y-86601500D02*
G01*
X76149000Y-86601500D01*
X76149000Y-86118500D01*
X81331000Y-86118500D01*
X81331000Y-86601500D01*
X81331000Y-86601500D01*
G37*
G36*
X165191675Y-84397202D02*
G01*
X165226798Y-84407857D01*
X165259175Y-84425163D01*
X165287550Y-84448450D01*
X165310837Y-84476825D01*
X165328143Y-84509202D01*
X165338798Y-84544325D01*
X165343000Y-84586995D01*
X165343000Y-86101005D01*
X165338798Y-86143675D01*
X165328143Y-86178798D01*
X165310837Y-86211175D01*
X165287550Y-86239550D01*
X165259175Y-86262837D01*
X165226798Y-86280143D01*
X165191675Y-86290798D01*
X165149005Y-86295000D01*
X164034995Y-86295000D01*
X163992325Y-86290798D01*
X163957202Y-86280143D01*
X163924825Y-86262837D01*
X163896450Y-86239550D01*
X163873163Y-86211175D01*
X163855857Y-86178798D01*
X163845202Y-86143675D01*
X163841000Y-86101005D01*
X163841000Y-84586995D01*
X163845202Y-84544325D01*
X163855857Y-84509202D01*
X163873163Y-84476825D01*
X163896450Y-84448450D01*
X163924825Y-84425163D01*
X163957202Y-84407857D01*
X163992325Y-84397202D01*
X164034995Y-84393000D01*
X165149005Y-84393000D01*
X165191675Y-84397202D01*
X165191675Y-84397202D01*
G37*
G36*
X161191675Y-84397202D02*
G01*
X161226798Y-84407857D01*
X161259175Y-84425163D01*
X161287550Y-84448450D01*
X161310837Y-84476825D01*
X161328143Y-84509202D01*
X161338798Y-84544325D01*
X161343000Y-84586995D01*
X161343000Y-86101005D01*
X161338798Y-86143675D01*
X161328143Y-86178798D01*
X161310837Y-86211175D01*
X161287550Y-86239550D01*
X161259175Y-86262837D01*
X161226798Y-86280143D01*
X161191675Y-86290798D01*
X161149005Y-86295000D01*
X160034995Y-86295000D01*
X159992325Y-86290798D01*
X159957202Y-86280143D01*
X159924825Y-86262837D01*
X159896450Y-86239550D01*
X159873163Y-86211175D01*
X159855857Y-86178798D01*
X159845202Y-86143675D01*
X159841000Y-86101005D01*
X159841000Y-84586995D01*
X159845202Y-84544325D01*
X159855857Y-84509202D01*
X159873163Y-84476825D01*
X159896450Y-84448450D01*
X159924825Y-84425163D01*
X159957202Y-84407857D01*
X159992325Y-84397202D01*
X160034995Y-84393000D01*
X161149005Y-84393000D01*
X161191675Y-84397202D01*
X161191675Y-84397202D01*
G37*
G36*
X108776000Y-85411000D02*
G01*
X101424000Y-85411000D01*
X101424000Y-84309000D01*
X108776000Y-84309000D01*
X108776000Y-85411000D01*
X108776000Y-85411000D01*
G37*
G36*
X81331000Y-85293400D02*
G01*
X76149000Y-85293400D01*
X76149000Y-84886600D01*
X81331000Y-84886600D01*
X81331000Y-85293400D01*
X81331000Y-85293400D01*
G37*
G36*
X81331000Y-83998000D02*
G01*
X76149000Y-83998000D01*
X76149000Y-83642000D01*
X81331000Y-83642000D01*
X81331000Y-83998000D01*
X81331000Y-83998000D01*
G37*
G36*
X108676000Y-83711000D02*
G01*
X101524000Y-83711000D01*
X101524000Y-82609000D01*
X108676000Y-82609000D01*
X108676000Y-83711000D01*
X108676000Y-83711000D01*
G37*
G36*
X81331000Y-82702600D02*
G01*
X76149000Y-82702600D01*
X76149000Y-82397400D01*
X81331000Y-82397400D01*
X81331000Y-82702600D01*
X81331000Y-82702600D01*
G37*
M02*
