M48
; DRILL file {KiCad (5.1.4)-1} date 8/8/2020 6:08:11 PM
; FORMAT={2:4/ absolute / inch / suppress trailing zeros}
; #@! TF.CreationDate,2020-08-08T18:08:11-04:00
; #@! TF.GenerationSoftware,Kicad,Pcbnew,(5.1.4)-1
; #@! TF.FileFunction,Plated,1,2,PTH
FMAT,2
INCH,LZ
T1C0.0120
T2C0.0150
T3C0.0190
T4C0.0240
T5C0.0300
T6C0.0380
T7C0.0480
T8C0.0600
T9C0.0760
T10C0.0866
T11C0.0890
T12C0.0960
T13C0.1063
T14C0.1160
T15C0.1260
T16C0.1440
T17C0.1693
T18C0.1700
T19C0.1960
T20C0.2087
T21C0.2520
T22C0.2570
%
G90
G05
T1
X0375Y-0401
T2
X0375Y-0396
T3
X0375Y-0391
T4
X0375Y-0386
T5
X0375Y-0381
T6
X0375Y-0375
T7
X0375Y-0368
T8
X0375Y-036
T9
X0375Y-0351
T10
X0775Y-035
T11
X0885Y-0375
T12
X0375Y-034
T13
X078878Y-035
T14
X087Y-0375
X0375Y-0327
T15
X080453Y-035
T16
X08525Y-0375
T17
X082421Y-035
T18
X08325Y-0375
T19
X081Y-0375
T20
X084783Y-035
T21
X087539Y-035
T22
X07825Y-0375
T0
M30
